<?xml version="1.0" encoding="UTF-8"?>
<svg id="Layer_1" data-name="Layer 1" xmlns="http://www.w3.org/2000/svg" version="1.1" xmlns:xlink="http://www.w3.org/1999/xlink" viewBox="0 0 326.52 99.43">
  <defs>
    <style>
      .cls-1, .cls-2, .cls-3, .cls-4, .cls-5, .cls-6, .cls-7, .cls-8, .cls-9, .cls-10, .cls-11 {
        stroke-width: 0px;
      }

      .cls-1, .cls-3, .cls-10 {
        fill-rule: evenodd;
      }

      .cls-1, .cls-9 {
        fill: #fff;
      }

      .cls-12 {
        clip-path: url(#clippath-11);
      }

      .cls-13 {
        clip-path: url(#clippath-16);
      }

      .cls-14 {
        stroke-width: .32px;
      }

      .cls-14, .cls-15, .cls-16, .cls-17, .cls-5, .cls-18, .cls-19, .cls-20, .cls-21, .cls-22, .cls-23, .cls-24, .cls-25 {
        fill: none;
      }

      .cls-14, .cls-15, .cls-16, .cls-17, .cls-18, .cls-19, .cls-20, .cls-21, .cls-22, .cls-23, .cls-24, .cls-25 {
        stroke: #231f20;
      }

      .cls-14, .cls-17, .cls-24 {
        stroke-linejoin: round;
      }

      .cls-2 {
        fill: url(#linear-gradient);
      }

      .cls-3, .cls-11 {
        fill: #d1d3d4;
      }

      .cls-4, .cls-10 {
        fill: #231f20;
      }

      .cls-15 {
        stroke-width: .07px;
      }

      .cls-15, .cls-16, .cls-18, .cls-19, .cls-20, .cls-21, .cls-22, .cls-23, .cls-25 {
        stroke-miterlimit: 3.86;
      }

      .cls-16 {
        stroke-width: .13px;
      }

      .cls-26 {
        clip-path: url(#clippath-2);
      }

      .cls-27 {
        clip-path: url(#clippath-13);
      }

      .cls-17, .cls-20 {
        stroke-width: .23px;
      }

      .cls-28 {
        clip-path: url(#clippath-15);
      }

      .cls-29 {
        clip-path: url(#clippath-6);
      }

      .cls-30 {
        clip-path: url(#clippath-7);
      }

      .cls-31 {
        clip-path: url(#clippath-1);
      }

      .cls-32 {
        clip-path: url(#clippath-4);
      }

      .cls-33 {
        clip-path: url(#clippath-12);
      }

      .cls-18 {
        stroke-width: 0px;
      }

      .cls-34 {
        clip-path: url(#clippath-9);
      }

      .cls-6 {
        fill: #6d6e71;
      }

      .cls-35 {
        clip-path: url(#clippath);
      }

      .cls-19 {
        stroke-width: .07px;
      }

      .cls-7 {
        fill: #939598;
      }

      .cls-36 {
        clip-path: url(#clippath-3);
      }

      .cls-37 {
        clip-path: url(#clippath-8);
      }

      .cls-8 {
        fill: #4d4d4f;
      }

      .cls-21 {
        stroke-width: .19px;
      }

      .cls-38 {
        clip-path: url(#clippath-14);
      }

      .cls-39 {
        clip-path: url(#clippath-17);
      }

      .cls-22 {
        stroke-width: .25px;
      }

      .cls-40 {
        clip-path: url(#clippath-5);
      }

      .cls-23 {
        stroke-width: .13px;
      }

      .cls-41 {
        clip-path: url(#clippath-10);
      }

      .cls-24 {
        stroke-width: .5px;
      }

      .cls-25 {
        stroke-width: .23px;
      }
    </style>
    <clipPath id="clippath">
      <rect class="cls-5" x="10.71" y="10.63" width="310.33" height="82.23"/>
    </clipPath>
    <clipPath id="clippath-1">
      <path class="cls-5" d="M306.49,20.42c.32,1.68.64,4.37,1.11,8.12h1.32c-.47-3.75-.92-6.44-1.24-8.12h-1.18Z"/>
    </clipPath>
    <linearGradient id="linear-gradient" x1="18.71" y1="856.68" x2="19.71" y2="856.68" gradientTransform="translate(354.3 2102.99) rotate(-180) scale(2.43)" gradientUnits="userSpaceOnUse">
      <stop offset="0" stop-color="#a7a9ac"/>
      <stop offset="1" stop-color="#6d6e71"/>
    </linearGradient>
    <clipPath id="clippath-2">
      <rect class="cls-5" x="10.71" y="10.63" width="310.33" height="82.23"/>
    </clipPath>
    <clipPath id="clippath-3">
      <path class="cls-5" d="M305.81,30.05c-.42,0-.71.01-.68.83.36,8.76.81,19.77,1.04,25.55h0c0,.2.13.45.52.45h4.15c-.25-11.65-.98-20.54-1.71-26.83h-3.32Z"/>
    </clipPath>
    <clipPath id="clippath-4">
      <rect class="cls-5" x="10.71" y="10.63" width="310.33" height="82.23"/>
    </clipPath>
    <clipPath id="clippath-5">
      <path class="cls-5" d="M139.9,32.35c-.26,0-.48.21-.48.48v20.24c0,.27.09.57.55.57,1.78,0,3.77-.1,4.74.81.51.48.55,1.14.55,1.96v-.07.1c0,.82-.04,1.48-.55,1.96-.96.9-2.96.81-4.74.81-.46,0-.55.29-.55.57v16.39c0,.26.21.48.48.48h11.39c.26,0,.48-.21.48-.48v-43.33c0-.26-.21-.48-.48-.48h-11.39Z"/>
    </clipPath>
    <clipPath id="clippath-6">
      <rect class="cls-5" x="10.71" y="10.63" width="310.33" height="82.23"/>
    </clipPath>
    <clipPath id="clippath-7">
      <path class="cls-5" d="M157.88,32.35c-.26,0-.48.21-.48.48v43.33c0,.26.21.48.48.48h11.39c.26,0,.48-.21.48-.48v-16.39c0-.28-.09-.57-.55-.57-1.78,0-3.77.1-4.74-.81-.51-.48-.55-1.15-.55-1.97,0-.82.04-1.49.55-1.97.96-.91,2.96-.81,4.74-.81.46,0,.55-.3.55-.57v-20.24c0-.26-.21-.48-.48-.48h-11.39Z"/>
    </clipPath>
    <clipPath id="clippath-8">
      <rect class="cls-5" x="10.71" y="10.63" width="310.33" height="82.23"/>
    </clipPath>
    <clipPath id="clippath-9">
      <path class="cls-5" d="M269.03,32.35c-.26,0-.48.21-.48.48v20.24c0,.27.09.57.55.57,1.78,0,3.77-.1,4.74.81.51.48.55,1.14.55,1.96v-.07.1c0,.82-.04,1.48-.55,1.96-.96.9-2.96.81-4.74.81-.46,0-.55.29-.55.57v16.39c0,.26.21.48.48.48h11.39c.26,0,.48-.21.48-.48v-43.33c0-.26-.21-.48-.48-.48h-11.39Z"/>
    </clipPath>
    <clipPath id="clippath-10">
      <rect class="cls-5" x="10.71" y="10.63" width="310.33" height="82.23"/>
    </clipPath>
    <clipPath id="clippath-11">
      <path class="cls-5" d="M287.01,32.35c-.26,0-.48.21-.48.48v43.33c0,.26.21.48.48.48h11.39c.26,0,.48-.21.48-.48v-16.39c0-.28-.09-.57-.55-.57-1.78,0-3.77.1-4.74-.81-.51-.48-.55-1.15-.55-1.97,0-.82.04-1.49.55-1.97.96-.91,2.96-.81,4.74-.81.46,0,.55-.3.55-.57v-20.24c0-.26-.21-.48-.48-.48h-11.39Z"/>
    </clipPath>
    <clipPath id="clippath-12">
      <rect class="cls-5" x="10.71" y="10.63" width="310.33" height="82.23"/>
    </clipPath>
    <clipPath id="clippath-13">
      <path class="cls-5" d="M42.07,32.35c-.26,0-.48.21-.48.48v20.24c0,.27.09.57.55.57,1.78,0,3.77-.1,4.74.81.51.48.55,1.15.55,1.97,0,.82-.04,1.49-.55,1.97-.96.9-2.96.81-4.74.81-.46,0-.55.29-.55.57v16.39c0,.26.21.48.48.48h11.39c.26,0,.48-.21.48-.48v-43.33c0-.26-.21-.48-.48-.48h-11.39Z"/>
    </clipPath>
    <clipPath id="clippath-14">
      <rect class="cls-5" x="10.71" y="10.63" width="310.33" height="82.23"/>
    </clipPath>
    <clipPath id="clippath-15">
      <path class="cls-5" d="M60.04,32.35c-.26,0-.48.21-.48.48v43.33c0,.26.21.48.48.48h11.39c.26,0,.48-.21.48-.48v-16.39c0-.28-.09-.57-.55-.57-1.78,0-3.77.1-4.74-.81-.51-.48-.55-1.15-.55-1.97,0-.82.04-1.49.55-1.97.96-.91,2.96-.81,4.74-.81.46,0,.55-.3.55-.57v-20.24c0-.26-.21-.48-.48-.48h-11.39Z"/>
    </clipPath>
    <clipPath id="clippath-16">
      <rect class="cls-5" x="10.71" y="10.63" width="310.33" height="82.23"/>
    </clipPath>
    <clipPath id="clippath-17">
      <rect class="cls-5" x="10.71" y="10.63" width="310.33" height="82.23"/>
    </clipPath>
  </defs>
  <g class="cls-35">
    <path class="cls-9" d="M17.84,18.05l-1.09.13v-1.47c-.18-.16-.11-.24-.11-.51s.13-.41.13-.41c5.07-4.24,6.44-4.24,9.07-4.24h21.99c4.57,0,9.58,5.62,9.58,5.62v.09H23.01c-1.95,0-3.55.28-4.83.75l-.34.04Z"/>
    <path class="cls-24" d="M17.84,18.05l-1.09.13v-1.47c-.18-.16-.11-.24-.11-.51s.13-.41.13-.41c5.07-4.24,6.44-4.24,9.07-4.24h21.99c4.57,0,9.58,5.62,9.58,5.62v.09H23.01c-1.95,0-3.55.28-4.83.75l-.34.04Z"/>
    <path class="cls-9" d="M122.42,17.25s-.17-4.32-5.83-4.32h-52.52c-5.66,0-5.83,4.32-5.83,4.32h64.19Z"/>
    <path class="cls-24" d="M122.42,17.25s-.17-4.32-5.83-4.32h-52.52c-5.66,0-5.83,4.32-5.83,4.32h64.19Z"/>
    <path class="cls-9" d="M17.78,18.15c1.34-.55,3.05-.89,5.19-.89h259.36c1.44,0,2.98.06,4.53.2l.27.02s3.01-.27,7.12-.25c0,0,.4-.66,1.36-.66h5.43s5.62-.11,6.21,1.72c0,0,3.67,14.84,3.67,47.15l-.21.19s.74.35.85.62c.11.28.5.77.5,3.2,0,.14-.41.36-.41.36,0,0,.39.14.41.32.33,3.15.25,4.69.17,5.38-.08.69-.36.69-.36.69,0,0,.41.14.36.55-.05.41-.16,1.54-.16,2.07s-.33,1.32-1.21,1.46c-.88.14-7.88.96-7.88.96,0,0-9.14,1.5-12.06,1.5h-34.19s.61-1.54.61-5.03c0-6.11-4.08-13.64-13.12-13.64s-13.12,7.53-13.12,13.64c0,3.5.62,5.03.62,5.03h-124s.61-1.54.61-5.03c0-6.11-4.08-13.64-13.12-13.64s-13.12,7.53-13.12,13.64c0,3.5.62,5.03.62,5.03h-29.8c-2.81,0-4.58-.16-5.37-.26-1.71-.21-31.15-3.76-32.29-3.9l-.21-.06h-.02s-.5-.11-1.02-.23c-.52-.11-.82-.52-1-.77-.18-.25,0-.88,0-.88,0,0-.68-1.87-.79-2.37-.11-.5,0-.91,0-.91,0,0-.58-.36-.58-.99v-3.99c0-.69.39-1.1.39-1.1,0,0-.25-.11-.25-.5s-.14-19.06.87-43.46c.06-1.33-.24-1.76-.46-2.04-.22-.28-.04-.83.41-1.24.51-.45,2.06-1.52,5.09-1.87l.11-.03Z"/>
    <path class="cls-24" d="M17.78,18.15c1.34-.55,3.05-.89,5.19-.89h259.36c1.44,0,2.98.06,4.53.2l.27.02s3.01-.27,7.12-.25c0,0,.4-.66,1.36-.66h5.43s5.62-.11,6.21,1.72c0,0,3.67,14.84,3.67,47.15l-.21.19s.74.35.85.62c.11.28.5.77.5,3.2,0,.14-.41.36-.41.36,0,0,.39.14.41.32.33,3.15.25,4.69.17,5.38-.08.69-.36.69-.36.69,0,0,.41.14.36.55-.05.41-.16,1.54-.16,2.07s-.33,1.32-1.21,1.46c-.88.14-7.88.96-7.88.96,0,0-9.14,1.5-12.06,1.5h-34.19s.61-1.54.61-5.03c0-6.11-4.08-13.64-13.12-13.64s-13.12,7.53-13.12,13.64c0,3.5.62,5.03.62,5.03h-124s.61-1.54.61-5.03c0-6.11-4.08-13.64-13.12-13.64s-13.12,7.53-13.12,13.64c0,3.5.62,5.03.62,5.03h-29.8c-2.81,0-4.58-.16-5.37-.26-1.71-.21-31.15-3.76-32.29-3.9l-.21-.06h-.02s-.5-.11-1.02-.23c-.52-.11-.82-.52-1-.77-.18-.25,0-.88,0-.88,0,0-.68-1.87-.79-2.37-.11-.5,0-.91,0-.91,0,0-.58-.36-.58-.99v-3.99c0-.69.39-1.1.39-1.1,0,0-.25-.11-.25-.5s-.14-19.06.87-43.46c.06-1.33-.24-1.76-.46-2.04-.22-.28-.04-.83.41-1.24.51-.45,2.06-1.52,5.09-1.87l.11-.03Z"/>
    <rect class="cls-4" x="81.26" y="63.54" width="27.73" height="17.64"/>
    <rect class="cls-17" x="81.26" y="63.54" width="27.73" height="17.64"/>
    <rect class="cls-4" x="230.24" y="63.54" width="27.73" height="17.64"/>
    <rect class="cls-17" x="230.24" y="63.54" width="27.73" height="17.64"/>
    <path class="cls-9" d="M17.78,18.15c1.34-.55,3.05-.89,5.19-.89h259.36c1.44,0,2.98.06,4.53.2l.27.02s3.01-.27,7.12-.25c0,0,.4-.66,1.36-.66h5.43s5.62-.11,6.21,1.72c0,0,3.67,14.84,3.67,47.15l-.21.19s.74.35.85.62c.11.28.5.77.5,3.2,0,.14-.41.36-.41.36,0,0,.39.14.41.32.33,3.15.25,4.69.17,5.38-.08.69-.36.69-.36.69,0,0,.41.14.36.55-.05.41-.16,1.54-.16,2.07s-.33,1.32-1.21,1.46c-.88.14-7.88.96-7.88.96,0,0-9.14,1.5-12.06,1.5h-34.19s.61-1.54.61-5.03c0-6.11-4.08-13.64-13.12-13.64s-13.12,7.53-13.12,13.64c0,3.5.62,5.03.62,5.03h-124s.61-1.54.61-5.03c0-6.11-4.08-13.64-13.12-13.64s-13.12,7.53-13.12,13.64c0,3.5.62,5.03.62,5.03h-29.8c-2.81,0-4.58-.16-5.37-.26-1.71-.21-31.15-3.76-32.29-3.9l-.21-.06h-.02s-.5-.11-1.02-.23c-.52-.11-.82-.52-1-.77-.18-.25,0-.88,0-.88,0,0-.68-1.87-.79-2.37-.11-.5,0-.91,0-.91,0,0-.58-.36-.58-.99v-3.99c0-.69.39-1.1.39-1.1,0,0-.25-.11-.25-.5s-.14-19.06.87-43.46c.06-1.33-.24-1.76-.46-2.04-.22-.28-.04-.83.41-1.24.51-.45,2.06-1.52,5.09-1.87l.11-.03Z"/>
    <path class="cls-17" d="M17.78,18.15c1.34-.55,3.05-.89,5.19-.89h259.36c1.44,0,2.98.06,4.53.2l.27.02s3.01-.27,7.12-.25c0,0,.4-.66,1.36-.66h5.43s5.62-.11,6.21,1.72c0,0,3.67,14.84,3.67,47.15l-.21.19s.74.35.85.62c.11.28.5.77.5,3.2,0,.14-.41.36-.41.36,0,0,.39.14.41.32.33,3.15.25,4.69.17,5.38-.08.69-.36.69-.36.69,0,0,.41.14.36.55-.05.41-.16,1.54-.16,2.07s-.33,1.32-1.21,1.46c-.88.14-7.88.96-7.88.96,0,0-9.14,1.5-12.06,1.5h-34.19s.61-1.54.61-5.03c0-6.11-4.08-13.64-13.12-13.64s-13.12,7.53-13.12,13.64c0,3.5.62,5.03.62,5.03h-124s.61-1.54.61-5.03c0-6.11-4.08-13.64-13.12-13.64s-13.12,7.53-13.12,13.64c0,3.5.62,5.03.62,5.03h-29.8c-2.81,0-4.58-.16-5.37-.26-1.71-.21-31.15-3.76-32.29-3.9l-.21-.06h-.02s-.5-.11-1.02-.23c-.52-.11-.82-.52-1-.77-.18-.25,0-.88,0-.88,0,0-.68-1.87-.79-2.37-.11-.5,0-.91,0-.91,0,0-.58-.36-.58-.99v-3.99c0-.69.39-1.1.39-1.1,0,0-.25-.11-.25-.5s-.14-19.06.87-43.46c.06-1.33-.24-1.76-.46-2.04-.22-.28-.04-.83.41-1.24.51-.45,2.06-1.52,5.09-1.87l.11-.03Z"/>
    <path class="cls-6" d="M302.85,81.27c.03-2.61.06-5.09.07-7.63,0,0,2.71.08,3.9.49,1.2.41.88.48,1.62.61.74.12,1.13.19,1.39.23.26.04.41-.26.68-.12.26.14.62.22,1.05,1.23,0,0,.04-3.21-.21-4.78-.65-4.21-8.41-5.14-8.41-5.14v-1.73c-.04-21.43-.63-37.92-.63-37.92,0-1.1-1.18-2.72-4.08-3.48-2.46-.65-7.5-1.27-8.79-1.41-1.28-.15-4.82-.44-6.99-.44H22.78c-1.51,0-2.09,1.47-2.09,2.97v38.74s4.62,5.71,5.03,6.21c.41.5,1.23,1.05,2.35,1.05h11.35v11.37l2.99.36h31.67v-11.73h.11c.74,0,1.48-.22,2.14-1.01.66-.79,4.16-5.73,8.85-9.62,1.26-1.04,3.09-1.58,4.92-1.58h10.27c1.84,0,3.67.54,4.92,1.58,4.68,3.88,8.19,8.83,8.85,9.62s.99,1.01,1.74,1.01h21.39v11.73h34.66v-11.73h51.65c.74,0,1.07-.22,1.74-1.01.66-.79,4.16-5.73,8.85-9.62,1.26-1.04,3.09-1.58,4.92-1.58h10.27c1.84,0,3.67.54,4.92,1.58,4.69,3.88,8.19,8.83,8.85,9.62.66.79,1.53,1.01,2.27,1.01h1v10.37h34.66v1.05l1.8-.28Z"/>
    <path class="cls-17" d="M302.85,81.27c.03-2.61.06-5.09.07-7.63,0,0,2.71.08,3.9.49,1.2.41.88.48,1.62.61.74.12,1.13.19,1.39.23.26.04.41-.26.68-.12.26.14.62.22,1.05,1.23,0,0,.04-3.21-.21-4.78-.65-4.21-8.41-5.14-8.41-5.14v-1.73c-.04-21.43-.63-37.92-.63-37.92,0-1.1-1.18-2.72-4.08-3.48-2.46-.65-7.5-1.27-8.79-1.41-1.28-.15-4.82-.44-6.99-.44H22.78c-1.51,0-2.09,1.47-2.09,2.97v38.74s4.62,5.71,5.03,6.21c.41.5,1.23,1.05,2.35,1.05h11.35v11.37l2.99.36h31.67v-11.73h.11c.74,0,1.48-.22,2.14-1.01.66-.79,4.16-5.73,8.85-9.62,1.26-1.04,3.09-1.58,4.92-1.58h10.27c1.84,0,3.67.54,4.92,1.58,4.68,3.88,8.19,8.83,8.85,9.62s.99,1.01,1.74,1.01h21.39v11.73h34.66v-11.73h51.65c.74,0,1.07-.22,1.74-1.01.66-.79,4.16-5.73,8.85-9.62,1.26-1.04,3.09-1.58,4.92-1.58h10.27c1.84,0,3.67.54,4.92,1.58,4.69,3.88,8.19,8.83,8.85,9.62.66.79,1.53,1.01,2.27,1.01h1v10.37h34.66v1.05l1.8-.28Z"/>
    <polygon class="cls-1" points="34.95 26.96 22.18 26.96 22.18 52.3 36.14 52.3 36.14 28.08 34.95 26.96"/>
    <polygon class="cls-20" points="34.95 26.96 22.18 26.96 22.18 52.3 36.14 52.3 36.14 28.08 34.95 26.96"/>
    <polygon class="cls-1" points="132.86 26.96 117.57 26.96 117.57 52.3 134.05 52.3 134.05 28.08 132.86 26.96"/>
    <polygon class="cls-20" points="132.86 26.96 117.57 26.96 117.57 52.3 134.05 52.3 134.05 28.08 132.86 26.96"/>
    <polygon class="cls-1" points="78.47 26.96 114.07 26.96 114.07 52.3 77.28 52.3 77.28 28.08 78.47 26.96"/>
    <polygon class="cls-20" points="78.47 26.96 114.07 26.96 114.07 52.3 77.28 52.3 77.28 28.08 78.47 26.96"/>
    <path class="cls-20" d="M286.87,17.46c6.17.56,12.56,1.99,14.2,2.4,2.06.51,3.64,1.28,3.76,4.09.5,11.35,1.44,35.11,1.49,36.37.05,1.27.98,2.02,1.58,2.51.87.71,2.54,1.65,3.17,3.68.19.62.87,1.08.87,1.08"/>
    <path class="cls-17" d="M287.14,17.48s3.01-.27,7.12-.25c0,0,.4-.66,1.36-.66h5.43s5.62-.11,6.21,1.73c0,0,3.67,14.84,3.67,47.15l-.21.19s.74.35.85.62c.11.28.5.77.5,3.2,0,.14-.41.36-.41.36,0,0,.39.14.41.32.33,3.15.25,4.69.17,5.38-.08.69-.36.69-.36.69,0,0,.41.14.36.55-.05.41-.17,1.54-.17,2.07s-.33,1.32-1.21,1.46c-.88.14-7.88.96-7.88.96,0,0-9.14,1.5-12.06,1.5h-34.19s.61-1.54.61-5.03c0-6.11-4.08-13.64-13.12-13.64s-13.12,7.53-13.12,13.64c0,3.5.62,5.03.62,5.03h-124s.62-1.54.62-5.03c0-6.11-4.08-13.64-13.12-13.64s-13.12,7.53-13.12,13.64c0,3.5.62,5.03.62,5.03h-29.8c-2.81,0-4.59-.16-5.37-.26-1.71-.21-31.15-3.76-32.29-3.9-1.14-.14-2.09-3.59-2.37-4.39-.27-.8-.54-1.25-.54-1.91v-3.91c0-.44.09-1.17.26-1.7.39-1.27.81-2.41,1.67-4.31.49-1.07.59-1.78.59-2.63v-6.97c0-.36-.12-.63-.45-.94-.33-.3-1.02-.92-1.21-1.1-.19-.18-.36-.29-.39-1.13-.04-.84.48-19.61.81-26.15.14-2.76,2.58-6.18,9.37-6.18h259.36c1.45,0,2.98.06,4.53.2l.27.02Z"/>
    <path class="cls-17" d="M15.24,78.59c-1.14-.14-2.09-3.59-2.37-4.39-.27-.8-.54-1.25-.54-1.91v-3.92c0-.44.09-1.17.26-1.7.39-1.27.81-2.41,1.67-4.31.49-1.07.59-1.78.59-2.63v-6.97c0-.36-.12-.63-.45-.94-.33-.3-1.02-.92-1.21-1.1-.19-.18-.36-.29-.4-1.13-.04-.84.48-19.62.81-26.15.09-1.89,1.27-4.09,4.18-5.29"/>
    <path class="cls-17" d="M303.11,81.23c-.09.01-.14.02-.14.02,0,0-9.14,1.5-12.06,1.5h-34.19s.16-.41.32-1.28"/>
    <path class="cls-17" d="M311.87,76.21s.41.14.36.55c-.05.41-.16,1.54-.16,2.07s-.33,1.32-1.21,1.46-7.88.96-7.88.96"/>
    <path class="cls-17" d="M310.72,65.64s.73.35.85.62c.11.28.5.77.5,3.19,0,.14-.41.36-.41.36,0,0,.39.14.41.32.33,3.15.25,4.69.17,5.38-.08.69-.36.69-.36.69"/>
    <path class="cls-17" d="M287.14,17.48s3.01-.27,7.12-.25c0,0,.4-.66,1.36-.66h5.43s5.62-.11,6.21,1.73c0,0,3.67,14.84,3.67,47.15l-.21.19h0c-.77-1.45-2.07-2.21-2.81-2.81-.6-.48-1.53-1.24-1.58-2.51-.06-1.27-.99-25.02-1.49-36.37-.12-2.82-1.71-3.58-3.76-4.1-1.64-.41-8.03-1.84-14.2-2.4"/>
    <path class="cls-6" d="M287.14,17.48s3.01-.27,7.12-.25c0,0,.4-.66,1.36-.66h5.43s5.62-.11,6.21,1.73c0,0,3.67,14.84,3.67,47.15l-.21.19h0c-.77-1.44-2.07-2.21-2.81-2.81-.6-.48-1.53-1.24-1.58-2.51-.06-1.27-.99-25.02-1.49-36.37-.12-2.82-1.71-3.58-3.76-4.1-1.64-.41-8.03-1.84-14.2-2.4"/>
    <path class="cls-17" d="M287.14,17.48s3.01-.27,7.12-.25c0,0,.4-.66,1.36-.66h5.43s5.62-.11,6.21,1.73c0,0,3.67,14.84,3.67,47.15l-.21.19h0c-.77-1.44-2.07-2.21-2.81-2.81-.6-.48-1.53-1.24-1.58-2.51-.06-1.27-.99-25.02-1.49-36.37-.12-2.82-1.71-3.58-3.76-4.1-1.64-.41-8.03-1.84-14.2-2.4"/>
  </g>
  <g class="cls-31">
    <rect class="cls-2" x="306.49" y="20.42" width="2.42" height="8.12"/>
  </g>
  <g class="cls-26">
    <path class="cls-17" d="M308.91,28.54c-.47-3.74-.93-6.44-1.24-8.12h-1.18c.32,1.68.64,4.37,1.11,8.12h1.32Z"/>
    <path class="cls-17" d="M305.13,30.87c-.11-2.56-.21-4.93-.3-6.92-.12-2.82-1.71-3.58-3.76-4.1-1.64-.41-8.03-1.84-14.2-2.4"/>
  </g>
  <g class="cls-36">
    <rect class="cls-9" x="305.1" y="30.05" width="5.74" height="26.83"/>
  </g>
  <g class="cls-32">
    <path class="cls-17" d="M306.17,56.43c-.23-5.78-.68-16.79-1.04-25.55-.03-.82.26-.83.68-.83h3.32c.74,6.29,1.46,15.17,1.71,26.83h-4.15c-.39,0-.53-.25-.52-.45"/>
    <path class="cls-1" d="M256.76,77.31c0-6.93-5.62-12.54-12.54-12.54s-12.54,5.61-12.54,12.54,5.62,12.55,12.54,12.55,12.54-5.62,12.54-12.55"/>
    <path class="cls-14" d="M256.76,77.31c0-6.93-5.62-12.54-12.54-12.54s-12.54,5.61-12.54,12.54,5.62,12.55,12.54,12.55,12.54-5.62,12.54-12.55Z"/>
    <line class="cls-23" x1="256.07" y1="77.31" x2="256.76" y2="77.31"/>
    <line class="cls-23" x1="255.7" y1="76.4" x2="256.72" y2="76.32"/>
    <line class="cls-16" x1="255.92" y1="75.45" x2="256.61" y2="75.34"/>
    <line class="cls-16" x1="255.49" y1="73.64" x2="256.15" y2="73.43"/>
    <line class="cls-16" x1="254.78" y1="71.93" x2="255.39" y2="71.61"/>
    <line class="cls-16" x1="253.8" y1="70.34" x2="254.36" y2="69.93"/>
    <line class="cls-16" x1="252.6" y1="68.93" x2="253.09" y2="68.44"/>
    <line class="cls-16" x1="251.18" y1="67.72" x2="251.59" y2="67.16"/>
    <line class="cls-16" x1="249.6" y1="66.75" x2="249.91" y2="66.13"/>
    <line class="cls-16" x1="247.88" y1="66.03" x2="248.09" y2="65.38"/>
    <line class="cls-16" x1="246.07" y1="65.6" x2="246.18" y2="64.92"/>
    <line class="cls-16" x1="244.22" y1="65.45" x2="244.22" y2="64.76"/>
    <line class="cls-16" x1="242.36" y1="65.6" x2="242.26" y2="64.92"/>
    <line class="cls-16" x1="240.56" y1="66.03" x2="240.34" y2="65.38"/>
    <line class="cls-16" x1="238.84" y1="66.75" x2="238.52" y2="66.13"/>
    <line class="cls-16" x1="237.25" y1="67.72" x2="236.84" y2="67.16"/>
    <line class="cls-16" x1="235.84" y1="68.93" x2="235.35" y2="68.44"/>
    <line class="cls-16" x1="234.63" y1="70.34" x2="234.07" y2="69.93"/>
    <line class="cls-16" x1="233.66" y1="71.93" x2="233.04" y2="71.61"/>
    <line class="cls-16" x1="232.95" y1="73.64" x2="232.29" y2="73.43"/>
    <line class="cls-16" x1="232.51" y1="75.45" x2="231.83" y2="75.34"/>
    <line class="cls-16" x1="232.37" y1="77.3" x2="231.68" y2="77.3"/>
    <line class="cls-16" x1="232.51" y1="79.16" x2="231.83" y2="79.27"/>
    <line class="cls-16" x1="232.95" y1="80.97" x2="232.29" y2="81.18"/>
    <line class="cls-16" x1="233.66" y1="82.69" x2="233.04" y2="83"/>
    <line class="cls-16" x1="234.63" y1="84.27" x2="234.07" y2="84.68"/>
    <line class="cls-16" x1="235.84" y1="85.68" x2="235.35" y2="86.17"/>
    <line class="cls-16" x1="237.25" y1="86.89" x2="236.84" y2="87.45"/>
    <line class="cls-16" x1="238.84" y1="87.86" x2="238.52" y2="88.48"/>
    <line class="cls-16" x1="240.56" y1="88.58" x2="240.34" y2="89.24"/>
    <line class="cls-16" x1="242.36" y1="89.01" x2="242.26" y2="89.69"/>
    <line class="cls-16" x1="244.22" y1="89.16" x2="244.22" y2="89.85"/>
    <line class="cls-16" x1="246.07" y1="89.01" x2="246.18" y2="89.69"/>
    <line class="cls-16" x1="247.88" y1="88.58" x2="248.09" y2="89.24"/>
    <line class="cls-16" x1="249.6" y1="87.86" x2="249.91" y2="88.48"/>
    <line class="cls-16" x1="251.18" y1="86.89" x2="251.59" y2="87.45"/>
    <line class="cls-16" x1="252.59" y1="85.68" x2="253.09" y2="86.17"/>
    <line class="cls-16" x1="253.8" y1="84.27" x2="254.36" y2="84.68"/>
    <line class="cls-16" x1="254.77" y1="82.69" x2="255.39" y2="83"/>
    <line class="cls-16" x1="255.48" y1="80.97" x2="256.15" y2="81.18"/>
    <line class="cls-16" x1="255.92" y1="79.16" x2="256.6" y2="79.27"/>
    <line class="cls-16" x1="255.41" y1="74.62" x2="256.41" y2="74.38"/>
    <line class="cls-16" x1="254.85" y1="72.9" x2="255.8" y2="72.51"/>
    <line class="cls-16" x1="254.03" y1="71.29" x2="254.91" y2="70.75"/>
    <line class="cls-16" x1="252.97" y1="69.83" x2="253.75" y2="69.16"/>
    <line class="cls-16" x1="251.69" y1="68.55" x2="252.36" y2="67.77"/>
    <line class="cls-16" x1="250.23" y1="67.49" x2="250.77" y2="66.61"/>
    <line class="cls-16" x1="248.62" y1="66.67" x2="249.02" y2="65.72"/>
    <line class="cls-16" x1="246.9" y1="66.11" x2="247.14" y2="65.11"/>
    <line class="cls-16" x1="245.12" y1="65.83" x2="245.2" y2="64.8"/>
    <line class="cls-16" x1="243.31" y1="65.83" x2="243.23" y2="64.8"/>
    <line class="cls-16" x1="241.53" y1="66.11" x2="241.29" y2="65.11"/>
    <line class="cls-16" x1="239.81" y1="66.67" x2="239.42" y2="65.72"/>
    <line class="cls-16" x1="238.2" y1="67.49" x2="237.66" y2="66.61"/>
    <line class="cls-16" x1="236.74" y1="68.55" x2="236.07" y2="67.77"/>
    <line class="cls-16" x1="235.46" y1="69.83" x2="234.68" y2="69.16"/>
    <line class="cls-16" x1="234.4" y1="71.29" x2="233.52" y2="70.75"/>
    <line class="cls-16" x1="233.58" y1="72.9" x2="232.63" y2="72.51"/>
    <line class="cls-16" x1="233.02" y1="74.62" x2="232.02" y2="74.38"/>
    <line class="cls-16" x1="232.74" y1="76.4" x2="231.71" y2="76.32"/>
    <line class="cls-16" x1="232.74" y1="78.21" x2="231.71" y2="78.29"/>
    <line class="cls-16" x1="233.02" y1="79.99" x2="232.02" y2="80.23"/>
    <line class="cls-16" x1="233.58" y1="81.71" x2="232.63" y2="82.1"/>
    <line class="cls-16" x1="234.4" y1="83.32" x2="233.52" y2="83.86"/>
    <line class="cls-16" x1="235.46" y1="84.78" x2="234.68" y2="85.45"/>
    <line class="cls-16" x1="236.74" y1="86.06" x2="236.07" y2="86.84"/>
    <line class="cls-16" x1="238.2" y1="87.12" x2="237.66" y2="88"/>
    <line class="cls-16" x1="239.81" y1="87.94" x2="239.42" y2="88.89"/>
    <line class="cls-16" x1="241.53" y1="88.5" x2="241.29" y2="89.5"/>
    <line class="cls-16" x1="243.31" y1="88.78" x2="243.23" y2="89.81"/>
    <line class="cls-16" x1="245.12" y1="88.78" x2="245.2" y2="89.81"/>
    <line class="cls-16" x1="246.9" y1="88.5" x2="247.14" y2="89.5"/>
    <line class="cls-16" x1="248.62" y1="87.94" x2="249.02" y2="88.89"/>
    <line class="cls-16" x1="250.23" y1="87.12" x2="250.77" y2="88"/>
    <line class="cls-16" x1="251.69" y1="86.06" x2="252.36" y2="86.84"/>
    <line class="cls-16" x1="252.97" y1="84.78" x2="253.75" y2="85.45"/>
    <line class="cls-16" x1="254.03" y1="83.32" x2="254.91" y2="83.86"/>
    <line class="cls-16" x1="254.85" y1="81.71" x2="255.8" y2="82.1"/>
    <line class="cls-16" x1="255.41" y1="79.99" x2="256.41" y2="80.23"/>
    <line class="cls-16" x1="255.7" y1="78.21" x2="256.72" y2="78.29"/>
    <path class="cls-10" d="M235.76,77.47c-.19,0-.65-.25-.78-.74-.41,5.5,4.11,9.88,9.26,9.88,2.02,0,3.93-.68,5.45-1.76-1.61,1.2-3.5,1.79-5.58,1.79-5.31,0-9.51-4.01-9.51-9.32s4.3-9.61,9.61-9.61c.56,0,1.13.03,1.64.14,1.51.21,4.01,1.55,4.95,3.03.93,1.36-.65,2.5-.65,2.5-1.14-1.76-3.39-3.32-6.06-3.32-4.25,0-7.26,3.05-7.26,7.29.02-.95-.67-.07-1.08.12"/>
    <path class="cls-15" d="M235.76,77.47c-.19,0-.65-.25-.78-.74-.41,5.5,4.11,9.88,9.26,9.88,2.02,0,3.93-.68,5.45-1.76-1.61,1.2-3.5,1.79-5.58,1.79-5.31,0-9.51-4.01-9.51-9.32s4.3-9.61,9.61-9.61c.56,0,1.13.03,1.64.14,1.51.21,4.01,1.55,4.95,3.03.93,1.36-.65,2.5-.65,2.5-1.14-1.76-3.39-3.32-6.06-3.32-4.25,0-7.26,3.05-7.26,7.29.02-.95-.67-.07-1.08.12Z"/>
    <path class="cls-10" d="M238.89,69.03c1.52-.98,3.34-1.56,5.28-1.56,5.38,0,9.74,4.36,9.74,9.74,0,1.89-.54,3.65-1.46,5.14.93-1.49,1.73-3.47,1.73-5.36,0-5.38-4.36-9.74-9.74-9.74-1.94,0-4.03.79-5.55,1.78"/>
    <path class="cls-15" d="M238.89,69.03c1.52-.98,3.34-1.56,5.28-1.56,5.38,0,9.74,4.36,9.74,9.74,0,1.89-.54,3.65-1.46,5.14.93-1.49,1.73-3.47,1.73-5.36,0-5.38-4.36-9.74-9.74-9.74-1.94,0-4.03.79-5.55,1.78Z"/>
    <path class="cls-10" d="M252.03,82.97c-1.77,2.42-4.63,3.99-7.86,3.99-5.38,0-9.74-4.36-9.74-9.74,0-1.99.6-3.85,1.62-5.39-1.03,1.54-1.77,3.65-1.77,5.64,0,5.38,4.36,9.74,9.74,9.74,3.23,0,6.23-1.82,8-4.24"/>
    <path class="cls-15" d="M252.03,82.97c-1.77,2.42-4.63,3.99-7.86,3.99-5.38,0-9.74-4.36-9.74-9.74,0-1.99.6-3.85,1.62-5.39-1.03,1.54-1.77,3.65-1.77,5.64,0,5.38,4.36,9.74,9.74,9.74,3.23,0,6.23-1.82,8-4.24Z"/>
    <path class="cls-10" d="M251.59,71.3c1.29,1.62,2.07,3.68,2.07,5.92,0,1.24-.23,2.42-.67,3.5.43-1.08.62-3.79.37-4.86-.13-.88-.57-2.8-1.77-4.56"/>
    <path class="cls-15" d="M251.59,71.3c1.29,1.62,2.07,3.68,2.07,5.92,0,1.24-.23,2.42-.67,3.5.43-1.08.62-3.79.37-4.86-.13-.88-.57-2.8-1.77-4.56Z"/>
    <path class="cls-10" d="M242.79,66.85c.46-.1.91-.15,1.38-.15,5.8,0,10.51,4.71,10.51,10.51s-4.71,10.51-10.51,10.51-10.51-4.71-10.51-10.51c0-1.76.43-3.42,1.2-4.88-1.68,2.52-1.6,4.17-1.6,5.94,0,.46-.49-1.66-.49-1.21,0,7.25,5.83,11.66,11,11.72-2.8.35-4.96-.54-4.26-.22,10.18,4.63,18-5.86,16.42-10.15-.34-.93.03,1.42-.85,1.98,0,0,.17-.93.21-1.42.19-1.16.03-2.53-.29-3.81-.23-.93-.06,1.48-.12.85-.54-6.08-6.45-9.66-10.73-9.31-.44,0-.91.06-1.38.15"/>
    <path class="cls-15" d="M242.79,66.85c.46-.1.91-.15,1.38-.15,5.8,0,10.51,4.71,10.51,10.51s-4.71,10.51-10.51,10.51-10.51-4.71-10.51-10.51c0-1.76.43-3.42,1.2-4.88-1.68,2.52-1.6,4.17-1.6,5.94,0,.46-.49-1.66-.49-1.21,0,7.25,5.83,11.66,11,11.72-2.8.35-4.96-.54-4.26-.22,10.18,4.63,18-5.86,16.42-10.15-.34-.93.03,1.42-.85,1.98,0,0,.17-.93.21-1.42.19-1.16.03-2.53-.29-3.81-.23-.93-.06,1.48-.12.85-.54-6.08-6.45-9.66-10.73-9.31-.44,0-.91.06-1.38.15Z"/>
    <path class="cls-22" d="M250.3,77.21c0-3.36-2.74-6.08-6.13-6.08s-6.13,2.72-6.13,6.08,2.74,6.08,6.13,6.08,6.13-2.72,6.13-6.08Z"/>
    <path class="cls-1" d="M236.92,77.24c0-3.97,3.22-7.18,7.19-7.18s7.18,3.22,7.18,7.18-3.22,7.19-7.18,7.19-7.19-3.22-7.19-7.19"/>
    <path class="cls-25" d="M236.92,77.24c0-3.97,3.22-7.18,7.19-7.18s7.18,3.22,7.18,7.18-3.22,7.19-7.18,7.19-7.19-3.22-7.19-7.19Z"/>
    <path class="cls-10" d="M249.69,77.21c0-3.05-2.47-5.52-5.52-5.52s-5.52,2.47-5.52,5.52,2.47,5.52,5.52,5.52,5.52-2.47,5.52-5.52"/>
    <path class="cls-25" d="M249.69,77.21c0-3.05-2.47-5.52-5.52-5.52s-5.52,2.47-5.52,5.52,2.47,5.52,5.52,5.52,5.52-2.47,5.52-5.52Z"/>
    <path class="cls-9" d="M241.51,72.64c.76-.43,1.18-.8,1.18-1.06v-.43c.47-.11.96-.17,1.47-.17s1,.06,1.47.17v.43c0,.25.43.62,1.18,1.06.75.44,1.29.63,1.51.5.22-.13.37-.21.37-.21.33.35.63.75.89,1.19.25.44.45.89.58,1.36,0,0-.15.09-.37.21-.22.13-.33.68-.32,1.55,0,.87.1,1.43.32,1.56.22.13.37.21.37.21-.14.46-.33.92-.58,1.36-.25.44-.55.83-.88,1.18,0,0-.15-.09-.37-.21-.22-.12-.75.06-1.51.5-.76.43-1.19.8-1.19,1.06v.43c-.47.11-.96.17-1.47.17s-1-.06-1.47-.17v-.43c0-.25-.43-.62-1.18-1.06-.76-.44-1.29-.63-1.51-.5-.22.13-.37.21-.37.21-.34-.35-.63-.75-.89-1.18s-.45-.9-.59-1.36c0,0,.15-.09.37-.21.22-.13.33-.68.32-1.56,0-.87-.1-1.43-.32-1.55-.22-.13-.37-.22-.37-.22.14-.46.33-.92.58-1.36.25-.44.55-.83.89-1.18,0,0,.15.09.37.21.22.13.75-.06,1.51-.5"/>
    <path class="cls-21" d="M241.51,72.64c.76-.43,1.18-.8,1.18-1.06v-.43c.47-.11.96-.17,1.47-.17s1,.06,1.47.17v.43c0,.25.43.62,1.18,1.06.75.44,1.29.63,1.51.5.22-.13.37-.21.37-.21.33.35.63.75.89,1.19.25.44.45.89.58,1.36,0,0-.15.09-.37.21-.22.13-.33.68-.32,1.55,0,.87.1,1.43.32,1.56.22.13.37.21.37.21-.14.46-.33.92-.58,1.36-.25.44-.55.83-.88,1.18,0,0-.15-.09-.37-.21-.22-.12-.75.06-1.51.5-.76.43-1.19.8-1.19,1.06v.43c-.47.11-.96.17-1.47.17s-1-.06-1.47-.17v-.43c0-.25-.43-.62-1.18-1.06-.76-.44-1.29-.63-1.51-.5-.22.13-.37.21-.37.21-.34-.35-.63-.75-.89-1.18s-.45-.9-.59-1.36c0,0,.15-.09.37-.21.22-.13.33-.68.32-1.56,0-.87-.1-1.43-.32-1.55-.22-.13-.37-.22-.37-.22.14-.46.33-.92.58-1.36.25-.44.55-.83.89-1.18,0,0,.15.09.37.21.22.13.75-.06,1.51-.5Z"/>
    <path class="cls-21" d="M247.05,77.23c0-1.6-1.3-2.89-2.89-2.89s-2.89,1.3-2.89,2.89,1.29,2.89,2.89,2.89,2.89-1.29,2.89-2.89Z"/>
    <polygon class="cls-10" points="242.95 77.13 243.19 76.89 243.52 76.89 243.52 77.59 243.17 77.59 243.17 77.31 242.95 77.53 242.73 77.31 242.73 77.59 242.37 77.59 242.37 76.89 242.71 76.89 242.95 77.13"/>
    <polygon class="cls-18" points="242.95 77.13 243.19 76.89 243.52 76.89 243.52 77.59 243.17 77.59 243.17 77.31 242.95 77.53 242.73 77.31 242.73 77.59 242.37 77.59 242.37 76.89 242.71 76.89 242.95 77.13"/>
    <polygon class="cls-10" points="244.24 76.89 244.43 76.89 244.88 77.59 244.51 77.59 244.46 77.51 244.02 77.51 243.97 77.59 243.6 77.59 244.05 76.89 244.24 76.89"/>
    <polygon class="cls-18" points="244.24 76.89 244.43 76.89 244.88 77.59 244.51 77.59 244.46 77.51 244.02 77.51 243.97 77.59 243.6 77.59 244.05 76.89 244.24 76.89"/>
    <polygon class="cls-1" points="244.24 77.35 244.35 77.35 244.24 77.17 244.12 77.35 244.24 77.35"/>
    <polygon class="cls-18" points="244.24 77.35 244.35 77.35 244.24 77.17 244.12 77.35 244.24 77.35"/>
    <polygon class="cls-10" points="245.73 76.89 246.09 76.89 246.09 77.59 245.73 77.59 245.31 77.28 245.31 77.59 244.95 77.59 244.95 76.89 245.3 76.89 245.73 77.21 245.73 76.89"/>
    <polygon class="cls-18" points="245.73 76.89 246.09 76.89 246.09 77.59 245.73 77.59 245.31 77.28 245.31 77.59 244.95 77.59 244.95 76.89 245.3 76.89 245.73 77.21 245.73 76.89"/>
    <path class="cls-1" d="M107.75,77.31c0-6.93-5.62-12.54-12.54-12.54s-12.55,5.61-12.55,12.54,5.62,12.55,12.55,12.55,12.54-5.62,12.54-12.55"/>
    <path class="cls-14" d="M107.75,77.31c0-6.93-5.62-12.54-12.54-12.54s-12.55,5.61-12.55,12.54,5.62,12.55,12.55,12.55,12.54-5.62,12.54-12.55Z"/>
    <line class="cls-23" x1="107.06" y1="77.31" x2="107.75" y2="77.31"/>
    <line class="cls-23" x1="106.69" y1="76.4" x2="107.71" y2="76.32"/>
    <line class="cls-16" x1="106.91" y1="75.45" x2="107.6" y2="75.34"/>
    <line class="cls-16" x1="106.48" y1="73.64" x2="107.14" y2="73.43"/>
    <line class="cls-16" x1="105.77" y1="71.93" x2="106.39" y2="71.61"/>
    <line class="cls-16" x1="104.8" y1="70.34" x2="105.36" y2="69.93"/>
    <line class="cls-16" x1="103.59" y1="68.93" x2="104.08" y2="68.44"/>
    <line class="cls-16" x1="102.18" y1="67.72" x2="102.58" y2="67.16"/>
    <line class="cls-16" x1="100.59" y1="66.75" x2="100.91" y2="66.13"/>
    <line class="cls-16" x1="98.87" y1="66.03" x2="99.09" y2="65.38"/>
    <line class="cls-16" x1="97.06" y1="65.6" x2="97.17" y2="64.92"/>
    <line class="cls-16" x1="95.21" y1="65.45" x2="95.21" y2="64.76"/>
    <line class="cls-16" x1="93.36" y1="65.6" x2="93.25" y2="64.92"/>
    <line class="cls-16" x1="91.55" y1="66.03" x2="91.33" y2="65.38"/>
    <line class="cls-16" x1="89.83" y1="66.75" x2="89.52" y2="66.13"/>
    <line class="cls-16" x1="88.25" y1="67.72" x2="87.84" y2="67.16"/>
    <line class="cls-16" x1="86.83" y1="68.93" x2="86.34" y2="68.44"/>
    <line class="cls-16" x1="85.62" y1="70.34" x2="85.06" y2="69.93"/>
    <line class="cls-16" x1="84.65" y1="71.93" x2="84.03" y2="71.61"/>
    <line class="cls-16" x1="83.94" y1="73.64" x2="83.28" y2="73.43"/>
    <line class="cls-16" x1="83.51" y1="75.45" x2="82.82" y2="75.34"/>
    <line class="cls-16" x1="83.36" y1="77.3" x2="82.67" y2="77.3"/>
    <line class="cls-16" x1="83.5" y1="79.16" x2="82.82" y2="79.27"/>
    <line class="cls-16" x1="83.94" y1="80.97" x2="83.28" y2="81.18"/>
    <line class="cls-16" x1="84.65" y1="82.69" x2="84.03" y2="83"/>
    <line class="cls-16" x1="85.62" y1="84.27" x2="85.06" y2="84.68"/>
    <line class="cls-16" x1="86.83" y1="85.68" x2="86.34" y2="86.17"/>
    <line class="cls-16" x1="88.25" y1="86.89" x2="87.84" y2="87.45"/>
    <line class="cls-16" x1="89.83" y1="87.86" x2="89.52" y2="88.48"/>
    <line class="cls-16" x1="91.55" y1="88.58" x2="91.33" y2="89.24"/>
    <line class="cls-16" x1="93.36" y1="89.01" x2="93.25" y2="89.69"/>
    <line class="cls-16" x1="95.21" y1="89.16" x2="95.21" y2="89.85"/>
    <line class="cls-16" x1="97.06" y1="89.01" x2="97.17" y2="89.69"/>
    <line class="cls-16" x1="98.87" y1="88.58" x2="99.09" y2="89.24"/>
    <line class="cls-16" x1="100.59" y1="87.86" x2="100.91" y2="88.48"/>
    <line class="cls-16" x1="102.17" y1="86.89" x2="102.58" y2="87.45"/>
    <line class="cls-16" x1="103.59" y1="85.68" x2="104.08" y2="86.17"/>
    <line class="cls-16" x1="104.8" y1="84.27" x2="105.36" y2="84.68"/>
    <line class="cls-16" x1="105.77" y1="82.69" x2="106.39" y2="83"/>
    <line class="cls-16" x1="106.48" y1="80.97" x2="107.14" y2="81.18"/>
    <line class="cls-16" x1="106.91" y1="79.16" x2="107.6" y2="79.27"/>
    <line class="cls-16" x1="106.41" y1="74.62" x2="107.41" y2="74.38"/>
    <line class="cls-16" x1="105.85" y1="72.9" x2="106.8" y2="72.51"/>
    <line class="cls-16" x1="105.03" y1="71.29" x2="105.91" y2="70.75"/>
    <line class="cls-16" x1="103.97" y1="69.83" x2="104.75" y2="69.16"/>
    <line class="cls-16" x1="102.69" y1="68.55" x2="103.36" y2="67.77"/>
    <line class="cls-16" x1="101.23" y1="67.49" x2="101.76" y2="66.61"/>
    <line class="cls-16" x1="99.62" y1="66.67" x2="100.01" y2="65.72"/>
    <line class="cls-16" x1="97.9" y1="66.11" x2="98.14" y2="65.11"/>
    <line class="cls-16" x1="96.11" y1="65.83" x2="96.19" y2="64.8"/>
    <line class="cls-16" x1="94.31" y1="65.83" x2="94.23" y2="64.8"/>
    <line class="cls-16" x1="92.52" y1="66.11" x2="92.28" y2="65.11"/>
    <line class="cls-16" x1="90.81" y1="66.67" x2="90.41" y2="65.72"/>
    <line class="cls-16" x1="89.19" y1="67.49" x2="88.66" y2="66.61"/>
    <line class="cls-16" x1="87.73" y1="68.55" x2="87.07" y2="67.77"/>
    <line class="cls-16" x1="86.46" y1="69.83" x2="85.67" y2="69.16"/>
    <line class="cls-16" x1="85.39" y1="71.29" x2="84.52" y2="70.75"/>
    <line class="cls-16" x1="84.57" y1="72.9" x2="83.62" y2="72.51"/>
    <line class="cls-16" x1="84.01" y1="74.62" x2="83.01" y2="74.38"/>
    <line class="cls-16" x1="83.73" y1="76.4" x2="82.71" y2="76.32"/>
    <line class="cls-16" x1="83.73" y1="78.21" x2="82.71" y2="78.29"/>
    <line class="cls-16" x1="84.01" y1="79.99" x2="83.01" y2="80.23"/>
    <line class="cls-16" x1="84.57" y1="81.71" x2="83.62" y2="82.1"/>
    <line class="cls-16" x1="85.39" y1="83.32" x2="84.52" y2="83.86"/>
    <line class="cls-16" x1="86.46" y1="84.78" x2="85.67" y2="85.45"/>
    <line class="cls-16" x1="87.73" y1="86.06" x2="87.07" y2="86.84"/>
    <line class="cls-16" x1="89.19" y1="87.12" x2="88.66" y2="88"/>
    <line class="cls-16" x1="90.81" y1="87.94" x2="90.41" y2="88.89"/>
    <line class="cls-16" x1="92.52" y1="88.5" x2="92.28" y2="89.5"/>
    <line class="cls-16" x1="94.31" y1="88.78" x2="94.23" y2="89.81"/>
    <line class="cls-16" x1="96.11" y1="88.78" x2="96.19" y2="89.81"/>
    <line class="cls-16" x1="97.9" y1="88.5" x2="98.14" y2="89.5"/>
    <line class="cls-16" x1="99.62" y1="87.94" x2="100.01" y2="88.89"/>
    <line class="cls-16" x1="101.23" y1="87.12" x2="101.76" y2="88"/>
    <line class="cls-16" x1="102.69" y1="86.06" x2="103.36" y2="86.84"/>
    <line class="cls-16" x1="103.97" y1="84.78" x2="104.75" y2="85.45"/>
    <line class="cls-16" x1="105.03" y1="83.32" x2="105.91" y2="83.86"/>
    <line class="cls-16" x1="105.85" y1="81.71" x2="106.8" y2="82.1"/>
    <line class="cls-16" x1="106.41" y1="79.99" x2="107.41" y2="80.23"/>
    <line class="cls-16" x1="106.69" y1="78.21" x2="107.71" y2="78.29"/>
    <path class="cls-10" d="M86.76,77.47c-.19,0-.65-.25-.78-.74-.41,5.5,4.11,9.88,9.26,9.88,2.02,0,3.93-.68,5.45-1.76-1.61,1.2-3.5,1.79-5.58,1.79-5.31,0-9.51-4.01-9.51-9.32s4.3-9.61,9.61-9.61c.56,0,1.13.03,1.64.14,1.51.21,4.01,1.55,4.95,3.03.93,1.36-.65,2.5-.65,2.5-1.14-1.76-3.39-3.32-6.05-3.32-4.25,0-7.26,3.05-7.26,7.29.02-.95-.67-.07-1.08.12"/>
    <path class="cls-15" d="M86.76,77.47c-.19,0-.65-.25-.78-.74-.41,5.5,4.11,9.88,9.26,9.88,2.02,0,3.93-.68,5.45-1.76-1.61,1.2-3.5,1.79-5.58,1.79-5.31,0-9.51-4.01-9.51-9.32s4.3-9.61,9.61-9.61c.56,0,1.13.03,1.64.14,1.51.21,4.01,1.55,4.95,3.03.93,1.36-.65,2.5-.65,2.5-1.14-1.76-3.39-3.32-6.05-3.32-4.25,0-7.26,3.05-7.26,7.29.02-.95-.67-.07-1.08.12Z"/>
    <path class="cls-10" d="M89.88,69.03c1.52-.98,3.34-1.56,5.28-1.56,5.38,0,9.74,4.36,9.74,9.74,0,1.89-.54,3.65-1.46,5.14.93-1.49,1.73-3.47,1.73-5.36,0-5.38-4.36-9.74-9.74-9.74-1.94,0-4.03.79-5.55,1.78"/>
    <path class="cls-15" d="M89.88,69.03c1.52-.98,3.34-1.56,5.28-1.56,5.38,0,9.74,4.36,9.74,9.74,0,1.89-.54,3.65-1.46,5.14.93-1.49,1.73-3.47,1.73-5.36,0-5.38-4.36-9.74-9.74-9.74-1.94,0-4.03.79-5.55,1.78Z"/>
    <path class="cls-10" d="M103.02,82.97c-1.77,2.42-4.63,3.99-7.86,3.99-5.38,0-9.74-4.36-9.74-9.74,0-1.99.6-3.85,1.62-5.39-1.03,1.54-1.77,3.65-1.77,5.64,0,5.38,4.36,9.74,9.74,9.74,3.23,0,6.23-1.82,8-4.24"/>
    <path class="cls-15" d="M103.02,82.97c-1.77,2.42-4.63,3.99-7.86,3.99-5.38,0-9.74-4.36-9.74-9.74,0-1.99.6-3.85,1.62-5.39-1.03,1.54-1.77,3.65-1.77,5.64,0,5.38,4.36,9.74,9.74,9.74,3.23,0,6.23-1.82,8-4.24Z"/>
    <path class="cls-10" d="M102.58,71.3c1.29,1.62,2.07,3.68,2.07,5.92,0,1.24-.24,2.42-.67,3.5.43-1.08.62-3.79.37-4.86-.13-.88-.57-2.8-1.77-4.56"/>
    <path class="cls-15" d="M102.58,71.3c1.29,1.62,2.07,3.68,2.07,5.92,0,1.24-.24,2.42-.67,3.5.43-1.08.62-3.79.37-4.86-.13-.88-.57-2.8-1.77-4.56Z"/>
    <path class="cls-10" d="M93.78,66.85c.46-.1.91-.15,1.38-.15,5.81,0,10.51,4.71,10.51,10.51s-4.71,10.51-10.51,10.51-10.51-4.71-10.51-10.51c0-1.76.43-3.42,1.2-4.88-1.68,2.52-1.6,4.17-1.6,5.94,0,.46-.49-1.66-.49-1.21,0,7.25,5.83,11.66,11,11.72-2.81.35-4.96-.54-4.26-.22,10.18,4.63,18-5.86,16.42-10.15-.34-.93.03,1.42-.85,1.98,0,0,.17-.93.21-1.42.19-1.16.03-2.53-.29-3.81-.23-.93-.06,1.48-.12.85-.54-6.08-6.45-9.66-10.73-9.31-.44,0-.91.06-1.38.15"/>
    <path class="cls-15" d="M93.78,66.85c.46-.1.91-.15,1.38-.15,5.81,0,10.51,4.71,10.51,10.51s-4.71,10.51-10.51,10.51-10.51-4.71-10.51-10.51c0-1.76.43-3.42,1.2-4.88-1.68,2.52-1.6,4.17-1.6,5.94,0,.46-.49-1.66-.49-1.21,0,7.25,5.83,11.66,11,11.72-2.81.35-4.96-.54-4.26-.22,10.18,4.63,18-5.86,16.42-10.15-.34-.93.03,1.42-.85,1.98,0,0,.17-.93.21-1.42.19-1.16.03-2.53-.29-3.81-.23-.93-.06,1.48-.12.85-.54-6.08-6.45-9.66-10.73-9.31-.44,0-.91.06-1.38.15Z"/>
    <path class="cls-22" d="M101.29,77.21c0-3.36-2.74-6.08-6.13-6.08s-6.13,2.72-6.13,6.08,2.74,6.08,6.13,6.08,6.13-2.72,6.13-6.08Z"/>
    <path class="cls-1" d="M87.91,77.24c0-3.97,3.22-7.18,7.19-7.18s7.18,3.22,7.18,7.18-3.22,7.19-7.18,7.19-7.19-3.22-7.19-7.19"/>
    <path class="cls-25" d="M87.91,77.24c0-3.97,3.22-7.18,7.19-7.18s7.18,3.22,7.18,7.18-3.22,7.19-7.18,7.19-7.19-3.22-7.19-7.19Z"/>
    <path class="cls-10" d="M100.68,77.21c0-3.05-2.47-5.52-5.52-5.52s-5.52,2.47-5.52,5.52,2.47,5.52,5.52,5.52,5.52-2.47,5.52-5.52"/>
    <path class="cls-25" d="M100.68,77.21c0-3.05-2.47-5.52-5.52-5.52s-5.52,2.47-5.52,5.52,2.47,5.52,5.52,5.52,5.52-2.47,5.52-5.52Z"/>
    <path class="cls-9" d="M92.5,72.64c.76-.43,1.18-.8,1.18-1.06v-.43c.47-.11.96-.17,1.47-.17s1,.06,1.47.17v.43c0,.25.43.62,1.18,1.06.75.44,1.29.63,1.51.5.22-.13.37-.21.37-.21.33.35.63.75.89,1.19.25.44.45.89.58,1.36,0,0-.15.09-.37.21-.22.13-.33.68-.32,1.55,0,.87.1,1.43.32,1.56.22.13.37.21.37.21-.14.46-.33.92-.59,1.36-.25.44-.55.83-.88,1.18,0,0-.15-.09-.37-.21-.22-.12-.75.06-1.51.5-.76.43-1.19.8-1.19,1.06v.43c-.47.11-.96.17-1.47.17s-1-.06-1.47-.17v-.43c0-.25-.43-.62-1.18-1.06-.75-.44-1.29-.63-1.51-.5-.22.13-.37.21-.37.21-.34-.35-.63-.75-.89-1.18-.25-.44-.45-.9-.59-1.36,0,0,.15-.09.37-.21.22-.13.33-.68.32-1.56,0-.87-.1-1.43-.32-1.55-.22-.13-.37-.22-.37-.22.14-.46.33-.92.58-1.36.25-.44.55-.83.89-1.18,0,0,.15.09.37.21.22.13.75-.06,1.51-.5"/>
    <path class="cls-21" d="M92.5,72.64c.76-.43,1.18-.8,1.18-1.06v-.43c.47-.11.96-.17,1.47-.17s1,.06,1.47.17v.43c0,.25.43.62,1.18,1.06.75.44,1.29.63,1.51.5.22-.13.37-.21.37-.21.33.35.63.75.89,1.19.25.44.45.89.58,1.36,0,0-.15.09-.37.21-.22.13-.33.68-.32,1.55,0,.87.1,1.43.32,1.56.22.13.37.21.37.21-.14.46-.33.92-.59,1.36-.25.44-.55.83-.88,1.18,0,0-.15-.09-.37-.21-.22-.12-.75.06-1.51.5-.76.43-1.19.8-1.19,1.06v.43c-.47.11-.96.17-1.47.17s-1-.06-1.47-.17v-.43c0-.25-.43-.62-1.18-1.06-.75-.44-1.29-.63-1.51-.5-.22.13-.37.21-.37.21-.34-.35-.63-.75-.89-1.18-.25-.44-.45-.9-.59-1.36,0,0,.15-.09.37-.21.22-.13.33-.68.32-1.56,0-.87-.1-1.43-.32-1.55-.22-.13-.37-.22-.37-.22.14-.46.33-.92.58-1.36.25-.44.55-.83.89-1.18,0,0,.15.09.37.21.22.13.75-.06,1.51-.5Z"/>
    <path class="cls-21" d="M98.04,77.23c0-1.6-1.3-2.89-2.89-2.89s-2.89,1.3-2.89,2.89,1.29,2.89,2.89,2.89,2.89-1.29,2.89-2.89Z"/>
    <polygon class="cls-10" points="93.94 77.13 94.18 76.89 94.52 76.89 94.52 77.59 94.16 77.59 94.16 77.31 93.94 77.53 93.73 77.31 93.73 77.59 93.37 77.59 93.37 76.89 93.71 76.89 93.94 77.13"/>
    <polygon class="cls-18" points="93.94 77.13 94.18 76.89 94.52 76.89 94.52 77.59 94.16 77.59 94.16 77.31 93.94 77.53 93.73 77.31 93.73 77.59 93.37 77.59 93.37 76.89 93.71 76.89 93.94 77.13"/>
    <polygon class="cls-10" points="95.23 76.89 95.42 76.89 95.88 77.59 95.51 77.59 95.46 77.51 95.01 77.51 94.96 77.59 94.59 77.59 95.04 76.89 95.23 76.89"/>
    <polygon class="cls-18" points="95.23 76.89 95.42 76.89 95.88 77.59 95.51 77.59 95.46 77.51 95.01 77.51 94.96 77.59 94.59 77.59 95.04 76.89 95.23 76.89"/>
    <polygon class="cls-1" points="95.23 77.35 95.35 77.35 95.23 77.17 95.12 77.35 95.23 77.35"/>
    <polygon class="cls-18" points="95.23 77.35 95.35 77.35 95.23 77.17 95.12 77.35 95.23 77.35"/>
    <polygon class="cls-10" points="96.73 76.89 97.09 76.89 97.09 77.59 96.73 77.59 96.3 77.28 96.3 77.59 95.94 77.59 95.94 76.89 96.3 76.89 96.73 77.21 96.73 76.89"/>
    <polygon class="cls-18" points="96.73 76.89 97.09 76.89 97.09 77.59 96.73 77.59 96.3 77.28 96.3 77.59 95.94 77.59 95.94 76.89 96.3 76.89 96.73 77.21 96.73 76.89"/>
    <path class="cls-6" d="M12.63,66.48v-13.61c0-1.38.35-2.37.35-2.37h0c.06.09.13.15.21.22.19.18.88.8,1.21,1.1.33.3.45.58.45.94v6.97c0,.86-.1,1.56-.59,2.63-.86,1.9-1.28,3.04-1.67,4.31l.04-.19Z"/>
    <path class="cls-17" d="M12.63,66.48v-13.61c0-1.38.35-2.37.35-2.37h0c.06.09.13.15.21.22.19.18.88.8,1.21,1.1.33.3.45.58.45.94v6.97c0,.86-.1,1.56-.59,2.63-.86,1.9-1.28,3.04-1.67,4.31l.04-.19Z"/>
    <path class="cls-17" d="M15.01,78.52s-.5-.11-1.02-.22c-.52-.11-.82-.52-1-.77-.18-.25,0-.88,0-.88,0,0-.68-1.87-.79-2.37-.11-.5,0-.91,0-.91,0,0-.58-.36-.58-.99v-3.99c0-.69.39-1.1.39-1.1,0,0-.25-.11-.25-.5s-.14-19.06.87-43.46c.06-1.33-.24-1.76-.46-2.04-.22-.28-.04-.83.41-1.24.51-.45,2.06-1.52,5.09-1.87"/>
    <path class="cls-6" d="M17.67,18.18c-3.02.35-4.58,1.42-5.09,1.87-.46.41-.63.96-.41,1.24.22.28.51.71.46,2.04-1.01,24.4-.87,43.07-.87,43.46s.25.5.25.5h.39l.24-.81v-13.6c0-1.38.35-2.38.35-2.38h0c-.1-.15-.17-.4-.19-.91-.04-.84.48-19.62.81-26.15.1-1.89,1.27-4.11,4.2-5.32l-.13.06Z"/>
    <path class="cls-17" d="M17.67,18.18c-3.02.35-4.58,1.42-5.09,1.87-.46.41-.63.96-.41,1.24.22.28.51.71.46,2.04-1.01,24.4-.87,43.07-.87,43.46s.25.5.25.5h.39l.24-.81v-13.6c0-1.38.35-2.38.35-2.38h0c-.1-.15-.17-.4-.19-.91-.04-.84.48-19.62.81-26.15.1-1.89,1.27-4.11,4.2-5.32l-.13.06Z"/>
    <path class="cls-6" d="M12.2,73.37s-.11.41,0,.91c.11.5.79,2.37.79,2.37,0,0-.18.63,0,.88.18.25.48.66,1,.77.52.11,1.02.22,1.02.22h.02c-1.05-.49-1.9-3.57-2.16-4.32-.12-.35-.24-.63-.33-.89l-.34.06Z"/>
    <path class="cls-17" d="M12.2,73.37s-.11.41,0,.91c.11.5.79,2.37.79,2.37,0,0-.18.63,0,.88.18.25.48.66,1,.77.52.11,1.02.22,1.02.22h.02c-1.05-.49-1.9-3.57-2.16-4.32-.12-.35-.24-.63-.33-.89l-.34.06Z"/>
    <path class="cls-6" d="M14.04,77.31c-.27-.51-.5-1.12-.69-1.66"/>
    <path class="cls-17" d="M14.04,77.31c-.27-.51-.5-1.12-.69-1.66"/>
    <path class="cls-17" d="M21.15,22.12h261.03c7.78,0,11.76.74,17.12,1.75"/>
    <polyline class="cls-17" points="137.26 22.12 137.26 81.87 171.92 81.87 171.92 22.12"/>
    <line class="cls-17" x1="154.59" y1="22.12" x2="154.59" y2="81.87"/>
    <path class="cls-1" d="M182.39,57.34h29.29v-30.37h-35.37l-1.19,1.12v24.53s-.05.23.31.29c.36.07,3.55.5,4.49.75.97.26,1.58.69,2.18,3.42.05.24.28.26.28.26"/>
    <path class="cls-20" d="M182.39,57.34h29.29v-30.37h-35.37l-1.19,1.12v24.53s-.05.23.31.29c.36.07,3.55.5,4.49.75.97.26,1.58.69,2.18,3.42.05.24.28.26.28.26Z"/>
    <path class="cls-1" d="M263.18,52.61s.05.22-.31.29c-.36.07-3.55.49-4.49.75-.97.26-1.58.69-2.18,3.42-.05.24-.28.26-.28.26h-1.22c-1.22-.59-2.89-.99-5.34-.99h-10.27c-2.44,0-4.11.4-5.33.99h-18.57v-21.09h48v16.37ZM260.37,27.79h-31.59v5.34h31.59v-5.34ZM227.43,27.79h-11.59v5.34h11.59v-5.34Z"/>
    <rect class="cls-20" x="215.84" y="27.79" width="11.59" height="5.35"/>
    <rect class="cls-20" x="228.78" y="27.79" width="31.59" height="5.35"/>
    <path class="cls-20" d="M263.18,52.61s.05.22-.31.29c-.36.07-3.55.5-4.49.75-.97.26-1.58.69-2.18,3.42-.05.24-.28.26-.28.26h-1.22c-1.22-.59-2.89-.99-5.34-.99h-10.27c-2.44,0-4.11.4-5.33.99h-18.57v-21.09h48v16.37Z"/>
    <path class="cls-17" d="M172.31,54.61h5.71c1.71,0,2.53,1.32,2.53,2.48v1.87"/>
    <path class="cls-17" d="M179.41,57.04c0,.66-.54,1.2-1.2,1.2s-1.2-.54-1.2-1.2.54-1.2,1.2-1.2,1.2.54,1.2,1.2Z"/>
    <path class="cls-17" d="M73.97,54.61h5.71c1.71,0,2.53,1.32,2.53,2.48v1.87"/>
    <path class="cls-17" d="M80.19,57.04c0,.66-.54,1.2-1.2,1.2s-1.2-.54-1.2-1.2.54-1.2,1.2-1.2,1.2.54,1.2,1.2Z"/>
    <path class="cls-17" d="M266.39,54.61h-5.71c-1.71,0-2.53,1.32-2.53,2.48v1.87"/>
    <path class="cls-17" d="M259.29,57.04c0,.66.54,1.2,1.2,1.2s1.2-.54,1.2-1.2-.54-1.2-1.2-1.2-1.2.54-1.2,1.2Z"/>
  </g>
  <g class="cls-40">
    <rect class="cls-9" x="139.43" y="32.35" width="12.35" height="44.29"/>
  </g>
  <g class="cls-29">
    <path class="cls-17" d="M139.43,53.07c0,.28.09.57.55.57,1.78,0,3.77-.1,4.74.81.53.5.55,1.2.55,2.06v-.16c0,.86-.02,1.56-.55,2.06-.96.9-2.96.81-4.74.81-.46,0-.55.29-.55.57v16.39c0,.26.21.48.48.48h11.39c.26,0,.48-.21.48-.48v-43.34c0-.26-.21-.48-.48-.48h-11.39c-.26,0-.48.21-.48.48v20.24Z"/>
    <path class="cls-17" d="M144.05,57.29c0,.4-.33.73-.73.73s-.73-.33-.73-.73v-1.73c0-.4.33-.73.73-.73s.73.33.73.73v1.73Z"/>
    <path class="cls-17" d="M141.42,56.92c0,.61-.36,1.1-.8,1.1s-.8-.49-.8-1.1.36-1.1.8-1.1.8.49.8,1.1Z"/>
  </g>
  <line class="cls-17" x1="137.26" y1="28.1" x2="171.92" y2="28.1"/>
  <line class="cls-17" x1="137.26" y1="29.33" x2="171.92" y2="29.33"/>
  <line class="cls-17" x1="138.36" y1="29.33" x2="138.36" y2="80.5"/>
  <line class="cls-17" x1="152.63" y1="31.04" x2="152.63" y2="80.5"/>
  <line class="cls-17" x1="138.36" y1="31.04" x2="154.59" y2="31.04"/>
  <line class="cls-17" x1="137.37" y1="80.5" x2="154.59" y2="80.5"/>
  <line class="cls-17" x1="138.36" y1="78.57" x2="152.63" y2="78.57"/>
  <g class="cls-30">
    <rect class="cls-9" x="157.41" y="32.35" width="12.35" height="44.29"/>
  </g>
  <g class="cls-37">
    <path class="cls-17" d="M169.75,53.07c0,.28-.09.57-.55.57-1.78,0-3.77-.1-4.74.81-.53.5-.55,1.2-.55,2.06v-.16c0,.86.02,1.56.55,2.06.96.9,2.96.81,4.74.81.46,0,.55.29.55.57v16.39c0,.26-.21.48-.48.48h-11.39c-.26,0-.48-.21-.48-.48v-43.34c0-.26.21-.48.48-.48h11.39c.26,0,.48.21.48.48v20.24Z"/>
    <path class="cls-17" d="M165.13,57.29c0,.4.33.73.73.73s.73-.33.73-.73v-1.73c0-.4-.33-.73-.73-.73s-.73.33-.73.73v1.73Z"/>
    <path class="cls-17" d="M167.76,56.92c0,.61.36,1.1.8,1.1s.8-.49.8-1.1-.36-1.1-.8-1.1-.8.49-.8,1.1Z"/>
  </g>
  <line class="cls-17" x1="170.82" y1="29.33" x2="170.82" y2="80.5"/>
  <line class="cls-17" x1="156.55" y1="31.04" x2="156.55" y2="80.5"/>
  <line class="cls-17" x1="170.82" y1="31.04" x2="154.59" y2="31.04"/>
  <line class="cls-17" x1="171.81" y1="80.5" x2="154.59" y2="80.5"/>
  <line class="cls-17" x1="170.82" y1="78.57" x2="156.55" y2="78.57"/>
  <line class="cls-17" x1="283.72" y1="28.1" x2="283.72" y2="82.75"/>
  <g class="cls-34">
    <rect class="cls-9" x="268.56" y="32.35" width="12.35" height="44.29"/>
  </g>
  <g class="cls-41">
    <path class="cls-17" d="M268.55,53.07c0,.28.09.57.55.57,1.78,0,3.77-.1,4.74.81.53.5.55,1.2.55,2.06v-.16c0,.86-.02,1.56-.55,2.06-.96.9-2.96.81-4.74.81-.46,0-.55.29-.55.57v16.39c0,.26.21.48.48.48h11.39c.26,0,.48-.21.48-.48v-43.34c0-.26-.21-.48-.48-.48h-11.39c-.26,0-.48.21-.48.48v20.24Z"/>
    <path class="cls-17" d="M273.18,57.29c0,.4-.33.73-.73.73s-.73-.33-.73-.73v-1.73c0-.4.33-.73.73-.73s.73.33.73.73v1.73Z"/>
    <path class="cls-17" d="M270.55,56.92c0,.61-.36,1.1-.8,1.1s-.8-.49-.8-1.1.36-1.1.8-1.1.8.49.8,1.1Z"/>
  </g>
  <line class="cls-17" x1="266.39" y1="28.1" x2="301.05" y2="28.1"/>
  <line class="cls-17" x1="266.39" y1="29.33" x2="301.05" y2="29.33"/>
  <line class="cls-17" x1="267.49" y1="29.33" x2="267.49" y2="80.5"/>
  <line class="cls-17" x1="281.76" y1="31.04" x2="281.76" y2="80.5"/>
  <line class="cls-17" x1="267.49" y1="31.04" x2="283.72" y2="31.04"/>
  <line class="cls-17" x1="267.49" y1="78.57" x2="281.76" y2="78.57"/>
  <g class="cls-12">
    <rect class="cls-9" x="286.53" y="32.35" width="12.35" height="44.29"/>
  </g>
  <g class="cls-33">
    <path class="cls-17" d="M298.88,53.07c0,.28-.09.57-.55.57-1.78,0-3.77-.1-4.74.81-.53.5-.55,1.2-.55,2.06v-.16c0,.86.02,1.56.55,2.06.96.9,2.96.81,4.74.81.46,0,.55.29.55.57v16.39c0,.26-.21.48-.48.48h-11.39c-.26,0-.48-.21-.48-.48v-43.34c0-.26.21-.48.48-.48h11.39c.26,0,.48.21.48.48v20.24Z"/>
    <path class="cls-17" d="M294.26,57.29c0,.4.33.73.73.73s.73-.33.73-.73v-1.73c0-.4-.33-.73-.73-.73s-.73.33-.73.73v1.73Z"/>
    <path class="cls-17" d="M296.89,56.92c0,.61.36,1.1.8,1.1s.8-.49.8-1.1-.36-1.1-.8-1.1-.8.49-.8,1.1Z"/>
  </g>
  <line class="cls-17" x1="299.95" y1="29.33" x2="299.95" y2="80.5"/>
  <line class="cls-17" x1="285.68" y1="31.04" x2="285.68" y2="80.5"/>
  <line class="cls-17" x1="299.95" y1="31.04" x2="283.72" y2="31.04"/>
  <line class="cls-17" x1="299.95" y1="78.57" x2="285.68" y2="78.57"/>
  <polyline class="cls-17" points="74.08 22.12 74.08 81.87 42.76 81.87"/>
  <line class="cls-17" x1="266.39" y1="70.14" x2="266.39" y2="22.12"/>
  <line class="cls-17" x1="301.05" y1="80.56" x2="301.05" y2="24.41"/>
  <line class="cls-17" x1="56.75" y1="22.12" x2="56.75" y2="81.87"/>
  <g class="cls-27">
    <rect class="cls-9" x="41.59" y="32.35" width="12.35" height="44.29"/>
  </g>
  <g class="cls-38">
    <path class="cls-17" d="M41.59,53.07c0,.28.09.57.55.57,1.78,0,3.77-.1,4.74.81.53.5.55,1.2.55,2.06v-.16c0,.86-.02,1.56-.55,2.06-.96.9-2.96.81-4.74.81-.46,0-.55.29-.55.57v16.39c0,.26.21.48.48.48h11.39c.26,0,.48-.21.48-.48v-43.34c0-.26-.21-.48-.48-.48h-11.39c-.26,0-.48.21-.48.48v20.24Z"/>
    <path class="cls-17" d="M46.21,57.29c0,.4-.33.73-.73.73s-.73-.33-.73-.73v-1.73c0-.4.33-.73.73-.73s.73.33.73.73v1.73Z"/>
    <path class="cls-17" d="M43.58,56.92c0,.61-.36,1.1-.8,1.1s-.8-.49-.8-1.1.36-1.1.8-1.1.8.49.8,1.1Z"/>
  </g>
  <line class="cls-17" x1="39.42" y1="28.1" x2="74.08" y2="28.1"/>
  <line class="cls-17" x1="39.42" y1="29.33" x2="74.08" y2="29.33"/>
  <line class="cls-17" x1="40.52" y1="29.33" x2="40.52" y2="80.5"/>
  <line class="cls-17" x1="54.79" y1="31.04" x2="54.79" y2="80.5"/>
  <line class="cls-17" x1="40.52" y1="31.04" x2="56.75" y2="31.04"/>
  <line class="cls-17" x1="39.53" y1="80.5" x2="56.75" y2="80.5"/>
  <line class="cls-17" x1="40.52" y1="78.57" x2="54.79" y2="78.57"/>
  <g class="cls-28">
    <rect class="cls-9" x="59.57" y="32.35" width="12.35" height="44.29"/>
  </g>
  <g class="cls-13">
    <path class="cls-17" d="M71.91,53.07c0,.28-.09.57-.55.57-1.78,0-3.77-.1-4.74.81-.53.5-.55,1.2-.55,2.06v-.16c0,.86.02,1.56.55,2.06.96.9,2.96.81,4.74.81.46,0,.55.29.55.57v16.39c0,.26-.21.48-.48.48h-11.39c-.26,0-.48-.21-.48-.48v-43.34c0-.26.21-.48.48-.48h11.39c.26,0,.48.21.48.48v20.24Z"/>
    <path class="cls-17" d="M67.29,57.29c0,.4.33.73.73.73s.73-.33.73-.73v-1.73c0-.4-.33-.73-.73-.73s-.73.33-.73.73v1.73Z"/>
    <path class="cls-17" d="M69.92,56.92c0,.61.36,1.1.8,1.1s.8-.49.8-1.1-.36-1.1-.8-1.1-.8.49-.8,1.1Z"/>
  </g>
  <line class="cls-17" x1="72.98" y1="29.33" x2="72.98" y2="80.5"/>
  <line class="cls-17" x1="58.71" y1="31.04" x2="58.71" y2="80.5"/>
  <line class="cls-17" x1="72.98" y1="31.04" x2="56.75" y2="31.04"/>
  <line class="cls-17" x1="73.97" y1="80.5" x2="56.75" y2="80.5"/>
  <line class="cls-17" x1="72.98" y1="78.57" x2="58.71" y2="78.57"/>
  <line class="cls-17" x1="171.92" y1="58.97" x2="234.94" y2="58.97"/>
  <line class="cls-17" x1="253.49" y1="58.97" x2="266.39" y2="58.97"/>
  <line class="cls-20" x1="115.82" y1="22.12" x2="115.82" y2="58.97"/>
  <line class="cls-20" x1="213.43" y1="22.12" x2="213.43" y2="70.14"/>
  <line class="cls-17" x1="85.83" y1="58.97" x2="74.08" y2="58.97"/>
  <line class="cls-17" x1="39.42" y1="58.97" x2="20.69" y2="58.97"/>
  <line class="cls-17" x1="137.26" y1="58.97" x2="104.51" y2="58.97"/>
  <g class="cls-39">
    <path class="cls-7" d="M13.88,52.14s-1.07.52-1.07,3.14v10.16l.18-.66v-9.25c0-1.65,1.2-2.59,1.42-2.7,0,0,.08-.47-.52-.69"/>
    <path class="cls-7" d="M14.54,54.17s-1.35.63-1.35,3.24v6.97l.18-.48v-6.25c0-1.65.94-2.4,1.16-2.51v-.98Z"/>
    <path class="cls-17" d="M12,67.28s-.39.41-.39,1.1v3.99c0,.63.58.99.58.99h.37"/>
    <line class="cls-17" x1="12.63" y1="23.14" x2="13.58" y2="23.87"/>
    <rect class="cls-17" x="119.43" y="61.73" width="7.05" height="7.05" rx=".88" ry=".88"/>
    <path class="cls-17" d="M134.63,75.28c0,.35-.25.64-.55.64h-3.32c-.3,0-.55-.29-.55-.64v-3.83c0-.35.25-.64.55-.64h3.32c.31,0,.55.29.55.64v3.83Z"/>
    <line class="cls-17" x1="20.69" y1="62.88" x2="20.69" y2="79.27"/>
    <path class="cls-17" d="M311.87,76.21c.04-2.97.03-6.07-.83-7.71-2.12-4.07-8.19-4.28-8.19-4.28"/>
    <path class="cls-6" d="M311.5,69.79c.4,1.72.4,4.11.37,6.42,0,0,.29,0,.36-.69.08-.69.16-2.23-.17-5.38-.02-.18-.41-.32-.41-.32l-.15-.03Z"/>
    <path class="cls-17" d="M311.5,69.79c.4,1.72.4,4.11.37,6.42,0,0,.29,0,.36-.69.08-.69.16-2.23-.17-5.38-.02-.18-.41-.32-.41-.32l-.15-.03Z"/>
    <path class="cls-17" d="M312.05,76.31c-.18-.1-.36.1-.56-.4"/>
    <path class="cls-11" d="M308.12,74.66c-1.18-.21-1.5-2.71-1.58-3.16-.08-.45-.17-.84.09-1.02.11-.08.61-.27,2.44.03,1.83.3,2.29.78,2.35,1.27v.15c.17,1.67.15,4.14.15,4.14-.43-1-.79-1.09-1.05-1.22-.26-.14-.41.17-.67.12-.26-.04-.65-.11-1.39-.23l-.34-.07Z"/>
    <path class="cls-17" d="M308.12,74.66c-1.18-.21-1.5-2.71-1.58-3.16-.08-.45-.17-.84.09-1.02.11-.08.61-.27,2.44.03,1.83.3,2.29.78,2.35,1.27v.15c.17,1.67.15,4.14.15,4.14-.43-1-.79-1.09-1.05-1.22-.26-.14-.41.17-.67.12-.26-.04-.65-.11-1.39-.23l-.34-.07Z"/>
    <path class="cls-17" d="M311,66.28c.32.95.49,1.97.64,3.54"/>
    <path class="cls-17" d="M311.57,77.97c-.5-.58-2.27-1.02-3.02-.66-.74.36-2.38,2.46-2.3,2.57,0,0,.17.07,1.4,0,1.24-.07,1.38-.15,1.61-.34.23-.19.63-.65.91-.66.28-.01,1.04,0,1.39,0s.48.13.48.13"/>
    <path class="cls-11" d="M307.61,79.91c.18-1.3-.07-1.74-.07-1.74-.68.73-1.35,1.64-1.29,1.71,0,0,.16.07,1.4,0"/>
    <path class="cls-17" d="M307.61,79.91c.18-1.3-.07-1.74-.07-1.74-.68.73-1.35,1.64-1.29,1.71,0,0,.16.07,1.4,0"/>
    <line class="cls-17" x1="301.05" y1="58.8" x2="310.88" y2="58.8"/>
    <path class="cls-17" d="M302.89,66.79s6.73.91,8.47,4.5"/>
    <path class="cls-17" d="M307.28,18.41s-.99.82-1.56,1.45c-.57.63-1.02,1.47-.92,3.7"/>
    <path class="cls-8" d="M297.79,24.38c-.15-.27.32-1.12.77-1.12s8.24.37,11.11.62c2.86.24,3.95.76,5.16,1.7,1.21.94,2.61,2.3,3.34,3.08.74.79,1.69,1.82,1.89,5.05.2,3.23.13,4.39-.4,4.77-.53.39-2.28.94-2.77-.39-.49-1.32-1.61-5.64-1.76-6.19-.15-.55-.55-.86-.55-.86,0,0-.85-.09-1.63-1.71-.79-1.61-.63-2.61-.63-2.61,0,0-1.02.38-3.17.24-2.15-.15-7.91-.59-8.87-.7-.95-.11-1.57-.23-2.48-1.89"/>
    <path class="cls-17" d="M297.79,24.38c-.15-.27.32-1.12.77-1.12s8.24.37,11.11.62c2.86.24,3.95.76,5.16,1.7,1.21.94,2.61,2.3,3.34,3.08.74.79,1.69,1.82,1.89,5.05.2,3.23.13,4.39-.4,4.77-.53.39-2.28.94-2.77-.39-.49-1.32-1.61-5.64-1.76-6.19-.15-.55-.55-.86-.55-.86,0,0-.85-.09-1.63-1.71-.79-1.61-.63-2.61-.63-2.61,0,0-1.02.38-3.17.24-2.15-.15-7.91-.59-8.87-.7-.95-.11-1.57-.23-2.48-1.89Z"/>
    <path class="cls-17" d="M312.73,24.42s-.35.95-.44,2.31"/>
    <path class="cls-9" d="M312.53,25.13c-.07.3-.15,1.63.69,2.97.84,1.34,1.32,1.76,1.76,2.35.44.59.64.93.85,1.82,0,0,1.1,4.55,1.25,5.12.15.57.31,1.22,1.56,1.01,1.25-.21,1.05-1.12,1.03-1.76-.02-.94-.19-4.58-.72-5.77-.62-1.38-2.44-3.23-3.91-4.41-1.47-1.17-2.51-1.33-2.51-1.33"/>
    <path class="cls-17" d="M312.53,25.13c-.07.3-.15,1.63.69,2.97.84,1.34,1.32,1.76,1.76,2.35.44.59.64.93.85,1.82,0,0,1.1,4.55,1.25,5.12.15.57.31,1.22,1.56,1.01,1.25-.21,1.05-1.12,1.03-1.76-.02-.94-.19-4.58-.72-5.77-.62-1.38-2.44-3.23-3.91-4.41-1.47-1.17-2.51-1.33-2.51-1.33Z"/>
    <path class="cls-17" d="M312.32,26.49c-.01.55.97,2.76,2.58,4.93"/>
    <path class="cls-17" d="M297.76,24.31s11.05.75,12.34.83c1.29.08,2.33.5,2.33.5"/>
    <path class="cls-11" d="M306.38,21.95c.02.27-.12.5-.31.52-.19.01-.35-.2-.37-.47s.12-.5.31-.52c.19-.01.35.2.37.47"/>
    <path class="cls-17" d="M306.38,21.95c.02.27-.12.5-.31.52-.19.01-.35-.2-.37-.47s.12-.5.31-.52c.19-.01.35.2.37.47Z"/>
    <line class="cls-17" x1="282.55" y1="17.26" x2="282.55" y2="21.16"/>
    <line class="cls-17" x1="22.74" y1="17.26" x2="22.74" y2="21.16"/>
    <path class="cls-17" d="M18.94,69.16c0,.88-.22,1.59-.5,1.59s-.5-.71-.5-1.59.22-1.59.5-1.59.5.71.5,1.59Z"/>
    <line class="cls-17" x1="213.43" y1="70.14" x2="213.43" y2="82.75"/>
    <line class="cls-17" x1="222.89" y1="70.05" x2="222.89" y2="82.75"/>
    <rect class="cls-17" x="173.89" y="76.44" width="3.13" height="1.15"/>
    <rect class="cls-17" x="111.82" y="76.44" width="3.13" height="1.15"/>
    <rect class="cls-17" x="75.66" y="76.44" width="3.13" height="1.15"/>
    <rect class="cls-17" x="16.74" y="74.04" width="3.13" height="1.15"/>
    <rect class="cls-17" x="224.09" y="76.44" width="3.13" height="1.15"/>
    <rect class="cls-17" x="260.7" y="76.44" width="3.13" height="1.15"/>
    <line class="cls-17" x1="115.82" y1="70.14" x2="115.82" y2="82.75"/>
    <path class="cls-4" d="M259.08,77.26c0-8.42-6.66-14.86-14.87-14.86s-14.87,6.44-14.87,14.86c0-8.42,6.66-15.25,14.87-15.25s14.87,6.83,14.87,15.25"/>
    <path class="cls-19" d="M259.08,77.26c0-8.42-6.66-14.86-14.87-14.86s-14.87,6.44-14.87,14.86c0-8.42,6.66-15.25,14.87-15.25s14.87,6.83,14.87,15.25Z"/>
    <path class="cls-4" d="M110.1,77.26c0-8.42-6.66-14.86-14.87-14.86s-14.87,6.44-14.87,14.86c0-8.42,6.66-15.25,14.87-15.25s14.87,6.83,14.87,15.25"/>
    <path class="cls-19" d="M110.1,77.26c0-8.42-6.66-14.86-14.87-14.86s-14.87,6.44-14.87,14.86c0-8.42,6.66-15.25,14.87-15.25s14.87,6.83,14.87,15.25Z"/>
    <polyline class="cls-17" points="39.42 70.14 39.42 81.51 39.42 22.12"/>
    <path class="cls-17" d="M302.32,26.5s.91,25.78.53,54.77"/>
    <path class="cls-17" d="M302.94,64.42c0,2.96,0,6-.02,9.12"/>
    <line class="cls-17" x1="11.89" y1="48.8" x2="20.69" y2="48.8"/>
    <path class="cls-17" d="M263.18,71.12c0,.5-.41.91-.91.91s-.91-.41-.91-.91.41-.91.91-.91.91.41.91.91Z"/>
    <path class="cls-9" d="M122.42,17.25s-.17-4.32-5.83-4.32h-52.52c-5.66,0-5.83,4.32-5.83,4.32h64.19Z"/>
    <path class="cls-17" d="M122.42,17.25s-.17-4.32-5.83-4.32h-52.52c-5.66,0-5.83,4.32-5.83,4.32h64.19Z"/>
    <path class="cls-9" d="M17.84,18.05l-1.09.13v-1.47c-.18-.16-.11-.24-.11-.51s.13-.41.13-.41c5.07-4.24,6.44-4.24,9.07-4.24h21.99c4.57,0,9.58,5.62,9.58,5.62v.09H23.01c-1.95,0-3.55.28-4.83.75l-.34.04Z"/>
    <path class="cls-17" d="M17.84,18.05l-1.09.13v-1.47c-.18-.16-.11-.24-.11-.51s.13-.41.13-.41c5.07-4.24,6.44-4.24,9.07-4.24h21.99c4.57,0,9.58,5.62,9.58,5.62v.09H23.01c-1.95,0-3.55.28-4.83.75l-.34.04Z"/>
    <path class="cls-6" d="M16.63,16.19c0-.28.13-.4.13-.4,0,0,.11.36.66.36s1.76-.58,3.3-1.05c1.54-.48,2.1-.57,5.07-.57h22.03c2.53,0,5.34,2.64,5.34,2.64v.09h-30.17c-1.95,0-3.54.28-4.83.75l-.34.04-1.09.13v-1.47c-.18-.17-.11-.24-.11-.52"/>
    <path class="cls-17" d="M16.63,16.19c0-.28.13-.4.13-.4,0,0,.11.36.66.36s1.76-.58,3.3-1.05c1.54-.48,2.1-.57,5.07-.57h22.03c2.53,0,5.34,2.64,5.34,2.64v.09h-30.17c-1.95,0-3.54.28-4.83.75l-.34.04-1.09.13v-1.47c-.18-.17-.11-.24-.11-.52Z"/>
    <path class="cls-3" d="M275.92,25.2h-.69v1.36h.7v-.61l.83.61h.7v-1.36h-.7v.62l-.83-.62ZM274.21,25.2h-.75l-.88,1.36h.73l.1-.15h.87l.1.15h.72l-.89-1.36ZM274.04,26.04h-.41l.2-.31.2.31ZM270.87,25.2h-.66v1.36h.7v-.54l.42.42.42-.42v.54h.7v-1.36h-.66l-.46.46-.46-.46Z"/>
    <path class="cls-11" d="M282.49,26.06s-.02,0-.01-.01l.02-.07s.01-.02.02-.02h.16s.01,0,.01.02l-.02.07s-.01.01-.02.01h-.16Z"/>
    <path class="cls-11" d="M282.37,25.95h0c-.21,0-.34,0-.34,0-.04,0-.1.03-.13.12-.01.04-.03.09-.04.13-.02.07-.04.14-.04.17-.01.05-.03.16.06.16h0s.14.01.34,0c0,0,.02,0,.02-.02l.02-.06s0-.02-.01-.02h-.2s-.05-.02-.04-.06c0-.01.02-.09.04-.16.01-.05.03-.1.03-.12,0-.03.03-.06.08-.06h.18s.02,0,.02-.02l.02-.06s0-.02-.01-.02"/>
    <path class="cls-11" d="M278.59,25.95s-.02,0-.02.02l-.15.55s0,.02.01.02h.42s.02,0,.02-.02l.02-.06s0-.02-.01-.02h-.22s-.01,0-.01-.02l.13-.46s0-.02-.01-.02h-.17Z"/>
    <path class="cls-11" d="M279.08,26.11s-.02,0-.02.02l-.11.4s0,.02.01.02h.16s.02,0,.02-.02l.11-.4s0-.02-.01-.02h-.16Z"/>
    <path class="cls-11" d="M279.1,26.06s-.02,0-.01-.02l.02-.07s.01-.02.02-.02h.16s.02,0,.01.02l-.02.07s-.01.02-.02.02h-.16Z"/>
    <path class="cls-11" d="M280.61,25.97s-.07.23-.07.23c0,0,0,.01,0,.01h.05s.02,0,.02-.01c0-.01,0-.02.01-.03.02-.03.05-.07.09-.09.01,0,.02-.01.04-.02.01,0,.01,0,.01-.01,0,0,.02-.08.02-.08,0,0,0-.01,0-.01h-.15s-.02,0-.02.01"/>
    <path class="cls-11" d="M279.8,26.11c-.2,0-.36,0-.36,0-.09,0-.11.06-.12.11-.01.05-.03.09-.05.19-.02.09,0,.12.05.13h0s0,0,.01,0h0s.19,0,.33,0c0,0,0,0,.01,0h0c.09-.01.09-.06.11-.11.02-.05.04-.12.06-.21.02-.08-.01-.11-.05-.11M279.66,26.24s-.05.16-.06.18c0,.02-.02.04-.04.04h-.09s-.02-.02-.01-.06c.01-.04.05-.15.05-.17,0-.02.01-.04.04-.04h.09s.03,0,.02.05"/>
    <path class="cls-11" d="M281.28,26.11h-.01c-.17,0-.3,0-.34,0h0c-.09,0-.11.09-.13.19-.02.09.04.09.08.09h.17s.03.04.03.05c0,.02-.02.03-.04.03h-.27s-.02,0-.02.02v.04s0,.02,0,.02c.2,0,.36,0,.36,0,.06,0,.09-.01.12-.05.02-.02.03-.07.04-.15.01-.08-.03-.08-.05-.08h-.19c-.05,0-.03-.04-.03-.05,0-.01,0-.03.04-.03h.24s.02,0,.02-.02v-.05s0-.02,0-.02"/>
    <path class="cls-11" d="M280.39,26.11c-.25,0-.4,0-.4,0h0s-.02,0-.02.02l-.11.4s0,.02.01.02h.16s.02,0,.02-.02c0,0,.06-.23.08-.28.01-.05.04-.06.05-.06h.07s.04.02.03.06c-.01.04-.08.28-.08.28,0,0,0,.02.01.02h.16s.02,0,.02-.02c0,0,.05-.17.08-.28.03-.1-.04-.13-.09-.14"/>
    <path class="cls-11" d="M282.48,26.11s-.02,0-.02.02l-.11.4s0,.02.01.02h.16s.02,0,.02-.02l.11-.4s0-.02-.01-.02h-.16Z"/>
    <path class="cls-11" d="M282.87,25.97s.01-.02.02-.02h.16s.01,0,.01.02l-.03.11s0,.02.01.02h.13s.02,0,.01.02v.05s-.02.02-.03.02h-.13s-.02,0-.02.02c0,0-.05.18-.06.21,0,.03-.01.04.02.04h.12s.01,0,.01.02v.05s-.02.02-.03.02h-.23s-.12,0-.08-.14c.04-.14.05-.2.05-.2,0,0,0-.02-.01-.02h-.05s-.01,0-.01-.02l.02-.05s.01-.02.02-.02h.05s.02,0,.02-.02l.03-.11Z"/>
    <path class="cls-11" d="M283.27,26.12s.01-.02.02-.02h.16s.01,0,.01.02c0,0-.06.22-.07.26-.01.04-.02.07.02.07h.07s.03,0,.05-.05c.01-.05.08-.27.08-.27,0,0,.01-.02.02-.02h.15s.01,0,.01.02c0,0-.1.35-.12.43-.02.08-.06.14-.14.14h-.38s-.01,0-.01-.01l.02-.05s.01-.02.02-.02h.24s.06-.06.06-.06c0-.01,0-.02,0-.02h-.2s-.12-.02-.08-.15c.03-.13.07-.26.07-.26"/>
  </g>
</svg>