<?xml version="1.0" encoding="UTF-8"?>
<svg id="Layer_1" data-name="Layer 1" xmlns="http://www.w3.org/2000/svg" version="1.1" xmlns:xlink="http://www.w3.org/1999/xlink" viewBox="0 0 481.46 96.13">
  <defs>
    <style>
      .cls-1, .cls-2, .cls-3, .cls-4, .cls-5, .cls-6, .cls-7, .cls-8, .cls-9, .cls-10, .cls-11 {
        stroke-width: 0px;
      }

      .cls-1, .cls-3, .cls-10 {
        fill-rule: evenodd;
      }

      .cls-1, .cls-9 {
        fill: #fff;
      }

      .cls-12 {
        clip-path: url(#clippath-20);
      }

      .cls-13 {
        clip-path: url(#clippath-11);
      }

      .cls-14 {
        clip-path: url(#clippath-16);
      }

      .cls-2 {
        fill: url(#linear-gradient);
      }

      .cls-3, .cls-11 {
        fill: #d1d3d4;
      }

      .cls-4, .cls-10 {
        fill: #231f20;
      }

      .cls-15 {
        stroke-width: .39px;
      }

      .cls-15, .cls-16, .cls-17, .cls-5, .cls-18, .cls-19, .cls-20, .cls-21, .cls-22, .cls-23, .cls-24, .cls-25, .cls-26 {
        fill: none;
      }

      .cls-15, .cls-16, .cls-17, .cls-18, .cls-19, .cls-20, .cls-21, .cls-22, .cls-23, .cls-24, .cls-25, .cls-26 {
        stroke: #231f20;
      }

      .cls-15, .cls-16, .cls-24 {
        stroke-linejoin: round;
      }

      .cls-27 {
        clip-path: url(#clippath-2);
      }

      .cls-28 {
        clip-path: url(#clippath-13);
      }

      .cls-16 {
        stroke-width: .25px;
      }

      .cls-29 {
        clip-path: url(#clippath-15);
      }

      .cls-30 {
        clip-path: url(#clippath-6);
      }

      .cls-17 {
        stroke-width: 0px;
      }

      .cls-17, .cls-18, .cls-19, .cls-20, .cls-21, .cls-22, .cls-23, .cls-25, .cls-26 {
        stroke-miterlimit: 3.86;
      }

      .cls-31 {
        clip-path: url(#clippath-7);
      }

      .cls-32 {
        clip-path: url(#clippath-21);
      }

      .cls-33 {
        clip-path: url(#clippath-1);
      }

      .cls-34 {
        clip-path: url(#clippath-4);
      }

      .cls-18 {
        stroke-width: .15px;
      }

      .cls-19 {
        stroke-width: .05px;
      }

      .cls-35 {
        clip-path: url(#clippath-12);
      }

      .cls-20 {
        stroke-width: .05px;
      }

      .cls-36 {
        clip-path: url(#clippath-22);
      }

      .cls-37 {
        clip-path: url(#clippath-9);
      }

      .cls-6 {
        fill: #6d6e71;
      }

      .cls-38 {
        clip-path: url(#clippath);
      }

      .cls-39 {
        clip-path: url(#clippath-19);
      }

      .cls-7 {
        fill: #939598;
      }

      .cls-40 {
        clip-path: url(#clippath-3);
      }

      .cls-41 {
        clip-path: url(#clippath-8);
      }

      .cls-8 {
        fill: #4d4d4f;
      }

      .cls-42 {
        clip-path: url(#clippath-18);
      }

      .cls-43 {
        clip-path: url(#clippath-14);
      }

      .cls-44 {
        clip-path: url(#clippath-17);
      }

      .cls-45 {
        clip-path: url(#clippath-5);
      }

      .cls-21 {
        stroke-width: 0px;
      }

      .cls-46 {
        clip-path: url(#clippath-10);
      }

      .cls-22 {
        stroke-width: .2px;
      }

      .cls-23, .cls-24 {
        stroke-width: .18px;
      }

      .cls-25 {
        stroke-width: .1px;
      }

      .cls-26 {
        stroke-width: .18px;
      }
    </style>
    <clipPath id="clippath">
      <rect class="cls-5" x="9.97" y="8.9" width="462.05" height="83.65"/>
    </clipPath>
    <clipPath id="clippath-1">
      <path class="cls-5" d="M457.3,18.75c.32,1.7.65,4.43,1.12,8.23h1.34c-.48-3.8-.94-6.53-1.26-8.23h-1.2Z"/>
    </clipPath>
    <linearGradient id="linear-gradient" x1="18.88" y1="856.26" x2="19.89" y2="856.26" gradientTransform="translate(506.21 2129.01) rotate(-180) scale(2.46)" gradientUnits="userSpaceOnUse">
      <stop offset="0" stop-color="#a7a9ac"/>
      <stop offset="1" stop-color="#6d6e71"/>
    </linearGradient>
    <clipPath id="clippath-2">
      <rect class="cls-5" x="9.97" y="8.9" width="462.05" height="83.65"/>
    </clipPath>
    <clipPath id="clippath-3">
      <path class="cls-5" d="M456.61,28.51c-.43,0-.72.01-.69.84.37,8.88.82,20.04,1.05,25.9h0c-.01.2.13.46.52.46h4.21c-.25-11.81-.99-20.82-1.74-27.2h-3.36Z"/>
    </clipPath>
    <clipPath id="clippath-4">
      <rect class="cls-5" x="9.97" y="8.9" width="462.05" height="83.65"/>
    </clipPath>
    <clipPath id="clippath-5">
      <path class="cls-5" d="M308.41,30.85c-.27,0-.48.22-.48.48v20.52c0,.28.09.58.56.58,1.8,0,3.82-.1,4.8.82.52.49.56,1.17.56,2,0,.83-.04,1.51-.56,2-.98.92-3,.82-4.8.82-.47,0-.56.3-.56.58v16.61c0,.27.22.48.48.48h11.55c.26,0,.48-.22.48-.48V31.33c0-.27-.22-.48-.48-.48h-11.55Z"/>
    </clipPath>
    <clipPath id="clippath-6">
      <rect class="cls-5" x="9.97" y="8.9" width="462.05" height="83.65"/>
    </clipPath>
    <clipPath id="clippath-7">
      <path class="cls-5" d="M326.64,30.85c-.27,0-.48.22-.48.48v43.93c0,.27.22.48.48.48h11.55c.27,0,.48-.22.48-.48v-16.61c0-.28-.09-.58-.56-.58-1.81,0-3.83.1-4.8-.82-.52-.49-.56-1.17-.56-2,0-.83.04-1.51.56-2,.98-.92,3-.82,4.8-.82.46,0,.56-.3.56-.58v-20.52c0-.27-.22-.48-.48-.48h-11.55Z"/>
    </clipPath>
    <clipPath id="clippath-8">
      <rect class="cls-5" x="9.97" y="8.9" width="462.05" height="83.65"/>
    </clipPath>
    <clipPath id="clippath-9">
      <path class="cls-5" d="M419.32,30.85c-.27,0-.48.22-.48.48v20.52c0,.28.09.58.56.58,1.8,0,3.82-.1,4.8.82.52.49.56,1.17.56,2,0,.83-.04,1.51-.56,2-.98.92-3,.82-4.8.82-.47,0-.56.3-.56.58v16.61c0,.27.22.48.48.48h11.55c.27,0,.49-.22.49-.48V31.33c0-.27-.22-.48-.49-.48h-11.55Z"/>
    </clipPath>
    <clipPath id="clippath-10">
      <rect class="cls-5" x="9.97" y="8.9" width="462.05" height="83.65"/>
    </clipPath>
    <clipPath id="clippath-11">
      <path class="cls-5" d="M437.55,30.85c-.27,0-.48.22-.48.48v43.93c0,.27.22.48.48.48h11.55c.27,0,.48-.22.48-.48v-16.61c0-.28-.09-.58-.56-.58-1.8,0-3.83.1-4.8-.82-.52-.49-.56-1.17-.56-2,0-.83.04-1.51.56-2,.98-.92,3-.82,4.8-.82.46,0,.56-.3.56-.58v-20.52c0-.27-.22-.48-.48-.48h-11.55Z"/>
    </clipPath>
    <clipPath id="clippath-12">
      <rect class="cls-5" x="9.97" y="8.9" width="462.05" height="83.65"/>
    </clipPath>
    <clipPath id="clippath-13">
      <rect class="cls-5" x="9.97" y="8.9" width="462.05" height="83.65"/>
    </clipPath>
    <clipPath id="clippath-14">
      <path class="cls-5" d="M140.89,30.85c-.27,0-.48.22-.48.48v20.52c0,.28.09.58.56.58,1.8,0,3.83-.1,4.8.82.51.48.56,1.16.56,1.99v-.07.08h0c0,.84-.04,1.52-.56,2-.98.92-3,.82-4.8.82-.46,0-.56.3-.56.58v16.61c0,.27.22.48.48.48h11.55c.27,0,.49-.22.49-.48V31.33c0-.27-.22-.48-.49-.48h-11.55Z"/>
    </clipPath>
    <clipPath id="clippath-15">
      <rect class="cls-5" x="9.97" y="8.9" width="462.05" height="83.65"/>
    </clipPath>
    <clipPath id="clippath-16">
      <path class="cls-5" d="M165.23,55.17v.06s0,.01,0,.02c0-.03,0-.05,0-.08M159.12,30.85c-.27,0-.48.22-.48.48v43.93c0,.27.22.48.48.48h11.55c.27,0,.48-.22.48-.48v-16.61c0-.28-.09-.58-.56-.58-1.8,0-3.83.1-4.8-.82-.51-.48-.56-1.16-.56-1.98v.06s0-.06,0-.08c0,0,0,.01,0,.02v-.04c0-.82.04-1.5.56-1.98.98-.92,3-.82,4.8-.82.46,0,.56-.3.56-.58v-20.52c0-.27-.22-.48-.48-.48h-11.55Z"/>
    </clipPath>
    <clipPath id="clippath-17">
      <rect class="cls-5" x="9.97" y="8.9" width="462.05" height="83.65"/>
    </clipPath>
    <clipPath id="clippath-18">
      <path class="cls-5" d="M41.71,30.85c-.27,0-.48.22-.48.48v20.52c0,.28.09.58.56.58,1.81,0,3.83-.1,4.8.82.52.49.56,1.17.56,2,0,.83-.04,1.51-.56,2-.98.92-3,.82-4.8.82-.46,0-.56.3-.56.58v16.61c0,.27.22.48.48.48h11.55c.27,0,.48-.22.48-.48V31.33c0-.27-.22-.48-.48-.48h-11.55Z"/>
    </clipPath>
    <clipPath id="clippath-19">
      <rect class="cls-5" x="9.97" y="8.9" width="462.05" height="83.65"/>
    </clipPath>
    <clipPath id="clippath-20">
      <path class="cls-5" d="M59.93,30.85c-.27,0-.48.22-.48.48v43.93c0,.27.22.48.48.48h11.55c.27,0,.48-.22.48-.48v-16.61c0-.28-.09-.58-.56-.58-1.81,0-3.82.1-4.8-.82-.52-.48-.56-1.16-.56-1.98v-.1.1-.04c0-.82.04-1.5.56-1.98.98-.92,3-.82,4.8-.82.46,0,.56-.3.56-.58v-20.52c0-.27-.22-.48-.48-.48h-11.55Z"/>
    </clipPath>
    <clipPath id="clippath-21">
      <rect class="cls-5" x="9.97" y="8.9" width="462.05" height="83.65"/>
    </clipPath>
    <clipPath id="clippath-22">
      <rect class="cls-5" x="9.97" y="8.9" width="462.05" height="83.65"/>
    </clipPath>
  </defs>
  <g class="cls-38">
    <path class="cls-9" d="M406.91,15.53s-.18-4.38-5.92-4.38h-53.24c-5.74,0-5.92,4.38-5.92,4.38h65.07Z"/>
    <path class="cls-15" d="M406.91,15.53s-.18-4.38-5.92-4.38h-53.24c-5.74,0-5.92,4.38-5.92,4.38h65.07Z"/>
    <path class="cls-9" d="M17.38,16.36l-1.11.13v-1.49c-.19-.17-.11-.24-.11-.52s.13-.41.13-.41c5.14-4.3,6.53-4.3,9.2-4.3h22.29c4.63,0,9.72,5.7,9.72,5.7v.09H22.62c-1.98,0-3.59.29-4.89.76l-.35.04Z"/>
    <path class="cls-15" d="M17.38,16.36l-1.11.13v-1.49c-.19-.17-.11-.24-.11-.52s.13-.41.13-.41c5.14-4.3,6.53-4.3,9.2-4.3h22.29c4.63,0,9.72,5.7,9.72,5.7v.09H22.62c-1.98,0-3.59.29-4.89.76l-.35.04Z"/>
    <path class="cls-9" d="M142.78,15.54s-.18-4.38-5.91-4.38h-53.24c-5.74,0-5.91,4.38-5.91,4.38h65.07Z"/>
    <path class="cls-15" d="M142.78,15.54s-.18-4.38-5.91-4.38h-53.24c-5.74,0-5.91,4.38-5.91,4.38h65.07Z"/>
    <path class="cls-9" d="M142.78,15.54s-.18-4.38-5.91-4.38h-53.24c-5.74,0-5.91,4.38-5.91,4.38h65.07Z"/>
    <path class="cls-24" d="M142.78,15.54s-.18-4.38-5.91-4.38h-53.24c-5.74,0-5.91,4.38-5.91,4.38h65.07Z"/>
    <path class="cls-9" d="M187.85,81.93h-79.6s.62-1.56.62-5.1c0-6.2-4.14-13.83-13.3-13.83s-13.3,7.63-13.3,13.83c0,3.54.62,5.1.62,5.1h-30.21c-2.85,0-4.65-.16-5.44-.26-1.74-.22-31.58-3.81-32.74-3.95l-.21-.06h-.02s-.51-.12-1.04-.23c-.53-.11-.83-.53-1.02-.78-.18-.25,0-.89,0-.89,0,0-.68-1.9-.8-2.4-.11-.5,0-.92,0-.92,0,0-.59-.36-.59-1.01v-4.05c0-.7.39-1.12.39-1.12,0,0-.25-.11-.25-.5s-.14-19.32.88-44.06c.06-1.35-.24-1.79-.47-2.07-.22-.28-.04-.84.42-1.26.52-.46,2.09-1.54,5.16-1.9l.11-.03c1.36-.56,3.06-.91,5.23-.91h176.37v1.69l.95,1.95.95-1.95.95,1.95.95-1.95.95,1.95.95-1.95.95,1.95.95-1.95.95,1.95.95-1.95.95,1.95.95-1.95.95,1.95.95-1.95.95,1.95.95-1.95.95,1.95.95-1.95.95,1.95.72-1.95h1.93l.71,1.95.95-1.95.95,1.95.95-1.95.95,1.95.95-1.95.95,1.95.95-1.95.95,1.95.95-1.95.95,1.95.95-1.95.95,1.95.95-1.95.95,1.95.95-1.95.95,1.95.95-1.95.95,1.95.95-1.95h.34v-1.69h194.36c1.46,0,3.02.06,4.6.21l.27.02s3.06-.28,7.22-.25c0,0,.41-.67,1.38-.67h5.51s5.7-.11,6.3,1.75c0,0,3.72,15.04,3.72,47.8l-.22.2s.75.36.86.63.5.78.5,3.24c0,.14-.42.36-.42.36,0,0,.4.14.42.32.33,3.19.25,4.76.17,5.46-.08.7-.37.7-.37.7,0,0,.42.14.36.56-.06.42-.17,1.56-.17,2.09s-.33,1.34-1.23,1.48c-.89.14-7.98.98-7.98.98,0,0-9.27,1.52-12.23,1.52h-34.66s.62-1.56.62-5.1c0-6.2-4.14-13.83-13.3-13.83s-13.3,7.63-13.3,13.83c0,3.54.62,5.1.62,5.1h-105.71s.62-1.56.62-5.1c0-6.2-4.14-13.83-13.3-13.83s-13.3,7.63-13.3,13.83c0,3.54.62,5.1.62,5.1h-11.14s-1.17,0-1.17,0v.96l-.95-1.95-.95,1.95-.95-1.95-.95,1.95-.95-1.95-.95,1.95-.95-1.95-.95,1.95-.95-1.95-.95,1.95-.95-1.95-.95,1.95-.95-1.95-.95,1.95-.95-1.95-.95,1.95-.95-1.95-.95,1.95-.95-1.95-.71,1.47v.85l-.27.13h-.7,0-.7l-.27-.13v-.85l-.72-1.47-.95,1.95-.95-1.95-.95,1.95-.95-1.95-.95,1.95-.95-1.95-.95,1.95-.95-1.95-.95,1.95-.95-1.95-.95,1.95-.95-1.95-.95,1.95-.95-1.95-.95,1.95-.95-1.95-.95,1.95-.95-1.95-.95,1.95v-.96h-10.83Z"/>
    <path class="cls-15" d="M187.85,81.93h-79.6s.62-1.56.62-5.1c0-6.2-4.14-13.83-13.3-13.83s-13.3,7.63-13.3,13.83c0,3.54.62,5.1.62,5.1h-30.21c-2.85,0-4.65-.16-5.44-.26-1.74-.22-31.58-3.81-32.74-3.95l-.21-.06h-.02s-.51-.12-1.04-.23c-.53-.11-.83-.53-1.02-.78-.18-.25,0-.89,0-.89,0,0-.68-1.9-.8-2.4-.11-.5,0-.92,0-.92,0,0-.59-.36-.59-1.01v-4.05c0-.7.39-1.12.39-1.12,0,0-.25-.11-.25-.5s-.14-19.32.88-44.06c.06-1.35-.24-1.79-.47-2.07-.22-.28-.04-.84.42-1.26.52-.46,2.09-1.54,5.16-1.9l.11-.03c1.36-.56,3.06-.91,5.23-.91h176.37v1.69l.95,1.95.95-1.95.95,1.95.95-1.95.95,1.95.95-1.95.95,1.95.95-1.95.95,1.95.95-1.95.95,1.95.95-1.95.95,1.95.95-1.95.95,1.95.95-1.95.95,1.95.95-1.95.95,1.95.72-1.95h1.93l.71,1.95.95-1.95.95,1.95.95-1.95.95,1.95.95-1.95.95,1.95.95-1.95.95,1.95.95-1.95.95,1.95.95-1.95.95,1.95.95-1.95.95,1.95.95-1.95.95,1.95.95-1.95.95,1.95.95-1.95h.34v-1.69h194.36c1.46,0,3.02.06,4.6.21l.27.02s3.06-.28,7.22-.25c0,0,.41-.67,1.38-.67h5.51s5.7-.11,6.3,1.75c0,0,3.72,15.04,3.72,47.8l-.22.2s.75.36.86.63.5.78.5,3.24c0,.14-.42.36-.42.36,0,0,.4.14.42.32.33,3.19.25,4.76.17,5.46-.08.7-.37.7-.37.7,0,0,.42.14.36.56-.06.42-.17,1.56-.17,2.09s-.33,1.34-1.23,1.48c-.89.14-7.98.98-7.98.98,0,0-9.27,1.52-12.23,1.52h-34.66s.62-1.56.62-5.1c0-6.2-4.14-13.83-13.3-13.83s-13.3,7.63-13.3,13.83c0,3.54.62,5.1.62,5.1h-105.71s.62-1.56.62-5.1c0-6.2-4.14-13.83-13.3-13.83s-13.3,7.63-13.3,13.83c0,3.54.62,5.1.62,5.1h-11.14s-1.17,0-1.17,0v.96l-.95-1.95-.95,1.95-.95-1.95-.95,1.95-.95-1.95-.95,1.95-.95-1.95-.95,1.95-.95-1.95-.95,1.95-.95-1.95-.95,1.95-.95-1.95-.95,1.95-.95-1.95-.95,1.95-.95-1.95-.95,1.95-.95-1.95-.71,1.47v.85l-.27.13h-.7,0-.7l-.27-.13v-.85l-.72-1.47-.95,1.95-.95-1.95-.95,1.95-.95-1.95-.95,1.95-.95-1.95-.95,1.95-.95-1.95-.95,1.95-.95-1.95-.95,1.95-.95-1.95-.95,1.95-.95-1.95-.95,1.95-.95-1.95-.95,1.95-.95-1.95-.95,1.95v-.96h-10.83Z"/>
    <rect class="cls-4" x="380" y="62.46" width="28.11" height="17.88"/>
    <rect class="cls-24" x="380" y="62.46" width="28.11" height="17.88"/>
    <rect class="cls-4" x="248.96" y="62.46" width="28.11" height="17.88"/>
    <rect class="cls-24" x="248.96" y="62.46" width="28.11" height="17.88"/>
    <rect class="cls-4" x="81.44" y="62.46" width="28.11" height="17.88"/>
    <rect class="cls-24" x="81.44" y="62.46" width="28.11" height="17.88"/>
    <path class="cls-9" d="M187.85,81.93h-79.6s.62-1.56.62-5.1c0-6.2-4.14-13.83-13.3-13.83s-13.3,7.63-13.3,13.83c0,3.54.62,5.1.62,5.1h-30.21c-2.85,0-4.65-.16-5.44-.26-1.74-.22-31.58-3.81-32.74-3.95l-.21-.06h-.02s-.51-.12-1.04-.23c-.53-.11-.83-.53-1.02-.78-.18-.25,0-.89,0-.89,0,0-.68-1.9-.8-2.4-.11-.5,0-.92,0-.92,0,0-.59-.36-.59-1.01v-4.05c0-.7.39-1.12.39-1.12,0,0-.25-.11-.25-.5s-.14-19.32.88-44.06c.06-1.35-.24-1.79-.47-2.07-.22-.28-.04-.84.42-1.26.52-.46,2.09-1.54,5.16-1.9l.11-.03c1.36-.56,3.06-.91,5.23-.91h176.37v1.69l.95,1.95.95-1.95.95,1.95.95-1.95.95,1.95.95-1.95.95,1.95.95-1.95.95,1.95.95-1.95.95,1.95.95-1.95.95,1.95.95-1.95.95,1.95.95-1.95.95,1.95.95-1.95.95,1.95.72-1.95h1.93l.71,1.95.95-1.95.95,1.95.95-1.95.95,1.95.95-1.95.95,1.95.95-1.95.95,1.95.95-1.95.95,1.95.95-1.95.95,1.95.95-1.95.95,1.95.95-1.95.95,1.95.95-1.95.95,1.95.95-1.95h.34v-1.69h194.36c1.46,0,3.02.06,4.6.21l.27.02s3.06-.28,7.22-.25c0,0,.41-.67,1.38-.67h5.51s5.7-.11,6.3,1.75c0,0,3.72,15.04,3.72,47.8l-.22.2s.75.36.86.63.5.78.5,3.24c0,.14-.42.36-.42.36,0,0,.4.14.42.32.33,3.19.25,4.76.17,5.46-.08.7-.37.7-.37.7,0,0,.42.14.36.56-.06.42-.17,1.56-.17,2.09s-.33,1.34-1.23,1.48c-.89.14-7.98.98-7.98.98,0,0-9.27,1.52-12.23,1.52h-34.66s.62-1.56.62-5.1c0-6.2-4.14-13.83-13.3-13.83s-13.3,7.63-13.3,13.83c0,3.54.62,5.1.62,5.1h-105.71s.62-1.56.62-5.1c0-6.2-4.14-13.83-13.3-13.83s-13.3,7.63-13.3,13.83c0,3.54.62,5.1.62,5.1h-11.14s-1.17,0-1.17,0v.96l-.95-1.95-.95,1.95-.95-1.95-.95,1.95-.95-1.95-.95,1.95-.95-1.95-.95,1.95-.95-1.95-.95,1.95-.95-1.95-.95,1.95-.95-1.95-.95,1.95-.95-1.95-.95,1.95-.95-1.95-.95,1.95-.95-1.95-.71,1.47v.85l-.27.13h-.7,0-.7l-.27-.13v-.85l-.72-1.47-.95,1.95-.95-1.95-.95,1.95-.95-1.95-.95,1.95-.95-1.95-.95,1.95-.95-1.95-.95,1.95-.95-1.95-.95,1.95-.95-1.95-.95,1.95-.95-1.95-.95,1.95-.95-1.95-.95,1.95-.95-1.95-.95,1.95v-.96h-10.83Z"/>
    <path class="cls-24" d="M187.85,81.93h-79.6s.62-1.56.62-5.1c0-6.2-4.14-13.83-13.3-13.83s-13.3,7.63-13.3,13.83c0,3.54.62,5.1.62,5.1h-30.21c-2.85,0-4.65-.16-5.44-.26-1.74-.22-31.58-3.81-32.74-3.95l-.21-.06h-.02s-.51-.12-1.04-.23c-.53-.11-.83-.53-1.02-.78-.18-.25,0-.89,0-.89,0,0-.68-1.9-.8-2.4-.11-.5,0-.92,0-.92,0,0-.59-.36-.59-1.01v-4.05c0-.7.39-1.12.39-1.12,0,0-.25-.11-.25-.5s-.14-19.32.88-44.06c.06-1.35-.24-1.79-.47-2.07-.22-.28-.04-.84.42-1.26.52-.46,2.09-1.54,5.16-1.9l.11-.03c1.36-.56,3.06-.91,5.23-.91h176.37v1.69l.95,1.95.95-1.95.95,1.95.95-1.95.95,1.95.95-1.95.95,1.95.95-1.95.95,1.95.95-1.95.95,1.95.95-1.95.95,1.95.95-1.95.95,1.95.95-1.95.95,1.95.95-1.95.95,1.95.72-1.95h1.93l.71,1.95.95-1.95.95,1.95.95-1.95.95,1.95.95-1.95.95,1.95.95-1.95.95,1.95.95-1.95.95,1.95.95-1.95.95,1.95.95-1.95.95,1.95.95-1.95.95,1.95.95-1.95.95,1.95.95-1.95h.34v-1.69h194.36c1.46,0,3.02.06,4.6.21l.27.02s3.06-.28,7.22-.25c0,0,.41-.67,1.38-.67h5.51s5.7-.11,6.3,1.75c0,0,3.72,15.04,3.72,47.8l-.22.2s.75.36.86.63.5.78.5,3.24c0,.14-.42.36-.42.36,0,0,.4.14.42.32.33,3.19.25,4.76.17,5.46-.08.7-.37.7-.37.7,0,0,.42.14.36.56-.06.42-.17,1.56-.17,2.09s-.33,1.34-1.23,1.48c-.89.14-7.98.98-7.98.98,0,0-9.27,1.52-12.23,1.52h-34.66s.62-1.56.62-5.1c0-6.2-4.14-13.83-13.3-13.83s-13.3,7.63-13.3,13.83c0,3.54.62,5.1.62,5.1h-105.71s.62-1.56.62-5.1c0-6.2-4.14-13.83-13.3-13.83s-13.3,7.63-13.3,13.83c0,3.54.62,5.1.62,5.1h-11.14s-1.17,0-1.17,0v.96l-.95-1.95-.95,1.95-.95-1.95-.95,1.95-.95-1.95-.95,1.95-.95-1.95-.95,1.95-.95-1.95-.95,1.95-.95-1.95-.95,1.95-.95-1.95-.95,1.95-.95-1.95-.95,1.95-.95-1.95-.95,1.95-.95-1.95-.71,1.47v.85l-.27.13h-.7,0-.7l-.27-.13v-.85l-.72-1.47-.95,1.95-.95-1.95-.95,1.95-.95-1.95-.95,1.95-.95-1.95-.95,1.95-.95-1.95-.95,1.95-.95-1.95-.95,1.95-.95-1.95-.95,1.95-.95-1.95-.95,1.95-.95-1.95-.95,1.95-.95-1.95-.95,1.95v-.96h-10.83Z"/>
    <path class="cls-24" d="M197.08,81.93h-88.83s.62-1.56.62-5.1c0-6.2-4.14-13.83-13.3-13.83s-13.3,7.63-13.3,13.83c0,3.54.62,5.1.62,5.1h-30.21c-2.85,0-4.65-.16-5.45-.26-1.74-.22-31.58-3.81-32.74-3.95-1.16-.14-2.12-3.64-2.4-4.45-.28-.81-.54-1.27-.54-1.94v-3.97c0-.45.09-1.19.26-1.73.4-1.29.82-2.44,1.7-4.37.49-1.09.6-1.8.6-2.67v-7.06c0-.36-.13-.64-.46-.95-.33-.31-1.03-.93-1.23-1.12-.2-.18-.36-.29-.4-1.15-.04-.86.49-19.88.82-26.51.14-2.79,2.58-6.27,9.46-6.27h172.96"/>
    <path class="cls-6" d="M173.74,69.15h-.4v11.89h-35.14v-11.89h-21.68c-.75,0-1.09-.22-1.76-1.02-.67-.8-4.22-5.81-8.97-9.75-1.28-1.06-3.13-1.6-4.99-1.6h-10.42c-1.86,0-3.72.55-4.99,1.6-4.75,3.94-8.3,8.95-8.97,9.75-.67.8-1.41,1.02-2.17,1.02h-.11v11.89h-31.76l-3.38-.36v-11.53h-11.51c-1.14,0-1.96-.56-2.38-1.07-.42-.5-5.1-6.29-5.1-6.29V22.52c0-1.53.6-3.02,2.12-3.02h410.78c2.2,0,5.78.3,7.08.45,1.3.15,6.41.78,8.91,1.43,2.94.77,4.14,2.41,4.14,3.53,0,0,.59,16.72.63,38.45v1.76s7.87.94,8.53,5.21c.25,1.59.21,4.85.21,4.85-.43-1.02-.8-1.1-1.06-1.24-.27-.14-.42.17-.68.13-.26-.04-.66-.11-1.41-.24-.75-.12-.43-.2-1.65-.61-1.22-.42-3.96-.5-3.96-.5-.02,2.57-.04,5.09-.07,7.74l-1.83.29v-1.06h-35.14v-10.51h-1.01c-.76,0-1.63-.22-2.3-1.02-.67-.8-4.22-5.81-8.97-9.75-1.28-1.06-3.13-1.6-4.99-1.6h-10.42c-1.86,0-3.72.55-4.99,1.6-4.75,3.94-8.3,8.95-8.97,9.75-.67.8-1.01,1.02-1.76,1.02h-32.37v11.89h-35.14v-11.89h-21.68c-.75,0-1.09-.22-1.76-1.02-.67-.8-4.22-5.81-8.97-9.75-1.28-1.06-3.13-1.6-4.99-1.6h-10.41c-1.87,0-3.72.55-4.99,1.6-4.75,3.94-8.3,8.95-8.97,9.75-.67.8-1.41,1.02-2.17,1.02h-68.05Z"/>
    <path class="cls-24" d="M173.74,69.15h-.4v11.89h-35.14v-11.89h-21.68c-.75,0-1.09-.22-1.76-1.02-.67-.8-4.22-5.81-8.97-9.75-1.28-1.06-3.13-1.6-4.99-1.6h-10.42c-1.86,0-3.72.55-4.99,1.6-4.75,3.94-8.3,8.95-8.97,9.75-.67.8-1.41,1.02-2.17,1.02h-.11v11.89h-31.76l-3.38-.36v-11.53h-11.51c-1.14,0-1.96-.56-2.38-1.07-.42-.5-5.1-6.29-5.1-6.29V22.52c0-1.53.6-3.02,2.12-3.02h410.78c2.2,0,5.78.3,7.08.45,1.3.15,6.41.78,8.91,1.43,2.94.77,4.14,2.41,4.14,3.53,0,0,.59,16.72.63,38.45v1.76s7.87.94,8.53,5.21c.25,1.59.21,4.85.21,4.85-.43-1.02-.8-1.1-1.06-1.24-.27-.14-.42.17-.68.13-.26-.04-.66-.11-1.41-.24-.75-.12-.43-.2-1.65-.61-1.22-.42-3.96-.5-3.96-.5-.02,2.57-.04,5.09-.07,7.74l-1.83.29v-1.06h-35.14v-10.51h-1.01c-.76,0-1.63-.22-2.3-1.02-.67-.8-4.22-5.81-8.97-9.75-1.28-1.06-3.13-1.6-4.99-1.6h-10.42c-1.86,0-3.72.55-4.99,1.6-4.75,3.94-8.3,8.95-8.97,9.75-.67.8-1.01,1.02-1.76,1.02h-32.37v11.89h-35.14v-11.89h-21.68c-.75,0-1.09-.22-1.76-1.02-.67-.8-4.22-5.81-8.97-9.75-1.28-1.06-3.13-1.6-4.99-1.6h-10.41c-1.87,0-3.72.55-4.99,1.6-4.75,3.94-8.3,8.95-8.97,9.75-.67.8-1.41,1.02-2.17,1.02h-68.05Z"/>
    <polygon class="cls-11" points="218.01 17.23 217.44 17.23 216.72 19.19 215.77 17.23 214.82 19.19 213.87 17.23 212.92 19.19 211.97 17.23 211.02 19.19 210.08 17.23 209.13 19.19 208.18 17.23 207.23 19.19 206.28 17.23 205.33 19.19 204.38 17.23 203.43 19.19 202.48 17.23 201.53 19.19 200.58 17.23 199.63 19.19 198.68 17.23 198.35 17.23 198.35 81.94 198.68 81.94 198.68 82.89 199.63 80.94 200.58 82.89 201.53 80.94 202.48 82.89 203.43 80.94 204.38 82.89 205.33 80.94 206.28 82.89 207.23 80.94 208.18 82.89 209.13 80.94 210.08 82.89 211.02 80.94 211.97 82.89 212.92 80.94 213.87 82.89 214.82 80.94 215.77 82.89 216.72 80.94 217.44 82.41 217.44 83.26 217.71 83.39 218.4 83.39 218.4 83.39 219.1 83.39 219.37 83.26 219.37 82.41 220.08 80.94 221.03 82.89 221.98 80.94 222.93 82.89 223.88 80.94 224.83 82.89 225.78 80.94 226.73 82.89 227.68 80.94 228.63 82.89 229.57 80.94 230.52 82.89 231.47 80.94 232.42 82.89 233.37 80.94 234.32 82.89 235.27 80.94 236.22 82.89 237.17 80.94 238.12 82.89 238.12 81.94 238.46 81.94 238.46 17.23 238.12 17.23 237.17 19.19 236.22 17.23 235.27 19.19 234.32 17.23 233.37 19.19 232.42 17.23 231.47 19.19 230.52 17.23 229.57 19.19 228.63 17.23 227.68 19.19 226.73 17.23 225.78 19.19 224.83 17.23 223.88 19.19 222.93 17.23 221.98 19.19 221.03 17.23 220.08 19.19 219.37 17.23 218.01 17.23"/>
    <polygon class="cls-24" points="218.01 17.23 217.44 17.23 216.72 19.19 215.77 17.23 214.82 19.19 213.87 17.23 212.92 19.19 211.97 17.23 211.02 19.19 210.08 17.23 209.13 19.19 208.18 17.23 207.23 19.19 206.28 17.23 205.33 19.19 204.38 17.23 203.43 19.19 202.48 17.23 201.53 19.19 200.58 17.23 199.63 19.19 198.68 17.23 198.35 17.23 198.35 81.94 198.68 81.94 198.68 82.89 199.63 80.94 200.58 82.89 201.53 80.94 202.48 82.89 203.43 80.94 204.38 82.89 205.33 80.94 206.28 82.89 207.23 80.94 208.18 82.89 209.13 80.94 210.08 82.89 211.02 80.94 211.97 82.89 212.92 80.94 213.87 82.89 214.82 80.94 215.77 82.89 216.72 80.94 217.44 82.41 217.44 83.26 217.71 83.39 218.4 83.39 218.4 83.39 219.1 83.39 219.37 83.26 219.37 82.41 220.08 80.94 221.03 82.89 221.98 80.94 222.93 82.89 223.88 80.94 224.83 82.89 225.78 80.94 226.73 82.89 227.68 80.94 228.63 82.89 229.57 80.94 230.52 82.89 231.47 80.94 232.42 82.89 233.37 80.94 234.32 82.89 235.27 80.94 236.22 82.89 237.17 80.94 238.12 82.89 238.12 81.94 238.46 81.94 238.46 17.23 238.12 17.23 237.17 19.19 236.22 17.23 235.27 19.19 234.32 17.23 233.37 19.19 232.42 17.23 231.47 19.19 230.52 17.23 229.57 19.19 228.63 17.23 227.68 19.19 226.73 17.23 225.78 19.19 224.83 17.23 223.88 19.19 222.93 17.23 221.98 19.19 221.03 17.23 220.08 19.19 219.37 17.23 218.01 17.23"/>
    <polygon class="cls-1" points="301.27 25.38 285.77 25.38 285.77 56.17 302.47 56.17 302.47 26.51 301.27 25.38"/>
    <polygon class="cls-23" points="301.27 25.38 285.77 25.38 285.77 56.17 302.47 56.17 302.47 26.51 301.27 25.38"/>
    <path class="cls-23" d="M437.41,15.75c6.25.57,12.73,2.02,14.39,2.43,2.09.52,3.69,1.3,3.82,4.15.51,11.51,1.46,35.59,1.51,36.88.06,1.29,1,2.05,1.6,2.54.88.71,2.58,1.68,3.22,3.73.2.63.88,1.09.88,1.09"/>
    <path class="cls-24" d="M453.87,80.4c-.09.01-.14.02-.14.02,0,0-9.27,1.52-12.23,1.52h-34.66s.16-.41.33-1.3"/>
    <path class="cls-24" d="M462.75,75.3s.42.14.36.56c-.06.42-.17,1.56-.17,2.09s-.33,1.34-1.23,1.48c-.89.14-7.98.98-7.98.98"/>
    <path class="cls-24" d="M461.58,64.59s.74.35.86.63c.11.28.5.78.5,3.24,0,.14-.42.36-.42.36,0,0,.4.14.42.32.33,3.19.25,4.76.17,5.45-.08.7-.37.7-.37.7"/>
    <path class="cls-24" d="M437.68,15.77s3.06-.28,7.22-.25c0,0,.41-.67,1.38-.67h5.51s5.7-.11,6.3,1.75c0,0,3.72,15.04,3.72,47.8l-.21.2h0c-.78-1.46-2.1-2.24-2.85-2.85-.61-.49-1.55-1.26-1.6-2.54-.05-1.28-1.01-25.37-1.51-36.88-.13-2.86-1.73-3.63-3.82-4.15-1.66-.42-8.14-1.87-14.39-2.43"/>
    <path class="cls-6" d="M437.68,15.77s3.06-.28,7.22-.25c0,0,.41-.67,1.38-.67h5.51s5.7-.11,6.3,1.75c0,0,3.72,15.04,3.72,47.8l-.21.2h0c-.78-1.46-2.1-2.24-2.85-2.85-.61-.49-1.55-1.26-1.6-2.54-.05-1.28-1.01-25.37-1.51-36.88-.13-2.85-1.73-3.63-3.82-4.15-1.66-.42-8.14-1.87-14.39-2.43"/>
    <path class="cls-24" d="M437.68,15.77s3.06-.28,7.22-.25c0,0,.41-.67,1.38-.67h5.51s5.7-.11,6.3,1.75c0,0,3.72,15.04,3.72,47.8l-.21.2h0c-.78-1.46-2.1-2.24-2.85-2.85-.61-.49-1.55-1.26-1.6-2.54-.05-1.28-1.01-25.37-1.51-36.88-.13-2.85-1.73-3.63-3.82-4.15-1.66-.42-8.14-1.87-14.39-2.43"/>
  </g>
  <g class="cls-33">
    <rect class="cls-2" x="457.3" y="18.75" width="2.46" height="8.23"/>
  </g>
  <g class="cls-27">
    <path class="cls-24" d="M459.76,26.98c-.48-3.8-.94-6.53-1.26-8.23h-1.2c.32,1.7.65,4.43,1.12,8.23h1.34Z"/>
    <path class="cls-24" d="M455.92,29.35c-.11-2.6-.21-5-.3-7.02-.13-2.86-1.73-3.63-3.82-4.15-1.66-.42-8.14-1.87-14.39-2.43"/>
  </g>
  <g class="cls-40">
    <rect class="cls-9" x="455.89" y="28.51" width="5.82" height="27.2"/>
  </g>
  <g class="cls-34">
    <path class="cls-24" d="M456.97,55.25c-.24-5.86-.69-17.02-1.05-25.9-.04-.83.26-.84.69-.84h3.36c.74,6.38,1.48,15.38,1.74,27.2h-4.21c-.39,0-.53-.26-.52-.46"/>
    <path class="cls-1" d="M406.88,76.42c0-7.02-5.69-12.72-12.71-12.72s-12.72,5.69-12.72,12.72,5.69,12.72,12.72,12.72,12.71-5.69,12.71-12.72"/>
    <path class="cls-16" d="M406.88,76.42c0-7.02-5.69-12.72-12.71-12.72s-12.72,5.69-12.72,12.72,5.69,12.72,12.72,12.72,12.71-5.69,12.71-12.72Z"/>
    <line class="cls-25" x1="406.18" y1="76.42" x2="406.88" y2="76.42"/>
    <line class="cls-25" x1="405.8" y1="75.5" x2="406.84" y2="75.42"/>
    <line class="cls-25" x1="406.03" y1="74.54" x2="406.73" y2="74.43"/>
    <line class="cls-25" x1="405.59" y1="72.7" x2="406.26" y2="72.49"/>
    <line class="cls-25" x1="404.87" y1="70.96" x2="405.5" y2="70.64"/>
    <line class="cls-25" x1="403.88" y1="69.36" x2="404.45" y2="68.94"/>
    <line class="cls-25" x1="402.66" y1="67.92" x2="403.16" y2="67.43"/>
    <line class="cls-25" x1="401.23" y1="66.7" x2="401.64" y2="66.13"/>
    <line class="cls-25" x1="399.62" y1="65.71" x2="399.94" y2="65.09"/>
    <line class="cls-25" x1="397.88" y1="64.99" x2="398.09" y2="64.32"/>
    <line class="cls-25" x1="396.05" y1="64.55" x2="396.16" y2="63.86"/>
    <line class="cls-25" x1="394.17" y1="64.4" x2="394.17" y2="63.7"/>
    <line class="cls-25" x1="392.29" y1="64.55" x2="392.18" y2="63.86"/>
    <line class="cls-25" x1="390.45" y1="64.99" x2="390.24" y2="64.32"/>
    <line class="cls-25" x1="388.71" y1="65.71" x2="388.39" y2="65.09"/>
    <line class="cls-25" x1="387.11" y1="66.7" x2="386.69" y2="66.13"/>
    <line class="cls-25" x1="385.67" y1="67.92" x2="385.18" y2="67.43"/>
    <line class="cls-25" x1="384.45" y1="69.36" x2="383.88" y2="68.94"/>
    <line class="cls-25" x1="383.46" y1="70.96" x2="382.84" y2="70.64"/>
    <line class="cls-25" x1="382.74" y1="72.7" x2="382.07" y2="72.49"/>
    <line class="cls-25" x1="382.3" y1="74.54" x2="381.61" y2="74.43"/>
    <line class="cls-25" x1="382.15" y1="76.42" x2="381.45" y2="76.42"/>
    <line class="cls-25" x1="382.3" y1="78.3" x2="381.61" y2="78.41"/>
    <line class="cls-25" x1="382.74" y1="80.13" x2="382.07" y2="80.35"/>
    <line class="cls-25" x1="383.46" y1="81.87" x2="382.84" y2="82.19"/>
    <line class="cls-25" x1="384.45" y1="83.48" x2="383.88" y2="83.89"/>
    <line class="cls-25" x1="385.67" y1="84.91" x2="385.17" y2="85.41"/>
    <line class="cls-25" x1="387.1" y1="86.14" x2="386.69" y2="86.7"/>
    <line class="cls-25" x1="388.71" y1="87.12" x2="388.39" y2="87.75"/>
    <line class="cls-25" x1="390.45" y1="87.84" x2="390.23" y2="88.51"/>
    <line class="cls-25" x1="392.29" y1="88.28" x2="392.18" y2="88.98"/>
    <line class="cls-25" x1="394.17" y1="88.43" x2="394.17" y2="89.13"/>
    <line class="cls-25" x1="396.04" y1="88.28" x2="396.15" y2="88.98"/>
    <line class="cls-25" x1="397.87" y1="87.84" x2="398.09" y2="88.51"/>
    <line class="cls-25" x1="399.62" y1="87.12" x2="399.94" y2="87.75"/>
    <line class="cls-25" x1="401.22" y1="86.14" x2="401.63" y2="86.7"/>
    <line class="cls-25" x1="402.66" y1="84.91" x2="403.15" y2="85.41"/>
    <line class="cls-25" x1="403.88" y1="83.48" x2="404.45" y2="83.89"/>
    <line class="cls-25" x1="404.86" y1="81.87" x2="405.49" y2="82.19"/>
    <line class="cls-25" x1="405.59" y1="80.13" x2="406.26" y2="80.35"/>
    <line class="cls-25" x1="406.03" y1="78.3" x2="406.72" y2="78.41"/>
    <line class="cls-25" x1="405.51" y1="73.69" x2="406.53" y2="73.45"/>
    <line class="cls-25" x1="404.95" y1="71.95" x2="405.91" y2="71.55"/>
    <line class="cls-25" x1="404.11" y1="70.32" x2="405" y2="69.77"/>
    <line class="cls-25" x1="403.04" y1="68.84" x2="403.83" y2="68.16"/>
    <line class="cls-25" x1="401.74" y1="67.54" x2="402.42" y2="66.75"/>
    <line class="cls-25" x1="400.26" y1="66.46" x2="400.81" y2="65.58"/>
    <line class="cls-25" x1="398.63" y1="65.63" x2="399.03" y2="64.67"/>
    <line class="cls-25" x1="396.89" y1="65.07" x2="397.13" y2="64.05"/>
    <line class="cls-25" x1="395.08" y1="64.78" x2="395.16" y2="63.74"/>
    <line class="cls-25" x1="393.25" y1="64.78" x2="393.17" y2="63.74"/>
    <line class="cls-25" x1="391.44" y1="65.07" x2="391.2" y2="64.05"/>
    <line class="cls-25" x1="389.7" y1="65.63" x2="389.3" y2="64.67"/>
    <line class="cls-25" x1="388.06" y1="66.46" x2="387.52" y2="65.58"/>
    <line class="cls-25" x1="386.58" y1="67.54" x2="385.91" y2="66.75"/>
    <line class="cls-25" x1="385.29" y1="68.84" x2="384.49" y2="68.16"/>
    <line class="cls-25" x1="384.21" y1="70.32" x2="383.32" y2="69.77"/>
    <line class="cls-25" x1="383.38" y1="71.95" x2="382.42" y2="71.55"/>
    <line class="cls-25" x1="382.81" y1="73.69" x2="381.8" y2="73.45"/>
    <line class="cls-25" x1="382.52" y1="75.5" x2="381.49" y2="75.42"/>
    <line class="cls-25" x1="382.52" y1="77.33" x2="381.49" y2="77.41"/>
    <line class="cls-25" x1="382.81" y1="79.14" x2="381.8" y2="79.38"/>
    <line class="cls-25" x1="383.38" y1="80.88" x2="382.42" y2="81.28"/>
    <line class="cls-25" x1="384.21" y1="82.51" x2="383.32" y2="83.06"/>
    <line class="cls-25" x1="385.29" y1="84" x2="384.49" y2="84.67"/>
    <line class="cls-25" x1="386.58" y1="85.29" x2="385.91" y2="86.09"/>
    <line class="cls-25" x1="388.06" y1="86.37" x2="387.52" y2="87.26"/>
    <line class="cls-25" x1="389.7" y1="87.2" x2="389.3" y2="88.16"/>
    <line class="cls-25" x1="391.44" y1="87.77" x2="391.2" y2="88.78"/>
    <line class="cls-25" x1="393.25" y1="88.05" x2="393.17" y2="89.09"/>
    <line class="cls-25" x1="395.08" y1="88.05" x2="395.16" y2="89.09"/>
    <line class="cls-25" x1="396.89" y1="87.77" x2="397.13" y2="88.78"/>
    <line class="cls-25" x1="398.63" y1="87.2" x2="399.03" y2="88.16"/>
    <line class="cls-25" x1="400.26" y1="86.37" x2="400.81" y2="87.26"/>
    <line class="cls-25" x1="401.74" y1="85.29" x2="402.42" y2="86.09"/>
    <line class="cls-25" x1="403.04" y1="84" x2="403.83" y2="84.67"/>
    <line class="cls-25" x1="404.11" y1="82.52" x2="405" y2="83.06"/>
    <line class="cls-25" x1="404.95" y1="80.88" x2="405.91" y2="81.28"/>
    <line class="cls-25" x1="405.51" y1="79.14" x2="406.53" y2="79.38"/>
    <line class="cls-25" x1="405.8" y1="77.33" x2="406.84" y2="77.41"/>
    <path class="cls-10" d="M385.6,76.58c-.19,0-.66-.26-.79-.75-.41,5.57,4.16,10.02,9.39,10.02,2.05,0,3.98-.68,5.53-1.79-1.63,1.21-3.55,1.81-5.66,1.81-5.38,0-9.64-4.07-9.64-9.45s4.36-9.74,9.74-9.74c.57,0,1.15.03,1.66.14,1.53.21,4.06,1.58,5.02,3.08.94,1.38-.66,2.54-.66,2.54-1.16-1.78-3.43-3.36-6.14-3.36-4.31,0-7.36,3.09-7.36,7.39.02-.96-.68-.07-1.1.12"/>
    <path class="cls-20" d="M385.6,76.58c-.19,0-.66-.26-.79-.75-.41,5.57,4.16,10.02,9.39,10.02,2.05,0,3.98-.68,5.53-1.79-1.63,1.21-3.55,1.81-5.66,1.81-5.38,0-9.64-4.07-9.64-9.45s4.36-9.74,9.74-9.74c.57,0,1.15.03,1.66.14,1.53.21,4.06,1.58,5.02,3.08.94,1.38-.66,2.54-.66,2.54-1.16-1.78-3.43-3.36-6.14-3.36-4.31,0-7.36,3.09-7.36,7.39.02-.96-.68-.07-1.1.12Z"/>
    <path class="cls-10" d="M388.76,68.03c1.54-1,3.38-1.58,5.35-1.58,5.46,0,9.87,4.42,9.87,9.87,0,1.91-.55,3.7-1.48,5.21.94-1.51,1.75-3.52,1.75-5.43,0-5.45-4.42-9.87-9.87-9.87-1.97,0-4.08.8-5.63,1.8"/>
    <path class="cls-20" d="M388.76,68.03c1.54-1,3.38-1.58,5.35-1.58,5.46,0,9.87,4.42,9.87,9.87,0,1.91-.55,3.7-1.48,5.21.94-1.51,1.75-3.52,1.75-5.43,0-5.45-4.42-9.87-9.87-9.87-1.97,0-4.08.8-5.63,1.8Z"/>
    <path class="cls-10" d="M402.08,82.15c-1.8,2.45-4.7,4.04-7.97,4.04-5.45,0-9.87-4.42-9.87-9.87,0-2.02.61-3.9,1.65-5.46-1.04,1.56-1.79,3.7-1.79,5.72,0,5.45,4.42,9.87,9.87,9.87,3.27,0,6.31-1.84,8.11-4.29"/>
    <path class="cls-20" d="M402.08,82.15c-1.8,2.45-4.7,4.04-7.97,4.04-5.45,0-9.87-4.42-9.87-9.87,0-2.02.61-3.9,1.65-5.46-1.04,1.56-1.79,3.7-1.79,5.72,0,5.45,4.42,9.87,9.87,9.87,3.27,0,6.31-1.84,8.11-4.29Z"/>
    <path class="cls-10" d="M401.64,70.32c1.31,1.65,2.1,3.73,2.1,6,0,1.25-.24,2.45-.67,3.55.44-1.1.63-3.84.37-4.92-.13-.9-.57-2.84-1.79-4.62"/>
    <path class="cls-20" d="M401.64,70.32c1.31,1.65,2.1,3.73,2.1,6,0,1.25-.24,2.45-.67,3.55.44-1.1.63-3.84.37-4.92-.13-.9-.57-2.84-1.79-4.62Z"/>
    <path class="cls-10" d="M392.72,65.82c.46-.1.93-.15,1.4-.15,5.89,0,10.66,4.77,10.66,10.66s-4.77,10.65-10.66,10.65-10.65-4.77-10.65-10.65c0-1.79.44-3.47,1.22-4.95-1.7,2.55-1.62,4.23-1.62,6.02,0,.47-.49-1.69-.49-1.23,0,7.35,5.91,11.82,11.15,11.89-2.84.35-5.03-.55-4.31-.22,10.32,4.7,18.24-5.94,16.65-10.29-.35-.94.03,1.45-.86,2.01,0,0,.17-.94.22-1.44.19-1.17.03-2.56-.3-3.86-.24-.95-.07,1.5-.12.86-.54-6.16-6.54-9.79-10.88-9.44-.45,0-.92.06-1.4.15"/>
    <path class="cls-20" d="M392.72,65.82c.46-.1.93-.15,1.4-.15,5.89,0,10.66,4.77,10.66,10.66s-4.77,10.65-10.66,10.65-10.65-4.77-10.65-10.65c0-1.79.44-3.47,1.22-4.95-1.7,2.55-1.62,4.23-1.62,6.02,0,.47-.49-1.69-.49-1.23,0,7.35,5.91,11.82,11.15,11.89-2.84.35-5.03-.55-4.31-.22,10.32,4.7,18.24-5.94,16.65-10.29-.35-.94.03,1.45-.86,2.01,0,0,.17-.94.22-1.44.19-1.17.03-2.56-.3-3.86-.24-.95-.07,1.5-.12.86-.54-6.16-6.54-9.79-10.88-9.44-.45,0-.92.06-1.4.15Z"/>
    <path class="cls-22" d="M400.33,76.32c0-3.41-2.78-6.17-6.21-6.17s-6.21,2.76-6.21,6.17,2.78,6.17,6.21,6.17,6.21-2.76,6.21-6.17Z"/>
    <path class="cls-1" d="M386.77,76.35c0-4.02,3.26-7.28,7.28-7.28s7.28,3.26,7.28,7.28-3.26,7.29-7.28,7.29-7.28-3.26-7.28-7.29"/>
    <path class="cls-26" d="M386.77,76.35c0-4.02,3.26-7.28,7.28-7.28s7.28,3.26,7.28,7.28-3.26,7.29-7.28,7.29-7.28-3.26-7.28-7.29Z"/>
    <path class="cls-10" d="M399.71,76.32c0-3.09-2.51-5.59-5.6-5.59s-5.59,2.51-5.59,5.59,2.51,5.59,5.59,5.59,5.6-2.5,5.6-5.59"/>
    <path class="cls-26" d="M399.71,76.32c0-3.09-2.51-5.59-5.6-5.59s-5.59,2.51-5.59,5.59,2.51,5.59,5.59,5.59,5.6-2.5,5.6-5.59Z"/>
    <path class="cls-9" d="M391.42,71.68c.77-.44,1.2-.81,1.2-1.07v-.43c.48-.12.98-.18,1.49-.18s1.01.06,1.49.18v.43c0,.26.43.63,1.2,1.07.77.45,1.31.63,1.53.51.22-.13.38-.22.38-.22.34.36.64.76.9,1.2.26.44.45.91.59,1.38,0,0-.15.09-.38.22-.22.13-.33.69-.33,1.57,0,.88.1,1.45.33,1.58.22.13.38.22.38.22-.14.47-.33.93-.59,1.38-.26.44-.56.84-.9,1.2,0,0-.15-.09-.38-.22-.22-.13-.76.06-1.53.5-.77.44-1.2.81-1.2,1.07v.43c-.48.11-.97.17-1.49.17s-1.01-.06-1.49-.17v-.43c0-.26-.43-.63-1.2-1.07-.77-.45-1.3-.63-1.53-.51-.22.13-.38.22-.38.22-.34-.36-.64-.76-.9-1.2-.26-.45-.45-.91-.6-1.38,0,0,.16-.09.38-.22.22-.13.33-.69.33-1.58,0-.89-.1-1.45-.33-1.57-.22-.13-.38-.22-.38-.22.14-.47.34-.93.59-1.38.26-.44.56-.85.9-1.2,0,0,.15.09.38.22.22.13.76-.06,1.53-.5"/>
    <path class="cls-18" d="M391.42,71.68c.77-.44,1.2-.81,1.2-1.07v-.43c.48-.12.98-.18,1.49-.18s1.01.06,1.49.18v.43c0,.26.43.63,1.2,1.07.77.45,1.31.63,1.53.51.22-.13.38-.22.38-.22.34.36.64.76.9,1.2.26.44.45.91.59,1.38,0,0-.15.09-.38.22-.22.13-.33.69-.33,1.57,0,.88.1,1.45.33,1.58.22.13.38.22.38.22-.14.47-.33.93-.59,1.38-.26.44-.56.84-.9,1.2,0,0-.15-.09-.38-.22-.22-.13-.76.06-1.53.5-.77.44-1.2.81-1.2,1.07v.43c-.48.11-.97.17-1.49.17s-1.01-.06-1.49-.17v-.43c0-.26-.43-.63-1.2-1.07-.77-.45-1.3-.63-1.53-.51-.22.13-.38.22-.38.22-.34-.36-.64-.76-.9-1.2-.26-.45-.45-.91-.6-1.38,0,0,.16-.09.38-.22.22-.13.33-.69.33-1.58,0-.89-.1-1.45-.33-1.57-.22-.13-.38-.22-.38-.22.14-.47.34-.93.59-1.38.26-.44.56-.85.9-1.2,0,0,.15.09.38.22.22.13.76-.06,1.53-.5Z"/>
    <path class="cls-18" d="M397.04,76.34c0-1.62-1.31-2.93-2.93-2.93s-2.93,1.31-2.93,2.93,1.31,2.93,2.93,2.93,2.93-1.31,2.93-2.93Z"/>
    <polygon class="cls-10" points="392.88 76.24 393.12 76 393.46 76 393.46 76.71 393.1 76.71 393.1 76.43 392.88 76.65 392.66 76.43 392.66 76.71 392.3 76.71 392.3 76 392.64 76 392.88 76.24"/>
    <polygon class="cls-21" points="392.88 76.24 393.12 76 393.46 76 393.46 76.71 393.1 76.71 393.1 76.43 392.88 76.65 392.66 76.43 392.66 76.71 392.3 76.71 392.3 76 392.64 76 392.88 76.24"/>
    <polygon class="cls-10" points="394.19 76 394.38 76 394.84 76.71 394.47 76.71 394.42 76.63 393.96 76.63 393.91 76.71 393.54 76.71 393.99 76 394.19 76"/>
    <polygon class="cls-21" points="394.19 76 394.38 76 394.84 76.71 394.47 76.71 394.42 76.63 393.96 76.63 393.91 76.71 393.54 76.71 393.99 76 394.19 76"/>
    <polygon class="cls-1" points="394.19 76.46 394.31 76.46 394.19 76.28 394.07 76.46 394.19 76.46"/>
    <polygon class="cls-17" points="394.19 76.46 394.31 76.46 394.19 76.28 394.07 76.46 394.19 76.46"/>
    <polygon class="cls-10" points="395.7 76 396.07 76 396.07 76.71 395.7 76.71 395.27 76.39 395.27 76.71 394.91 76.71 394.91 76 395.27 76 395.7 76.32 395.7 76"/>
    <polygon class="cls-21" points="395.7 76 396.07 76 396.07 76.71 395.7 76.71 395.27 76.39 395.27 76.71 394.91 76.71 394.91 76 395.27 76 395.7 76.32 395.7 76"/>
    <path class="cls-1" d="M275.82,76.42c0-7.02-5.69-12.72-12.71-12.72s-12.72,5.69-12.72,12.72,5.69,12.72,12.72,12.72,12.71-5.69,12.71-12.72"/>
    <path class="cls-16" d="M275.82,76.42c0-7.02-5.69-12.72-12.71-12.72s-12.72,5.69-12.72,12.72,5.69,12.72,12.72,12.72,12.71-5.69,12.71-12.72Z"/>
    <line class="cls-25" x1="275.11" y1="76.42" x2="275.82" y2="76.42"/>
    <line class="cls-25" x1="274.74" y1="75.5" x2="275.78" y2="75.42"/>
    <line class="cls-25" x1="274.97" y1="74.54" x2="275.66" y2="74.43"/>
    <line class="cls-25" x1="274.53" y1="72.7" x2="275.2" y2="72.49"/>
    <line class="cls-25" x1="273.81" y1="70.96" x2="274.43" y2="70.64"/>
    <line class="cls-25" x1="272.82" y1="69.36" x2="273.39" y2="68.94"/>
    <line class="cls-25" x1="271.6" y1="67.92" x2="272.09" y2="67.43"/>
    <line class="cls-25" x1="270.16" y1="66.7" x2="270.58" y2="66.13"/>
    <line class="cls-25" x1="268.55" y1="65.71" x2="268.87" y2="65.09"/>
    <line class="cls-25" x1="266.81" y1="64.99" x2="267.03" y2="64.32"/>
    <line class="cls-25" x1="264.98" y1="64.55" x2="265.09" y2="63.86"/>
    <line class="cls-25" x1="263.1" y1="64.4" x2="263.1" y2="63.7"/>
    <line class="cls-25" x1="261.22" y1="64.55" x2="261.11" y2="63.86"/>
    <line class="cls-25" x1="259.39" y1="64.99" x2="259.17" y2="64.32"/>
    <line class="cls-25" x1="257.65" y1="65.71" x2="257.33" y2="65.09"/>
    <line class="cls-25" x1="256.04" y1="66.7" x2="255.63" y2="66.13"/>
    <line class="cls-25" x1="254.61" y1="67.92" x2="254.11" y2="67.43"/>
    <line class="cls-25" x1="253.38" y1="69.36" x2="252.81" y2="68.94"/>
    <line class="cls-25" x1="252.4" y1="70.96" x2="251.77" y2="70.64"/>
    <line class="cls-25" x1="251.67" y1="72.7" x2="251.01" y2="72.49"/>
    <line class="cls-25" x1="251.23" y1="74.54" x2="250.54" y2="74.43"/>
    <line class="cls-25" x1="251.09" y1="76.42" x2="250.39" y2="76.42"/>
    <line class="cls-25" x1="251.23" y1="78.3" x2="250.54" y2="78.41"/>
    <line class="cls-25" x1="251.67" y1="80.13" x2="251.01" y2="80.35"/>
    <line class="cls-25" x1="252.4" y1="81.87" x2="251.77" y2="82.19"/>
    <line class="cls-25" x1="253.38" y1="83.48" x2="252.81" y2="83.89"/>
    <line class="cls-25" x1="254.61" y1="84.91" x2="254.11" y2="85.41"/>
    <line class="cls-25" x1="256.04" y1="86.14" x2="255.63" y2="86.7"/>
    <line class="cls-25" x1="257.65" y1="87.12" x2="257.33" y2="87.75"/>
    <line class="cls-25" x1="259.39" y1="87.84" x2="259.17" y2="88.51"/>
    <line class="cls-25" x1="261.22" y1="88.28" x2="261.11" y2="88.98"/>
    <line class="cls-25" x1="263.1" y1="88.43" x2="263.1" y2="89.13"/>
    <line class="cls-25" x1="264.98" y1="88.28" x2="265.09" y2="88.98"/>
    <line class="cls-25" x1="266.81" y1="87.84" x2="267.03" y2="88.51"/>
    <line class="cls-25" x1="268.55" y1="87.12" x2="268.87" y2="87.75"/>
    <line class="cls-25" x1="270.16" y1="86.14" x2="270.57" y2="86.7"/>
    <line class="cls-25" x1="271.59" y1="84.91" x2="272.09" y2="85.41"/>
    <line class="cls-25" x1="272.82" y1="83.48" x2="273.39" y2="83.89"/>
    <line class="cls-25" x1="273.8" y1="81.87" x2="274.43" y2="82.19"/>
    <line class="cls-25" x1="274.52" y1="80.13" x2="275.19" y2="80.35"/>
    <line class="cls-25" x1="274.97" y1="78.3" x2="275.66" y2="78.41"/>
    <line class="cls-25" x1="274.45" y1="73.69" x2="275.47" y2="73.45"/>
    <line class="cls-25" x1="273.89" y1="71.95" x2="274.85" y2="71.55"/>
    <line class="cls-25" x1="273.05" y1="70.32" x2="273.94" y2="69.77"/>
    <line class="cls-25" x1="271.98" y1="68.84" x2="272.77" y2="68.16"/>
    <line class="cls-25" x1="270.68" y1="67.54" x2="271.36" y2="66.75"/>
    <line class="cls-25" x1="269.2" y1="66.46" x2="269.75" y2="65.58"/>
    <line class="cls-25" x1="267.57" y1="65.63" x2="267.97" y2="64.67"/>
    <line class="cls-25" x1="265.83" y1="65.07" x2="266.07" y2="64.05"/>
    <line class="cls-25" x1="264.02" y1="64.78" x2="264.1" y2="63.74"/>
    <line class="cls-25" x1="262.18" y1="64.78" x2="262.1" y2="63.74"/>
    <line class="cls-25" x1="260.38" y1="65.07" x2="260.13" y2="64.05"/>
    <line class="cls-25" x1="258.64" y1="65.63" x2="258.24" y2="64.67"/>
    <line class="cls-25" x1="257" y1="66.46" x2="256.46" y2="65.58"/>
    <line class="cls-25" x1="255.52" y1="67.54" x2="254.84" y2="66.75"/>
    <line class="cls-25" x1="254.23" y1="68.84" x2="253.43" y2="68.16"/>
    <line class="cls-25" x1="253.15" y1="70.32" x2="252.26" y2="69.77"/>
    <line class="cls-25" x1="252.32" y1="71.95" x2="251.35" y2="71.55"/>
    <line class="cls-25" x1="251.75" y1="73.69" x2="250.74" y2="73.45"/>
    <line class="cls-25" x1="251.46" y1="75.5" x2="250.42" y2="75.42"/>
    <line class="cls-25" x1="251.46" y1="77.33" x2="250.42" y2="77.41"/>
    <line class="cls-25" x1="251.75" y1="79.14" x2="250.74" y2="79.38"/>
    <line class="cls-25" x1="252.32" y1="80.88" x2="251.35" y2="81.28"/>
    <line class="cls-25" x1="253.15" y1="82.51" x2="252.26" y2="83.06"/>
    <line class="cls-25" x1="254.23" y1="84" x2="253.43" y2="84.67"/>
    <line class="cls-25" x1="255.52" y1="85.29" x2="254.84" y2="86.09"/>
    <line class="cls-25" x1="257" y1="86.37" x2="256.46" y2="87.26"/>
    <line class="cls-25" x1="258.64" y1="87.2" x2="258.23" y2="88.16"/>
    <line class="cls-25" x1="260.38" y1="87.77" x2="260.13" y2="88.78"/>
    <line class="cls-25" x1="262.18" y1="88.05" x2="262.1" y2="89.09"/>
    <line class="cls-25" x1="264.02" y1="88.05" x2="264.1" y2="89.09"/>
    <line class="cls-25" x1="265.83" y1="87.77" x2="266.07" y2="88.78"/>
    <line class="cls-25" x1="267.57" y1="87.2" x2="267.97" y2="88.16"/>
    <line class="cls-25" x1="269.2" y1="86.37" x2="269.75" y2="87.26"/>
    <line class="cls-25" x1="270.68" y1="85.29" x2="271.36" y2="86.09"/>
    <line class="cls-25" x1="271.98" y1="84" x2="272.77" y2="84.67"/>
    <line class="cls-25" x1="273.05" y1="82.52" x2="273.94" y2="83.06"/>
    <line class="cls-25" x1="273.89" y1="80.88" x2="274.85" y2="81.28"/>
    <line class="cls-25" x1="274.45" y1="79.14" x2="275.46" y2="79.38"/>
    <line class="cls-25" x1="274.74" y1="77.33" x2="275.78" y2="77.41"/>
    <path class="cls-10" d="M254.53,76.58c-.19,0-.66-.26-.79-.75-.41,5.57,4.16,10.02,9.39,10.02,2.04,0,3.98-.68,5.53-1.79-1.63,1.21-3.55,1.81-5.66,1.81-5.38,0-9.64-4.07-9.64-9.45s4.36-9.74,9.75-9.74c.56,0,1.15.03,1.66.14,1.53.21,4.06,1.58,5.02,3.08.94,1.38-.66,2.54-.66,2.54-1.16-1.78-3.43-3.36-6.14-3.36-4.31,0-7.36,3.09-7.36,7.39.02-.96-.68-.07-1.09.12"/>
    <path class="cls-20" d="M254.53,76.58c-.19,0-.66-.26-.79-.75-.41,5.57,4.16,10.02,9.39,10.02,2.04,0,3.98-.68,5.53-1.79-1.63,1.21-3.55,1.81-5.66,1.81-5.38,0-9.64-4.07-9.64-9.45s4.36-9.74,9.75-9.74c.56,0,1.15.03,1.66.14,1.53.21,4.06,1.58,5.02,3.08.94,1.38-.66,2.54-.66,2.54-1.16-1.78-3.43-3.36-6.14-3.36-4.31,0-7.36,3.09-7.36,7.39.02-.96-.68-.07-1.09.12Z"/>
    <path class="cls-10" d="M257.7,68.03c1.54-1,3.38-1.58,5.35-1.58,5.46,0,9.87,4.42,9.87,9.87,0,1.91-.55,3.7-1.49,5.21.94-1.51,1.76-3.52,1.76-5.43,0-5.45-4.42-9.87-9.87-9.87-1.97,0-4.08.8-5.63,1.8"/>
    <path class="cls-20" d="M257.7,68.03c1.54-1,3.38-1.58,5.35-1.58,5.46,0,9.87,4.42,9.87,9.87,0,1.91-.55,3.7-1.49,5.21.94-1.51,1.76-3.52,1.76-5.43,0-5.45-4.42-9.87-9.87-9.87-1.97,0-4.08.8-5.63,1.8Z"/>
    <path class="cls-10" d="M271.02,82.15c-1.8,2.45-4.7,4.04-7.97,4.04-5.45,0-9.87-4.42-9.87-9.87,0-2.02.61-3.9,1.65-5.46-1.04,1.56-1.79,3.7-1.79,5.72,0,5.45,4.42,9.87,9.87,9.87,3.27,0,6.31-1.84,8.11-4.29"/>
    <path class="cls-20" d="M271.02,82.15c-1.8,2.45-4.7,4.04-7.97,4.04-5.45,0-9.87-4.42-9.87-9.87,0-2.02.61-3.9,1.65-5.46-1.04,1.56-1.79,3.7-1.79,5.72,0,5.45,4.42,9.87,9.87,9.87,3.27,0,6.31-1.84,8.11-4.29Z"/>
    <path class="cls-10" d="M270.57,70.32c1.31,1.65,2.1,3.73,2.1,6,0,1.25-.24,2.45-.68,3.55.44-1.1.63-3.84.37-4.92-.13-.9-.58-2.84-1.8-4.62"/>
    <path class="cls-20" d="M270.57,70.32c1.31,1.65,2.1,3.73,2.1,6,0,1.25-.24,2.45-.68,3.55.44-1.1.63-3.84.37-4.92-.13-.9-.58-2.84-1.8-4.62Z"/>
    <path class="cls-10" d="M261.65,65.82c.46-.1.93-.15,1.4-.15,5.88,0,10.66,4.77,10.66,10.66s-4.77,10.65-10.66,10.65-10.65-4.77-10.65-10.65c0-1.79.44-3.47,1.21-4.95-1.7,2.55-1.62,4.23-1.62,6.02,0,.47-.49-1.69-.49-1.23,0,7.35,5.91,11.82,11.15,11.89-2.85.35-5.03-.55-4.32-.22,10.32,4.7,18.24-5.94,16.65-10.29-.35-.94.03,1.45-.86,2.01,0,0,.17-.94.22-1.44.2-1.17.03-2.56-.3-3.86-.24-.95-.06,1.5-.12.86-.54-6.16-6.54-9.79-10.88-9.44-.45,0-.92.06-1.4.15"/>
    <path class="cls-20" d="M261.65,65.82c.46-.1.93-.15,1.4-.15,5.88,0,10.66,4.77,10.66,10.66s-4.77,10.65-10.66,10.65-10.65-4.77-10.65-10.65c0-1.79.44-3.47,1.21-4.95-1.7,2.55-1.62,4.23-1.62,6.02,0,.47-.49-1.69-.49-1.23,0,7.35,5.91,11.82,11.15,11.89-2.85.35-5.03-.55-4.32-.22,10.32,4.7,18.24-5.94,16.65-10.29-.35-.94.03,1.45-.86,2.01,0,0,.17-.94.22-1.44.2-1.17.03-2.56-.3-3.86-.24-.95-.06,1.5-.12.86-.54-6.16-6.54-9.79-10.88-9.44-.45,0-.92.06-1.4.15Z"/>
    <path class="cls-22" d="M269.27,76.32c0-3.41-2.78-6.17-6.21-6.17s-6.21,2.76-6.21,6.17,2.78,6.17,6.21,6.17,6.21-2.76,6.21-6.17Z"/>
    <path class="cls-1" d="M255.7,76.35c0-4.02,3.26-7.28,7.29-7.28s7.28,3.26,7.28,7.28-3.26,7.29-7.28,7.29-7.29-3.26-7.29-7.29"/>
    <path class="cls-26" d="M255.7,76.35c0-4.02,3.26-7.28,7.29-7.28s7.28,3.26,7.28,7.28-3.26,7.29-7.28,7.29-7.29-3.26-7.29-7.29Z"/>
    <path class="cls-10" d="M268.65,76.32c0-3.09-2.51-5.59-5.6-5.59s-5.59,2.51-5.59,5.59,2.51,5.59,5.59,5.59,5.6-2.5,5.6-5.59"/>
    <path class="cls-26" d="M268.65,76.32c0-3.09-2.51-5.59-5.6-5.59s-5.59,2.51-5.59,5.59,2.51,5.59,5.59,5.59,5.6-2.5,5.6-5.59Z"/>
    <path class="cls-9" d="M260.35,71.68c.77-.44,1.2-.81,1.2-1.07v-.43c.48-.12.98-.18,1.49-.18s1.01.06,1.49.18v.43c0,.26.43.63,1.2,1.07.76.45,1.31.63,1.53.51.22-.13.38-.22.38-.22.34.36.64.76.9,1.2.26.44.45.91.59,1.38,0,0-.15.09-.38.22-.22.13-.33.69-.33,1.57,0,.88.1,1.45.33,1.58.22.13.38.22.38.22-.14.47-.34.93-.59,1.38-.26.44-.56.84-.9,1.2,0,0-.15-.09-.38-.22-.22-.13-.76.06-1.53.5-.77.44-1.2.81-1.2,1.07v.43c-.48.11-.98.17-1.49.17s-1.01-.06-1.49-.17v-.43c0-.26-.43-.63-1.2-1.07-.76-.45-1.3-.63-1.53-.51-.22.13-.38.22-.38.22-.34-.36-.64-.76-.9-1.2-.26-.45-.45-.91-.59-1.38,0,0,.15-.09.38-.22.22-.13.33-.69.33-1.58,0-.89-.1-1.45-.33-1.57-.22-.13-.38-.22-.38-.22.14-.47.34-.93.59-1.38.26-.44.56-.85.9-1.2,0,0,.15.09.38.22.22.13.77-.06,1.53-.5"/>
    <path class="cls-18" d="M260.35,71.68c.77-.44,1.2-.81,1.2-1.07v-.43c.48-.12.98-.18,1.49-.18s1.01.06,1.49.18v.43c0,.26.43.63,1.2,1.07.76.45,1.31.63,1.53.51.22-.13.38-.22.38-.22.34.36.64.76.9,1.2.26.44.45.91.59,1.38,0,0-.15.09-.38.22-.22.13-.33.69-.33,1.57,0,.88.1,1.45.33,1.58.22.13.38.22.38.22-.14.47-.34.93-.59,1.38-.26.44-.56.84-.9,1.2,0,0-.15-.09-.38-.22-.22-.13-.76.06-1.53.5-.77.44-1.2.81-1.2,1.07v.43c-.48.11-.98.17-1.49.17s-1.01-.06-1.49-.17v-.43c0-.26-.43-.63-1.2-1.07-.76-.45-1.3-.63-1.53-.51-.22.13-.38.22-.38.22-.34-.36-.64-.76-.9-1.2-.26-.45-.45-.91-.59-1.38,0,0,.15-.09.38-.22.22-.13.33-.69.33-1.58,0-.89-.1-1.45-.33-1.57-.22-.13-.38-.22-.38-.22.14-.47.34-.93.59-1.38.26-.44.56-.85.9-1.2,0,0,.15.09.38.22.22.13.77-.06,1.53-.5Z"/>
    <path class="cls-18" d="M265.97,76.34c0-1.62-1.31-2.93-2.93-2.93s-2.93,1.31-2.93,2.93,1.31,2.93,2.93,2.93,2.93-1.31,2.93-2.93Z"/>
    <polygon class="cls-10" points="261.82 76.24 262.06 76 262.4 76 262.4 76.71 262.04 76.71 262.04 76.43 261.82 76.65 261.6 76.43 261.6 76.71 261.23 76.71 261.23 76 261.58 76 261.82 76.24"/>
    <polygon class="cls-21" points="261.82 76.24 262.06 76 262.4 76 262.4 76.71 262.04 76.71 262.04 76.43 261.82 76.65 261.6 76.43 261.6 76.71 261.23 76.71 261.23 76 261.58 76 261.82 76.24"/>
    <polygon class="cls-10" points="263.12 76 263.32 76 263.78 76.71 263.4 76.71 263.35 76.63 262.9 76.63 262.85 76.71 262.47 76.71 262.93 76 263.12 76"/>
    <polygon class="cls-21" points="263.12 76 263.32 76 263.78 76.71 263.4 76.71 263.35 76.63 262.9 76.63 262.85 76.71 262.47 76.71 262.93 76 263.12 76"/>
    <polygon class="cls-1" points="263.12 76.46 263.24 76.46 263.12 76.28 263.01 76.46 263.12 76.46"/>
    <polygon class="cls-17" points="263.12 76.46 263.24 76.46 263.12 76.28 263.01 76.46 263.12 76.46"/>
    <polygon class="cls-10" points="264.64 76 265 76 265 76.71 264.64 76.71 264.21 76.39 264.21 76.71 263.84 76.71 263.84 76 264.2 76 264.64 76.32 264.64 76"/>
    <polygon class="cls-21" points="264.64 76 265 76 265 76.71 264.64 76.71 264.21 76.39 264.21 76.71 263.84 76.71 263.84 76 264.2 76 264.64 76.32 264.64 76"/>
    <path class="cls-24" d="M238.46,20.47h194.19c7.89,0,11.93.75,17.36,1.78"/>
    <line class="cls-24" x1="20.51" y1="20.47" x2="198.34" y2="20.47"/>
    <polyline class="cls-24" points="305.73 20.47 305.73 81.04 340.87 81.04 340.87 20.47"/>
    <line class="cls-24" x1="323.3" y1="20.47" x2="323.3" y2="81.04"/>
    <path class="cls-1" d="M351.48,56.17h9.7v-30.79h-15.86l-1.21,1.13v24.87s-.05.23.32.3c.36.07,3.59.5,4.56.76.98.26,1.6.7,2.21,3.47.05.24.28.26.28.26"/>
    <path class="cls-23" d="M351.48,56.17h9.7v-30.79h-15.86l-1.21,1.13v24.87s-.05.23.32.3c.36.07,3.59.5,4.56.76.98.26,1.6.7,2.21,3.47.05.24.28.26.28.26Z"/>
    <path class="cls-1" d="M413.39,51.39s.05.23-.31.3c-.36.07-3.6.5-4.56.76-.98.26-1.6.7-2.21,3.47-.05.24-.29.26-.29.26h-1.24c-1.24-.6-2.93-1.01-5.41-1.01h-10.42c-2.47,0-4.17.4-5.41,1.01h-18.82v-21.38h48.66v16.59ZM410.54,26.22h-32.02v5.42h32.02v-5.42ZM377.15,26.22h-11.75v5.42h11.75v-5.42Z"/>
    <rect class="cls-23" x="365.4" y="26.22" width="11.75" height="5.42"/>
    <rect class="cls-23" x="378.52" y="26.22" width="32.02" height="5.42"/>
    <path class="cls-23" d="M413.39,51.39s.05.23-.31.3c-.36.07-3.6.5-4.56.76-.98.26-1.6.7-2.21,3.47-.05.24-.28.26-.28.26h-1.24c-1.24-.6-2.93-1.01-5.41-1.01h-10.42c-2.47,0-4.17.4-5.41,1.01h-18.82v-21.38h48.66v16.59Z"/>
    <path class="cls-1" d="M282.22,56.17h-8.69c-1.24-.6-2.93-1.01-5.41-1.01h-10.42c-2.47,0-4.17.4-5.41,1.01h-7.75v-30.79h37.67v30.79Z"/>
    <path class="cls-23" d="M282.22,56.17h-8.69c-1.24-.6-2.93-1.01-5.41-1.01h-10.42c-2.47,0-4.17.4-5.41,1.01h-7.75v-30.79h37.67v30.79Z"/>
    <path class="cls-24" d="M341.26,53.41h5.79c1.73,0,2.57,1.34,2.57,2.51v1.9"/>
    <path class="cls-24" d="M348.46,55.87c0,.67-.55,1.21-1.22,1.21s-1.21-.54-1.21-1.21.54-1.21,1.21-1.21,1.22.54,1.22,1.21Z"/>
    <path class="cls-24" d="M416.64,53.41h-5.79c-1.73,0-2.57,1.34-2.57,2.51v1.9"/>
    <path class="cls-24" d="M409.44,55.87c0,.67.54,1.21,1.22,1.21s1.21-.54,1.21-1.21-.54-1.21-1.21-1.21-1.22.54-1.22,1.21Z"/>
  </g>
  <g class="cls-45">
    <rect class="cls-9" x="307.93" y="30.85" width="12.52" height="44.9"/>
  </g>
  <g class="cls-30">
    <path class="cls-24" d="M307.93,51.85c0,.28.09.58.56.58,1.8,0,3.82-.1,4.8.82.54.5.56,1.21.56,2.08v-.17c0,.87-.02,1.58-.56,2.09-.98.92-3,.82-4.8.82-.46,0-.56.3-.56.58v16.61c0,.27.22.48.48.48h11.55c.27,0,.48-.22.48-.48V31.33c0-.27-.22-.48-.48-.48h-11.55c-.27,0-.48.22-.48.48v20.52Z"/>
    <path class="cls-24" d="M312.61,56.13c0,.41-.33.74-.74.74s-.74-.33-.74-.74v-1.76c0-.41.33-.74.74-.74s.74.33.74.74v1.76Z"/>
    <path class="cls-24" d="M309.95,55.75c0,.62-.36,1.12-.81,1.12s-.81-.5-.81-1.12.36-1.12.81-1.12.81.5.81,1.12Z"/>
  </g>
  <line class="cls-24" x1="305.73" y1="26.54" x2="340.87" y2="26.54"/>
  <line class="cls-24" x1="305.73" y1="27.78" x2="340.87" y2="27.78"/>
  <line class="cls-24" x1="306.85" y1="27.78" x2="306.85" y2="79.66"/>
  <line class="cls-24" x1="321.31" y1="29.52" x2="321.31" y2="79.66"/>
  <line class="cls-24" x1="306.85" y1="29.52" x2="323.3" y2="29.52"/>
  <line class="cls-24" x1="305.84" y1="79.66" x2="323.3" y2="79.66"/>
  <line class="cls-24" x1="306.85" y1="77.7" x2="321.31" y2="77.7"/>
  <g class="cls-31">
    <rect class="cls-9" x="326.15" y="30.85" width="12.52" height="44.9"/>
  </g>
  <g class="cls-41">
    <path class="cls-24" d="M338.67,51.85c0,.28-.09.58-.56.58-1.8,0-3.82-.1-4.8.82-.54.5-.56,1.21-.56,2.08v-.17c0,.87.02,1.58.56,2.09.98.92,3,.82,4.8.82.46,0,.56.3.56.58v16.61c0,.27-.22.48-.48.48h-11.55c-.27,0-.48-.22-.48-.48V31.33c0-.27.22-.48.48-.48h11.55c.27,0,.48.22.48.48v20.52Z"/>
    <path class="cls-24" d="M333.99,56.13c0,.41.33.74.74.74s.74-.33.74-.74v-1.76c0-.41-.33-.74-.74-.74s-.74.33-.74.74v1.76Z"/>
    <path class="cls-24" d="M336.65,55.75c0,.62.36,1.12.81,1.12s.81-.5.81-1.12-.36-1.12-.81-1.12-.81.5-.81,1.12Z"/>
  </g>
  <line class="cls-24" x1="339.75" y1="27.78" x2="339.75" y2="79.66"/>
  <line class="cls-24" x1="325.29" y1="29.52" x2="325.29" y2="79.66"/>
  <line class="cls-24" x1="339.75" y1="29.52" x2="323.3" y2="29.52"/>
  <line class="cls-24" x1="340.76" y1="79.66" x2="323.3" y2="79.66"/>
  <line class="cls-24" x1="339.75" y1="77.7" x2="325.29" y2="77.7"/>
  <line class="cls-24" x1="434.21" y1="26.54" x2="434.21" y2="81.93"/>
  <g class="cls-37">
    <rect class="cls-9" x="418.84" y="30.85" width="12.52" height="44.9"/>
  </g>
  <g class="cls-46">
    <path class="cls-24" d="M418.84,51.85c0,.28.09.58.56.58,1.8,0,3.82-.1,4.8.82.54.5.56,1.21.56,2.08v-.17c0,.87-.02,1.58-.56,2.09-.98.92-3,.82-4.8.82-.46,0-.56.3-.56.58v16.61c0,.27.22.48.48.48h11.55c.27,0,.48-.22.48-.48V31.33c0-.27-.22-.48-.48-.48h-11.55c-.27,0-.48.22-.48.48v20.52Z"/>
    <path class="cls-24" d="M423.53,56.13c0,.41-.33.74-.74.74s-.74-.33-.74-.74v-1.76c0-.41.33-.74.74-.74s.74.33.74.74v1.76Z"/>
    <path class="cls-24" d="M420.86,55.75c0,.62-.36,1.12-.81,1.12s-.81-.5-.81-1.12.36-1.12.81-1.12.81.5.81,1.12Z"/>
  </g>
  <line class="cls-24" x1="416.64" y1="26.54" x2="451.78" y2="26.54"/>
  <line class="cls-24" x1="416.64" y1="27.78" x2="451.78" y2="27.78"/>
  <line class="cls-24" x1="417.76" y1="27.78" x2="417.76" y2="79.66"/>
  <line class="cls-24" x1="432.22" y1="29.52" x2="432.22" y2="79.66"/>
  <line class="cls-24" x1="417.76" y1="29.52" x2="434.21" y2="29.52"/>
  <line class="cls-24" x1="417.76" y1="77.7" x2="432.22" y2="77.7"/>
  <g class="cls-13">
    <rect class="cls-9" x="437.07" y="30.85" width="12.52" height="44.9"/>
  </g>
  <g class="cls-35">
    <path class="cls-24" d="M449.58,51.85c0,.28-.09.58-.56.58-1.8,0-3.83-.1-4.8.82-.54.5-.56,1.21-.56,2.08v-.17c0,.87.02,1.58.56,2.09.98.92,3,.82,4.8.82.47,0,.56.3.56.58v16.61c0,.27-.22.48-.48.48h-11.55c-.27,0-.48-.22-.48-.48V31.33c0-.27.22-.48.48-.48h11.55c.27,0,.48.22.48.48v20.52Z"/>
    <path class="cls-24" d="M444.9,56.13c0,.41.33.74.74.74s.74-.33.74-.74v-1.76c0-.41-.33-.74-.74-.74s-.74.33-.74.74v1.76Z"/>
    <path class="cls-24" d="M447.57,55.75c0,.62.36,1.12.81,1.12s.81-.5.81-1.12-.36-1.12-.81-1.12-.81.5-.81,1.12Z"/>
  </g>
  <line class="cls-24" x1="450.67" y1="27.78" x2="450.67" y2="79.66"/>
  <line class="cls-24" x1="436.2" y1="29.52" x2="436.2" y2="79.66"/>
  <line class="cls-24" x1="450.67" y1="29.52" x2="434.21" y2="29.52"/>
  <line class="cls-24" x1="450.67" y1="77.7" x2="436.2" y2="77.7"/>
  <line class="cls-24" x1="416.64" y1="69.15" x2="416.64" y2="20.47"/>
  <line class="cls-24" x1="451.78" y1="79.72" x2="451.78" y2="22.79"/>
  <line class="cls-24" x1="340.87" y1="57.83" x2="384.76" y2="57.83"/>
  <line class="cls-24" x1="403.57" y1="57.83" x2="416.64" y2="57.83"/>
  <line class="cls-23" x1="284" y1="20.47" x2="284" y2="81.93"/>
  <line class="cls-23" x1="362.95" y1="20.47" x2="362.95" y2="69.15"/>
  <line class="cls-24" x1="253.59" y1="57.83" x2="238.45" y2="57.83"/>
  <line class="cls-24" x1="198.35" y1="57.83" x2="187.56" y2="57.83"/>
  <line class="cls-24" x1="305.73" y1="57.83" x2="272.53" y2="57.83"/>
  <g class="cls-28">
    <path class="cls-24" d="M288.55,60.63h5.36c.49,0,.89.4.89.89v5.36c0,.49-.4.89-.89.89h-5.36c-.49,0-.89-.4-.89-.89v-5.36c0-.49.4-.89.89-.89Z"/>
    <path class="cls-24" d="M462.75,75.3c.04-3.02.03-6.15-.84-7.82-2.15-4.12-8.3-4.34-8.3-4.34"/>
    <path class="cls-6" d="M462.37,68.8c.41,1.74.41,4.16.38,6.51,0,0,.29,0,.37-.7.08-.7.16-2.26-.17-5.46-.02-.18-.42-.32-.42-.32l-.15-.03Z"/>
    <path class="cls-24" d="M462.37,68.8c.41,1.74.41,4.16.38,6.51,0,0,.29,0,.37-.7.08-.7.16-2.26-.17-5.46-.02-.18-.42-.32-.42-.32l-.15-.03Z"/>
    <path class="cls-24" d="M462.93,75.41c-.18-.11-.36.1-.56-.41"/>
    <path class="cls-11" d="M458.95,73.74c-1.2-.22-1.52-2.75-1.6-3.21-.08-.46-.17-.85.1-1.04.11-.08.62-.28,2.47.03,1.86.31,2.32.8,2.38,1.29v.15c.17,1.69.15,4.2.15,4.2-.43-1.02-.8-1.1-1.06-1.24-.26-.14-.42.17-.68.12-.26-.04-.66-.11-1.41-.24l-.34-.07Z"/>
    <path class="cls-24" d="M458.95,73.74c-1.2-.22-1.52-2.75-1.6-3.21-.08-.46-.17-.85.1-1.04.11-.08.62-.28,2.47.03,1.86.31,2.32.8,2.38,1.29v.15c.17,1.69.15,4.2.15,4.2-.43-1.02-.8-1.1-1.06-1.24-.26-.14-.42.17-.68.12-.26-.04-.66-.11-1.41-.24l-.34-.07Z"/>
    <path class="cls-24" d="M461.87,65.24c.32.96.49,1.99.65,3.59"/>
    <path class="cls-24" d="M462.44,77.09c-.51-.58-2.31-1.03-3.06-.67-.75.36-2.41,2.5-2.33,2.61,0,0,.17.07,1.42,0,1.26-.07,1.4-.16,1.63-.35.24-.19.64-.66.92-.67.28-.02,1.05,0,1.41,0s.49.13.49.13"/>
    <path class="cls-11" d="M458.43,79.06c.18-1.32-.07-1.76-.07-1.76-.69.74-1.37,1.66-1.31,1.73,0,0,.17.07,1.43,0"/>
    <path class="cls-24" d="M458.43,79.06c.18-1.32-.07-1.76-.07-1.76-.69.74-1.37,1.66-1.31,1.73,0,0,.17.07,1.43,0"/>
    <line class="cls-24" x1="451.78" y1="57.66" x2="461.75" y2="57.66"/>
    <path class="cls-24" d="M453.65,65.76s6.82.92,8.58,4.56"/>
    <path class="cls-24" d="M458.1,16.71s-1.01.83-1.58,1.47c-.57.64-1.04,1.48-.93,3.75"/>
    <path class="cls-8" d="M448.47,22.76c-.15-.27.33-1.13.78-1.13s8.36.38,11.26.63c2.9.25,4,.77,5.23,1.72,1.23.95,2.64,2.33,3.39,3.13.75.8,1.71,1.84,1.92,5.12.21,3.28.13,4.45-.41,4.84-.54.39-2.31.95-2.81-.39-.5-1.34-1.64-5.71-1.79-6.27-.15-.56-.56-.88-.56-.88,0,0-.86-.09-1.66-1.73-.8-1.64-.64-2.64-.64-2.64,0,0-1.03.39-3.21.24-2.18-.15-8.02-.59-8.99-.71-.97-.11-1.59-.23-2.51-1.92"/>
    <path class="cls-24" d="M448.47,22.76c-.15-.27.33-1.13.78-1.13s8.36.38,11.26.63c2.9.25,4,.77,5.23,1.72,1.23.95,2.64,2.33,3.39,3.13.75.8,1.71,1.84,1.92,5.12.21,3.28.13,4.45-.41,4.84-.54.39-2.31.95-2.81-.39-.5-1.34-1.64-5.71-1.79-6.27-.15-.56-.56-.88-.56-.88,0,0-.86-.09-1.66-1.73-.8-1.64-.64-2.64-.64-2.64,0,0-1.03.39-3.21.24-2.18-.15-8.02-.59-8.99-.71-.97-.11-1.59-.23-2.51-1.92Z"/>
    <path class="cls-24" d="M463.63,22.8s-.36.96-.44,2.34"/>
    <path class="cls-9" d="M463.42,23.53c-.07.31-.15,1.65.7,3.01.86,1.36,1.34,1.79,1.79,2.38.45.6.65.95.86,1.84,0,0,1.12,4.61,1.27,5.19.15.58.32,1.24,1.58,1.02,1.27-.21,1.06-1.14,1.05-1.79-.02-.95-.19-4.65-.73-5.84-.63-1.4-2.48-3.28-3.96-4.47-1.49-1.19-2.55-1.35-2.55-1.35"/>
    <path class="cls-24" d="M463.42,23.53c-.07.31-.15,1.65.7,3.01.86,1.36,1.34,1.79,1.79,2.38.45.6.65.95.86,1.84,0,0,1.12,4.61,1.27,5.19.15.58.32,1.24,1.58,1.02,1.27-.21,1.06-1.14,1.05-1.79-.02-.95-.19-4.65-.73-5.84-.63-1.4-2.48-3.28-3.96-4.47-1.49-1.19-2.55-1.35-2.55-1.35Z"/>
    <path class="cls-24" d="M463.2,24.9c-.01.56.98,2.8,2.61,4.99"/>
    <path class="cls-24" d="M448.45,22.69s11.21.76,12.51.84c1.3.08,2.36.51,2.36.51"/>
    <path class="cls-11" d="M457.18,20.3c.02.28-.12.51-.31.52-.19.01-.36-.2-.38-.48-.02-.28.12-.51.31-.52.19-.01.36.2.38.48"/>
    <path class="cls-24" d="M457.18,20.3c.02.28-.12.51-.31.52-.19.01-.36-.2-.38-.48-.02-.28.12-.51.31-.52.19-.01.36.2.38.48Z"/>
    <line class="cls-24" x1="433.03" y1="15.54" x2="433.03" y2="19.5"/>
    <line class="cls-24" x1="109.43" y1="15.54" x2="109.43" y2="19.5"/>
    <line class="cls-24" x1="362.95" y1="69.15" x2="362.95" y2="81.93"/>
    <line class="cls-24" x1="372.55" y1="69.06" x2="372.55" y2="81.93"/>
    <rect class="cls-24" x="351.06" y="75.54" width="3.17" height="1.16"/>
    <rect class="cls-24" x="279.95" y="75.54" width="3.17" height="1.16"/>
    <rect class="cls-24" x="243.29" y="75.54" width="3.17" height="1.16"/>
    <rect class="cls-24" x="373.77" y="75.54" width="3.17" height="1.16"/>
    <rect class="cls-24" x="410.88" y="75.54" width="3.17" height="1.16"/>
    <path class="cls-4" d="M409.24,76.37c0-8.54-6.75-15.07-15.07-15.07s-15.07,6.53-15.07,15.07c0-8.54,6.75-15.46,15.07-15.46s15.07,6.92,15.07,15.46"/>
    <path class="cls-19" d="M409.24,76.37c0-8.54-6.75-15.07-15.07-15.07s-15.07,6.53-15.07,15.07c0-8.54,6.75-15.46,15.07-15.46s15.07,6.92,15.07,15.46Z"/>
    <path class="cls-4" d="M278.2,76.37c0-8.54-6.75-15.07-15.07-15.07s-15.07,6.53-15.07,15.07c0-8.54,6.75-15.46,15.07-15.46s15.07,6.92,15.07,15.46"/>
    <path class="cls-19" d="M278.2,76.37c0-8.54-6.75-15.07-15.07-15.07s-15.07,6.53-15.07,15.07c0-8.54,6.75-15.46,15.07-15.46s15.07,6.92,15.07,15.46Z"/>
    <path class="cls-24" d="M453.07,24.91s.93,26.14.54,55.52"/>
    <path class="cls-24" d="M453.7,63.35c0,3,0,6.09-.02,9.24"/>
    <line class="cls-24" x1="178.64" y1="47.52" x2="187.56" y2="47.52"/>
    <polygon class="cls-1" points="34.49 25.38 21.55 25.38 21.55 51.07 35.7 51.07 35.7 26.51 34.49 25.38"/>
    <polygon class="cls-23" points="34.49 25.38 21.55 25.38 21.55 51.07 35.7 51.07 35.7 26.51 34.49 25.38"/>
    <polygon class="cls-1" points="133.75 25.38 118.25 25.38 118.25 51.07 134.95 51.07 134.95 26.51 133.75 25.38"/>
    <polygon class="cls-23" points="133.75 25.38 118.25 25.38 118.25 51.07 134.95 51.07 134.95 26.51 133.75 25.38"/>
    <polygon class="cls-1" points="78.61 25.38 114.7 25.38 114.7 51.07 77.41 51.07 77.41 26.51 78.61 25.38"/>
    <polygon class="cls-23" points="78.61 25.38 114.7 25.38 114.7 51.07 77.41 51.07 77.41 26.51 78.61 25.38"/>
    <path class="cls-24" d="M14.51,77.72c-1.16-.14-2.12-3.64-2.4-4.45s-.55-1.27-.55-1.94v-3.97c0-.45.09-1.19.26-1.73.4-1.29.82-2.44,1.69-4.37.49-1.09.6-1.8.6-2.67v-7.06c0-.36-.13-.64-.46-.95-.34-.31-1.03-.93-1.23-1.12-.19-.18-.36-.29-.4-1.15-.04-.85.49-19.88.82-26.51.1-1.91,1.28-4.14,4.24-5.36"/>
    <path class="cls-1" d="M108.3,76.42c0-7.02-5.69-12.72-12.72-12.72s-12.72,5.69-12.72,12.72,5.69,12.72,12.72,12.72,12.72-5.69,12.72-12.72"/>
    <path class="cls-16" d="M108.3,76.42c0-7.02-5.69-12.72-12.72-12.72s-12.72,5.69-12.72,12.72,5.69,12.72,12.72,12.72,12.72-5.69,12.72-12.72Z"/>
    <line class="cls-25" x1="107.6" y1="76.42" x2="108.3" y2="76.42"/>
    <line class="cls-25" x1="107.22" y1="75.5" x2="108.26" y2="75.42"/>
    <line class="cls-25" x1="107.45" y1="74.54" x2="108.14" y2="74.43"/>
    <line class="cls-25" x1="107.01" y1="72.7" x2="107.68" y2="72.49"/>
    <line class="cls-25" x1="106.29" y1="70.96" x2="106.91" y2="70.64"/>
    <line class="cls-25" x1="105.3" y1="69.36" x2="105.87" y2="68.94"/>
    <line class="cls-25" x1="104.08" y1="67.92" x2="104.57" y2="67.43"/>
    <line class="cls-25" x1="102.64" y1="66.7" x2="103.06" y2="66.13"/>
    <line class="cls-25" x1="101.04" y1="65.71" x2="101.36" y2="65.09"/>
    <line class="cls-25" x1="99.3" y1="64.99" x2="99.51" y2="64.32"/>
    <line class="cls-25" x1="97.46" y1="64.55" x2="97.57" y2="63.86"/>
    <line class="cls-25" x1="95.58" y1="64.4" x2="95.58" y2="63.7"/>
    <line class="cls-25" x1="93.71" y1="64.55" x2="93.6" y2="63.86"/>
    <line class="cls-25" x1="91.87" y1="64.99" x2="91.66" y2="64.32"/>
    <line class="cls-25" x1="90.13" y1="65.71" x2="89.81" y2="65.09"/>
    <line class="cls-25" x1="88.52" y1="66.7" x2="88.11" y2="66.13"/>
    <line class="cls-25" x1="87.09" y1="67.92" x2="86.59" y2="67.43"/>
    <line class="cls-25" x1="85.87" y1="69.36" x2="85.29" y2="68.94"/>
    <line class="cls-25" x1="84.88" y1="70.96" x2="84.26" y2="70.64"/>
    <line class="cls-25" x1="84.16" y1="72.7" x2="83.49" y2="72.49"/>
    <line class="cls-25" x1="83.72" y1="74.54" x2="83.02" y2="74.43"/>
    <line class="cls-25" x1="83.57" y1="76.42" x2="82.87" y2="76.42"/>
    <line class="cls-25" x1="83.72" y1="78.3" x2="83.02" y2="78.41"/>
    <line class="cls-25" x1="84.16" y1="80.13" x2="83.49" y2="80.35"/>
    <line class="cls-25" x1="84.88" y1="81.87" x2="84.26" y2="82.19"/>
    <line class="cls-25" x1="85.87" y1="83.48" x2="85.29" y2="83.89"/>
    <line class="cls-25" x1="87.09" y1="84.91" x2="86.59" y2="85.41"/>
    <line class="cls-25" x1="88.52" y1="86.14" x2="88.11" y2="86.7"/>
    <line class="cls-25" x1="90.13" y1="87.12" x2="89.81" y2="87.75"/>
    <line class="cls-25" x1="91.87" y1="87.84" x2="91.65" y2="88.51"/>
    <line class="cls-25" x1="93.71" y1="88.28" x2="93.6" y2="88.98"/>
    <line class="cls-25" x1="95.58" y1="88.43" x2="95.58" y2="89.13"/>
    <line class="cls-25" x1="97.46" y1="88.28" x2="97.57" y2="88.98"/>
    <line class="cls-25" x1="99.29" y1="87.84" x2="99.51" y2="88.51"/>
    <line class="cls-25" x1="101.04" y1="87.12" x2="101.36" y2="87.75"/>
    <line class="cls-25" x1="102.64" y1="86.14" x2="103.06" y2="86.7"/>
    <line class="cls-25" x1="104.08" y1="84.91" x2="104.57" y2="85.41"/>
    <line class="cls-25" x1="105.3" y1="83.48" x2="105.87" y2="83.89"/>
    <line class="cls-25" x1="106.29" y1="81.87" x2="106.91" y2="82.19"/>
    <line class="cls-25" x1="107.01" y1="80.13" x2="107.68" y2="80.35"/>
    <line class="cls-25" x1="107.45" y1="78.3" x2="108.14" y2="78.41"/>
    <line class="cls-25" x1="106.93" y1="73.69" x2="107.95" y2="73.45"/>
    <line class="cls-25" x1="106.37" y1="71.95" x2="107.33" y2="71.55"/>
    <line class="cls-25" x1="105.54" y1="70.32" x2="106.43" y2="69.77"/>
    <line class="cls-25" x1="104.46" y1="68.84" x2="105.25" y2="68.16"/>
    <line class="cls-25" x1="103.16" y1="67.54" x2="103.84" y2="66.75"/>
    <line class="cls-25" x1="101.68" y1="66.46" x2="102.23" y2="65.58"/>
    <line class="cls-25" x1="100.05" y1="65.63" x2="100.45" y2="64.67"/>
    <line class="cls-25" x1="98.31" y1="65.07" x2="98.55" y2="64.05"/>
    <line class="cls-25" x1="96.5" y1="64.78" x2="96.58" y2="63.74"/>
    <line class="cls-25" x1="94.67" y1="64.78" x2="94.59" y2="63.74"/>
    <line class="cls-25" x1="92.86" y1="65.07" x2="92.62" y2="64.05"/>
    <line class="cls-25" x1="91.12" y1="65.63" x2="90.72" y2="64.67"/>
    <line class="cls-25" x1="89.48" y1="66.46" x2="88.94" y2="65.58"/>
    <line class="cls-25" x1="88" y1="67.54" x2="87.33" y2="66.75"/>
    <line class="cls-25" x1="86.71" y1="68.84" x2="85.91" y2="68.16"/>
    <line class="cls-25" x1="85.63" y1="70.32" x2="84.74" y2="69.77"/>
    <line class="cls-25" x1="84.8" y1="71.95" x2="83.83" y2="71.55"/>
    <line class="cls-25" x1="84.23" y1="73.69" x2="83.22" y2="73.45"/>
    <line class="cls-25" x1="83.94" y1="75.5" x2="82.9" y2="75.42"/>
    <line class="cls-25" x1="83.94" y1="77.33" x2="82.9" y2="77.41"/>
    <line class="cls-25" x1="84.23" y1="79.14" x2="83.22" y2="79.38"/>
    <line class="cls-25" x1="84.8" y1="80.88" x2="83.83" y2="81.28"/>
    <line class="cls-25" x1="85.63" y1="82.51" x2="84.74" y2="83.06"/>
    <line class="cls-25" x1="86.71" y1="84" x2="85.91" y2="84.67"/>
    <line class="cls-25" x1="88" y1="85.29" x2="87.33" y2="86.09"/>
    <line class="cls-25" x1="89.48" y1="86.37" x2="88.94" y2="87.26"/>
    <line class="cls-25" x1="91.12" y1="87.2" x2="90.72" y2="88.16"/>
    <line class="cls-25" x1="92.86" y1="87.77" x2="92.62" y2="88.78"/>
    <line class="cls-25" x1="94.67" y1="88.05" x2="94.58" y2="89.09"/>
    <line class="cls-25" x1="96.5" y1="88.05" x2="96.58" y2="89.09"/>
    <line class="cls-25" x1="98.31" y1="87.77" x2="98.55" y2="88.78"/>
    <line class="cls-25" x1="100.05" y1="87.2" x2="100.45" y2="88.16"/>
    <line class="cls-25" x1="101.68" y1="86.37" x2="102.23" y2="87.26"/>
    <line class="cls-25" x1="103.16" y1="85.29" x2="103.84" y2="86.09"/>
    <line class="cls-25" x1="104.46" y1="84" x2="105.25" y2="84.67"/>
    <line class="cls-25" x1="105.54" y1="82.52" x2="106.43" y2="83.06"/>
    <line class="cls-25" x1="106.37" y1="80.88" x2="107.33" y2="81.28"/>
    <line class="cls-25" x1="106.93" y1="79.14" x2="107.95" y2="79.38"/>
    <line class="cls-25" x1="107.22" y1="77.33" x2="108.26" y2="77.41"/>
    <path class="cls-10" d="M87.01,76.58c-.19,0-.66-.26-.79-.75-.41,5.57,4.17,10.02,9.39,10.02,2.05,0,3.98-.68,5.53-1.79-1.63,1.21-3.55,1.81-5.66,1.81-5.38,0-9.64-4.07-9.64-9.45s4.36-9.74,9.75-9.74c.57,0,1.15.03,1.66.14,1.53.21,4.06,1.58,5.02,3.08.94,1.38-.66,2.54-.66,2.54-1.16-1.78-3.43-3.36-6.14-3.36-4.31,0-7.36,3.09-7.36,7.39.02-.96-.68-.07-1.1.12"/>
    <path class="cls-20" d="M87.01,76.58c-.19,0-.66-.26-.79-.75-.41,5.57,4.17,10.02,9.39,10.02,2.05,0,3.98-.68,5.53-1.79-1.63,1.21-3.55,1.81-5.66,1.81-5.38,0-9.64-4.07-9.64-9.45s4.36-9.74,9.75-9.74c.57,0,1.15.03,1.66.14,1.53.21,4.06,1.58,5.02,3.08.94,1.38-.66,2.54-.66,2.54-1.16-1.78-3.43-3.36-6.14-3.36-4.31,0-7.36,3.09-7.36,7.39.02-.96-.68-.07-1.1.12Z"/>
    <path class="cls-10" d="M90.18,68.03c1.54-1,3.38-1.58,5.35-1.58,5.45,0,9.87,4.42,9.87,9.87,0,1.91-.54,3.7-1.48,5.21.94-1.51,1.75-3.52,1.75-5.43,0-5.45-4.42-9.87-9.87-9.87-1.97,0-4.08.8-5.63,1.8"/>
    <path class="cls-20" d="M90.18,68.03c1.54-1,3.38-1.58,5.35-1.58,5.45,0,9.87,4.42,9.87,9.87,0,1.91-.54,3.7-1.48,5.21.94-1.51,1.75-3.52,1.75-5.43,0-5.45-4.42-9.87-9.87-9.87-1.97,0-4.08.8-5.63,1.8Z"/>
    <path class="cls-10" d="M103.5,82.15c-1.8,2.45-4.7,4.04-7.97,4.04-5.45,0-9.87-4.42-9.87-9.87,0-2.02.61-3.9,1.65-5.46-1.04,1.56-1.79,3.7-1.79,5.72,0,5.45,4.42,9.87,9.87,9.87,3.27,0,6.31-1.84,8.11-4.29"/>
    <path class="cls-20" d="M103.5,82.15c-1.8,2.45-4.7,4.04-7.97,4.04-5.45,0-9.87-4.42-9.87-9.87,0-2.02.61-3.9,1.65-5.46-1.04,1.56-1.79,3.7-1.79,5.72,0,5.45,4.42,9.87,9.87,9.87,3.27,0,6.31-1.84,8.11-4.29Z"/>
    <path class="cls-10" d="M103.05,70.32c1.31,1.65,2.1,3.73,2.1,6,0,1.25-.24,2.45-.68,3.55.44-1.1.63-3.84.37-4.92-.13-.9-.57-2.84-1.8-4.62"/>
    <path class="cls-20" d="M103.05,70.32c1.31,1.65,2.1,3.73,2.1,6,0,1.25-.24,2.45-.68,3.55.44-1.1.63-3.84.37-4.92-.13-.9-.57-2.84-1.8-4.62Z"/>
    <path class="cls-10" d="M94.13,65.82c.46-.1.93-.15,1.4-.15,5.89,0,10.66,4.77,10.66,10.66s-4.77,10.65-10.66,10.65-10.65-4.77-10.65-10.65c0-1.79.44-3.47,1.22-4.95-1.7,2.55-1.62,4.23-1.62,6.02,0,.47-.49-1.69-.49-1.23,0,7.35,5.91,11.82,11.15,11.89-2.85.35-5.03-.55-4.31-.22,10.32,4.7,18.25-5.94,16.65-10.29-.35-.94.03,1.45-.86,2.01,0,0,.17-.94.22-1.44.19-1.17.03-2.56-.3-3.86-.24-.95-.06,1.5-.12.86-.54-6.16-6.54-9.79-10.88-9.44-.45,0-.92.06-1.4.15"/>
    <path class="cls-20" d="M94.13,65.82c.46-.1.93-.15,1.4-.15,5.89,0,10.66,4.77,10.66,10.66s-4.77,10.65-10.66,10.65-10.65-4.77-10.65-10.65c0-1.79.44-3.47,1.22-4.95-1.7,2.55-1.62,4.23-1.62,6.02,0,.47-.49-1.69-.49-1.23,0,7.35,5.91,11.82,11.15,11.89-2.85.35-5.03-.55-4.31-.22,10.32,4.7,18.25-5.94,16.65-10.29-.35-.94.03,1.45-.86,2.01,0,0,.17-.94.22-1.44.19-1.17.03-2.56-.3-3.86-.24-.95-.06,1.5-.12.86-.54-6.16-6.54-9.79-10.88-9.44-.45,0-.92.06-1.4.15Z"/>
    <path class="cls-22" d="M101.75,76.32c0-3.41-2.78-6.17-6.21-6.17s-6.21,2.76-6.21,6.17,2.78,6.17,6.21,6.17,6.21-2.76,6.21-6.17Z"/>
    <path class="cls-1" d="M88.19,76.35c0-4.02,3.26-7.28,7.28-7.28s7.28,3.26,7.28,7.28-3.26,7.29-7.28,7.29-7.28-3.26-7.28-7.29"/>
    <path class="cls-26" d="M88.19,76.35c0-4.02,3.26-7.28,7.28-7.28s7.28,3.26,7.28,7.28-3.26,7.29-7.28,7.29-7.28-3.26-7.28-7.29Z"/>
    <path class="cls-10" d="M101.13,76.32c0-3.09-2.51-5.59-5.6-5.59s-5.59,2.51-5.59,5.59,2.5,5.59,5.59,5.59,5.6-2.5,5.6-5.59"/>
    <path class="cls-26" d="M101.13,76.32c0-3.09-2.51-5.59-5.6-5.59s-5.59,2.51-5.59,5.59,2.5,5.59,5.59,5.59,5.6-2.5,5.6-5.59Z"/>
    <path class="cls-9" d="M92.84,71.68c.77-.44,1.2-.81,1.2-1.07v-.43c.48-.12.98-.18,1.49-.18s1.01.06,1.49.18v.43c0,.26.43.63,1.2,1.07.77.45,1.31.63,1.53.51.22-.13.38-.22.38-.22.34.36.64.76.9,1.2.26.44.45.91.59,1.38,0,0-.15.09-.38.22-.22.13-.33.69-.33,1.57,0,.88.1,1.45.33,1.58.22.13.38.22.38.22-.14.47-.34.93-.59,1.38-.25.44-.56.84-.9,1.2,0,0-.15-.09-.38-.22-.22-.13-.76.06-1.53.5-.77.44-1.2.81-1.2,1.07v.43c-.48.11-.97.17-1.49.17s-1.01-.06-1.49-.17v-.43c0-.26-.43-.63-1.2-1.07-.76-.45-1.31-.63-1.53-.51-.22.13-.38.22-.38.22-.34-.36-.64-.76-.9-1.2-.26-.45-.45-.91-.59-1.38,0,0,.15-.09.38-.22.22-.13.33-.69.33-1.58,0-.89-.11-1.45-.33-1.57-.22-.13-.38-.22-.38-.22.14-.47.34-.93.59-1.38.26-.44.56-.85.9-1.2,0,0,.15.09.38.22.22.13.76-.06,1.53-.5"/>
    <path class="cls-18" d="M92.84,71.68c.77-.44,1.2-.81,1.2-1.07v-.43c.48-.12.98-.18,1.49-.18s1.01.06,1.49.18v.43c0,.26.43.63,1.2,1.07.77.45,1.31.63,1.53.51.22-.13.38-.22.38-.22.34.36.64.76.9,1.2.26.44.45.91.59,1.38,0,0-.15.09-.38.22-.22.13-.33.69-.33,1.57,0,.88.1,1.45.33,1.58.22.13.38.22.38.22-.14.47-.34.93-.59,1.38-.25.44-.56.84-.9,1.2,0,0-.15-.09-.38-.22-.22-.13-.76.06-1.53.5-.77.44-1.2.81-1.2,1.07v.43c-.48.11-.97.17-1.49.17s-1.01-.06-1.49-.17v-.43c0-.26-.43-.63-1.2-1.07-.76-.45-1.31-.63-1.53-.51-.22.13-.38.22-.38.22-.34-.36-.64-.76-.9-1.2-.26-.45-.45-.91-.59-1.38,0,0,.15-.09.38-.22.22-.13.33-.69.33-1.58,0-.89-.11-1.45-.33-1.57-.22-.13-.38-.22-.38-.22.14-.47.34-.93.59-1.38.26-.44.56-.85.9-1.2,0,0,.15.09.38.22.22.13.76-.06,1.53-.5Z"/>
    <path class="cls-18" d="M98.46,76.34c0-1.62-1.32-2.93-2.93-2.93s-2.93,1.31-2.93,2.93,1.31,2.93,2.93,2.93,2.93-1.31,2.93-2.93Z"/>
    <polygon class="cls-10" points="94.3 76.24 94.54 76 94.88 76 94.88 76.71 94.52 76.71 94.52 76.43 94.3 76.65 94.08 76.43 94.08 76.71 93.72 76.71 93.72 76 94.06 76 94.3 76.24"/>
    <polygon class="cls-21" points="94.3 76.24 94.54 76 94.88 76 94.88 76.71 94.52 76.71 94.52 76.43 94.3 76.65 94.08 76.43 94.08 76.71 93.72 76.71 93.72 76 94.06 76 94.3 76.24"/>
    <polygon class="cls-10" points="95.61 76 95.8 76 96.26 76.71 95.88 76.71 95.83 76.63 95.38 76.63 95.33 76.71 94.95 76.71 95.41 76 95.61 76"/>
    <polygon class="cls-21" points="95.61 76 95.8 76 96.26 76.71 95.88 76.71 95.83 76.63 95.38 76.63 95.33 76.71 94.95 76.71 95.41 76 95.61 76"/>
    <polygon class="cls-1" points="95.61 76.46 95.72 76.46 95.61 76.28 95.49 76.46 95.61 76.46"/>
    <polygon class="cls-17" points="95.61 76.46 95.72 76.46 95.61 76.28 95.49 76.46 95.61 76.46"/>
    <polygon class="cls-10" points="97.12 76 97.48 76 97.48 76.71 97.12 76.71 96.69 76.39 96.69 76.71 96.32 76.71 96.32 76 96.68 76 97.12 76.32 97.12 76"/>
    <polygon class="cls-21" points="97.12 76 97.48 76 97.48 76.71 97.12 76.71 96.69 76.39 96.69 76.71 96.32 76.71 96.32 76 96.68 76 97.12 76.32 97.12 76"/>
    <path class="cls-6" d="M11.87,65.44v-13.79c0-1.4.36-2.41.36-2.41h0c.06.1.13.16.21.23.2.18.89.81,1.23,1.12.33.31.46.59.46.95v7.06c0,.86-.1,1.58-.6,2.67-.88,1.93-1.3,3.08-1.7,4.37l.04-.19Z"/>
    <path class="cls-24" d="M11.87,65.44v-13.79c0-1.4.36-2.41.36-2.41h0c.06.1.13.16.21.23.2.18.89.81,1.23,1.12.33.31.46.59.46.95v7.06c0,.86-.1,1.58-.6,2.67-.88,1.93-1.3,3.08-1.7,4.37l.04-.19Z"/>
    <path class="cls-24" d="M14.28,77.65s-.51-.11-1.04-.22c-.53-.11-.83-.53-1.02-.78-.18-.25,0-.89,0-.89,0,0-.69-1.9-.8-2.4-.11-.5,0-.92,0-.92,0,0-.59-.36-.59-1.01v-4.05c0-.7.39-1.12.39-1.12,0,0-.25-.11-.25-.5s-.14-19.32.88-44.06c.06-1.35-.24-1.79-.47-2.07-.22-.28-.04-.84.42-1.26.52-.46,2.09-1.54,5.16-1.9"/>
    <path class="cls-6" d="M16.98,16.48c-3.07.36-4.64,1.44-5.16,1.9-.46.41-.64.98-.42,1.26.22.28.52.72.47,2.07-1.02,24.74-.88,43.67-.88,44.06s.25.5.25.5h.39l.24-.82v-13.79c0-1.4.36-2.41.36-2.41h0c-.1-.16-.17-.4-.19-.92-.04-.86.49-19.88.82-26.51.1-1.92,1.29-4.17,4.26-5.39l-.13.06Z"/>
    <path class="cls-24" d="M16.98,16.48c-3.07.36-4.64,1.44-5.16,1.9-.46.41-.64.98-.42,1.26.22.28.52.72.47,2.07-1.02,24.74-.88,43.67-.88,44.06s.25.5.25.5h.39l.24-.82v-13.79c0-1.4.36-2.41.36-2.41h0c-.1-.16-.17-.4-.19-.92-.04-.86.49-19.88.82-26.51.1-1.92,1.29-4.17,4.26-5.39l-.13.06Z"/>
    <path class="cls-6" d="M11.43,72.43s-.11.42,0,.92c.11.5.8,2.4.8,2.4,0,0-.18.64,0,.89.18.25.49.67,1.02.78.53.11,1.04.22,1.04.22h.02c-1.06-.49-1.92-3.62-2.19-4.38-.12-.35-.24-.64-.34-.9l-.35.06Z"/>
    <path class="cls-24" d="M11.43,72.43s-.11.42,0,.92c.11.5.8,2.4.8,2.4,0,0-.18.64,0,.89.18.25.49.67,1.02.78.53.11,1.04.22,1.04.22h.02c-1.06-.49-1.92-3.62-2.19-4.38-.12-.35-.24-.64-.34-.9l-.35.06Z"/>
    <path class="cls-6" d="M13.3,76.42c-.27-.52-.51-1.13-.7-1.68"/>
    <path class="cls-24" d="M13.3,76.42c-.27-.52-.51-1.13-.7-1.68"/>
    <polyline class="cls-24" points="138.21 20.47 138.21 81.04 173.35 81.04 173.35 20.47"/>
    <line class="cls-24" x1="155.78" y1="20.47" x2="155.78" y2="81.04"/>
    <path class="cls-1" d="M183.96,56.17h8.29v-30.79h-14.46l-1.21,1.13v24.87s-.05.23.32.3c.36.07,3.6.5,4.56.76.98.26,1.6.7,2.21,3.47.05.24.28.26.28.26"/>
    <path class="cls-23" d="M183.96,56.17h8.29v-30.79h-14.46l-1.21,1.13v24.87s-.05.23.32.3c.36.07,3.6.5,4.56.76.98.26,1.6.7,2.21,3.47.05.24.28.26.28.26Z"/>
    <path class="cls-24" d="M173.74,53.41h5.79c1.73,0,2.57,1.34,2.57,2.51v1.9"/>
    <path class="cls-24" d="M180.94,55.87c0,.67-.54,1.21-1.21,1.21s-1.21-.54-1.21-1.21.54-1.21,1.21-1.21,1.21.54,1.21,1.21Z"/>
    <path class="cls-24" d="M74.05,53.41h5.79c1.73,0,2.57,1.34,2.57,2.51v1.9"/>
    <path class="cls-24" d="M80.36,55.87c0,.67-.54,1.21-1.21,1.21s-1.21-.54-1.21-1.21.54-1.21,1.21-1.21,1.21.54,1.21,1.21Z"/>
  </g>
  <g class="cls-43">
    <rect class="cls-9" x="140.41" y="30.85" width="12.52" height="44.9"/>
  </g>
  <g class="cls-29">
    <path class="cls-24" d="M140.41,51.85c0,.28.09.58.56.58,1.8,0,3.82-.1,4.8.82.54.5.56,1.21.56,2.08v-.17c0,.87-.02,1.58-.56,2.09-.98.92-3,.82-4.8.82-.47,0-.56.3-.56.58v16.61c0,.27.22.48.48.48h11.55c.27,0,.49-.22.49-.48V31.33c0-.27-.22-.48-.49-.48h-11.55c-.27,0-.48.22-.48.48v20.52Z"/>
    <path class="cls-24" d="M145.09,56.13c0,.41-.33.74-.74.74s-.74-.33-.74-.74v-1.76c0-.41.33-.74.74-.74s.74.33.74.74v1.76Z"/>
    <path class="cls-24" d="M142.43,55.75c0,.62-.36,1.12-.81,1.12s-.81-.5-.81-1.12.36-1.12.81-1.12.81.5.81,1.12Z"/>
  </g>
  <line class="cls-24" x1="138.21" y1="26.54" x2="173.35" y2="26.54"/>
  <line class="cls-24" x1="138.21" y1="27.78" x2="173.35" y2="27.78"/>
  <line class="cls-24" x1="139.33" y1="27.78" x2="139.33" y2="79.66"/>
  <line class="cls-24" x1="153.79" y1="29.52" x2="153.79" y2="79.66"/>
  <line class="cls-24" x1="139.33" y1="29.52" x2="155.78" y2="29.52"/>
  <line class="cls-24" x1="138.32" y1="79.66" x2="155.78" y2="79.66"/>
  <line class="cls-24" x1="139.33" y1="77.7" x2="153.79" y2="77.7"/>
  <g class="cls-14">
    <rect class="cls-9" x="158.63" y="30.85" width="12.52" height="44.9"/>
  </g>
  <g class="cls-44">
    <path class="cls-24" d="M171.15,51.85c0,.28-.09.58-.56.58-1.8,0-3.82-.1-4.8.82-.54.5-.56,1.21-.56,2.08v-.17c0,.87.02,1.58.56,2.09.98.92,3,.82,4.8.82.47,0,.56.3.56.58v16.61c0,.27-.22.48-.49.48h-11.55c-.27,0-.48-.22-.48-.48V31.33c0-.27.22-.48.48-.48h11.55c.27,0,.49.22.49.48v20.52Z"/>
    <path class="cls-24" d="M166.47,56.13c0,.41.33.74.74.74s.74-.33.74-.74v-1.76c0-.41-.33-.74-.74-.74s-.74.33-.74.74v1.76Z"/>
    <path class="cls-24" d="M169.13,55.75c0,.62.36,1.12.81,1.12s.81-.5.81-1.12-.36-1.12-.81-1.12-.81.5-.81,1.12Z"/>
  </g>
  <line class="cls-24" x1="172.23" y1="27.78" x2="172.23" y2="79.66"/>
  <line class="cls-24" x1="157.77" y1="29.52" x2="157.77" y2="79.66"/>
  <line class="cls-24" x1="172.23" y1="29.52" x2="155.78" y2="29.52"/>
  <line class="cls-24" x1="173.24" y1="79.66" x2="155.78" y2="79.66"/>
  <line class="cls-24" x1="172.23" y1="77.7" x2="157.77" y2="77.7"/>
  <polyline class="cls-24" points="74.16 20.47 74.16 81.04 42.41 81.04"/>
  <line class="cls-24" x1="56.6" y1="20.47" x2="56.6" y2="81.04"/>
  <g class="cls-42">
    <rect class="cls-9" x="41.22" y="30.85" width="12.52" height="44.9"/>
  </g>
  <g class="cls-39">
    <path class="cls-24" d="M41.22,51.85c0,.28.09.58.56.58,1.8,0,3.82-.1,4.8.82.53.5.56,1.21.56,2.08v-.17c0,.87-.02,1.58-.56,2.09-.98.92-3,.82-4.8.82-.47,0-.56.3-.56.58v16.61c0,.27.22.48.48.48h11.55c.27,0,.48-.22.48-.48V31.33c0-.27-.22-.48-.48-.48h-11.55c-.27,0-.48.22-.48.48v20.52Z"/>
    <path class="cls-24" d="M45.91,56.13c0,.41-.33.74-.74.74s-.74-.33-.74-.74v-1.76c0-.41.33-.74.74-.74s.74.33.74.74v1.76Z"/>
    <path class="cls-24" d="M43.24,55.75c0,.62-.36,1.12-.81,1.12s-.81-.5-.81-1.12.36-1.12.81-1.12.81.5.81,1.12Z"/>
  </g>
  <line class="cls-24" x1="39.03" y1="26.54" x2="74.16" y2="26.54"/>
  <line class="cls-24" x1="39.03" y1="27.78" x2="74.16" y2="27.78"/>
  <line class="cls-24" x1="40.14" y1="27.78" x2="40.14" y2="79.66"/>
  <line class="cls-24" x1="54.61" y1="29.52" x2="54.61" y2="79.66"/>
  <line class="cls-24" x1="40.14" y1="29.52" x2="56.59" y2="29.52"/>
  <line class="cls-24" x1="39.14" y1="79.66" x2="56.6" y2="79.66"/>
  <line class="cls-24" x1="40.14" y1="77.7" x2="54.61" y2="77.7"/>
  <g class="cls-12">
    <rect class="cls-9" x="59.45" y="30.85" width="12.52" height="44.9"/>
  </g>
  <g class="cls-32">
    <path class="cls-24" d="M71.97,51.85c0,.28-.09.58-.56.58-1.8,0-3.82-.1-4.8.82-.54.5-.56,1.21-.56,2.08v-.17c0,.87.02,1.58.56,2.09.98.92,3,.82,4.8.82.47,0,.56.3.56.58v16.61c0,.27-.22.48-.48.48h-11.55c-.27,0-.48-.22-.48-.48V31.33c0-.27.22-.48.48-.48h11.55c.27,0,.48.22.48.48v20.52Z"/>
    <path class="cls-24" d="M67.28,56.13c0,.41.33.74.74.74s.74-.33.74-.74v-1.76c0-.41-.33-.74-.74-.74s-.74.33-.74.74v1.76Z"/>
    <path class="cls-24" d="M69.95,55.75c0,.62.36,1.12.81,1.12s.81-.5.81-1.12-.36-1.12-.81-1.12-.81.5-.81,1.12Z"/>
  </g>
  <line class="cls-24" x1="73.05" y1="27.78" x2="73.05" y2="79.66"/>
  <line class="cls-24" x1="58.59" y1="29.52" x2="58.59" y2="79.66"/>
  <line class="cls-24" x1="73.05" y1="29.52" x2="56.6" y2="29.52"/>
  <line class="cls-24" x1="74.05" y1="79.66" x2="56.6" y2="79.66"/>
  <line class="cls-24" x1="73.05" y1="77.7" x2="58.59" y2="77.7"/>
  <line class="cls-24" x1="173.35" y1="57.83" x2="198.35" y2="57.83"/>
  <line class="cls-23" x1="116.48" y1="20.47" x2="116.48" y2="69.15"/>
  <line class="cls-24" x1="86.08" y1="57.83" x2="74.16" y2="57.83"/>
  <line class="cls-24" x1="39.03" y1="57.83" x2="20.04" y2="57.83"/>
  <line class="cls-24" x1="138.21" y1="57.83" x2="105.01" y2="57.83"/>
  <g class="cls-36">
    <path class="cls-7" d="M13.13,50.9s-1.09.53-1.09,3.18v10.3l.18-.67v-9.38c0-1.67,1.21-2.62,1.44-2.74,0,0,.08-.47-.53-.7"/>
    <path class="cls-7" d="M13.81,52.97s-1.37.64-1.37,3.29v7.07l.18-.49v-6.33c0-1.67.95-2.43,1.18-2.55v-.99Z"/>
    <path class="cls-24" d="M11.23,66.26s-.39.42-.39,1.12v4.05c0,.64.59,1.01.59,1.01h.37"/>
    <line class="cls-24" x1="11.87" y1="21.5" x2="12.83" y2="22.25"/>
    <path class="cls-24" d="M135.55,74.37c0,.36-.25.65-.56.65h-3.37c-.31,0-.56-.29-.56-.65v-3.88c0-.36.25-.65.56-.65h3.37c.31,0,.56.29.56.65v3.88Z"/>
    <line class="cls-24" x1="20.04" y1="61.79" x2="20.04" y2="78.41"/>
    <line class="cls-24" x1="22.12" y1="15.54" x2="22.12" y2="19.5"/>
    <path class="cls-24" d="M18.27,68.16c0,.89-.23,1.62-.5,1.62s-.5-.72-.5-1.62.23-1.61.5-1.61.5.72.5,1.61Z"/>
    <rect class="cls-24" x="177.42" y="75.54" width="3.17" height="1.17"/>
    <rect class="cls-24" x="112.43" y="75.54" width="3.17" height="1.17"/>
    <rect class="cls-24" x="75.77" y="75.54" width="3.17" height="1.17"/>
    <rect class="cls-24" x="16.03" y="73.11" width="3.17" height="1.17"/>
    <rect class="cls-24" x="243.36" y="75.54" width="3.17" height="1.17"/>
    <line class="cls-24" x1="116.48" y1="69.15" x2="116.48" y2="81.94"/>
    <path class="cls-4" d="M110.68,76.37c0-8.54-6.75-15.07-15.07-15.07s-15.07,6.53-15.07,15.07c0-8.54,6.75-15.46,15.07-15.46s15.07,6.92,15.07,15.46"/>
    <path class="cls-19" d="M110.68,76.37c0-8.54-6.75-15.07-15.07-15.07s-15.07,6.53-15.07,15.07c0-8.54,6.75-15.46,15.07-15.46s15.07,6.92,15.07,15.46Z"/>
    <polyline class="cls-24" points="39.03 20.47 39.03 80.68 39.03 69.15"/>
    <line class="cls-24" x1="11.12" y1="47.52" x2="20.04" y2="47.52"/>
    <path class="cls-24" d="M17.77,69.77c-.28,0-.5-.72-.5-1.61"/>
    <rect class="cls-11" x="218.01" y="15.28" width=".79" height="66.76"/>
    <rect class="cls-24" x="218" y="15.28" width=".79" height="66.76"/>
    <line class="cls-24" x1="221.03" y1="15.54" x2="221.03" y2="83.26"/>
    <line class="cls-24" x1="222.93" y1="15.54" x2="222.93" y2="83.26"/>
    <line class="cls-24" x1="224.83" y1="15.54" x2="224.83" y2="83.26"/>
    <line class="cls-24" x1="226.73" y1="15.54" x2="226.73" y2="83.26"/>
    <line class="cls-24" x1="228.63" y1="15.54" x2="228.63" y2="83.26"/>
    <line class="cls-24" x1="230.53" y1="15.54" x2="230.53" y2="83.26"/>
    <line class="cls-24" x1="232.42" y1="15.54" x2="232.42" y2="83.26"/>
    <line class="cls-24" x1="234.32" y1="15.54" x2="234.32" y2="83.26"/>
    <line class="cls-24" x1="236.22" y1="15.54" x2="236.22" y2="83.26"/>
    <line class="cls-24" x1="238.12" y1="15.54" x2="238.12" y2="83.26"/>
    <line class="cls-24" x1="219.37" y1="15.54" x2="219.37" y2="83.26"/>
    <line class="cls-24" x1="221.98" y1="19.19" x2="221.98" y2="80.94"/>
    <line class="cls-24" x1="220.08" y1="19.19" x2="220.08" y2="80.94"/>
    <line class="cls-24" x1="223.88" y1="19.19" x2="223.88" y2="80.94"/>
    <line class="cls-24" x1="225.78" y1="19.19" x2="225.78" y2="80.94"/>
    <line class="cls-24" x1="227.68" y1="19.19" x2="227.68" y2="80.94"/>
    <line class="cls-24" x1="229.58" y1="19.19" x2="229.58" y2="80.94"/>
    <line class="cls-24" x1="231.48" y1="19.19" x2="231.48" y2="80.94"/>
    <line class="cls-24" x1="233.38" y1="19.19" x2="233.38" y2="80.94"/>
    <line class="cls-24" x1="235.27" y1="19.19" x2="235.27" y2="80.94"/>
    <line class="cls-24" x1="237.17" y1="19.19" x2="237.17" y2="80.94"/>
    <line class="cls-24" x1="201.54" y1="19.19" x2="201.54" y2="80.94"/>
    <line class="cls-24" x1="199.64" y1="19.19" x2="199.64" y2="80.94"/>
    <line class="cls-24" x1="203.44" y1="19.19" x2="203.44" y2="80.94"/>
    <line class="cls-24" x1="205.34" y1="19.19" x2="205.34" y2="80.94"/>
    <line class="cls-24" x1="207.23" y1="19.19" x2="207.23" y2="80.94"/>
    <line class="cls-24" x1="209.13" y1="19.19" x2="209.13" y2="80.94"/>
    <line class="cls-24" x1="211.03" y1="19.19" x2="211.03" y2="80.94"/>
    <line class="cls-24" x1="212.93" y1="19.19" x2="212.93" y2="80.94"/>
    <line class="cls-24" x1="214.83" y1="19.19" x2="214.83" y2="80.94"/>
    <line class="cls-24" x1="216.73" y1="19.19" x2="216.73" y2="80.94"/>
    <line class="cls-24" x1="215.78" y1="15.54" x2="215.78" y2="83.26"/>
    <line class="cls-24" x1="213.88" y1="15.54" x2="213.88" y2="83.26"/>
    <line class="cls-24" x1="211.98" y1="15.54" x2="211.98" y2="83.26"/>
    <line class="cls-24" x1="210.08" y1="15.54" x2="210.08" y2="83.26"/>
    <line class="cls-24" x1="208.18" y1="15.54" x2="208.18" y2="83.26"/>
    <line class="cls-24" x1="206.28" y1="15.54" x2="206.28" y2="83.26"/>
    <line class="cls-24" x1="204.39" y1="15.54" x2="204.39" y2="83.26"/>
    <line class="cls-24" x1="202.49" y1="15.54" x2="202.49" y2="83.26"/>
    <line class="cls-24" x1="200.59" y1="15.54" x2="200.59" y2="83.26"/>
    <line class="cls-24" x1="198.69" y1="15.54" x2="198.69" y2="83.26"/>
    <line class="cls-24" x1="217.44" y1="15.54" x2="217.44" y2="83.26"/>
    <path class="cls-24" d="M413.39,70.15c0,.51-.41.92-.92.92s-.92-.41-.92-.92.41-.92.92-.92.92.41.92.92Z"/>
    <path class="cls-9" d="M17.38,16.36l-1.11.13v-1.49c-.19-.17-.11-.24-.11-.52s.13-.41.13-.41c5.14-4.3,6.53-4.3,9.2-4.3h22.29c4.63,0,9.72,5.7,9.72,5.7v.09H22.62c-1.98,0-3.59.29-4.89.76l-.35.04Z"/>
    <path class="cls-24" d="M17.38,16.36l-1.11.13v-1.49c-.19-.17-.11-.24-.11-.52s.13-.41.13-.41c5.14-4.3,6.53-4.3,9.2-4.3h22.29c4.63,0,9.72,5.7,9.72,5.7v.09H22.62c-1.98,0-3.59.29-4.89.76l-.35.04Z"/>
    <path class="cls-6" d="M16.16,14.48c0-.28.13-.41.13-.41,0,0,.11.36.67.36s1.79-.59,3.35-1.07c1.56-.48,2.13-.58,5.14-.58h22.34c2.57,0,5.42,2.68,5.42,2.68v.09h-30.58c-1.98,0-3.59.29-4.89.76l-.35.04-1.11.13v-1.49c-.19-.17-.11-.24-.11-.52"/>
    <path class="cls-24" d="M16.16,14.48c0-.28.13-.41.13-.41,0,0,.11.36.67.36s1.79-.59,3.35-1.07c1.56-.48,2.13-.58,5.14-.58h22.34c2.57,0,5.42,2.68,5.42,2.68v.09h-30.58c-1.98,0-3.59.29-4.89.76l-.35.04-1.11.13v-1.49c-.19-.17-.11-.24-.11-.52Z"/>
    <path class="cls-9" d="M346.1,11.29s-3.79.46-4.25,4.24h65.06s-.18-4.38-5.92-4.38h-53.24c-.61,0-1.16.05-1.65.14"/>
    <path class="cls-24" d="M346.1,11.29s-3.79.46-4.25,4.24h65.06s-.18-4.38-5.92-4.38h-53.24c-.61,0-1.16.05-1.65.14"/>
    <path class="cls-3" d="M426.3,23.59h-.71v1.38h.71v-.62l.84.62h.71v-1.38h-.71v.63l-.85-.63ZM424.58,23.59h-.76l-.9,1.38h.74l.1-.15h.88l.1.15h.73l-.9-1.38ZM424.4,24.45h-.41l.21-.32.21.32ZM421.19,23.59h-.67v1.38h.71v-.55l.42.43.43-.43v.55h.71v-1.38h-.67l-.47.47-.47-.47Z"/>
    <path class="cls-11" d="M432.97,24.46s-.02,0-.01-.02l.02-.07s.01-.02.02-.02h.16s.01,0,.01.02l-.02.07s-.01.02-.02.02h-.16Z"/>
    <path class="cls-11" d="M432.84,24.36h0c-.21,0-.34,0-.34,0-.04,0-.11.03-.13.13-.01.04-.03.09-.04.13-.02.07-.04.14-.04.17-.01.05-.03.16.06.17,0,0,.14.01.35,0,0,0,.02,0,.02-.02l.02-.07s0-.02-.01-.02h-.2s-.05-.02-.04-.06c0-.01.02-.09.04-.16.02-.05.03-.11.04-.12,0-.03.02-.06.08-.06h.18s.02,0,.02-.02v-.06s.01-.02,0-.02"/>
    <path class="cls-11" d="M429.02,24.36s-.02,0-.02.02l-.15.56s0,.02.01.02h.43s.02,0,.02-.02l.02-.06s0-.02-.01-.02h-.22s-.01,0-.01-.01l.13-.47s0-.02-.01-.02h-.17Z"/>
    <path class="cls-11" d="M429.51,24.51s-.02,0-.02.02l-.11.41s0,.02.01.02h.16s.02,0,.02-.02l.11-.41s0-.02-.01-.02h-.16Z"/>
    <path class="cls-11" d="M429.53,24.46s-.02,0-.01-.02l.02-.07s.01-.02.02-.02h.17s.01,0,.01.02l-.02.07s-.01.02-.02.02h-.16Z"/>
    <path class="cls-11" d="M431.06,24.37s-.07.23-.07.24c0,0,0,.01,0,.01h.05s.02,0,.02-.01c0-.01,0-.02.01-.03.02-.03.05-.07.09-.1.01,0,.03-.01.04-.01,0,0,0,0,.01-.02,0,0,.02-.08.02-.08,0,0,0-.01,0-.01h-.16s-.02,0-.02.01"/>
    <path class="cls-11" d="M430.24,24.51c-.21,0-.37,0-.37,0-.09,0-.11.06-.12.12-.01.05-.03.09-.05.19-.02.08,0,.13.06.13h0s0,0,.01,0h0s.19,0,.33,0c0,0,0,0,.01,0h0c.09,0,.1-.06.11-.11.02-.05.04-.13.06-.22.02-.08,0-.11-.05-.11M430.1,24.65s-.05.16-.06.19c0,.02-.02.04-.05.04h-.09s-.02-.02-.01-.06c.01-.04.05-.15.05-.17,0-.02.01-.04.04-.04h.09s.03,0,.02.05"/>
    <path class="cls-11" d="M431.74,24.51h-.01c-.17,0-.3,0-.35,0h0c-.09,0-.11.09-.13.19-.02.1.04.09.08.09h.18s.03.04.02.05c0,.02-.02.03-.04.03h-.27s-.02,0-.02.02v.04s0,.02,0,.02h0c.2,0,.37,0,.37,0h0c.06,0,.09-.02.12-.05.02-.02.03-.08.04-.15.01-.08-.03-.08-.06-.08h-.19c-.05,0-.03-.04-.03-.05,0-.01,0-.03.04-.03h.24s.02,0,.02-.02v-.05s0-.02,0-.02"/>
    <path class="cls-11" d="M430.84,24.51c-.26,0-.4,0-.4,0h0s-.02,0-.02.02l-.11.41s0,.02.01.02h.16s.02,0,.02-.02c0,0,.07-.23.08-.29.01-.05.04-.06.05-.06h.07s.04.02.03.06c-.01.04-.08.28-.08.28,0,0,0,.02.01.02h.16s.02,0,.02-.02c0,0,.05-.17.08-.28.03-.1-.04-.14-.09-.14"/>
    <path class="cls-11" d="M432.95,24.51s-.02,0-.02.02l-.11.41s0,.02.01.02h.16s.02,0,.02-.02l.11-.41s0-.02-.01-.02h-.16Z"/>
    <path class="cls-11" d="M433.35,24.37s.01-.01.02-.01h.16s.02,0,.01.01l-.03.12s0,.02.01.02h.13s.02,0,.01.02v.05s-.02.02-.03.02h-.13s-.02,0-.02.02c0,0-.05.18-.06.21,0,.03-.01.05.03.05h.12s.01,0,.01.02v.05s-.02.02-.03.02h-.23s-.12,0-.08-.14c.04-.14.05-.2.05-.2,0,0,0-.02-.01-.02h-.05s-.02,0-.01-.02l.02-.05s.01-.02.02-.02h.05s.02,0,.02-.02l.03-.12Z"/>
    <path class="cls-11" d="M433.76,24.53s.01-.02.02-.02h.16s.02,0,.01.02c0,0-.06.22-.07.27-.01.04-.02.07.01.07h.07s.04,0,.05-.05c.01-.05.08-.28.08-.28,0,0,.01-.02.02-.02h.15s.02,0,.01.02c0,0-.1.36-.12.44-.02.08-.06.14-.14.14h-.39s-.01,0-.01-.02l.02-.05s.01-.02.02-.02h.25s.06-.07.06-.07c0,0,0-.02-.01-.02h-.2s-.12-.02-.08-.15c.04-.13.07-.26.07-.26"/>
  </g>
</svg>