<?xml version="1.0" encoding="UTF-8"?>
<svg id="Layer_1" data-name="Layer 1" xmlns="http://www.w3.org/2000/svg" version="1.1" xmlns:xlink="http://www.w3.org/1999/xlink" viewBox="0 0 428.71 99.98">
  <defs>
    <style>
      .cls-1, .cls-2, .cls-3, .cls-4, .cls-5, .cls-6, .cls-7, .cls-8, .cls-9, .cls-10, .cls-11 {
        stroke-width: 0px;
      }

      .cls-1, .cls-7, .cls-9 {
        fill-rule: evenodd;
      }

      .cls-1, .cls-11 {
        fill: #fff;
      }

      .cls-12 {
        clip-path: url(#clippath-20);
      }

      .cls-13 {
        clip-path: url(#clippath-11);
      }

      .cls-14 {
        clip-path: url(#clippath-16);
      }

      .cls-2 {
        fill: url(#linear-gradient);
      }

      .cls-15 {
        stroke-width: .59px;
      }

      .cls-15, .cls-16, .cls-17, .cls-18, .cls-19, .cls-4, .cls-20, .cls-21, .cls-22, .cls-23, .cls-24 {
        fill: none;
      }

      .cls-15, .cls-16, .cls-17, .cls-18, .cls-19, .cls-20, .cls-21, .cls-22, .cls-23, .cls-24 {
        stroke: #000;
      }

      .cls-15, .cls-19, .cls-23 {
        stroke-linejoin: round;
      }

      .cls-25 {
        clip-path: url(#clippath-33);
      }

      .cls-3, .cls-7 {
        fill: #000;
      }

      .cls-16 {
        stroke-width: .15px;
      }

      .cls-16, .cls-17, .cls-18, .cls-20, .cls-21, .cls-22, .cls-24 {
        stroke-miterlimit: 3.86;
      }

      .cls-17 {
        stroke-width: .3px;
      }

      .cls-26 {
        clip-path: url(#clippath-32);
      }

      .cls-18 {
        stroke-width: 0px;
      }

      .cls-27 {
        clip-path: url(#clippath-2);
      }

      .cls-28 {
        clip-path: url(#clippath-13);
      }

      .cls-29 {
        clip-path: url(#clippath-25);
      }

      .cls-30 {
        clip-path: url(#clippath-15);
      }

      .cls-31 {
        clip-path: url(#clippath-6);
      }

      .cls-32 {
        clip-path: url(#clippath-26);
      }

      .cls-19 {
        stroke-width: .38px;
      }

      .cls-33 {
        clip-path: url(#clippath-7);
      }

      .cls-34 {
        clip-path: url(#clippath-21);
      }

      .cls-35 {
        clip-path: url(#clippath-34);
      }

      .cls-36 {
        clip-path: url(#clippath-1);
      }

      .cls-37 {
        clip-path: url(#clippath-4);
      }

      .cls-38 {
        clip-path: url(#clippath-27);
      }

      .cls-5 {
        fill: #9b9d9d;
      }

      .cls-39 {
        clip-path: url(#clippath-12);
      }

      .cls-20 {
        stroke-width: .22px;
      }

      .cls-6 {
        fill: #4a4a49;
      }

      .cls-40 {
        clip-path: url(#clippath-24);
      }

      .cls-41 {
        clip-path: url(#clippath-30);
      }

      .cls-21 {
        stroke-width: .28px;
      }

      .cls-42 {
        clip-path: url(#clippath-22);
      }

      .cls-43 {
        clip-path: url(#clippath-9);
      }

      .cls-44 {
        clip-path: url(#clippath);
      }

      .cls-45 {
        clip-path: url(#clippath-19);
      }

      .cls-46 {
        clip-path: url(#clippath-31);
      }

      .cls-47 {
        clip-path: url(#clippath-3);
      }

      .cls-48 {
        clip-path: url(#clippath-8);
      }

      .cls-22 {
        stroke-width: .08px;
      }

      .cls-8 {
        fill: #6f6f6e;
      }

      .cls-9, .cls-10 {
        fill: #dbdada;
      }

      .cls-49 {
        clip-path: url(#clippath-29);
      }

      .cls-50 {
        clip-path: url(#clippath-18);
      }

      .cls-51 {
        clip-path: url(#clippath-14);
      }

      .cls-52 {
        clip-path: url(#clippath-17);
      }

      .cls-53 {
        clip-path: url(#clippath-5);
      }

      .cls-23, .cls-24 {
        stroke-width: .28px;
      }

      .cls-54 {
        clip-path: url(#clippath-10);
      }

      .cls-55 {
        clip-path: url(#clippath-23);
      }

      .cls-56 {
        clip-path: url(#clippath-28);
      }
    </style>
    <clipPath id="clippath">
      <rect class="cls-4" x="12.5" y="13.88" width="407.77" height="77.79"/>
    </clipPath>
    <clipPath id="clippath-1">
      <rect class="cls-4" x="12.5" y="13.88" width="407.77" height="77.79"/>
    </clipPath>
    <clipPath id="clippath-2">
      <rect class="cls-4" x="12.5" y="13.88" width="407.77" height="77.79"/>
    </clipPath>
    <clipPath id="clippath-3">
      <rect class="cls-4" x="12.5" y="13.88" width="407.77" height="77.79"/>
    </clipPath>
    <clipPath id="clippath-4">
      <path class="cls-4" d="M407.54,26.07c.29,1.51.57,3.91.99,7.27h1.18c-.42-3.36-.83-5.76-1.11-7.27h-1.06Z"/>
    </clipPath>
    <linearGradient id="linear-gradient" x1="19.28" y1="861.69" x2="20.28" y2="861.69" gradientTransform="translate(451.63 1903.54) rotate(-180) scale(2.17)" gradientUnits="userSpaceOnUse">
      <stop offset="0" stop-color="#b2b3b4"/>
      <stop offset=".93" stop-color="#747473"/>
      <stop offset="1" stop-color="#6f6f6e"/>
    </linearGradient>
    <clipPath id="clippath-5">
      <rect class="cls-4" x="12.5" y="13.88" width="407.77" height="77.79"/>
    </clipPath>
    <clipPath id="clippath-6">
      <path class="cls-4" d="M406.93,34.69c-.38,0-.64,0-.61.74.32,7.84.72,17.71.93,22.89h0c0,.18.12.4.47.4h3.72c-.22-10.44-.88-18.39-1.53-24.03h-2.97Z"/>
    </clipPath>
    <clipPath id="clippath-7">
      <rect class="cls-4" x="12.5" y="13.88" width="407.77" height="77.79"/>
    </clipPath>
    <clipPath id="clippath-8">
      <path class="cls-4" d="M219.57,31.93v27.21h6.85c1.09-.53,2.59-.89,4.78-.89h9.2c2.19,0,3.69.36,4.78.89h7.68v-27.21h-33.28Z"/>
    </clipPath>
    <clipPath id="clippath-9">
      <rect class="cls-4" x="12.5" y="13.88" width="407.77" height="77.79"/>
    </clipPath>
    <clipPath id="clippath-10">
      <path class="cls-4" d="M275.99,36.76c-.24,0-.43.19-.43.43v18.13c0,.25.08.51.49.51,1.6,0,3.38-.09,4.24.72.46.43.49,1.03.49,1.77,0,.74-.04,1.34-.49,1.77-.86.81-2.65.72-4.24.72-.41,0-.49.26-.49.51v14.68c0,.23.19.43.43.43h10.21c.24,0,.43-.19.43-.43v-38.82c0-.24-.19-.43-.43-.43h-10.21Z"/>
    </clipPath>
    <clipPath id="clippath-11">
      <rect class="cls-4" x="12.5" y="13.88" width="407.77" height="77.79"/>
    </clipPath>
    <clipPath id="clippath-12">
      <path class="cls-4" d="M292.1,36.76c-.24,0-.43.19-.43.43v38.82c0,.23.19.43.43.43h10.2c.24,0,.43-.19.43-.43v-14.68c0-.25-.08-.51-.49-.51-1.6,0-3.38.09-4.24-.72-.46-.43-.49-1.03-.49-1.77,0-.73.04-1.34.49-1.77.86-.81,2.65-.72,4.24-.72.41,0,.49-.26.49-.51v-18.13c0-.24-.19-.43-.43-.43h-10.2Z"/>
    </clipPath>
    <clipPath id="clippath-13">
      <rect class="cls-4" x="12.5" y="13.88" width="407.77" height="77.79"/>
    </clipPath>
    <clipPath id="clippath-14">
      <rect class="cls-4" x="12.5" y="13.88" width="407.77" height="77.79"/>
    </clipPath>
    <clipPath id="clippath-15">
      <path class="cls-4" d="M308.6,31.93l-1.07,1v21.97s-.04.2.28.26c.32.06,3.17.44,4.03.67.87.23,1.41.62,1.96,3.07.05.22.25.23.25.23h8.57v-27.21h-14.02Z"/>
    </clipPath>
    <clipPath id="clippath-16">
      <rect class="cls-4" x="12.5" y="13.88" width="407.77" height="77.79"/>
    </clipPath>
    <clipPath id="clippath-17">
      <path class="cls-4" d="M325.75,40.25v18.89h16.63c1.1-.53,2.59-.89,4.78-.89h9.2c2.19,0,3.68.36,4.78.89h1.09s.2-.02.25-.23c.54-2.45,1.09-2.84,1.96-3.07.85-.23,3.7-.61,4.03-.67.32-.06.28-.26.28-.26v-1.34s0-13.32,0-13.32h-43ZM326.34,37.46h10.38v-4.79h-10.38v4.79ZM337.94,37.46h28.29v-4.79h-28.29v4.79Z"/>
    </clipPath>
    <clipPath id="clippath-18">
      <rect class="cls-4" x="12.5" y="13.88" width="407.77" height="77.79"/>
    </clipPath>
    <clipPath id="clippath-19">
      <path class="cls-4" d="M373.99,36.76c-.23,0-.43.19-.43.43v18.13c0,.25.08.51.49.51,1.6,0,3.38-.09,4.24.72.46.43.49,1.03.49,1.77,0,.74-.04,1.34-.49,1.77-.86.81-2.65.72-4.24.72-.41,0-.49.26-.49.51v14.68c0,.23.19.43.43.43h10.2c.24,0,.43-.19.43-.43v-38.82c0-.24-.19-.43-.43-.43h-10.2Z"/>
    </clipPath>
    <clipPath id="clippath-20">
      <rect class="cls-4" x="12.5" y="13.88" width="407.77" height="77.79"/>
    </clipPath>
    <clipPath id="clippath-21">
      <path class="cls-4" d="M390.1,36.76c-.24,0-.43.19-.43.43v38.82c0,.23.19.43.43.43h10.2c.24,0,.43-.19.43-.43v-14.68c0-.25-.08-.51-.49-.51-1.59,0-3.38.09-4.24-.72-.46-.43-.49-1.03-.49-1.77,0-.73.03-1.34.49-1.77.86-.81,2.65-.72,4.24-.72.41,0,.49-.26.49-.51v-18.13c0-.24-.19-.43-.43-.43h-10.2Z"/>
    </clipPath>
    <clipPath id="clippath-22">
      <rect class="cls-4" x="12.5" y="13.88" width="407.77" height="77.79"/>
    </clipPath>
    <clipPath id="clippath-23">
      <path class="cls-4" d="M40.34,36.76c-.24,0-.43.19-.43.43v18.13c0,.25.08.51.49.51,1.59,0,3.38-.09,4.24.72.46.43.49,1.03.49,1.77,0,.74-.03,1.34-.49,1.77-.87.81-2.65.72-4.24.72-.41,0-.49.26-.49.51v14.68c0,.23.19.43.43.43h10.21c.24,0,.43-.19.43-.43v-38.82c0-.24-.19-.43-.43-.43h-10.21Z"/>
    </clipPath>
    <clipPath id="clippath-24">
      <rect class="cls-4" x="12.5" y="13.88" width="407.77" height="77.79"/>
    </clipPath>
    <clipPath id="clippath-25">
      <path class="cls-4" d="M56.44,36.76c-.24,0-.43.19-.43.43v38.82c0,.23.19.43.43.43h10.21c.24,0,.43-.19.43-.43v-14.68c0-.25-.08-.51-.49-.51-1.59,0-3.38.09-4.24-.72-.46-.43-.49-1.03-.49-1.77,0-.73.04-1.34.49-1.77.86-.81,2.65-.72,4.24-.72.41,0,.49-.26.49-.51v-18.13c0-.24-.19-.43-.43-.43h-10.21Z"/>
    </clipPath>
    <clipPath id="clippath-26">
      <rect class="cls-4" x="12.5" y="13.88" width="407.77" height="77.79"/>
    </clipPath>
    <clipPath id="clippath-27">
      <rect class="cls-4" x="12.5" y="13.88" width="407.77" height="77.79"/>
    </clipPath>
    <clipPath id="clippath-28">
      <path class="cls-4" d="M160.58,31.93l-1.06,1v21.97s-.04.2.28.26c.32.06,3.18.44,4.03.67.87.23,1.41.62,1.96,3.07.05.22.25.23.25.23h7.33v-27.21h-12.77Z"/>
    </clipPath>
    <clipPath id="clippath-29">
      <rect class="cls-4" x="12.5" y="13.88" width="407.77" height="77.79"/>
    </clipPath>
    <clipPath id="clippath-30">
      <path class="cls-4" d="M127.97,36.76c-.24,0-.43.19-.43.43v18.13c0,.25.08.51.49.51,1.59,0,3.38-.09,4.24.72.46.43.49,1.03.49,1.77,0,.74-.04,1.34-.49,1.77-.86.81-2.65.72-4.24.72-.41,0-.49.26-.49.51v14.68c0,.23.19.43.43.43h10.21c.24,0,.43-.19.43-.43v-38.82c0-.24-.19-.43-.43-.43h-10.21Z"/>
    </clipPath>
    <clipPath id="clippath-31">
      <rect class="cls-4" x="12.5" y="13.88" width="407.77" height="77.79"/>
    </clipPath>
    <clipPath id="clippath-32">
      <path class="cls-4" d="M144.08,36.76c-.24,0-.43.19-.43.43v38.82c0,.23.19.43.43.43h10.21c.24,0,.43-.19.43-.43v-14.68c0-.25-.08-.51-.49-.51-1.6,0-3.38.09-4.24-.72-.46-.43-.49-1.03-.49-1.77s.03-1.34.49-1.77c.86-.81,2.65-.72,4.24-.72.41,0,.49-.26.49-.51v-18.13c0-.24-.19-.43-.43-.43h-10.21Z"/>
    </clipPath>
    <clipPath id="clippath-33">
      <rect class="cls-4" x="12.5" y="13.88" width="407.77" height="77.79"/>
    </clipPath>
    <clipPath id="clippath-34">
      <rect class="cls-4" x="12.5" y="13.88" width="407.77" height="77.79"/>
    </clipPath>
  </defs>
  <g class="cls-44">
    <path class="cls-15" d="M179.04,17.16H23.23c-4.45,0-8.21,1.4-8.21,3.4,0,.12,0,.25,0,.39v-.39c-.29,5.85-.93,30.88-.9,31.63.02.46.08.68.17.81h0s-.32.9-.32,2.13v12.19l-.21.72h-.34s-.35.37-.35.99v3.58c0,.57.52.89.52.89,0,0-.1.37,0,.81.1.44.71,2.12.71,2.12,0,0-.16.57,0,.79.16.22.43.59.9.69.47.1.92.2.92.2h.01s.19.06.19.06c1.02.12,27.39,3.3,28.93,3.49.7.09,2.29.23,4.81.23h26.69s-.55-1.38-.55-4.51c0-5.48,3.66-12.22,11.75-12.22s11.75,6.74,11.75,12.22c0,3.13-.55,4.51-.55,4.51h79.9"/>
    <path class="cls-15" d="M23.23,17.16v-2.72c-3.38,0-7.38.66-9.52,2.44-.42.35-.57.86-.37,1.11.2.25.86,1.27.81,2.47-.9,21.85-.96,46.8-.96,47.14s.22.44.22.44h.35l.21-.72v-12.19c0-1.23.32-2.13.32-2.13h0c-.09-.14-.15-.35-.17-.81-.03-.76.61-25.79.9-31.64v.39-.39c0-2,3.76-3.4,8.21-3.4Z"/>
    <path class="cls-15" d="M61.32,17.16h54.7s-2.47-1.04-3.85-1.04h-37.79s-.52-.84-.67-1.01c-.15-.17-.25-.32-.67-.32h-9.57c-.99,0-1.95,1.78-1.95,1.78l-.21.6Z"/>
    <polygon class="cls-15" points="59.2 15.2 58.53 14.44 24.16 14.44 23.5 15.2 23.5 17.16 59.2 17.16 59.2 15.2"/>
    <path class="cls-15" d="M59.2,17.16h9.58v-.28s-5.6-1.65-7.4-1.65h-2.18v1.93Z"/>
    <polygon class="cls-15" points="153.37 17.16 153.37 15.22 154.12 14.46 178.1 14.46 178.74 15.2 178.74 17.16 153.37 17.16"/>
    <path class="cls-15" d="M118.15,17.16h-9.58v-.28s5.6-1.65,7.4-1.65h2.18v1.93Z"/>
    <polygon class="cls-15" points="118.15 15.23 118.86 14.44 152.23 14.44 152.95 15.2 152.95 17.16 118.15 17.16 118.15 15.23"/>
  </g>
  <polygon class="cls-15" points="196.11 17.16 195.61 17.16 194.97 18.89 194.13 17.16 193.3 18.89 192.46 17.16 191.62 18.89 190.78 17.16 189.94 18.89 189.1 17.16 188.26 18.89 187.43 17.16 186.59 18.89 185.75 17.16 184.91 18.89 184.07 17.16 183.23 18.89 182.39 17.16 181.55 18.89 180.71 17.16 179.88 18.89 179.04 17.16 178.74 17.16 178.74 81.9 179.04 81.9 179.04 82.75 179.88 81.02 180.71 82.75 181.55 81.02 182.39 82.75 183.23 81.02 184.07 82.75 184.91 81.02 185.75 82.75 186.59 81.02 187.43 82.75 188.26 81.02 189.1 82.75 189.94 81.02 190.78 82.75 191.62 81.02 192.46 82.75 193.3 81.02 194.13 82.75 194.97 81.02 195.61 82.32 195.61 83.07 195.84 83.18 196.46 83.18 196.46 83.18 197.07 83.18 197.31 83.07 197.31 82.32 197.94 81.02 198.78 82.75 199.62 81.02 200.46 82.75 201.3 81.02 202.14 82.75 202.98 81.02 203.82 82.75 204.65 81.02 205.49 82.75 206.33 81.02 207.17 82.75 208.01 81.02 208.85 82.75 209.69 81.02 210.53 82.75 211.36 81.02 212.2 82.75 213.04 81.02 213.88 82.75 213.88 81.9 214.18 81.9 214.18 17.16 213.88 17.16 213.04 18.89 212.2 17.16 211.36 18.89 210.53 17.16 209.69 18.89 208.85 17.16 208.01 18.89 207.17 17.16 206.33 18.89 205.49 17.16 204.65 18.89 203.82 17.16 202.98 18.89 202.14 17.16 201.3 18.89 200.46 17.16 199.62 18.89 198.78 17.16 197.94 18.89 197.31 17.16 196.8 17.16 196.11 17.16"/>
  <rect class="cls-15" x="196.11" y="15.44" width=".7" height="66.55"/>
  <line class="cls-15" x1="198.78" y1="15.67" x2="198.78" y2="83.07"/>
  <line class="cls-15" x1="200.46" y1="15.67" x2="200.46" y2="83.07"/>
  <line class="cls-15" x1="202.14" y1="15.67" x2="202.14" y2="83.07"/>
  <line class="cls-15" x1="203.82" y1="15.67" x2="203.82" y2="83.07"/>
  <line class="cls-15" x1="205.49" y1="15.67" x2="205.49" y2="83.07"/>
  <line class="cls-15" x1="207.17" y1="15.67" x2="207.17" y2="83.07"/>
  <line class="cls-15" x1="208.85" y1="15.67" x2="208.85" y2="83.07"/>
  <line class="cls-15" x1="210.53" y1="15.67" x2="210.53" y2="83.07"/>
  <line class="cls-15" x1="212.2" y1="15.67" x2="212.2" y2="83.07"/>
  <line class="cls-15" x1="197.31" y1="15.67" x2="197.31" y2="83.07"/>
  <line class="cls-15" x1="194.14" y1="15.67" x2="194.14" y2="83.07"/>
  <line class="cls-15" x1="192.46" y1="15.67" x2="192.46" y2="83.07"/>
  <line class="cls-15" x1="190.78" y1="15.67" x2="190.78" y2="83.07"/>
  <line class="cls-15" x1="189.1" y1="15.67" x2="189.1" y2="83.07"/>
  <line class="cls-15" x1="187.43" y1="15.67" x2="187.43" y2="83.07"/>
  <line class="cls-15" x1="185.75" y1="15.67" x2="185.75" y2="83.07"/>
  <line class="cls-15" x1="184.07" y1="15.67" x2="184.07" y2="83.07"/>
  <line class="cls-15" x1="182.39" y1="15.67" x2="182.39" y2="83.07"/>
  <line class="cls-15" x1="180.72" y1="15.67" x2="180.72" y2="83.07"/>
  <line class="cls-15" x1="195.61" y1="15.67" x2="195.61" y2="83.07"/>
  <g class="cls-36">
    <polygon class="cls-15" points="273.66 17.16 273.66 15.22 272.9 14.46 238.56 14.46 237.92 15.2 237.92 17.16 273.66 17.16"/>
    <path class="cls-15" d="M237.59,17.16v-1.99l-.77-.73h-22l-.64.75v1.98c.29,0,.54,0,.74,0h22.67Z"/>
    <path class="cls-15" d="M274.07,17.16h44.38v-.28s-5.6-1.65-7.4-1.65h-2.18l-.71-.79h-33.37l-.72.76v1.96Z"/>
  </g>
  <line class="cls-15" x1="308.87" y1="15.23" x2="308.87" y2="17.16"/>
  <g class="cls-27">
    <path class="cls-15" d="M311.09,17.16h54.7s-2.47-1.04-3.85-1.04h-37.79s-.52-.84-.67-1.01c-.15-.17-.25-.32-.67-.32h-9.57c-.99,0-1.95,1.78-1.95,1.78l-.21.6Z"/>
    <path class="cls-15" d="M371.82,17.17v-2.73s1.61.02,5.38.48c3.77.46,16.92,2.24,28.17,6.97,1.59.67,2.65,1.5,2.86,2.27,0,0,3.29,13.29,3.29,42.23l-.19.17h0c-.69-1.29-1.85-1.98-2.52-2.51-.54-.43-1.37-1.11-1.42-2.24-.05-1.14-.89-23.99-1.34-34.16-.11-2.52-2.19-3.25-3.37-3.67-5.53-1.96-13.15-4.22-27.42-6.56-1.14-.19-2.45-.24-3.45-.26Z"/>
    <path class="cls-15" d="M371.82,17.16h-9.58v-.28s5.6-1.65,7.4-1.65h2.18v1.93Z"/>
    <path class="cls-15" d="M411.33,66.57s.66.31.76.56c.1.25.44.69.44,2.86,0,.12-.37.32-.37.32,0,0,.35.12.37.29.3,2.82.22,4.21.15,4.82-.07.62-.32.62-.32.62"/>
    <path class="cls-15" d="M213.88,81.9h10.91s-.55-1.38-.55-4.51c0-5.48,3.65-12.22,11.75-12.22s11.75,6.74,11.75,12.22c0,3.13-.55,4.51-.55,4.51h93.37s-.55-1.38-.55-4.51c0-5.48,3.65-12.22,11.75-12.22s11.75,6.74,11.75,12.22c0,3.13-.55,4.51-.55,4.51h30.63c2.61,0,10.81-1.34,10.81-1.34,0,0,6.26-.74,7.05-.86.79-.12,1.09-.84,1.09-1.31s.1-1.48.15-1.85c.05-.37-.32-.49-.32-.49,0,0,.26,0,.33-.62.07-.62.14-2-.15-4.82-.02-.16-.37-.28-.37-.28,0,0,.37-.2.37-.32,0-2.17-.35-2.61-.44-2.86-.1-.25-.76-.56-.76-.56-.69-1.29-1.86-1.98-2.52-2.52-.54-.43-1.37-1.11-1.42-2.24-.05-1.14-.89-23.99-1.34-34.16-.11-2.52-2.19-3.25-3.37-3.67-5.53-1.96-13.15-4.22-27.42-6.56-1.63-.27-3.62-.27-4.54-.27h-156.85"/>
  </g>
  <polygon class="cls-10" points="196.11 17.16 195.61 17.16 194.97 18.89 194.13 17.16 193.3 18.89 192.46 17.16 191.62 18.89 190.78 17.16 189.94 18.89 189.1 17.16 188.26 18.89 187.43 17.16 186.59 18.89 185.75 17.16 184.91 18.89 184.07 17.16 183.23 18.89 182.39 17.16 181.55 18.89 180.71 17.16 179.88 18.89 179.04 17.16 178.74 17.16 178.74 81.9 179.04 81.9 179.04 82.75 179.88 81.02 180.71 82.75 181.55 81.02 182.39 82.75 183.23 81.02 184.07 82.75 184.91 81.02 185.75 82.75 186.59 81.02 187.43 82.75 188.26 81.02 189.1 82.75 189.94 81.02 190.78 82.75 191.62 81.02 192.46 82.75 193.3 81.02 194.13 82.75 194.97 81.02 195.61 82.32 195.61 83.07 195.84 83.18 196.46 83.18 196.46 83.18 197.07 83.18 197.31 83.07 197.31 82.32 197.94 81.02 198.78 82.75 199.62 81.02 200.46 82.75 201.3 81.02 202.14 82.75 202.98 81.02 203.82 82.75 204.65 81.02 205.49 82.75 206.33 81.02 207.17 82.75 208.01 81.02 208.85 82.75 209.69 81.02 210.53 82.75 211.36 81.02 212.2 82.75 213.04 81.02 213.88 82.75 213.88 81.9 214.18 81.9 214.18 17.16 213.88 17.16 213.04 18.89 212.2 17.16 211.36 18.89 210.53 17.16 209.69 18.89 208.85 17.16 208.01 18.89 207.17 17.16 206.33 18.89 205.49 17.16 204.65 18.89 203.82 17.16 202.98 18.89 202.14 17.16 201.3 18.89 200.46 17.16 199.62 18.89 198.78 17.16 197.94 18.89 197.31 17.16 196.8 17.16 196.11 17.16"/>
  <polygon class="cls-23" points="196.11 17.16 195.61 17.16 194.97 18.89 194.13 17.16 193.3 18.89 192.46 17.16 191.62 18.89 190.78 17.16 189.94 18.89 189.1 17.16 188.26 18.89 187.43 17.16 186.59 18.89 185.75 17.16 184.91 18.89 184.07 17.16 183.23 18.89 182.39 17.16 181.55 18.89 180.71 17.16 179.88 18.89 179.04 17.16 178.74 17.16 178.74 81.9 179.04 81.9 179.04 82.75 179.88 81.02 180.71 82.75 181.55 81.02 182.39 82.75 183.23 81.02 184.07 82.75 184.91 81.02 185.75 82.75 186.59 81.02 187.43 82.75 188.26 81.02 189.1 82.75 189.94 81.02 190.78 82.75 191.62 81.02 192.46 82.75 193.3 81.02 194.13 82.75 194.97 81.02 195.61 82.32 195.61 83.07 195.84 83.18 196.46 83.18 196.46 83.18 197.07 83.18 197.31 83.07 197.31 82.32 197.94 81.02 198.78 82.75 199.62 81.02 200.46 82.75 201.3 81.02 202.14 82.75 202.98 81.02 203.82 82.75 204.65 81.02 205.49 82.75 206.33 81.02 207.17 82.75 208.01 81.02 208.85 82.75 209.69 81.02 210.53 82.75 211.36 81.02 212.2 82.75 213.04 81.02 213.88 82.75 213.88 81.9 214.18 81.9 214.18 17.16 213.88 17.16 213.04 18.89 212.2 17.16 211.36 18.89 210.53 17.16 209.69 18.89 208.85 17.16 208.01 18.89 207.17 17.16 206.33 18.89 205.49 17.16 204.65 18.89 203.82 17.16 202.98 18.89 202.14 17.16 201.3 18.89 200.46 17.16 199.62 18.89 198.78 17.16 197.94 18.89 197.31 17.16 196.8 17.16 196.11 17.16"/>
  <rect class="cls-10" x="196.11" y="15.44" width=".7" height="66.55"/>
  <rect class="cls-23" x="196.11" y="15.44" width=".7" height="66.55"/>
  <line class="cls-23" x1="198.78" y1="15.67" x2="198.78" y2="83.07"/>
  <line class="cls-23" x1="200.46" y1="15.67" x2="200.46" y2="83.07"/>
  <line class="cls-23" x1="202.14" y1="15.67" x2="202.14" y2="83.07"/>
  <line class="cls-23" x1="203.82" y1="15.67" x2="203.82" y2="83.07"/>
  <line class="cls-23" x1="205.49" y1="15.67" x2="205.49" y2="83.07"/>
  <line class="cls-23" x1="207.17" y1="15.67" x2="207.17" y2="83.07"/>
  <line class="cls-23" x1="208.85" y1="15.67" x2="208.85" y2="83.07"/>
  <line class="cls-23" x1="210.53" y1="15.67" x2="210.53" y2="83.07"/>
  <line class="cls-23" x1="212.2" y1="15.67" x2="212.2" y2="83.07"/>
  <line class="cls-23" x1="197.31" y1="15.67" x2="197.31" y2="83.07"/>
  <line class="cls-23" x1="199.62" y1="18.89" x2="199.62" y2="81.02"/>
  <line class="cls-23" x1="197.94" y1="18.89" x2="197.94" y2="81.02"/>
  <line class="cls-23" x1="201.3" y1="18.89" x2="201.3" y2="81.02"/>
  <line class="cls-23" x1="202.98" y1="18.89" x2="202.98" y2="81.02"/>
  <line class="cls-23" x1="204.65" y1="18.89" x2="204.65" y2="81.02"/>
  <line class="cls-23" x1="206.33" y1="18.89" x2="206.33" y2="81.02"/>
  <line class="cls-23" x1="208.01" y1="18.89" x2="208.01" y2="81.02"/>
  <line class="cls-23" x1="209.69" y1="18.89" x2="209.69" y2="81.02"/>
  <line class="cls-23" x1="211.36" y1="18.89" x2="211.36" y2="81.02"/>
  <line class="cls-23" x1="213.04" y1="18.89" x2="213.04" y2="81.02"/>
  <line class="cls-23" x1="181.55" y1="18.89" x2="181.55" y2="81.02"/>
  <line class="cls-23" x1="179.88" y1="18.89" x2="179.88" y2="81.02"/>
  <line class="cls-23" x1="183.23" y1="18.89" x2="183.23" y2="81.02"/>
  <line class="cls-23" x1="184.91" y1="18.89" x2="184.91" y2="81.02"/>
  <line class="cls-23" x1="186.59" y1="18.89" x2="186.59" y2="81.02"/>
  <line class="cls-23" x1="188.26" y1="18.89" x2="188.26" y2="81.02"/>
  <line class="cls-23" x1="189.94" y1="18.89" x2="189.94" y2="81.02"/>
  <line class="cls-23" x1="191.62" y1="18.89" x2="191.62" y2="81.02"/>
  <line class="cls-23" x1="193.3" y1="18.89" x2="193.3" y2="81.02"/>
  <line class="cls-23" x1="194.97" y1="18.89" x2="194.97" y2="81.02"/>
  <line class="cls-23" x1="194.14" y1="15.67" x2="194.14" y2="83.07"/>
  <line class="cls-23" x1="192.46" y1="15.67" x2="192.46" y2="83.07"/>
  <line class="cls-23" x1="190.78" y1="15.67" x2="190.78" y2="83.07"/>
  <line class="cls-23" x1="189.1" y1="15.67" x2="189.1" y2="83.07"/>
  <line class="cls-23" x1="187.43" y1="15.67" x2="187.43" y2="83.07"/>
  <line class="cls-23" x1="185.75" y1="15.67" x2="185.75" y2="83.07"/>
  <line class="cls-23" x1="184.07" y1="15.67" x2="184.07" y2="83.07"/>
  <line class="cls-23" x1="182.39" y1="15.67" x2="182.39" y2="83.07"/>
  <line class="cls-23" x1="180.72" y1="15.67" x2="180.72" y2="83.07"/>
  <line class="cls-23" x1="195.61" y1="15.67" x2="195.61" y2="83.07"/>
  <g class="cls-47">
    <path class="cls-8" d="M311.09,17.16h54.7s-2.47-1.04-3.85-1.04h-37.79s-.52-.84-.67-1.01c-.15-.17-.25-.32-.67-.32h-9.57c-.99,0-1.95,1.78-1.95,1.78l-.21.6Z"/>
    <path class="cls-23" d="M311.09,17.16h54.7s-2.47-1.04-3.85-1.04h-37.79s-.52-.84-.67-1.01c-.15-.17-.25-.32-.67-.32h-9.57c-.99,0-1.95,1.78-1.95,1.78l-.21.6Z"/>
    <rect class="cls-10" x="324.79" y="16.12" width="36.05" height="1.04"/>
    <rect class="cls-23" x="324.79" y="16.12" width="36.05" height="1.04"/>
    <polygon class="cls-8" points="273.66 17.16 273.66 15.22 272.9 14.46 238.56 14.46 237.92 15.2 237.92 17.16 273.66 17.16"/>
    <polygon class="cls-23" points="273.66 17.16 273.66 15.22 272.9 14.46 238.56 14.46 237.92 15.2 237.92 17.16 273.66 17.16"/>
    <path class="cls-8" d="M237.59,17.16v-1.99l-.77-.73h-22l-.64.75v1.98c.29,0,.54,0,.74,0h22.67Z"/>
    <path class="cls-23" d="M237.59,17.16v-1.99l-.77-.73h-22l-.64.75v1.98c.29,0,.54,0,.74,0h22.67Z"/>
    <path class="cls-8" d="M371.82,17.17v-2.73s1.61.02,5.38.48c3.77.46,16.92,2.24,28.17,6.97,1.59.67,2.65,1.5,2.86,2.27,0,0,3.29,13.29,3.29,42.23l-.19.17h0c-.69-1.29-1.85-1.98-2.52-2.51-.54-.43-1.37-1.11-1.42-2.24-.05-1.14-.89-23.99-1.34-34.16-.11-2.52-2.19-3.25-3.37-3.67-5.53-1.96-13.15-4.22-27.42-6.56-1.14-.19-2.45-.24-3.45-.26"/>
    <path class="cls-23" d="M371.82,17.17v-2.73s1.61.02,5.38.48c3.77.46,16.92,2.24,28.17,6.97,1.59.67,2.65,1.5,2.86,2.27,0,0,3.29,13.29,3.29,42.23l-.19.17h0c-.69-1.29-1.85-1.98-2.52-2.51-.54-.43-1.37-1.11-1.42-2.24-.05-1.14-.89-23.99-1.34-34.16-.11-2.52-2.19-3.25-3.37-3.67-5.53-1.96-13.15-4.22-27.42-6.56-1.14-.19-2.45-.24-3.45-.26Z"/>
    <path class="cls-8" d="M274.07,17.16h44.38v-.28s-5.6-1.65-7.4-1.65h-2.18l-.71-.79h-33.37l-.72.76v1.96Z"/>
    <path class="cls-23" d="M274.07,17.16h44.38v-.28s-5.6-1.65-7.4-1.65h-2.18l-.71-.79h-33.37l-.72.76v1.96Z"/>
    <line class="cls-23" x1="308.87" y1="15.23" x2="308.87" y2="17.16"/>
    <polygon class="cls-8" points="153.37 17.16 153.37 15.22 154.12 14.46 178.1 14.46 178.74 15.2 178.74 17.16 153.37 17.16"/>
    <polygon class="cls-23" points="153.37 17.16 153.37 15.22 154.12 14.46 178.1 14.46 178.74 15.2 178.74 17.16 153.37 17.16"/>
    <path class="cls-8" d="M61.32,17.16h54.7s-2.47-1.04-3.85-1.04h-37.79s-.52-.84-.67-1.01c-.15-.17-.25-.32-.67-.32h-9.57c-.99,0-1.95,1.78-1.95,1.78l-.21.6Z"/>
    <path class="cls-23" d="M61.32,17.16h54.7s-2.47-1.04-3.85-1.04h-37.79s-.52-.84-.67-1.01c-.15-.17-.25-.32-.67-.32h-9.57c-.99,0-1.95,1.78-1.95,1.78l-.21.6Z"/>
    <polygon class="cls-8" points="59.2 15.2 58.53 14.44 24.16 14.44 23.5 15.2 23.5 17.16 59.2 17.16 59.2 15.2"/>
    <polygon class="cls-23" points="59.2 15.2 58.53 14.44 24.16 14.44 23.5 15.2 23.5 17.16 59.2 17.16 59.2 15.2"/>
    <path class="cls-8" d="M23.23,17.16v-2.72c-3.38,0-7.38.66-9.52,2.44-.42.35-.57.86-.37,1.11.2.25.86,1.27.81,2.47-.9,21.85-.96,46.8-.96,47.14s.22.44.22.44h.35l.21-.72v-12.19c0-1.23.32-2.13.32-2.13h0c-.09-.14-.15-.35-.17-.81-.03-.76.61-25.79.9-31.64v.39-.39c0-2,3.76-3.4,8.21-3.4"/>
    <path class="cls-23" d="M23.23,17.16v-2.72c-3.38,0-7.38.66-9.52,2.44-.42.35-.57.86-.37,1.11.2.25.86,1.27.81,2.47-.9,21.85-.96,46.8-.96,47.14s.22.44.22.44h.35l.21-.72v-12.19c0-1.23.32-2.13.32-2.13h0c-.09-.14-.15-.35-.17-.81-.03-.76.61-25.79.9-31.64v.39-.39c0-2,3.76-3.4,8.21-3.4Z"/>
    <rect class="cls-10" x="75.03" y="16.12" width="36.05" height="1.04"/>
    <rect class="cls-23" x="75.03" y="16.12" width="36.05" height="1.04"/>
    <path class="cls-8" d="M118.15,17.16h-9.58v-.28s5.6-1.65,7.4-1.65h2.18v1.93Z"/>
    <path class="cls-23" d="M118.15,17.16h-9.58v-.28s5.6-1.65,7.4-1.65h2.18v1.93Z"/>
    <path class="cls-8" d="M371.82,17.16h-9.58v-.28s5.6-1.65,7.4-1.65h2.18v1.93Z"/>
    <path class="cls-23" d="M371.82,17.16h-9.58v-.28s5.6-1.65,7.4-1.65h2.18v1.93Z"/>
    <path class="cls-8" d="M59.2,17.16h9.58v-.28s-5.6-1.65-7.4-1.65h-2.18v1.93Z"/>
    <path class="cls-23" d="M59.2,17.16h9.58v-.28s-5.6-1.65-7.4-1.65h-2.18v1.93Z"/>
    <polygon class="cls-8" points="118.15 15.23 118.86 14.44 152.23 14.44 152.95 15.2 152.95 17.16 118.15 17.16 118.15 15.23"/>
    <polygon class="cls-23" points="118.15 15.23 118.86 14.44 152.23 14.44 152.95 15.2 152.95 17.16 118.15 17.16 118.15 15.23"/>
    <rect class="cls-3" x="75.45" y="64.69" width="24.84" height="15.8"/>
    <rect class="cls-23" x="75.45" y="64.69" width="24.84" height="15.8"/>
    <path class="cls-11" d="M179.04,17.16H23.23c-4.45,0-8.21,1.4-8.21,3.4,0,.12,0,.25,0,.39v-.39c-.29,5.85-.93,30.88-.9,31.63.02.46.08.68.17.81h0s-.32.9-.32,2.13v12.19l-.21.72h-.34s-.35.37-.35.99v3.58c0,.57.52.89.52.89,0,0-.1.37,0,.81.1.44.71,2.12.71,2.12,0,0-.16.57,0,.79.16.22.43.59.9.69.47.1.92.2.92.2h.01s.19.06.19.06c1.02.12,27.39,3.3,28.93,3.49.7.09,2.29.23,4.81.23h26.69s-.55-1.38-.55-4.51c0-5.48,3.66-12.22,11.75-12.22s11.75,6.74,11.75,12.22c0,3.13-.55,4.51-.55,4.51h79.9"/>
    <path class="cls-23" d="M179.04,17.16H23.23c-4.45,0-8.21,1.4-8.21,3.4,0,.12,0,.25,0,.39v-.39c-.29,5.85-.93,30.88-.9,31.63.02.46.08.68.17.81h0s-.32.9-.32,2.13v12.19l-.21.72h-.34s-.35.37-.35.99v3.58c0,.57.52.89.52.89,0,0-.1.37,0,.81.1.44.71,2.12.71,2.12,0,0-.16.57,0,.79.16.22.43.59.9.69.47.1.92.2.92.2h.01s.19.06.19.06c1.02.12,27.39,3.3,28.93,3.49.7.09,2.29.23,4.81.23h26.69s-.55-1.38-.55-4.51c0-5.48,3.66-12.22,11.75-12.22s11.75,6.74,11.75,12.22c0,3.13-.55,4.51-.55,4.51h79.9"/>
    <path class="cls-8" d="M27.8,70.6c-1,0-1.74-.5-2.11-.94-.37-.45-4.5-5.56-4.5-5.56l-.02-40.85c0-1.35.53-2.67,1.87-2.67h155.99v49.99h-22.38v10.53h-31.05v-10.53h-19.18c-.67,0-.96-.2-1.55-.9-.59-.71-3.73-5.14-7.92-8.62-1.13-.93-2.76-1.42-4.41-1.42h-9.2c-1.65,0-3.28.48-4.41,1.42-4.2,3.48-7.33,7.91-7.93,8.62-.59.7-1.32.9-1.99.9v10.53h-28.06l-2.99-.32v-10.21l-10.17.03Z"/>
    <path class="cls-23" d="M27.8,70.6c-1,0-1.74-.5-2.11-.94-.37-.45-4.5-5.56-4.5-5.56l-.02-40.85c0-1.35.53-2.67,1.87-2.67h155.99v49.99h-22.38v10.53h-31.05v-10.53h-19.18c-.67,0-.96-.2-1.55-.9-.59-.71-3.73-5.14-7.92-8.62-1.13-.93-2.76-1.42-4.41-1.42h-9.2c-1.65,0-3.28.48-4.41,1.42-4.2,3.48-7.33,7.91-7.93,8.62-.59.7-1.32.9-1.99.9v10.53h-28.06l-2.99-.32v-10.21l-10.17.03Z"/>
    <path class="cls-1" d="M99.18,77.02c0-6.21-5.03-11.23-11.23-11.23s-11.24,5.03-11.24,11.23,5.03,11.24,11.24,11.24,11.23-5.03,11.23-11.24"/>
    <path class="cls-19" d="M99.18,77.02c0-6.21-5.03-11.23-11.23-11.23s-11.24,5.03-11.24,11.23,5.03,11.24,11.24,11.24,11.23-5.03,11.23-11.24Z"/>
    <line class="cls-16" x1="98.55" y1="77.02" x2="99.18" y2="77.02"/>
    <line class="cls-16" x1="98.22" y1="76.21" x2="99.14" y2="76.14"/>
    <line class="cls-16" x1="98.42" y1="75.36" x2="99.04" y2="75.26"/>
    <line class="cls-16" x1="98.04" y1="73.74" x2="98.63" y2="73.55"/>
    <line class="cls-16" x1="97.4" y1="72.2" x2="97.95" y2="71.92"/>
    <line class="cls-16" x1="96.53" y1="70.78" x2="97.03" y2="70.42"/>
    <line class="cls-16" x1="95.45" y1="69.52" x2="95.89" y2="69.08"/>
    <line class="cls-16" x1="94.18" y1="68.43" x2="94.55" y2="67.93"/>
    <line class="cls-16" x1="92.76" y1="67.56" x2="93.04" y2="67.01"/>
    <line class="cls-16" x1="91.22" y1="66.93" x2="91.41" y2="66.34"/>
    <line class="cls-16" x1="89.6" y1="66.54" x2="89.7" y2="65.92"/>
    <line class="cls-16" x1="87.94" y1="66.41" x2="87.94" y2="65.79"/>
    <line class="cls-16" x1="86.28" y1="66.54" x2="86.18" y2="65.92"/>
    <line class="cls-16" x1="84.66" y1="66.93" x2="84.47" y2="66.34"/>
    <line class="cls-16" x1="83.12" y1="67.56" x2="82.84" y2="67.01"/>
    <line class="cls-16" x1="81.7" y1="68.43" x2="81.34" y2="67.93"/>
    <line class="cls-16" x1="80.43" y1="69.52" x2="79.99" y2="69.08"/>
    <line class="cls-16" x1="79.35" y1="70.78" x2="78.85" y2="70.42"/>
    <line class="cls-16" x1="78.48" y1="72.2" x2="77.93" y2="71.92"/>
    <line class="cls-16" x1="77.84" y1="73.74" x2="77.25" y2="73.55"/>
    <line class="cls-16" x1="77.46" y1="75.36" x2="76.84" y2="75.26"/>
    <line class="cls-16" x1="77.33" y1="77.02" x2="76.71" y2="77.02"/>
    <line class="cls-16" x1="77.45" y1="78.68" x2="76.84" y2="78.78"/>
    <line class="cls-16" x1="77.84" y1="80.3" x2="77.25" y2="80.5"/>
    <line class="cls-16" x1="78.48" y1="81.84" x2="77.93" y2="82.12"/>
    <line class="cls-16" x1="79.35" y1="83.26" x2="78.85" y2="83.63"/>
    <line class="cls-16" x1="80.43" y1="84.53" x2="79.99" y2="84.97"/>
    <line class="cls-16" x1="81.7" y1="85.61" x2="81.34" y2="86.11"/>
    <line class="cls-16" x1="83.12" y1="86.48" x2="82.84" y2="87.03"/>
    <line class="cls-16" x1="84.66" y1="87.12" x2="84.47" y2="87.71"/>
    <line class="cls-16" x1="86.28" y1="87.51" x2="86.18" y2="88.12"/>
    <line class="cls-16" x1="87.94" y1="87.64" x2="87.94" y2="88.26"/>
    <line class="cls-16" x1="89.6" y1="87.51" x2="89.7" y2="88.12"/>
    <line class="cls-16" x1="91.22" y1="87.12" x2="91.41" y2="87.71"/>
    <line class="cls-16" x1="92.76" y1="86.48" x2="93.04" y2="87.03"/>
    <line class="cls-16" x1="94.18" y1="85.61" x2="94.54" y2="86.11"/>
    <line class="cls-16" x1="95.44" y1="84.53" x2="95.88" y2="84.97"/>
    <line class="cls-16" x1="96.53" y1="83.26" x2="97.03" y2="83.63"/>
    <line class="cls-16" x1="97.4" y1="81.84" x2="97.95" y2="82.12"/>
    <line class="cls-16" x1="98.03" y1="80.3" x2="98.63" y2="80.5"/>
    <line class="cls-16" x1="98.42" y1="78.68" x2="99.04" y2="78.78"/>
    <line class="cls-16" x1="97.97" y1="74.61" x2="98.87" y2="74.4"/>
    <line class="cls-16" x1="97.47" y1="73.08" x2="98.32" y2="72.72"/>
    <line class="cls-16" x1="96.73" y1="71.63" x2="97.52" y2="71.15"/>
    <line class="cls-16" x1="95.78" y1="70.32" x2="96.48" y2="69.73"/>
    <line class="cls-16" x1="94.64" y1="69.18" x2="95.24" y2="68.48"/>
    <line class="cls-16" x1="93.33" y1="68.23" x2="93.81" y2="67.44"/>
    <line class="cls-16" x1="91.89" y1="67.49" x2="92.24" y2="66.64"/>
    <line class="cls-16" x1="90.35" y1="66.99" x2="90.56" y2="66.1"/>
    <line class="cls-16" x1="88.75" y1="66.74" x2="88.82" y2="65.82"/>
    <line class="cls-16" x1="87.13" y1="66.74" x2="87.06" y2="65.82"/>
    <line class="cls-16" x1="85.53" y1="66.99" x2="85.32" y2="66.1"/>
    <line class="cls-16" x1="83.99" y1="67.49" x2="83.64" y2="66.64"/>
    <line class="cls-16" x1="82.55" y1="68.23" x2="82.07" y2="67.44"/>
    <line class="cls-16" x1="81.24" y1="69.18" x2="80.64" y2="68.48"/>
    <line class="cls-16" x1="80.1" y1="70.32" x2="79.4" y2="69.73"/>
    <line class="cls-16" x1="79.14" y1="71.63" x2="78.36" y2="71.15"/>
    <line class="cls-16" x1="78.41" y1="73.08" x2="77.56" y2="72.72"/>
    <line class="cls-16" x1="77.91" y1="74.61" x2="77.01" y2="74.4"/>
    <line class="cls-16" x1="77.66" y1="76.21" x2="76.74" y2="76.14"/>
    <line class="cls-16" x1="77.66" y1="77.83" x2="76.74" y2="77.9"/>
    <line class="cls-16" x1="77.91" y1="79.43" x2="77.01" y2="79.64"/>
    <line class="cls-16" x1="78.41" y1="80.97" x2="77.56" y2="81.32"/>
    <line class="cls-16" x1="79.14" y1="82.41" x2="78.36" y2="82.89"/>
    <line class="cls-16" x1="80.1" y1="83.72" x2="79.4" y2="84.32"/>
    <line class="cls-16" x1="81.24" y1="84.87" x2="80.64" y2="85.57"/>
    <line class="cls-16" x1="82.55" y1="85.82" x2="82.07" y2="86.6"/>
    <line class="cls-16" x1="83.99" y1="86.55" x2="83.64" y2="87.4"/>
    <line class="cls-16" x1="85.53" y1="87.05" x2="85.32" y2="87.95"/>
    <line class="cls-16" x1="87.13" y1="87.31" x2="87.06" y2="88.22"/>
    <line class="cls-16" x1="88.75" y1="87.31" x2="88.82" y2="88.22"/>
    <line class="cls-16" x1="90.35" y1="87.05" x2="90.56" y2="87.95"/>
    <line class="cls-16" x1="91.89" y1="86.55" x2="92.24" y2="87.4"/>
    <line class="cls-16" x1="93.33" y1="85.82" x2="93.81" y2="86.6"/>
    <line class="cls-16" x1="94.64" y1="84.87" x2="95.24" y2="85.57"/>
    <line class="cls-16" x1="95.78" y1="83.72" x2="96.48" y2="84.32"/>
    <line class="cls-16" x1="96.73" y1="82.41" x2="97.52" y2="82.89"/>
    <line class="cls-16" x1="97.47" y1="80.97" x2="98.32" y2="81.32"/>
    <line class="cls-16" x1="97.97" y1="79.43" x2="98.87" y2="79.64"/>
    <line class="cls-16" x1="98.22" y1="77.83" x2="99.14" y2="77.91"/>
    <path class="cls-7" d="M80.37,77.17c-.17,0-.58-.23-.69-.66-.37,4.92,3.68,8.85,8.29,8.85,1.81,0,3.52-.61,4.88-1.58-1.44,1.07-3.13,1.6-5,1.6-4.76,0-8.52-3.59-8.52-8.35s3.85-8.61,8.61-8.61c.5,0,1.01.03,1.47.12,1.35.18,3.59,1.39,4.44,2.72.83,1.22-.58,2.24-.58,2.24-1.03-1.57-3.03-2.97-5.42-2.97-3.81,0-6.51,2.73-6.51,6.53.02-.85-.6-.06-.97.11"/>
    <path class="cls-22" d="M80.37,77.17c-.17,0-.58-.23-.69-.66-.37,4.92,3.68,8.85,8.29,8.85,1.81,0,3.52-.61,4.88-1.58-1.44,1.07-3.13,1.6-5,1.6-4.76,0-8.52-3.59-8.52-8.35s3.85-8.61,8.61-8.61c.5,0,1.01.03,1.47.12,1.35.18,3.59,1.39,4.44,2.72.83,1.22-.58,2.24-.58,2.24-1.03-1.57-3.03-2.97-5.42-2.97-3.81,0-6.51,2.73-6.51,6.53.02-.85-.6-.06-.97.11Z"/>
    <path class="cls-7" d="M83.17,69.61c1.36-.88,2.99-1.39,4.73-1.39,4.82,0,8.72,3.91,8.72,8.73,0,1.69-.48,3.27-1.31,4.6.83-1.33,1.55-3.11,1.55-4.8,0-4.82-3.91-8.72-8.72-8.72-1.74,0-3.61.71-4.97,1.59"/>
    <path class="cls-22" d="M83.17,69.61c1.36-.88,2.99-1.39,4.73-1.39,4.82,0,8.72,3.91,8.72,8.73,0,1.69-.48,3.27-1.31,4.6.83-1.33,1.55-3.11,1.55-4.8,0-4.82-3.91-8.72-8.72-8.72-1.74,0-3.61.71-4.97,1.59Z"/>
    <path class="cls-7" d="M94.94,82.09c-1.59,2.17-4.15,3.57-7.04,3.57-4.82,0-8.72-3.91-8.72-8.72,0-1.78.54-3.45,1.45-4.83-.92,1.38-1.58,3.27-1.58,5.05,0,4.82,3.9,8.72,8.72,8.72,2.89,0,5.58-1.63,7.17-3.8"/>
    <path class="cls-22" d="M94.94,82.09c-1.59,2.17-4.15,3.57-7.04,3.57-4.82,0-8.72-3.91-8.72-8.72,0-1.78.54-3.45,1.45-4.83-.92,1.38-1.58,3.27-1.58,5.05,0,4.82,3.9,8.72,8.72,8.72,2.89,0,5.58-1.63,7.17-3.8Z"/>
    <path class="cls-7" d="M94.54,71.64c1.16,1.45,1.85,3.3,1.85,5.3,0,1.11-.21,2.17-.6,3.14.39-.97.56-3.39.33-4.35-.11-.79-.51-2.51-1.59-4.08"/>
    <path class="cls-22" d="M94.54,71.64c1.16,1.45,1.85,3.3,1.85,5.3,0,1.11-.21,2.17-.6,3.14.39-.97.56-3.39.33-4.35-.11-.79-.51-2.51-1.59-4.08Z"/>
    <path class="cls-7" d="M86.66,67.66c.41-.09.82-.14,1.24-.14,5.2,0,9.41,4.22,9.41,9.42s-4.21,9.41-9.41,9.41-9.41-4.22-9.41-9.41c0-1.58.39-3.07,1.07-4.38-1.5,2.26-1.43,3.74-1.43,5.32,0,.42-.44-1.49-.44-1.09,0,6.49,5.22,10.45,9.85,10.5-2.51.31-4.44-.48-3.81-.2,9.12,4.15,16.12-5.25,14.71-9.09-.31-.83.03,1.28-.76,1.78,0,0,.15-.83.19-1.27.17-1.04.02-2.27-.26-3.42-.21-.84-.06,1.33-.1.76-.48-5.45-5.78-8.65-9.61-8.34-.4,0-.82.05-1.24.14"/>
    <path class="cls-22" d="M86.66,67.66c.41-.09.82-.14,1.24-.14,5.2,0,9.41,4.22,9.41,9.42s-4.21,9.41-9.41,9.41-9.41-4.22-9.41-9.41c0-1.58.39-3.07,1.07-4.38-1.5,2.26-1.43,3.74-1.43,5.32,0,.42-.44-1.49-.44-1.09,0,6.49,5.22,10.45,9.85,10.5-2.51.31-4.44-.48-3.81-.2,9.12,4.15,16.12-5.25,14.71-9.09-.31-.83.03,1.28-.76,1.78,0,0,.15-.83.19-1.27.17-1.04.02-2.27-.26-3.42-.21-.84-.06,1.33-.1.76-.48-5.45-5.78-8.65-9.61-8.34-.4,0-.82.05-1.24.14Z"/>
    <path class="cls-17" d="M93.39,76.94c0-3.01-2.46-5.45-5.49-5.45s-5.49,2.44-5.49,5.45,2.45,5.45,5.49,5.45,5.49-2.44,5.49-5.45Z"/>
    <path class="cls-1" d="M81.4,76.96c0-3.55,2.88-6.43,6.44-6.43s6.44,2.88,6.44,6.43-2.88,6.44-6.44,6.44-6.44-2.88-6.44-6.44"/>
    <path class="cls-21" d="M81.4,76.96c0-3.55,2.88-6.43,6.44-6.43s6.44,2.88,6.44,6.43-2.88,6.44-6.44,6.44-6.44-2.88-6.44-6.44Z"/>
    <path class="cls-7" d="M92.84,76.94c0-2.73-2.21-4.94-4.94-4.94s-4.94,2.21-4.94,4.94,2.21,4.94,4.94,4.94,4.94-2.21,4.94-4.94"/>
    <path class="cls-21" d="M92.84,76.94c0-2.73-2.21-4.94-4.94-4.94s-4.94,2.21-4.94,4.94,2.21,4.94,4.94,4.94,4.94-2.21,4.94-4.94Z"/>
    <path class="cls-11" d="M85.51,72.84c.68-.39,1.06-.72,1.06-.94v-.39c.42-.1.86-.15,1.32-.15s.89.05,1.31.15v.39c0,.23.38.56,1.06.94.68.4,1.15.56,1.35.45.2-.11.33-.19.33-.19.3.31.57.67.79,1.06.22.39.4.8.52,1.22,0,0-.14.08-.33.19-.2.11-.29.61-.29,1.39,0,.78.09,1.28.29,1.4.2.11.33.19.33.19-.12.42-.3.83-.52,1.22-.23.39-.5.75-.79,1.06,0,0-.13-.08-.33-.19-.2-.11-.68.05-1.35.44-.68.39-1.06.72-1.06.95v.38c-.42.1-.86.15-1.32.15s-.89-.05-1.31-.15v-.38c0-.23-.38-.56-1.06-.95-.67-.39-1.15-.56-1.35-.45-.2.11-.33.19-.33.19-.3-.31-.57-.67-.79-1.06-.23-.39-.4-.8-.53-1.22,0,0,.14-.08.33-.19.19-.11.3-.61.29-1.39,0-.78-.09-1.28-.29-1.39-.2-.11-.33-.19-.33-.19.12-.42.3-.83.52-1.22.23-.39.49-.75.79-1.06,0,0,.14.08.33.19.2.11.68-.05,1.35-.44"/>
    <path class="cls-20" d="M85.51,72.84c.68-.39,1.06-.72,1.06-.94v-.39c.42-.1.86-.15,1.32-.15s.89.05,1.31.15v.39c0,.23.38.56,1.06.94.68.4,1.15.56,1.35.45.2-.11.33-.19.33-.19.3.31.57.67.79,1.06.22.39.4.8.52,1.22,0,0-.14.08-.33.19-.2.11-.29.61-.29,1.39,0,.78.09,1.28.29,1.4.2.11.33.19.33.19-.12.42-.3.83-.52,1.22-.23.39-.5.75-.79,1.06,0,0-.13-.08-.33-.19-.2-.11-.68.05-1.35.44-.68.39-1.06.72-1.06.95v.38c-.42.1-.86.15-1.32.15s-.89-.05-1.31-.15v-.38c0-.23-.38-.56-1.06-.95-.67-.39-1.15-.56-1.35-.45-.2.11-.33.19-.33.19-.3-.31-.57-.67-.79-1.06-.23-.39-.4-.8-.53-1.22,0,0,.14-.08.33-.19.19-.11.3-.61.29-1.39,0-.78-.09-1.28-.29-1.39-.2-.11-.33-.19-.33-.19.12-.42.3-.83.52-1.22.23-.39.49-.75.79-1.06,0,0,.14.08.33.19.2.11.68-.05,1.35-.44Z"/>
    <path class="cls-20" d="M90.48,76.96c0-1.43-1.16-2.59-2.59-2.59s-2.59,1.16-2.59,2.59,1.16,2.59,2.59,2.59,2.59-1.16,2.59-2.59Z"/>
    <polygon class="cls-7" points="89.1 76.87 88.89 76.65 88.59 76.65 88.59 77.28 88.91 77.28 88.91 77.03 89.1 77.23 89.3 77.03 89.3 77.28 89.62 77.28 89.62 76.65 89.32 76.65 89.1 76.87"/>
    <polygon class="cls-18" points="89.1 76.87 88.89 76.65 88.59 76.65 88.59 77.28 88.91 77.28 88.91 77.03 89.1 77.23 89.3 77.03 89.3 77.28 89.62 77.28 89.62 76.65 89.32 76.65 89.1 76.87"/>
    <polygon class="cls-7" points="87.95 76.65 87.78 76.65 87.37 77.28 87.7 77.28 87.75 77.21 87.95 77.21 88.15 77.21 88.2 77.28 88.53 77.28 88.12 76.65 87.95 76.65"/>
    <polygon class="cls-18" points="87.95 76.65 87.78 76.65 87.37 77.28 87.7 77.28 87.75 77.21 87.95 77.21 88.15 77.21 88.2 77.28 88.53 77.28 88.12 76.65 87.95 76.65"/>
    <polygon class="cls-1" points="87.95 77.06 87.85 77.06 87.95 76.9 88.05 77.06 87.95 77.06"/>
    <polygon class="cls-18" points="87.95 77.06 87.85 77.06 87.95 76.9 88.05 77.06 87.95 77.06"/>
    <polygon class="cls-7" points="86.61 76.65 86.29 76.65 86.29 77.28 86.61 77.28 86.99 76.99 86.99 77.28 87.31 77.28 87.31 76.65 86.99 76.65 86.61 76.94 86.61 76.65"/>
    <polygon class="cls-18" points="86.61 76.65 86.29 76.65 86.29 77.28 86.61 77.28 86.99 76.99 86.99 77.28 87.31 77.28 87.31 76.65 86.99 76.65 86.61 76.94 86.61 76.65"/>
    <path class="cls-8" d="M13.97,67.32v-12.19c0-1.23.32-2.13.32-2.13h0c.06.08.12.14.19.2.17.16.79.72,1.08.99.3.27.41.52.41.84v6.24c0,.77-.09,1.39-.53,2.36-.77,1.7-1.15,2.72-1.5,3.86l.03-.17Z"/>
    <path class="cls-23" d="M13.97,67.32v-12.19c0-1.23.32-2.13.32-2.13h0c.06.08.12.14.19.2.17.16.79.72,1.08.99.3.27.41.52.41.84v6.24c0,.77-.09,1.39-.53,2.36-.77,1.7-1.15,2.72-1.5,3.86l.03-.17Z"/>
    <path class="cls-8" d="M13.58,73.5s-.1.37,0,.81c.1.44.7,2.12.7,2.12,0,0-.16.57,0,.79.16.22.43.59.9.69.47.1.92.19.92.19h.01c-.94-.43-1.7-3.2-1.93-3.87-.11-.31-.21-.56-.3-.8l-.31.06Z"/>
    <path class="cls-23" d="M13.58,73.5s-.1.37,0,.81c.1.44.7,2.12.7,2.12,0,0-.16.57,0,.79.16.22.43.59.9.69.47.1.92.19.92.19h.01c-.94-.43-1.7-3.2-1.93-3.87-.11-.31-.21-.56-.3-.8l-.31.06Z"/>
    <path class="cls-8" d="M15.23,77.03c-.24-.46-.45-1-.62-1.49"/>
    <path class="cls-23" d="M15.23,77.03c-.24-.46-.45-1-.62-1.49"/>
    <line class="cls-23" x1="21.17" y1="27.59" x2="179.04" y2="27.59"/>
    <path class="cls-5" d="M15.09,54.48s-.96.47-.96,2.81v9.1l.16-.59v-8.29c0-1.48,1.07-2.32,1.27-2.42,0,0,.08-.42-.47-.62"/>
    <path class="cls-5" d="M15.68,56.3s-1.21.56-1.21,2.91v6.25l.16-.43v-5.59c0-1.48.84-2.15,1.04-2.25v-.88Z"/>
    <path class="cls-23" d="M13.41,68.05s-.35.37-.35.99v3.58c0,.57.52.89.52.89h.33"/>
    <line class="cls-23" x1="13.97" y1="28.5" x2="14.82" y2="29.16"/>
    <line class="cls-23" x1="21.19" y1="64.1" x2="21.19" y2="78.78"/>
    <path class="cls-23" d="M19.63,69.73c0,.79-.2,1.43-.44,1.43s-.45-.64-.45-1.43.2-1.43.45-1.43.44.64.44,1.43Z"/>
    <rect class="cls-23" x="102.82" y="76.25" width="2.8" height="1.03"/>
    <rect class="cls-23" x="70.72" y="76.25" width="2.8" height="1.03"/>
    <rect class="cls-23" x="17.65" y="74.1" width="2.8" height="1.03"/>
    <line class="cls-23" x1="106.78" y1="70.6" x2="106.78" y2="81.9"/>
    <path class="cls-3" d="M101.28,76.98c0-7.55-5.96-13.32-13.32-13.32s-13.32,5.77-13.32,13.32c0-7.55,5.96-13.66,13.32-13.66s13.32,6.12,13.32,13.66"/>
    <path class="cls-22" d="M101.28,76.98c0-7.55-5.96-13.32-13.32-13.32s-13.32,5.77-13.32,13.32c0-7.55,5.96-13.66,13.32-13.66s13.32,6.12,13.32,13.66Z"/>
    <rect class="cls-10" x="23.32" y="23.28" width="155.72" height=".92"/>
    <rect class="cls-23" x="23.31" y="23.28" width="155.72" height=".92"/>
    <line class="cls-23" x1="23.32" y1="27.59" x2="23.32" y2="17.16"/>
    <line class="cls-24" x1="21.17" y1="51.57" x2="13.34" y2="51.57"/>
    <line class="cls-24" x1="156.16" y1="27.59" x2="156.16" y2="17.16"/>
    <line class="cls-24" x1="89.68" y1="27.59" x2="89.68" y2="17.16"/>
    <line class="cls-23" x1="134.12" y1="14.46" x2="134.12" y2="17.16"/>
    <rect class="cls-3" x="223.5" y="64.69" width="24.84" height="15.8"/>
    <rect class="cls-23" x="223.5" y="64.69" width="24.84" height="15.8"/>
    <rect class="cls-3" x="339.24" y="64.69" width="24.84" height="15.8"/>
    <rect class="cls-23" x="339.24" y="64.69" width="24.84" height="15.8"/>
    <path class="cls-11" d="M213.88,81.9h10.91s-.55-1.38-.55-4.51c0-5.48,3.65-12.22,11.75-12.22s11.75,6.74,11.75,12.22c0,3.13-.55,4.51-.55,4.51h93.37s-.55-1.38-.55-4.51c0-5.48,3.65-12.22,11.75-12.22s11.75,6.74,11.75,12.22c0,3.13-.55,4.51-.55,4.51h30.63c2.61,0,10.81-1.34,10.81-1.34,0,0,6.26-.74,7.05-.86.79-.12,1.09-.84,1.09-1.31s.1-1.48.15-1.85c.05-.37-.32-.49-.32-.49,0,0,.26,0,.33-.62.07-.62.14-2-.15-4.82-.02-.16-.37-.28-.37-.28,0,0,.37-.2.37-.32,0-2.17-.35-2.61-.44-2.86-.1-.25-.76-.56-.76-.56-.69-1.29-1.86-1.98-2.52-2.52-.54-.43-1.37-1.11-1.42-2.24-.05-1.14-.89-23.99-1.34-34.16-.11-2.52-2.19-3.25-3.37-3.67-5.53-1.96-13.15-4.22-27.42-6.56-1.63-.27-3.62-.27-4.54-.27h-156.85"/>
    <path class="cls-23" d="M213.88,81.9h10.91s-.55-1.38-.55-4.51c0-5.48,3.65-12.22,11.75-12.22s11.75,6.74,11.75,12.22c0,3.13-.55,4.51-.55,4.51h93.37s-.55-1.38-.55-4.51c0-5.48,3.65-12.22,11.75-12.22s11.75,6.74,11.75,12.22c0,3.13-.55,4.51-.55,4.51h30.63c2.61,0,10.81-1.34,10.81-1.34,0,0,6.26-.74,7.05-.86.79-.12,1.09-.84,1.09-1.31s.1-1.48.15-1.85c.05-.37-.32-.49-.32-.49,0,0,.26,0,.33-.62.07-.62.14-2-.15-4.82-.02-.16-.37-.28-.37-.28,0,0,.37-.2.37-.32,0-2.17-.35-2.61-.44-2.86-.1-.25-.76-.56-.76-.56-.69-1.29-1.86-1.98-2.52-2.52-.54-.43-1.37-1.11-1.42-2.24-.05-1.14-.89-23.99-1.34-34.16-.11-2.52-2.19-3.25-3.37-3.67-5.53-1.96-13.15-4.22-27.42-6.56-1.63-.27-3.62-.27-4.54-.27h-156.85"/>
    <path class="cls-8" d="M404.26,80.54c.03-2.34.05-4.56.06-6.84,0,0,2.42.07,3.5.44,1.07.37.79.43,1.46.54.66.11,1.01.17,1.24.21.23.04.37-.23.61-.11.23.12.55.2.94,1.1,0,0,.03-2.87-.19-4.28-.58-3.77-7.54-4.6-7.54-4.6v-1.55c-.03-17.01-.45-31.79-.54-34.93"/>
    <path class="cls-23" d="M404.26,80.54c.03-2.34.05-4.56.06-6.84,0,0,2.42.07,3.5.44,1.07.37.79.43,1.46.54.66.11,1.01.17,1.24.21.23.04.37-.23.61-.11.23.12.55.2.94,1.1,0,0,.03-2.87-.19-4.28-.58-3.77-7.54-4.6-7.54-4.6v-1.55c-.03-17.01-.45-31.79-.54-34.93"/>
    <path class="cls-8" d="M213.88,70.57h3.27c.66,0,1.32-.19,1.91-.9.59-.71,3.73-5.14,7.92-8.61,1.13-.93,2.76-1.42,4.41-1.42h9.2c1.65,0,3.29.48,4.41,1.42,4.19,3.48,7.33,7.91,7.92,8.61.59.71.89.9,1.55.9h17.96v11.41h33.79v-11.41h27.02c.67,0,.96-.19,1.55-.9.59-.71,3.73-5.14,7.92-8.61,1.13-.93,2.76-1.42,4.41-1.42h9.2c1.65,0,3.28.48,4.41,1.42,4.2,3.48,7.33,7.91,7.92,8.61.59.71,1.37.9,2.03.9h.89l.02,9.31h31.04v.94l1.66-.28c.34-25.96-.45-47.23-.54-50.64-.05-1.56-.51-3.26-2.52-3.86-12.26-3.69-22.48-4.75-24.97-5.06-2.04-.26-3.25-.39-4.61-.39h-25.36c-.78,0-9.71,2.69-9.71,2.69l-17.33-2.38-.05-.31h-105.36"/>
    <path class="cls-23" d="M213.88,70.57h3.27c.66,0,1.32-.19,1.91-.9.59-.71,3.73-5.14,7.92-8.61,1.13-.93,2.76-1.42,4.41-1.42h9.2c1.65,0,3.29.48,4.41,1.42,4.19,3.48,7.33,7.91,7.92,8.61.59.71.89.9,1.55.9h17.96v11.41h33.79v-11.41h27.02c.67,0,.96-.19,1.55-.9.59-.71,3.73-5.14,7.92-8.61,1.13-.93,2.76-1.42,4.41-1.42h9.2c1.65,0,3.28.48,4.41,1.42,4.2,3.48,7.33,7.91,7.92,8.61.59.71,1.37.9,2.03.9h.89l.02,9.31h31.04v.94l1.66-.28c.34-25.96-.45-47.23-.54-50.64-.05-1.56-.51-3.26-2.52-3.86-12.26-3.69-22.48-4.75-24.97-5.06-2.04-.26-3.25-.39-4.61-.39h-25.36c-.78,0-9.71,2.69-9.71,2.69l-17.33-2.38-.05-.31h-105.36"/>
    <path class="cls-8" d="M408.25,24.26s3.27,13.19,3.27,42.14l-.19.17h0c-.69-1.29-1.86-1.98-2.51-2.52-.54-.43-1.37-1.11-1.42-2.24-.05-1.14-.89-23.99-1.34-34.16,0,0,0-1.16.65-1.9,1.32-1.47,1.54-1.49,1.54-1.49"/>
    <path class="cls-23" d="M408.25,24.26s3.27,13.19,3.27,42.14l-.19.17h0c-.69-1.29-1.86-1.98-2.51-2.52-.54-.43-1.37-1.11-1.42-2.24-.05-1.14-.89-23.99-1.34-34.16,0,0,0-1.16.65-1.9,1.32-1.47,1.54-1.49,1.54-1.49Z"/>
    <path class="cls-23" d="M404.51,80.54c-.08,0-.12.02-.12.02,0,0-8.19,1.34-10.81,1.34h-30.63s.15-.36.29-1.15"/>
    <path class="cls-23" d="M412.36,76.04s.37.12.32.49c-.05.37-.15,1.38-.15,1.85s-.3,1.18-1.09,1.31c-.79.12-7.06.86-7.06.86"/>
    <path class="cls-23" d="M411.33,66.57s.66.31.76.56c.1.25.44.69.44,2.86,0,.12-.37.32-.37.32,0,0,.35.12.37.29.3,2.82.22,4.21.15,4.82-.07.62-.32.62-.32.62"/>
  </g>
  <g class="cls-37">
    <rect class="cls-2" x="407.54" y="26.07" width="2.17" height="7.27"/>
  </g>
  <g class="cls-53">
    <path class="cls-23" d="M409.72,33.34c-.42-3.35-.83-5.77-1.12-7.27h-1.06c.29,1.5.57,3.91.99,7.27h1.18Z"/>
  </g>
  <g class="cls-31">
    <rect class="cls-11" x="406.3" y="34.69" width="5.14" height="24.03"/>
  </g>
  <g class="cls-33">
    <path class="cls-23" d="M407.26,58.32c-.21-5.18-.61-15.04-.93-22.89-.03-.73.23-.74.61-.74h2.97c.66,5.64,1.31,13.59,1.53,24.03h-3.72c-.35,0-.47-.22-.46-.4"/>
    <path class="cls-1" d="M363,77.02c0-6.21-5.03-11.23-11.23-11.23s-11.24,5.03-11.24,11.23,5.03,11.24,11.24,11.24,11.23-5.03,11.23-11.24"/>
    <path class="cls-19" d="M363,77.02c0-6.21-5.03-11.23-11.23-11.23s-11.24,5.03-11.24,11.23,5.03,11.24,11.24,11.24,11.23-5.03,11.23-11.24Z"/>
    <line class="cls-16" x1="362.38" y1="77.02" x2="363" y2="77.02"/>
    <line class="cls-16" x1="362.04" y1="76.21" x2="362.96" y2="76.14"/>
    <line class="cls-16" x1="362.25" y1="75.36" x2="362.86" y2="75.26"/>
    <line class="cls-16" x1="361.86" y1="73.74" x2="362.45" y2="73.55"/>
    <line class="cls-16" x1="361.22" y1="72.2" x2="361.77" y2="71.92"/>
    <line class="cls-16" x1="360.35" y1="70.78" x2="360.85" y2="70.42"/>
    <line class="cls-16" x1="359.27" y1="69.52" x2="359.71" y2="69.08"/>
    <line class="cls-16" x1="358" y1="68.43" x2="358.37" y2="67.93"/>
    <line class="cls-16" x1="356.58" y1="67.56" x2="356.86" y2="67.01"/>
    <line class="cls-16" x1="355.04" y1="66.93" x2="355.23" y2="66.34"/>
    <line class="cls-16" x1="353.42" y1="66.54" x2="353.52" y2="65.92"/>
    <line class="cls-16" x1="351.76" y1="66.41" x2="351.76" y2="65.79"/>
    <line class="cls-16" x1="350.1" y1="66.54" x2="350" y2="65.92"/>
    <line class="cls-16" x1="348.48" y1="66.93" x2="348.29" y2="66.34"/>
    <line class="cls-16" x1="346.94" y1="67.56" x2="346.66" y2="67.01"/>
    <line class="cls-16" x1="345.52" y1="68.43" x2="345.16" y2="67.93"/>
    <line class="cls-16" x1="344.26" y1="69.52" x2="343.82" y2="69.08"/>
    <line class="cls-16" x1="343.18" y1="70.78" x2="342.67" y2="70.42"/>
    <line class="cls-16" x1="342.31" y1="72.2" x2="341.75" y2="71.92"/>
    <line class="cls-16" x1="341.67" y1="73.74" x2="341.08" y2="73.55"/>
    <line class="cls-16" x1="341.28" y1="75.36" x2="340.67" y2="75.26"/>
    <line class="cls-16" x1="341.15" y1="77.02" x2="340.53" y2="77.02"/>
    <line class="cls-16" x1="341.28" y1="78.68" x2="340.66" y2="78.78"/>
    <line class="cls-16" x1="341.67" y1="80.3" x2="341.08" y2="80.49"/>
    <line class="cls-16" x1="342.31" y1="81.84" x2="341.75" y2="82.12"/>
    <line class="cls-16" x1="343.18" y1="83.26" x2="342.67" y2="83.63"/>
    <line class="cls-16" x1="344.26" y1="84.53" x2="343.82" y2="84.97"/>
    <line class="cls-16" x1="345.52" y1="85.61" x2="345.16" y2="86.11"/>
    <line class="cls-16" x1="346.94" y1="86.48" x2="346.66" y2="87.03"/>
    <line class="cls-16" x1="348.48" y1="87.12" x2="348.29" y2="87.71"/>
    <line class="cls-16" x1="350.1" y1="87.51" x2="350" y2="88.12"/>
    <line class="cls-16" x1="351.76" y1="87.64" x2="351.76" y2="88.26"/>
    <line class="cls-16" x1="353.42" y1="87.51" x2="353.52" y2="88.12"/>
    <line class="cls-16" x1="355.04" y1="87.12" x2="355.23" y2="87.71"/>
    <line class="cls-16" x1="356.58" y1="86.48" x2="356.86" y2="87.03"/>
    <line class="cls-16" x1="358" y1="85.61" x2="358.37" y2="86.11"/>
    <line class="cls-16" x1="359.27" y1="84.53" x2="359.71" y2="84.97"/>
    <line class="cls-16" x1="360.35" y1="83.26" x2="360.85" y2="83.63"/>
    <line class="cls-16" x1="361.22" y1="81.84" x2="361.77" y2="82.12"/>
    <line class="cls-16" x1="361.86" y1="80.3" x2="362.45" y2="80.49"/>
    <line class="cls-16" x1="362.25" y1="78.68" x2="362.86" y2="78.78"/>
    <line class="cls-16" x1="361.79" y1="74.61" x2="362.69" y2="74.4"/>
    <line class="cls-16" x1="361.29" y1="73.08" x2="362.14" y2="72.72"/>
    <line class="cls-16" x1="360.56" y1="71.63" x2="361.34" y2="71.15"/>
    <line class="cls-16" x1="359.61" y1="70.32" x2="360.31" y2="69.73"/>
    <line class="cls-16" x1="358.46" y1="69.18" x2="359.06" y2="68.48"/>
    <line class="cls-16" x1="357.15" y1="68.23" x2="357.63" y2="67.44"/>
    <line class="cls-16" x1="355.71" y1="67.49" x2="356.06" y2="66.64"/>
    <line class="cls-16" x1="354.17" y1="66.99" x2="354.39" y2="66.1"/>
    <line class="cls-16" x1="352.57" y1="66.74" x2="352.64" y2="65.82"/>
    <line class="cls-16" x1="350.95" y1="66.74" x2="350.88" y2="65.82"/>
    <line class="cls-16" x1="349.35" y1="66.99" x2="349.14" y2="66.1"/>
    <line class="cls-16" x1="347.82" y1="67.49" x2="347.46" y2="66.64"/>
    <line class="cls-16" x1="346.37" y1="68.23" x2="345.89" y2="67.44"/>
    <line class="cls-16" x1="345.06" y1="69.18" x2="344.47" y2="68.48"/>
    <line class="cls-16" x1="343.92" y1="70.32" x2="343.22" y2="69.73"/>
    <line class="cls-16" x1="342.97" y1="71.63" x2="342.18" y2="71.15"/>
    <line class="cls-16" x1="342.23" y1="73.08" x2="341.38" y2="72.72"/>
    <line class="cls-16" x1="341.73" y1="74.61" x2="340.84" y2="74.4"/>
    <line class="cls-16" x1="341.48" y1="76.21" x2="340.56" y2="76.14"/>
    <line class="cls-16" x1="341.48" y1="77.83" x2="340.56" y2="77.9"/>
    <line class="cls-16" x1="341.73" y1="79.43" x2="340.84" y2="79.64"/>
    <line class="cls-16" x1="342.23" y1="80.97" x2="341.38" y2="81.32"/>
    <line class="cls-16" x1="342.97" y1="82.41" x2="342.18" y2="82.89"/>
    <line class="cls-16" x1="343.92" y1="83.72" x2="343.22" y2="84.32"/>
    <line class="cls-16" x1="345.06" y1="84.87" x2="344.47" y2="85.57"/>
    <line class="cls-16" x1="346.37" y1="85.82" x2="345.89" y2="86.6"/>
    <line class="cls-16" x1="347.82" y1="86.55" x2="347.46" y2="87.4"/>
    <line class="cls-16" x1="349.35" y1="87.05" x2="349.14" y2="87.95"/>
    <line class="cls-16" x1="350.95" y1="87.31" x2="350.88" y2="88.22"/>
    <line class="cls-16" x1="352.57" y1="87.31" x2="352.64" y2="88.22"/>
    <line class="cls-16" x1="354.17" y1="87.05" x2="354.39" y2="87.95"/>
    <line class="cls-16" x1="355.71" y1="86.55" x2="356.06" y2="87.4"/>
    <line class="cls-16" x1="357.15" y1="85.82" x2="357.63" y2="86.6"/>
    <line class="cls-16" x1="358.46" y1="84.87" x2="359.06" y2="85.57"/>
    <line class="cls-16" x1="359.6" y1="83.72" x2="360.3" y2="84.32"/>
    <line class="cls-16" x1="360.56" y1="82.41" x2="361.34" y2="82.89"/>
    <line class="cls-16" x1="361.29" y1="80.97" x2="362.14" y2="81.32"/>
    <line class="cls-16" x1="361.79" y1="79.43" x2="362.69" y2="79.64"/>
    <line class="cls-16" x1="362.04" y1="77.83" x2="362.96" y2="77.91"/>
    <path class="cls-7" d="M344.19,77.17c-.17,0-.58-.23-.69-.66-.37,4.92,3.68,8.85,8.29,8.85,1.81,0,3.52-.61,4.88-1.58-1.44,1.07-3.13,1.6-5,1.6-4.76,0-8.52-3.59-8.52-8.35s3.86-8.61,8.61-8.61c.5,0,1.01.03,1.47.12,1.35.18,3.59,1.39,4.44,2.72.83,1.22-.58,2.24-.58,2.24-1.03-1.57-3.03-2.97-5.42-2.97-3.81,0-6.51,2.73-6.51,6.53.02-.85-.6-.06-.97.11"/>
    <path class="cls-22" d="M344.19,77.17c-.17,0-.58-.23-.69-.66-.37,4.92,3.68,8.85,8.29,8.85,1.81,0,3.52-.61,4.88-1.58-1.44,1.07-3.13,1.6-5,1.6-4.76,0-8.52-3.59-8.52-8.35s3.86-8.61,8.61-8.61c.5,0,1.01.03,1.47.12,1.35.18,3.59,1.39,4.44,2.72.83,1.22-.58,2.24-.58,2.24-1.03-1.57-3.03-2.97-5.42-2.97-3.81,0-6.51,2.73-6.51,6.53.02-.85-.6-.06-.97.11Z"/>
    <path class="cls-7" d="M346.99,69.61c1.36-.88,2.99-1.39,4.73-1.39,4.82,0,8.72,3.91,8.72,8.72,0,1.69-.48,3.27-1.31,4.6.83-1.33,1.55-3.11,1.55-4.8,0-4.82-3.91-8.72-8.72-8.72-1.74,0-3.61.71-4.97,1.59"/>
    <path class="cls-22" d="M346.99,69.61c1.36-.88,2.99-1.39,4.73-1.39,4.82,0,8.72,3.91,8.72,8.72,0,1.69-.48,3.27-1.31,4.6.83-1.33,1.55-3.11,1.55-4.8,0-4.82-3.91-8.72-8.72-8.72-1.74,0-3.61.71-4.97,1.59Z"/>
    <path class="cls-7" d="M358.76,82.09c-1.59,2.17-4.15,3.57-7.04,3.57-4.82,0-8.72-3.91-8.72-8.72,0-1.78.54-3.45,1.46-4.83-.92,1.38-1.58,3.27-1.58,5.05,0,4.82,3.91,8.72,8.72,8.72,2.89,0,5.58-1.63,7.17-3.8"/>
    <path class="cls-22" d="M358.76,82.09c-1.59,2.17-4.15,3.57-7.04,3.57-4.82,0-8.72-3.91-8.72-8.72,0-1.78.54-3.45,1.46-4.83-.92,1.38-1.58,3.27-1.58,5.05,0,4.82,3.91,8.72,8.72,8.72,2.89,0,5.58-1.63,7.17-3.8Z"/>
    <path class="cls-7" d="M358.36,71.64c1.16,1.45,1.85,3.3,1.85,5.3,0,1.11-.21,2.17-.6,3.14.39-.97.55-3.39.33-4.35-.11-.79-.51-2.51-1.59-4.08"/>
    <path class="cls-22" d="M358.36,71.64c1.16,1.45,1.85,3.3,1.85,5.3,0,1.11-.21,2.17-.6,3.14.39-.97.55-3.39.33-4.35-.11-.79-.51-2.51-1.59-4.08Z"/>
    <path class="cls-7" d="M350.48,67.66c.41-.09.82-.14,1.24-.14,5.2,0,9.41,4.22,9.41,9.42s-4.22,9.41-9.41,9.41-9.41-4.22-9.41-9.41c0-1.58.39-3.07,1.08-4.38-1.5,2.26-1.43,3.74-1.43,5.32,0,.42-.44-1.49-.44-1.08,0,6.49,5.22,10.44,9.85,10.5-2.51.31-4.44-.48-3.81-.2,9.12,4.15,16.12-5.25,14.71-9.09-.3-.83.03,1.28-.76,1.78,0,0,.15-.83.19-1.27.17-1.04.02-2.27-.26-3.42-.21-.84-.06,1.33-.11.76-.48-5.45-5.78-8.65-9.61-8.34-.4,0-.82.05-1.24.14"/>
    <path class="cls-22" d="M350.48,67.66c.41-.09.82-.14,1.24-.14,5.2,0,9.41,4.22,9.41,9.42s-4.22,9.41-9.41,9.41-9.41-4.22-9.41-9.41c0-1.58.39-3.07,1.08-4.38-1.5,2.26-1.43,3.74-1.43,5.32,0,.42-.44-1.49-.44-1.08,0,6.49,5.22,10.44,9.85,10.5-2.51.31-4.44-.48-3.81-.2,9.12,4.15,16.12-5.25,14.71-9.09-.3-.83.03,1.28-.76,1.78,0,0,.15-.83.19-1.27.17-1.04.02-2.27-.26-3.42-.21-.84-.06,1.33-.11.76-.48-5.45-5.78-8.65-9.61-8.34-.4,0-.82.05-1.24.14Z"/>
    <path class="cls-17" d="M357.21,76.94c0-3.01-2.46-5.45-5.49-5.45s-5.49,2.44-5.49,5.45,2.46,5.45,5.49,5.45,5.49-2.44,5.49-5.45Z"/>
    <path class="cls-1" d="M345.23,76.96c0-3.55,2.88-6.44,6.44-6.44s6.44,2.88,6.44,6.44-2.88,6.44-6.44,6.44-6.44-2.88-6.44-6.44"/>
    <path class="cls-21" d="M345.23,76.96c0-3.55,2.88-6.44,6.44-6.44s6.44,2.88,6.44,6.44-2.88,6.44-6.44,6.44-6.44-2.88-6.44-6.44Z"/>
    <path class="cls-7" d="M356.66,76.94c0-2.73-2.21-4.94-4.94-4.94s-4.94,2.21-4.94,4.94,2.21,4.94,4.94,4.94,4.94-2.21,4.94-4.94"/>
    <path class="cls-21" d="M356.66,76.94c0-2.73-2.21-4.94-4.94-4.94s-4.94,2.21-4.94,4.94,2.21,4.94,4.94,4.94,4.94-2.21,4.94-4.94Z"/>
    <path class="cls-11" d="M349.33,72.84c.68-.39,1.06-.72,1.06-.94v-.39c.42-.1.86-.15,1.32-.15s.89.05,1.31.15v.39c0,.23.38.56,1.06.94.68.4,1.15.56,1.35.45.2-.11.33-.19.33-.19.3.31.57.67.79,1.06.23.39.4.8.52,1.22,0,0-.13.08-.33.19-.2.11-.29.61-.29,1.39,0,.78.09,1.28.29,1.4.2.11.33.19.33.19-.12.41-.3.82-.52,1.22-.23.39-.49.75-.79,1.06,0,0-.13-.08-.33-.19-.2-.11-.68.05-1.35.44-.68.39-1.06.72-1.06.95v.38c-.42.1-.86.15-1.32.15s-.9-.05-1.31-.15v-.38c0-.23-.38-.56-1.06-.95-.67-.39-1.15-.56-1.35-.45-.2.11-.33.19-.33.19-.3-.31-.57-.67-.79-1.06-.23-.39-.4-.8-.52-1.22,0,0,.14-.08.33-.19.19-.11.29-.61.29-1.4,0-.78-.09-1.28-.29-1.39-.2-.11-.33-.19-.33-.19.12-.42.3-.83.52-1.22.23-.39.5-.75.79-1.06,0,0,.14.08.33.19.2.11.68-.05,1.35-.44"/>
    <path class="cls-20" d="M349.33,72.84c.68-.39,1.06-.72,1.06-.94v-.39c.42-.1.86-.15,1.32-.15s.89.05,1.31.15v.39c0,.23.38.56,1.06.94.68.4,1.15.56,1.35.45.2-.11.33-.19.33-.19.3.31.57.67.79,1.06.23.39.4.8.52,1.22,0,0-.13.08-.33.19-.2.11-.29.61-.29,1.39,0,.78.09,1.28.29,1.4.2.11.33.19.33.19-.12.41-.3.82-.52,1.22-.23.39-.49.75-.79,1.06,0,0-.13-.08-.33-.19-.2-.11-.68.05-1.35.44-.68.39-1.06.72-1.06.95v.38c-.42.1-.86.15-1.32.15s-.9-.05-1.31-.15v-.38c0-.23-.38-.56-1.06-.95-.67-.39-1.15-.56-1.35-.45-.2.11-.33.19-.33.19-.3-.31-.57-.67-.79-1.06-.23-.39-.4-.8-.52-1.22,0,0,.14-.08.33-.19.19-.11.29-.61.29-1.4,0-.78-.09-1.28-.29-1.39-.2-.11-.33-.19-.33-.19.12-.42.3-.83.52-1.22.23-.39.5-.75.79-1.06,0,0,.14.08.33.19.2.11.68-.05,1.35-.44Z"/>
    <path class="cls-20" d="M354.3,76.96c0-1.43-1.16-2.59-2.59-2.59s-2.59,1.16-2.59,2.59,1.16,2.59,2.59,2.59,2.59-1.16,2.59-2.59Z"/>
    <polygon class="cls-7" points="352.93 76.87 352.71 76.65 352.41 76.65 352.41 77.28 352.73 77.28 352.73 77.03 352.93 77.22 353.12 77.03 353.12 77.28 353.44 77.28 353.44 76.65 353.14 76.65 352.93 76.87"/>
    <polygon class="cls-18" points="352.93 76.87 352.71 76.65 352.41 76.65 352.41 77.28 352.73 77.28 352.73 77.03 352.93 77.22 353.12 77.03 353.12 77.28 353.44 77.28 353.44 76.65 353.14 76.65 352.93 76.87"/>
    <polygon class="cls-7" points="351.77 76.65 351.6 76.65 351.2 77.28 351.53 77.28 351.57 77.21 351.77 77.21 351.97 77.21 352.02 77.28 352.35 77.28 351.94 76.65 351.77 76.65"/>
    <polygon class="cls-18" points="351.77 76.65 351.6 76.65 351.2 77.28 351.53 77.28 351.57 77.21 351.77 77.21 351.97 77.21 352.02 77.28 352.35 77.28 351.94 76.65 351.77 76.65"/>
    <polygon class="cls-1" points="351.77 77.06 351.67 77.06 351.77 76.9 351.88 77.06 351.77 77.06"/>
    <polygon class="cls-18" points="351.77 77.06 351.67 77.06 351.77 76.9 351.88 77.06 351.77 77.06"/>
    <polygon class="cls-7" points="350.43 76.65 350.11 76.65 350.11 77.28 350.43 77.28 350.81 77 350.81 77.28 351.14 77.28 351.14 76.65 350.82 76.65 350.43 76.94 350.43 76.65"/>
    <polygon class="cls-18" points="350.43 76.65 350.11 76.65 350.11 77.28 350.43 77.28 350.81 77 350.81 77.28 351.14 77.28 351.14 76.65 350.82 76.65 350.43 76.94 350.43 76.65"/>
    <path class="cls-1" d="M247.23,77.02c0-6.21-5.03-11.23-11.23-11.23s-11.24,5.03-11.24,11.23,5.03,11.24,11.24,11.24,11.23-5.03,11.23-11.24"/>
    <path class="cls-19" d="M247.23,77.02c0-6.21-5.03-11.23-11.23-11.23s-11.24,5.03-11.24,11.23,5.03,11.24,11.24,11.24,11.23-5.03,11.23-11.24Z"/>
    <line class="cls-16" x1="246.61" y1="77.02" x2="247.23" y2="77.02"/>
    <line class="cls-16" x1="246.28" y1="76.21" x2="247.2" y2="76.14"/>
    <line class="cls-16" x1="246.48" y1="75.36" x2="247.09" y2="75.26"/>
    <line class="cls-16" x1="246.09" y1="73.74" x2="246.68" y2="73.55"/>
    <line class="cls-16" x1="245.45" y1="72.2" x2="246.01" y2="71.92"/>
    <line class="cls-16" x1="244.58" y1="70.78" x2="245.09" y2="70.42"/>
    <line class="cls-16" x1="243.5" y1="69.52" x2="243.94" y2="69.08"/>
    <line class="cls-16" x1="242.24" y1="68.43" x2="242.6" y2="67.93"/>
    <line class="cls-16" x1="240.81" y1="67.56" x2="241.1" y2="67.01"/>
    <line class="cls-16" x1="239.28" y1="66.93" x2="239.47" y2="66.34"/>
    <line class="cls-16" x1="237.66" y1="66.54" x2="237.75" y2="65.92"/>
    <line class="cls-16" x1="236" y1="66.41" x2="236" y2="65.79"/>
    <line class="cls-16" x1="234.34" y1="66.54" x2="234.24" y2="65.92"/>
    <line class="cls-16" x1="232.71" y1="66.93" x2="232.52" y2="66.34"/>
    <line class="cls-16" x1="231.18" y1="67.56" x2="230.89" y2="67.01"/>
    <line class="cls-16" x1="229.76" y1="68.43" x2="229.39" y2="67.93"/>
    <line class="cls-16" x1="228.49" y1="69.52" x2="228.05" y2="69.08"/>
    <line class="cls-16" x1="227.41" y1="70.78" x2="226.9" y2="70.42"/>
    <line class="cls-16" x1="226.54" y1="72.2" x2="225.99" y2="71.92"/>
    <line class="cls-16" x1="225.9" y1="73.74" x2="225.31" y2="73.55"/>
    <line class="cls-16" x1="225.51" y1="75.36" x2="224.9" y2="75.26"/>
    <line class="cls-16" x1="225.38" y1="77.02" x2="224.76" y2="77.02"/>
    <line class="cls-16" x1="225.51" y1="78.68" x2="224.9" y2="78.78"/>
    <line class="cls-16" x1="225.9" y1="80.3" x2="225.31" y2="80.49"/>
    <line class="cls-16" x1="226.54" y1="81.84" x2="225.99" y2="82.12"/>
    <line class="cls-16" x1="227.41" y1="83.26" x2="226.9" y2="83.63"/>
    <line class="cls-16" x1="228.49" y1="84.53" x2="228.05" y2="84.97"/>
    <line class="cls-16" x1="229.76" y1="85.61" x2="229.39" y2="86.11"/>
    <line class="cls-16" x1="231.18" y1="86.48" x2="230.89" y2="87.03"/>
    <line class="cls-16" x1="232.71" y1="87.12" x2="232.52" y2="87.71"/>
    <line class="cls-16" x1="234.34" y1="87.51" x2="234.24" y2="88.12"/>
    <line class="cls-16" x1="236" y1="87.64" x2="236" y2="88.26"/>
    <line class="cls-16" x1="237.66" y1="87.51" x2="237.75" y2="88.12"/>
    <line class="cls-16" x1="239.27" y1="87.12" x2="239.47" y2="87.71"/>
    <line class="cls-16" x1="240.81" y1="86.48" x2="241.1" y2="87.03"/>
    <line class="cls-16" x1="242.23" y1="85.61" x2="242.6" y2="86.11"/>
    <line class="cls-16" x1="243.5" y1="84.53" x2="243.94" y2="84.97"/>
    <line class="cls-16" x1="244.58" y1="83.26" x2="245.08" y2="83.63"/>
    <line class="cls-16" x1="245.45" y1="81.84" x2="246" y2="82.12"/>
    <line class="cls-16" x1="246.09" y1="80.3" x2="246.68" y2="80.49"/>
    <line class="cls-16" x1="246.48" y1="78.68" x2="247.09" y2="78.78"/>
    <line class="cls-16" x1="246.03" y1="74.61" x2="246.92" y2="74.4"/>
    <line class="cls-16" x1="245.52" y1="73.08" x2="246.37" y2="72.72"/>
    <line class="cls-16" x1="244.79" y1="71.63" x2="245.57" y2="71.15"/>
    <line class="cls-16" x1="243.84" y1="70.32" x2="244.54" y2="69.73"/>
    <line class="cls-16" x1="242.69" y1="69.18" x2="243.29" y2="68.48"/>
    <line class="cls-16" x1="241.38" y1="68.23" x2="241.87" y2="67.44"/>
    <line class="cls-16" x1="239.94" y1="67.49" x2="240.29" y2="66.64"/>
    <line class="cls-16" x1="238.4" y1="66.99" x2="238.62" y2="66.1"/>
    <line class="cls-16" x1="236.8" y1="66.74" x2="236.88" y2="65.82"/>
    <line class="cls-16" x1="235.19" y1="66.74" x2="235.11" y2="65.82"/>
    <line class="cls-16" x1="233.59" y1="66.99" x2="233.37" y2="66.1"/>
    <line class="cls-16" x1="232.05" y1="67.49" x2="231.7" y2="66.64"/>
    <line class="cls-16" x1="230.61" y1="68.23" x2="230.12" y2="67.44"/>
    <line class="cls-16" x1="229.3" y1="69.18" x2="228.7" y2="68.48"/>
    <line class="cls-16" x1="228.15" y1="70.32" x2="227.45" y2="69.73"/>
    <line class="cls-16" x1="227.2" y1="71.63" x2="226.42" y2="71.15"/>
    <line class="cls-16" x1="226.47" y1="73.08" x2="225.61" y2="72.72"/>
    <line class="cls-16" x1="225.96" y1="74.61" x2="225.07" y2="74.4"/>
    <line class="cls-16" x1="225.71" y1="76.21" x2="224.79" y2="76.14"/>
    <line class="cls-16" x1="225.71" y1="77.83" x2="224.79" y2="77.9"/>
    <line class="cls-16" x1="225.96" y1="79.43" x2="225.07" y2="79.64"/>
    <line class="cls-16" x1="226.47" y1="80.97" x2="225.61" y2="81.32"/>
    <line class="cls-16" x1="227.2" y1="82.41" x2="226.42" y2="82.89"/>
    <line class="cls-16" x1="228.15" y1="83.72" x2="227.45" y2="84.32"/>
    <line class="cls-16" x1="229.3" y1="84.87" x2="228.7" y2="85.57"/>
    <line class="cls-16" x1="230.61" y1="85.82" x2="230.12" y2="86.6"/>
    <line class="cls-16" x1="232.05" y1="86.55" x2="231.69" y2="87.4"/>
    <line class="cls-16" x1="233.59" y1="87.05" x2="233.37" y2="87.95"/>
    <line class="cls-16" x1="235.19" y1="87.31" x2="235.11" y2="88.22"/>
    <line class="cls-16" x1="236.8" y1="87.31" x2="236.88" y2="88.22"/>
    <line class="cls-16" x1="238.4" y1="87.05" x2="238.62" y2="87.95"/>
    <line class="cls-16" x1="239.94" y1="86.55" x2="240.29" y2="87.4"/>
    <line class="cls-16" x1="241.38" y1="85.82" x2="241.87" y2="86.6"/>
    <line class="cls-16" x1="242.69" y1="84.87" x2="243.29" y2="85.57"/>
    <line class="cls-16" x1="243.84" y1="83.72" x2="244.54" y2="84.32"/>
    <line class="cls-16" x1="244.79" y1="82.41" x2="245.57" y2="82.89"/>
    <line class="cls-16" x1="245.52" y1="80.97" x2="246.37" y2="81.32"/>
    <line class="cls-16" x1="246.02" y1="79.43" x2="246.92" y2="79.64"/>
    <line class="cls-16" x1="246.28" y1="77.83" x2="247.19" y2="77.91"/>
    <path class="cls-7" d="M228.42,77.17c-.17,0-.58-.23-.69-.66-.37,4.92,3.68,8.85,8.29,8.85,1.81,0,3.52-.61,4.88-1.58-1.44,1.07-3.13,1.6-5,1.6-4.76,0-8.52-3.59-8.52-8.35s3.86-8.61,8.61-8.61c.5,0,1.01.03,1.47.12,1.35.18,3.59,1.39,4.44,2.72.83,1.22-.58,2.24-.58,2.24-1.03-1.57-3.03-2.97-5.42-2.97-3.81,0-6.51,2.73-6.51,6.53.02-.85-.6-.06-.97.11"/>
    <path class="cls-22" d="M228.42,77.17c-.17,0-.58-.23-.69-.66-.37,4.92,3.68,8.85,8.29,8.85,1.81,0,3.52-.61,4.88-1.58-1.44,1.07-3.13,1.6-5,1.6-4.76,0-8.52-3.59-8.52-8.35s3.86-8.61,8.61-8.61c.5,0,1.01.03,1.47.12,1.35.18,3.59,1.39,4.44,2.72.83,1.22-.58,2.24-.58,2.24-1.03-1.57-3.03-2.97-5.42-2.97-3.81,0-6.51,2.73-6.51,6.53.02-.85-.6-.06-.97.11Z"/>
    <path class="cls-7" d="M231.22,69.61c1.36-.88,2.99-1.39,4.73-1.39,4.82,0,8.73,3.91,8.73,8.72,0,1.69-.48,3.27-1.31,4.6.83-1.33,1.55-3.11,1.55-4.8,0-4.82-3.91-8.72-8.72-8.72-1.74,0-3.61.71-4.97,1.59"/>
    <path class="cls-22" d="M231.22,69.61c1.36-.88,2.99-1.39,4.73-1.39,4.82,0,8.73,3.91,8.73,8.72,0,1.69-.48,3.27-1.31,4.6.83-1.33,1.55-3.11,1.55-4.8,0-4.82-3.91-8.72-8.72-8.72-1.74,0-3.61.71-4.97,1.59Z"/>
    <path class="cls-7" d="M242.99,82.09c-1.59,2.17-4.15,3.57-7.04,3.57-4.82,0-8.72-3.91-8.72-8.72,0-1.78.54-3.45,1.46-4.83-.92,1.38-1.58,3.27-1.58,5.05,0,4.82,3.9,8.72,8.72,8.72,2.89,0,5.58-1.63,7.17-3.8"/>
    <path class="cls-22" d="M242.99,82.09c-1.59,2.17-4.15,3.57-7.04,3.57-4.82,0-8.72-3.91-8.72-8.72,0-1.78.54-3.45,1.46-4.83-.92,1.38-1.58,3.27-1.58,5.05,0,4.82,3.9,8.72,8.72,8.72,2.89,0,5.58-1.63,7.17-3.8Z"/>
    <path class="cls-7" d="M242.6,71.64c1.16,1.45,1.85,3.3,1.85,5.3,0,1.11-.21,2.17-.6,3.14.38-.97.55-3.39.33-4.35-.12-.79-.51-2.51-1.59-4.08"/>
    <path class="cls-22" d="M242.6,71.64c1.16,1.45,1.85,3.3,1.85,5.3,0,1.11-.21,2.17-.6,3.14.38-.97.55-3.39.33-4.35-.12-.79-.51-2.51-1.59-4.08Z"/>
    <path class="cls-7" d="M234.71,67.66c.41-.09.82-.14,1.24-.14,5.2,0,9.41,4.22,9.41,9.42s-4.21,9.41-9.41,9.41-9.41-4.22-9.41-9.41c0-1.58.39-3.07,1.07-4.38-1.5,2.26-1.43,3.74-1.43,5.32,0,.42-.44-1.49-.44-1.08,0,6.49,5.22,10.44,9.85,10.5-2.51.31-4.44-.48-3.81-.2,9.12,4.15,16.12-5.25,14.71-9.09-.31-.83.03,1.28-.76,1.78,0,0,.15-.83.19-1.27.17-1.04.02-2.27-.26-3.42-.21-.84-.06,1.33-.1.76-.48-5.45-5.78-8.65-9.61-8.34-.4,0-.82.05-1.24.14"/>
    <path class="cls-22" d="M234.71,67.66c.41-.09.82-.14,1.24-.14,5.2,0,9.41,4.22,9.41,9.42s-4.21,9.41-9.41,9.41-9.41-4.22-9.41-9.41c0-1.58.39-3.07,1.07-4.38-1.5,2.26-1.43,3.74-1.43,5.32,0,.42-.44-1.49-.44-1.08,0,6.49,5.22,10.44,9.85,10.5-2.51.31-4.44-.48-3.81-.2,9.12,4.15,16.12-5.25,14.71-9.09-.31-.83.03,1.28-.76,1.78,0,0,.15-.83.19-1.27.17-1.04.02-2.27-.26-3.42-.21-.84-.06,1.33-.1.76-.48-5.45-5.78-8.65-9.61-8.34-.4,0-.82.05-1.24.14Z"/>
    <path class="cls-17" d="M241.44,76.94c0-3.01-2.46-5.45-5.49-5.45s-5.49,2.44-5.49,5.45,2.45,5.45,5.49,5.45,5.49-2.44,5.49-5.45Z"/>
    <path class="cls-1" d="M229.46,76.96c0-3.55,2.88-6.44,6.44-6.44s6.44,2.88,6.44,6.44-2.88,6.44-6.44,6.44-6.44-2.88-6.44-6.44"/>
    <path class="cls-21" d="M229.46,76.96c0-3.55,2.88-6.44,6.44-6.44s6.44,2.88,6.44,6.44-2.88,6.44-6.44,6.44-6.44-2.88-6.44-6.44Z"/>
    <path class="cls-7" d="M240.89,76.94c0-2.73-2.21-4.94-4.94-4.94s-4.94,2.21-4.94,4.94,2.21,4.94,4.94,4.94,4.94-2.21,4.94-4.94"/>
    <path class="cls-21" d="M240.89,76.94c0-2.73-2.21-4.94-4.94-4.94s-4.94,2.21-4.94,4.94,2.21,4.94,4.94,4.94,4.94-2.21,4.94-4.94Z"/>
    <path class="cls-11" d="M233.57,72.84c.68-.39,1.06-.72,1.06-.94v-.39c.42-.1.86-.15,1.32-.15s.89.05,1.31.15v.39c0,.23.38.56,1.06.94.68.4,1.15.56,1.35.45.2-.11.33-.19.33-.19.3.31.57.67.79,1.06.23.39.4.8.52,1.22,0,0-.13.08-.33.19-.2.11-.29.61-.29,1.39,0,.78.09,1.28.29,1.4.2.11.33.19.33.19-.12.41-.3.82-.52,1.22-.23.39-.49.75-.79,1.06,0,0-.13-.08-.33-.19-.2-.11-.68.05-1.35.44-.68.39-1.06.72-1.06.95v.38c-.42.1-.86.15-1.32.15s-.89-.05-1.31-.15v-.38c0-.23-.38-.56-1.06-.95-.67-.39-1.15-.56-1.35-.45-.2.11-.33.19-.33.19-.3-.31-.57-.67-.79-1.06-.23-.39-.4-.8-.53-1.22,0,0,.14-.08.33-.19.19-.11.29-.61.29-1.4,0-.78-.09-1.28-.29-1.39-.2-.11-.33-.19-.33-.19.12-.42.3-.83.52-1.22.23-.39.49-.75.79-1.06,0,0,.13.08.33.19.2.11.68-.05,1.35-.44"/>
    <path class="cls-20" d="M233.57,72.84c.68-.39,1.06-.72,1.06-.94v-.39c.42-.1.86-.15,1.32-.15s.89.05,1.31.15v.39c0,.23.38.56,1.06.94.68.4,1.15.56,1.35.45.2-.11.33-.19.33-.19.3.31.57.67.79,1.06.23.39.4.8.52,1.22,0,0-.13.08-.33.19-.2.11-.29.61-.29,1.39,0,.78.09,1.28.29,1.4.2.11.33.19.33.19-.12.41-.3.82-.52,1.22-.23.39-.49.75-.79,1.06,0,0-.13-.08-.33-.19-.2-.11-.68.05-1.35.44-.68.39-1.06.72-1.06.95v.38c-.42.1-.86.15-1.32.15s-.89-.05-1.31-.15v-.38c0-.23-.38-.56-1.06-.95-.67-.39-1.15-.56-1.35-.45-.2.11-.33.19-.33.19-.3-.31-.57-.67-.79-1.06-.23-.39-.4-.8-.53-1.22,0,0,.14-.08.33-.19.19-.11.29-.61.29-1.4,0-.78-.09-1.28-.29-1.39-.2-.11-.33-.19-.33-.19.12-.42.3-.83.52-1.22.23-.39.49-.75.79-1.06,0,0,.13.08.33.19.2.11.68-.05,1.35-.44Z"/>
    <path class="cls-20" d="M238.53,76.96c0-1.43-1.16-2.59-2.59-2.59s-2.59,1.16-2.59,2.59,1.16,2.59,2.59,2.59,2.59-1.16,2.59-2.59Z"/>
    <polygon class="cls-7" points="237.16 76.87 236.95 76.65 236.65 76.65 236.65 77.28 236.97 77.28 236.97 77.03 237.16 77.22 237.35 77.03 237.35 77.28 237.68 77.28 237.68 76.65 237.37 76.65 237.16 76.87"/>
    <polygon class="cls-18" points="237.16 76.87 236.95 76.65 236.65 76.65 236.65 77.28 236.97 77.28 236.97 77.03 237.16 77.22 237.35 77.03 237.35 77.28 237.68 77.28 237.68 76.65 237.37 76.65 237.16 76.87"/>
    <polygon class="cls-7" points="236.01 76.65 235.83 76.65 235.43 77.28 235.76 77.28 235.8 77.21 236.01 77.21 236.21 77.21 236.25 77.28 236.58 77.28 236.18 76.65 236.01 76.65"/>
    <polygon class="cls-18" points="236.01 76.65 235.83 76.65 235.43 77.28 235.76 77.28 235.8 77.21 236.01 77.21 236.21 77.21 236.25 77.28 236.58 77.28 236.18 76.65 236.01 76.65"/>
    <polygon class="cls-1" points="236.01 77.06 235.9 77.06 236.01 76.9 236.11 77.06 236.01 77.06"/>
    <polygon class="cls-18" points="236.01 77.06 235.9 77.06 236.01 76.9 236.11 77.06 236.01 77.06"/>
    <polygon class="cls-7" points="234.67 76.65 234.34 76.65 234.34 77.28 234.67 77.28 235.05 77 235.05 77.28 235.37 77.28 235.37 76.65 235.05 76.65 234.67 76.94 234.67 76.65"/>
    <polygon class="cls-18" points="234.67 76.65 234.34 76.65 234.34 77.28 234.67 77.28 235.05 77 235.05 77.28 235.37 77.28 235.37 76.65 235.05 76.65 234.67 76.94 234.67 76.65"/>
    <path class="cls-23" d="M213.88,27.59h171.88c6.97,0,13.15,1.04,15.34,1.57.81.2,2.78.49,2.78,1.85"/>
    <line class="cls-23" x1="360.07" y1="60.6" x2="371.62" y2="60.6"/>
    <line class="cls-23" x1="227.71" y1="60.6" x2="213.88" y2="60.6"/>
    <polyline class="cls-23" points="244.32 60.6 255.96 60.6 272.44 60.6"/>
    <path class="cls-23" d="M412.36,76.04c.04-2.66.03-5.44-.74-6.91-1.9-3.64-7.33-3.83-7.33-3.83"/>
    <path class="cls-8" d="M412.03,70.29c.36,1.54.36,3.68.33,5.75,0,0,.26,0,.33-.62.07-.62.14-2-.15-4.82-.02-.16-.37-.29-.37-.29l-.13-.03Z"/>
    <path class="cls-23" d="M412.03,70.29c.36,1.54.36,3.68.33,5.75,0,0,.26,0,.33-.62.07-.62.14-2-.15-4.82-.02-.16-.37-.29-.37-.29l-.13-.03Z"/>
    <path class="cls-23" d="M412.52,76.13c-.16-.09-.32.09-.5-.36"/>
    <path class="cls-10" d="M409,74.65c-1.06-.19-1.34-2.43-1.41-2.83-.08-.41-.15-.75.08-.92.1-.07.54-.24,2.18.03,1.64.27,2.05.7,2.1,1.14v.13c.15,1.49.13,3.71.13,3.71-.38-.9-.7-.97-.94-1.1-.23-.12-.37.15-.6.11-.24-.03-.58-.1-1.25-.21l-.3-.06Z"/>
    <path class="cls-23" d="M409,74.65c-1.06-.19-1.34-2.43-1.41-2.83-.08-.41-.15-.75.08-.92.1-.07.54-.24,2.18.03,1.64.27,2.05.7,2.1,1.14v.13c.15,1.49.13,3.71.13,3.71-.38-.9-.7-.97-.94-1.1-.23-.12-.37.15-.6.11-.24-.03-.58-.1-1.25-.21l-.3-.06Z"/>
    <path class="cls-23" d="M411.59,67.15c.29.85.44,1.76.57,3.17"/>
    <path class="cls-23" d="M412.09,77.62c-.45-.52-2.04-.91-2.7-.59-.67.32-2.13,2.21-2.06,2.31,0,0,.15.06,1.26,0,1.11-.06,1.23-.14,1.44-.31.21-.17.57-.58.81-.59.25-.01.93,0,1.25,0s.43.11.43.11"/>
    <path class="cls-10" d="M408.55,79.36c.16-1.17-.06-1.56-.06-1.56-.61.65-1.21,1.47-1.16,1.53,0,0,.15.06,1.26,0"/>
    <path class="cls-23" d="M408.55,79.36c.16-1.17-.06-1.56-.06-1.56-.61.65-1.21,1.47-1.16,1.53,0,0,.15.06,1.26,0"/>
    <line class="cls-23" x1="404.41" y1="60.45" x2="411.47" y2="60.45"/>
    <path class="cls-23" d="M404.32,67.6s6.02.81,7.58,4.03"/>
    <path class="cls-10" d="M407.44,27.44c.01.25-.11.45-.28.46-.17.01-.32-.18-.33-.42-.01-.25.11-.45.28-.47.17,0,.32.18.33.42"/>
    <path class="cls-23" d="M407.44,27.44c.01.25-.11.45-.28.46-.17.01-.32-.18-.33-.42-.01-.25.11-.45.28-.47.17,0,.32.18.33.42Z"/>
    <line class="cls-23" x1="324.18" y1="70.6" x2="324.18" y2="81.9"/>
    <line class="cls-23" x1="332.66" y1="70.53" x2="332.66" y2="81.9"/>
    <rect class="cls-23" x="333.74" y="76.25" width="2.8" height="1.03"/>
    <rect class="cls-23" x="366.53" y="76.25" width="2.8" height="1.03"/>
    <path class="cls-3" d="M365.08,76.98c0-7.55-5.96-13.32-13.32-13.32s-13.32,5.77-13.32,13.32c0-7.55,5.96-13.66,13.32-13.66s13.32,6.12,13.32,13.66"/>
    <path class="cls-22" d="M365.08,76.98c0-7.55-5.96-13.32-13.32-13.32s-13.32,5.77-13.32,13.32c0-7.55,5.96-13.66,13.32-13.66s13.32,6.12,13.32,13.66Z"/>
    <path class="cls-23" d="M403.91,31.53s.72,23.08.38,49.04"/>
    <path class="cls-23" d="M404.36,65.48c0,2.65,0,5.38-.02,8.17"/>
    <line class="cls-23" x1="406.14" y1="31.07" x2="403.89" y2="31.07"/>
    <path class="cls-23" d="M367.11,71.48c0,.45.36.82.82.82s.82-.36.82-.82-.37-.82-.82-.82-.82.36-.82.82Z"/>
    <path class="cls-10" d="M347.5,17.16s-2.46,1.2-4.95,2.58c-2.48,1.37-4.99,2.91-5.94,3.54h9.54s3.03-3.22,7.89-6.12h-6.55Z"/>
    <path class="cls-23" d="M347.5,17.16s-2.46,1.2-4.95,2.58c-2.48,1.37-4.99,2.91-5.94,3.54h9.54s3.03-3.22,7.89-6.12h-6.55Z"/>
    <rect class="cls-10" x="213.88" y="23.28" width="132.11" height=".92"/>
    <rect class="cls-23" x="213.88" y="23.28" width="132.11" height=".92"/>
    <path class="cls-9" d="M360.09,23.02h-.67v1.31h.68v-.59l.8.59h.68v-1.31h-.68v.6l-.8-.6ZM358.44,23.02h-.72l-.85,1.31h.7l.1-.14h.84l.09.14h.7l-.85-1.31ZM358.28,23.84h-.39l.2-.31.2.31ZM355.21,23.02h-.64v1.31h.68v-.52l.41.4.41-.4v.52h.68v-1.31h-.64l-.45.45-.45-.45Z"/>
    <path class="cls-10" d="M352.17,23.71s-.02,0-.02-.02l.02-.09s.02-.02.03-.02h.2s.02.01.01.02l-.02.09s-.02.02-.03.02h-.19Z"/>
    <path class="cls-10" d="M352.02,23.59h0c-.25,0-.41,0-.41,0-.05,0-.12.04-.16.15-.01.04-.03.1-.05.16-.02.08-.05.16-.05.2-.02.06-.04.19.07.2h0s.17.02.41,0c0,0,.02-.01.02-.02l.02-.08s0-.02-.02-.02h-.23c-.05,0-.05-.03-.05-.08,0-.02.02-.11.05-.19.02-.06.04-.13.04-.14.01-.04.03-.07.1-.07h.22s.02-.01.02-.02l.02-.07s0-.02-.01-.02"/>
    <path class="cls-10" d="M347.46,23.59s-.02.01-.03.02l-.19.67s0,.02.02.02h.51s.02,0,.03-.02l.02-.07s0-.02-.02-.02h-.26s-.02,0-.01-.02l.15-.56s0-.02-.01-.02h-.21Z"/>
    <path class="cls-10" d="M348.05,23.77s-.02,0-.03.02l-.13.48s0,.02.02.02h.19s.02,0,.03-.02l.13-.48s0-.02-.02-.02h-.19Z"/>
    <path class="cls-10" d="M348.07,23.71s-.02,0-.02-.02l.02-.09s.01-.02.03-.02h.19s.02.01.02.02l-.03.09s-.01.02-.02.02h-.19Z"/>
    <path class="cls-10" d="M349.9,23.6s-.08.28-.08.28c0,0,0,.02,0,.02h.05s.02,0,.03-.02c0-.02,0-.02.01-.04.02-.03.06-.08.11-.11.01,0,.03-.01.04-.02.01,0,.01,0,.02-.02,0-.01.03-.09.03-.1,0,0,0-.02-.01-.02h-.19s-.02,0-.02.02"/>
    <path class="cls-10" d="M348.92,23.77h0c-.24,0-.43,0-.43,0-.11,0-.13.08-.15.14-.02.06-.03.11-.06.23-.03.1,0,.15.06.16h0s.01,0,.02,0h0c.06,0,.23,0,.4,0,0,0,.01,0,.02,0h0c.1-.01.11-.08.14-.13.02-.06.05-.15.07-.26.02-.1-.01-.13-.06-.13M348.75,23.93c-.02.06-.06.2-.07.22,0,.03-.02.04-.06.04h-.1s-.03-.03-.01-.07c.01-.05.05-.18.06-.2,0-.03.02-.05.04-.05h.11s.04,0,.02.06"/>
    <path class="cls-10" d="M350.71,23.77h-.02c-.2,0-.36,0-.42,0h0c-.11,0-.14.11-.16.22-.02.11.05.11.1.11h.21c.05,0,.03.04.03.06,0,.02-.02.04-.05.04h-.32s-.02.01-.03.02v.05s0,.02,0,.02h0c.24,0,.44,0,.44,0,.08,0,.11-.02.15-.06.02-.02.04-.09.05-.18.02-.09-.03-.09-.07-.09h-.23c-.06,0-.04-.05-.04-.07,0-.01.01-.03.05-.03h.29s.02,0,.03-.02v-.06s0-.02,0-.02"/>
    <path class="cls-10" d="M349.63,23.77h0c-.3,0-.48,0-.48,0h0s-.02,0-.02.02l-.13.48s0,.02.02.02h.19s.02,0,.02-.02c0,0,.08-.28.09-.34.02-.06.05-.07.06-.07h.08s.05.02.04.07c-.01.05-.09.34-.09.34,0,0,0,.02.01.02h.19s.02,0,.02-.02c0,0,.06-.21.09-.34.03-.12-.04-.16-.1-.17"/>
    <path class="cls-10" d="M352.15,23.77s-.02.01-.03.02l-.13.48s0,.02.02.02h.19s.02-.01.03-.02l.13-.48s0-.02-.02-.02h-.19Z"/>
    <path class="cls-10" d="M352.63,23.61s.01-.02.02-.02h.19s.02,0,.02.02l-.04.14s0,.02.02.02h.15s.02,0,.02.02l-.02.06s-.02.02-.03.02h-.15s-.02,0-.02.02c0,0-.06.22-.07.26,0,.03-.02.05.03.05.06,0,.14,0,.14,0,.01,0,.02,0,.01.02v.05s-.03.02-.04.02h-.28s-.14,0-.09-.17c.05-.17.07-.24.07-.24,0-.01,0-.02-.01-.02h-.06s-.02-.01-.02-.02l.02-.06s.01-.02.02-.02h.06s.02,0,.03-.02l.04-.14Z"/>
    <path class="cls-10" d="M353.11,23.79s.01-.02.02-.02h.19s.02,0,.01.02c0,0-.07.27-.09.32-.01.05-.02.08.02.08h.09s.04,0,.06-.06c.02-.06.09-.33.09-.33,0-.01.01-.02.02-.02h.19s.02,0,.01.02c0,0-.12.43-.14.52-.03.09-.07.16-.17.16h-.46s-.02,0-.01-.02l.02-.06s.02-.02.03-.02h.29s.08-.08.08-.08c0-.01,0-.02-.01-.02h-.24c-.05,0-.14-.03-.1-.18.04-.15.09-.31.09-.31"/>
    <line class="cls-24" x1="371.62" y1="27.59" x2="371.62" y2="17.16"/>
    <line class="cls-24" x1="286.51" y1="27.59" x2="286.51" y2="17.16"/>
    <line class="cls-23" x1="319.24" y1="20.59" x2="341.06" y2="20.59"/>
    <line class="cls-24" x1="306.23" y1="70.57" x2="306.23" y2="81.99"/>
    <line class="cls-24" x1="272.44" y1="27.59" x2="272.44" y2="81.99"/>
    <rect class="cls-23" x="250.84" y="76.25" width="2.8" height="1.03"/>
    <path class="cls-3" d="M249.29,76.98c0-7.55-5.96-13.31-13.32-13.31s-13.32,5.77-13.32,13.31c0-7.55,5.96-13.66,13.32-13.66s13.32,6.12,13.32,13.66"/>
    <path class="cls-22" d="M249.29,76.98c0-7.55-5.96-13.31-13.32-13.31s-13.32,5.77-13.32,13.31c0-7.55,5.96-13.66,13.32-13.66s13.32,6.12,13.32,13.66Z"/>
    <rect class="cls-23" x="218.51" y="76.25" width="2.8" height="1.03"/>
  </g>
  <g class="cls-48">
    <rect class="cls-11" x="219.57" y="31.93" width="33.28" height="27.21"/>
  </g>
  <g class="cls-43">
    <path class="cls-24" d="M252.85,31.93h-33.28v27.21h6.85c1.09-.53,2.6-.89,4.78-.89h9.2c2.19,0,3.69.36,4.78.89h7.68v-27.21Z"/>
  </g>
  <line class="cls-23" x1="213.88" y1="17.16" x2="213.88" y2="81.9"/>
  <line class="cls-23" x1="179.04" y1="17.16" x2="179.04" y2="81.9"/>
  <polygon class="cls-11" points="255.98 31.93 255.98 59.14 270.74 59.14 270.74 32.93 269.68 31.93 255.98 31.93"/>
  <polygon class="cls-24" points="269.68 31.93 255.98 31.93 255.98 59.14 270.74 59.14 270.74 32.93 269.68 31.93"/>
  <polyline class="cls-23" points="273.62 27.59 273.62 81.11 304.67 81.11 304.67 27.59"/>
  <line class="cls-23" x1="289.14" y1="27.59" x2="289.14" y2="81.11"/>
  <g class="cls-54">
    <rect class="cls-11" x="275.56" y="36.76" width="11.06" height="39.67"/>
  </g>
  <g class="cls-13">
    <path class="cls-23" d="M275.56,55.32c0,.25.08.51.49.51,1.59,0,3.38-.09,4.24.72.47.44.49,1.07.49,1.84v-.15c0,.77-.02,1.4-.49,1.84-.86.81-2.65.72-4.24.72-.41,0-.49.26-.49.51v14.68c0,.23.19.43.43.43h10.21c.24,0,.43-.19.43-.43v-38.82c0-.24-.19-.43-.43-.43h-10.21c-.24,0-.43.19-.43.43v18.13Z"/>
    <path class="cls-23" d="M279.7,59.1c0,.36-.29.65-.65.65s-.65-.29-.65-.65v-1.55c0-.36.29-.65.65-.65s.65.29.65.65v1.55Z"/>
    <path class="cls-23" d="M277.35,58.76c0,.55-.32.99-.71.99s-.72-.44-.72-.99.32-.99.72-.99.71.44.71.99Z"/>
  </g>
  <line class="cls-23" x1="273.62" y1="32.95" x2="304.67" y2="32.95"/>
  <line class="cls-23" x1="273.62" y1="34.05" x2="304.67" y2="34.05"/>
  <line class="cls-23" x1="274.61" y1="34.05" x2="274.61" y2="79.89"/>
  <line class="cls-23" x1="287.39" y1="35.58" x2="287.39" y2="79.89"/>
  <line class="cls-23" x1="274.61" y1="35.58" x2="289.14" y2="35.58"/>
  <line class="cls-23" x1="273.72" y1="79.89" x2="289.14" y2="79.89"/>
  <line class="cls-23" x1="274.61" y1="78.16" x2="287.39" y2="78.16"/>
  <g class="cls-39">
    <rect class="cls-11" x="291.67" y="36.76" width="11.06" height="39.67"/>
  </g>
  <g class="cls-28">
    <path class="cls-23" d="M302.73,55.32c0,.25-.08.51-.49.51-1.6,0-3.38-.09-4.24.72-.47.44-.49,1.07-.49,1.84v-.15c0,.77.02,1.4.49,1.84.86.81,2.65.72,4.24.72.41,0,.49.26.49.51v14.68c0,.23-.19.43-.43.43h-10.2c-.24,0-.43-.19-.43-.43v-38.82c0-.24.19-.43.43-.43h10.2c.24,0,.43.19.43.43v18.13Z"/>
    <path class="cls-23" d="M298.59,59.1c0,.36.29.65.65.65s.65-.29.65-.65v-1.55c0-.36-.29-.65-.65-.65s-.65.29-.65.65v1.55Z"/>
    <path class="cls-23" d="M300.94,58.76c0,.55.32.99.71.99s.72-.44.72-.99-.32-.99-.72-.99-.71.44-.71.99Z"/>
  </g>
  <line class="cls-23" x1="303.68" y1="34.05" x2="303.68" y2="79.89"/>
  <line class="cls-23" x1="290.9" y1="35.58" x2="290.9" y2="79.89"/>
  <line class="cls-23" x1="303.68" y1="35.58" x2="289.14" y2="35.58"/>
  <line class="cls-23" x1="304.57" y1="79.89" x2="289.14" y2="79.89"/>
  <line class="cls-23" x1="303.68" y1="78.16" x2="290.9" y2="78.16"/>
  <line class="cls-24" x1="254.42" y1="27.59" x2="254.42" y2="60.59"/>
  <line class="cls-24" x1="254.42" y1="60.6" x2="254.42" y2="81.9"/>
  <g class="cls-51">
    <path class="cls-23" d="M258.44,63.07h4.74c.44,0,.79.35.79.79v4.74c0,.44-.35.79-.79.79h-4.74c-.44,0-.79-.35-.79-.79v-4.74c0-.44.35-.79.79-.79Z"/>
  </g>
  <g class="cls-30">
    <rect class="cls-11" x="307.49" y="31.93" width="15.12" height="27.21"/>
  </g>
  <g class="cls-14">
    <path class="cls-24" d="M314.05,59.14h8.57v-27.2h-14.02l-1.07,1v21.98s-.04.2.28.26c.32.06,3.18.45,4.03.67.86.23,1.41.62,1.96,3.07.05.21.25.23.25.23Z"/>
  </g>
  <g class="cls-52">
    <rect class="cls-11" x="325.75" y="32.67" width="43.04" height="26.47"/>
  </g>
  <g class="cls-50">
    <path class="cls-24" d="M368.74,54.91s.04.2-.28.26c-.32.06-3.18.45-4.03.67-.87.23-1.41.62-1.96,3.07-.05.21-.25.23-.25.23h-1.09c-1.09-.53-2.59-.89-4.78-.89h-9.2c-2.18,0-3.68.36-4.78.89h-16.63v-18.89h43v14.66ZM366.23,32.67h-28.29v4.79h28.29v-4.79ZM336.72,32.67h-10.38v4.79h10.38v-4.79Z"/>
    <path class="cls-23" d="M305.02,56.7h5.11c1.53,0,2.27,1.18,2.27,2.22v1.68"/>
    <path class="cls-23" d="M311.38,58.87c0,.59-.48,1.07-1.07,1.07s-1.07-.48-1.07-1.07.48-1.07,1.07-1.07,1.07.48,1.07,1.07Z"/>
    <path class="cls-23" d="M371.62,56.7h-5.11c-1.53,0-2.27,1.18-2.27,2.22v1.68"/>
    <path class="cls-23" d="M365.26,58.87c0,.59.48,1.07,1.07,1.07s1.07-.48,1.07-1.07-.48-1.07-1.07-1.07-1.07.48-1.07,1.07Z"/>
  </g>
  <line class="cls-23" x1="304.67" y1="60.6" x2="343.45" y2="60.6"/>
  <line class="cls-23" x1="360.07" y1="60.6" x2="371.62" y2="60.6"/>
  <line class="cls-24" x1="324.18" y1="27.59" x2="324.18" y2="70.6"/>
  <line class="cls-23" x1="387.15" y1="32.95" x2="387.15" y2="81.9"/>
  <g class="cls-45">
    <rect class="cls-11" x="373.56" y="36.76" width="11.06" height="39.67"/>
  </g>
  <g class="cls-12">
    <path class="cls-23" d="M373.56,55.32c0,.25.08.51.49.51,1.6,0,3.38-.09,4.24.72.47.44.49,1.07.49,1.84v-.15c0,.77-.02,1.4-.49,1.84-.86.81-2.65.72-4.24.72-.41,0-.49.26-.49.51v14.68c0,.23.19.43.43.43h10.2c.24,0,.43-.19.43-.43v-38.82c0-.24-.19-.43-.43-.43h-10.2c-.24,0-.43.19-.43.43v18.13Z"/>
    <path class="cls-23" d="M377.7,59.1c0,.36-.29.65-.65.65s-.65-.29-.65-.65v-1.55c0-.36.29-.65.65-.65s.65.29.65.65v1.55Z"/>
    <path class="cls-23" d="M375.35,58.76c0,.55-.32.99-.71.99s-.72-.44-.72-.99.32-.99.72-.99.71.44.71.99Z"/>
  </g>
  <line class="cls-23" x1="371.62" y1="32.95" x2="402.67" y2="32.95"/>
  <line class="cls-23" x1="371.62" y1="34.05" x2="402.67" y2="34.05"/>
  <line class="cls-23" x1="372.61" y1="34.05" x2="372.61" y2="79.89"/>
  <line class="cls-23" x1="385.39" y1="35.58" x2="385.39" y2="79.89"/>
  <line class="cls-23" x1="372.61" y1="35.58" x2="387.15" y2="35.58"/>
  <line class="cls-23" x1="372.61" y1="78.16" x2="385.39" y2="78.16"/>
  <g class="cls-34">
    <rect class="cls-11" x="389.67" y="36.76" width="11.06" height="39.67"/>
  </g>
  <g class="cls-42">
    <path class="cls-23" d="M400.73,55.32c0,.25-.08.51-.49.51-1.6,0-3.38-.09-4.25.72-.47.44-.49,1.07-.49,1.84v-.15c0,.77.02,1.4.49,1.84.86.81,2.65.72,4.25.72.41,0,.49.26.49.51v14.68c0,.23-.19.43-.43.43h-10.21c-.24,0-.43-.19-.43-.43v-38.82c0-.24.19-.43.43-.43h10.21c.23,0,.43.19.43.43v18.13Z"/>
    <path class="cls-23" d="M396.59,59.1c0,.36.29.65.65.65s.65-.29.65-.65v-1.55c0-.36-.29-.65-.65-.65s-.65.29-.65.65v1.55Z"/>
    <path class="cls-23" d="M398.94,58.76c0,.55.32.99.71.99s.72-.44.72-.99-.32-.99-.72-.99-.71.44-.71.99Z"/>
  </g>
  <line class="cls-23" x1="401.68" y1="34.05" x2="401.68" y2="79.89"/>
  <line class="cls-23" x1="388.9" y1="35.58" x2="388.9" y2="79.89"/>
  <line class="cls-23" x1="401.68" y1="35.58" x2="387.15" y2="35.58"/>
  <line class="cls-23" x1="401.68" y1="78.16" x2="388.9" y2="78.16"/>
  <polyline class="cls-23" points="371.62 70.6 371.62 65.82 371.62 27.59"/>
  <line class="cls-23" x1="402.67" y1="80.82" x2="402.67" y2="29.64"/>
  <polygon class="cls-11" points="22.53 31.93 22.53 54.62 35.02 54.62 35.02 32.93 33.96 31.93 22.53 31.93"/>
  <polygon class="cls-24" points="33.96 31.93 22.53 31.93 22.53 54.63 35.03 54.63 35.03 32.93 33.96 31.93"/>
  <polyline class="cls-23" points="69.01 27.59 69.01 81.11 40.96 81.11"/>
  <line class="cls-23" x1="53.49" y1="27.59" x2="53.49" y2="81.11"/>
  <g class="cls-55">
    <rect class="cls-11" x="39.91" y="36.76" width="11.06" height="39.67"/>
  </g>
  <g class="cls-40">
    <path class="cls-23" d="M39.91,55.32c0,.25.08.51.49.51,1.6,0,3.38-.09,4.24.72.47.44.49,1.07.49,1.84v-.15c0,.77-.02,1.4-.49,1.84-.86.81-2.65.72-4.24.72-.41,0-.49.26-.49.51v14.68c0,.23.19.43.43.43h10.2c.24,0,.43-.19.43-.43v-38.82c0-.24-.19-.43-.43-.43h-10.2c-.24,0-.43.19-.43.43v18.13Z"/>
    <path class="cls-23" d="M44.05,59.1c0,.36-.29.65-.65.65s-.65-.29-.65-.65v-1.55c0-.36.29-.65.65-.65s.65.29.65.65v1.55Z"/>
    <path class="cls-23" d="M41.69,58.76c0,.55-.32.99-.72.99s-.71-.44-.71-.99.32-.99.71-.99.72.44.72.99Z"/>
  </g>
  <line class="cls-23" x1="37.97" y1="32.95" x2="69.02" y2="32.95"/>
  <line class="cls-23" x1="37.97" y1="34.05" x2="69.02" y2="34.05"/>
  <line class="cls-23" x1="38.96" y1="34.05" x2="38.96" y2="79.89"/>
  <line class="cls-23" x1="51.73" y1="35.58" x2="51.73" y2="79.89"/>
  <line class="cls-23" x1="38.96" y1="35.58" x2="53.49" y2="35.58"/>
  <line class="cls-23" x1="38.07" y1="79.89" x2="53.49" y2="79.89"/>
  <line class="cls-23" x1="38.96" y1="78.16" x2="51.73" y2="78.16"/>
  <g class="cls-29">
    <rect class="cls-11" x="56.01" y="36.76" width="11.06" height="39.67"/>
  </g>
  <g class="cls-32">
    <path class="cls-23" d="M67.07,55.32c0,.25-.08.51-.5.51-1.59,0-3.38-.09-4.24.72-.47.44-.49,1.07-.49,1.84v-.15c0,.77.02,1.4.49,1.84.86.81,2.65.72,4.24.72.41,0,.5.26.5.51v14.68c0,.23-.19.43-.43.43h-10.2c-.24,0-.43-.19-.43-.43v-38.82c0-.24.19-.43.43-.43h10.2c.24,0,.43.19.43.43v18.13Z"/>
    <path class="cls-23" d="M62.93,59.1c0,.36.29.65.65.65s.65-.29.65-.65v-1.55c0-.36-.29-.65-.65-.65s-.65.29-.65.65v1.55Z"/>
    <path class="cls-23" d="M65.29,58.76c0,.55.32.99.72.99s.71-.44.71-.99-.32-.99-.71-.99-.72.44-.72.99Z"/>
  </g>
  <line class="cls-23" x1="68.03" y1="34.05" x2="68.03" y2="79.89"/>
  <line class="cls-23" x1="55.25" y1="35.58" x2="55.25" y2="79.89"/>
  <line class="cls-23" x1="68.03" y1="35.58" x2="53.49" y2="35.58"/>
  <line class="cls-23" x1="68.92" y1="79.89" x2="53.49" y2="79.89"/>
  <line class="cls-23" x1="68.03" y1="78.16" x2="55.25" y2="78.16"/>
  <polyline class="cls-23" points="37.97 27.59 37.97 80.78 37.97 70.6"/>
  <polygon class="cls-11" points="107.97 31.93 107.97 54.62 122.73 54.62 122.73 32.93 121.66 31.93 107.97 31.93"/>
  <polygon class="cls-24" points="121.66 31.93 107.97 31.93 107.97 54.63 122.73 54.63 122.73 32.93 121.66 31.93"/>
  <polygon class="cls-11" points="72.94 31.93 71.88 32.93 71.88 54.62 104.83 54.62 104.83 31.93 72.94 31.93"/>
  <polygon class="cls-24" points="72.94 31.93 104.83 31.93 104.83 54.63 71.88 54.63 71.88 32.93 72.94 31.93"/>
  <g class="cls-38">
    <path class="cls-23" d="M68.92,56.7h5.11c1.53,0,2.27,1.18,2.27,2.22v1.68"/>
    <path class="cls-23" d="M74.49,58.87c0,.59-.48,1.07-1.07,1.07s-1.07-.48-1.07-1.07.48-1.07,1.07-1.07,1.07.48,1.07,1.07Z"/>
  </g>
  <line class="cls-24" x1="106.4" y1="27.59" x2="106.4" y2="70.6"/>
  <polyline class="cls-23" points="125.61 27.59 125.61 81.11 156.65 81.11 156.65 27.59"/>
  <line class="cls-23" x1="141.13" y1="27.59" x2="141.13" y2="81.11"/>
  <g class="cls-56">
    <rect class="cls-11" x="159.48" y="31.93" width="13.88" height="27.21"/>
  </g>
  <g class="cls-49">
    <path class="cls-24" d="M166.03,59.14h7.33v-27.2h-12.77l-1.07,1v21.98s-.04.2.28.26c.32.06,3.18.45,4.03.67.86.23,1.41.62,1.96,3.07.05.21.25.23.25.23Z"/>
    <path class="cls-23" d="M157,56.7h5.11c1.53,0,2.27,1.18,2.27,2.22v1.68"/>
    <path class="cls-23" d="M163.36,58.87c0,.59-.48,1.07-1.07,1.07s-1.07-.48-1.07-1.07.48-1.07,1.07-1.07,1.07.48,1.07,1.07Z"/>
  </g>
  <g class="cls-41">
    <rect class="cls-11" x="127.55" y="36.76" width="11.06" height="39.67"/>
  </g>
  <g class="cls-46">
    <path class="cls-23" d="M127.55,55.32c0,.25.08.51.49.51,1.6,0,3.38-.09,4.24.72.47.44.49,1.07.49,1.84v-.15c0,.77-.02,1.4-.49,1.84-.86.81-2.65.72-4.24.72-.41,0-.49.26-.49.51v14.68c0,.23.19.43.43.43h10.2c.24,0,.43-.19.43-.43v-38.82c0-.24-.19-.43-.43-.43h-10.2c-.24,0-.43.19-.43.43v18.13Z"/>
    <path class="cls-23" d="M131.69,59.1c0,.36-.29.65-.65.65s-.65-.29-.65-.65v-1.55c0-.36.29-.65.65-.65s.65.29.65.65v1.55Z"/>
    <path class="cls-23" d="M129.33,58.76c0,.55-.32.99-.72.99s-.71-.44-.71-.99.32-.99.71-.99.72.44.72.99Z"/>
  </g>
  <line class="cls-23" x1="125.61" y1="32.95" x2="156.65" y2="32.95"/>
  <line class="cls-23" x1="125.61" y1="34.05" x2="156.65" y2="34.05"/>
  <line class="cls-23" x1="126.59" y1="34.05" x2="126.59" y2="79.89"/>
  <line class="cls-23" x1="139.37" y1="35.58" x2="139.37" y2="79.89"/>
  <line class="cls-23" x1="126.59" y1="35.58" x2="141.13" y2="35.58"/>
  <line class="cls-23" x1="125.7" y1="79.89" x2="141.13" y2="79.89"/>
  <line class="cls-23" x1="126.59" y1="78.16" x2="139.37" y2="78.16"/>
  <g class="cls-26">
    <rect class="cls-11" x="143.65" y="36.76" width="11.06" height="39.67"/>
  </g>
  <g class="cls-25">
    <path class="cls-23" d="M154.71,55.32c0,.25-.08.51-.49.51-1.6,0-3.38-.09-4.25.72-.47.44-.49,1.07-.49,1.84v-.15c0,.77.02,1.4.49,1.84.86.81,2.65.72,4.25.72.41,0,.49.26.49.51v14.68c0,.23-.19.43-.43.43h-10.2c-.24,0-.43-.19-.43-.43v-38.82c0-.24.19-.43.43-.43h10.2c.24,0,.43.19.43.43v18.13Z"/>
    <path class="cls-23" d="M150.57,59.1c0,.36.29.65.65.65s.65-.29.65-.65v-1.55c0-.36-.29-.65-.65-.65s-.65.29-.65.65v1.55Z"/>
    <path class="cls-23" d="M152.93,58.76c0,.55.32.99.72.99s.71-.44.71-.99-.32-.99-.71-.99-.72.44-.72.99Z"/>
  </g>
  <line class="cls-23" x1="155.66" y1="34.05" x2="155.66" y2="79.89"/>
  <line class="cls-23" x1="142.89" y1="35.58" x2="142.89" y2="79.89"/>
  <line class="cls-23" x1="155.66" y1="35.58" x2="141.13" y2="35.58"/>
  <line class="cls-23" x1="156.55" y1="79.89" x2="141.13" y2="79.89"/>
  <line class="cls-23" x1="155.66" y1="78.16" x2="142.89" y2="78.16"/>
  <line class="cls-23" x1="156.65" y1="60.6" x2="178.74" y2="60.6"/>
  <line class="cls-23" x1="79.54" y1="60.6" x2="69.01" y2="60.6"/>
  <line class="cls-23" x1="37.97" y1="60.6" x2="21.19" y2="60.6"/>
  <line class="cls-23" x1="125.61" y1="60.6" x2="96.27" y2="60.6"/>
  <g class="cls-35">
    <path class="cls-10" d="M336.61,24.2s10.43,13.06,27.71,31.7c.21.22,1.46.6,1.6.31.13-.3-11.38-17.93-19.9-32.01h-9.41Z"/>
    <path class="cls-23" d="M336.61,24.2s10.43,13.06,27.71,31.7c.21.22,1.46.6,1.6.31.13-.3-11.38-17.93-19.9-32.01h-9.41Z"/>
    <path class="cls-6" d="M399.75,29.61c-.13-.24.29-1,.69-1s7.38.33,9.95.55c2.57.22,3.54.68,4.62,1.52,1.09.84,2.33,2.06,2.99,2.76.66.71,1.51,1.63,1.69,4.52.18,2.89.12,3.93-.36,4.28-.48.35-2.04.84-2.48-.35-.44-1.18-1.45-5.05-1.58-5.54-.13-.49-.49-.77-.49-.77,0,0-.76-.08-1.46-1.53-.71-1.45-.57-2.33-.57-2.33,0,0-.91.35-2.84.21-1.92-.13-7.09-.53-7.94-.63-.86-.1-1.4-.2-2.22-1.69"/>
    <path class="cls-23" d="M399.75,29.61c-.13-.24.29-1,.69-1s7.38.33,9.95.55c2.57.22,3.54.68,4.62,1.52,1.09.84,2.33,2.06,2.99,2.76.66.71,1.51,1.63,1.69,4.52.18,2.89.12,3.93-.36,4.28-.48.35-2.04.84-2.48-.35-.44-1.18-1.45-5.05-1.58-5.54-.13-.49-.49-.77-.49-.77,0,0-.76-.08-1.46-1.53-.71-1.45-.57-2.33-.57-2.33,0,0-.91.35-2.84.21-1.92-.13-7.09-.53-7.94-.63-.86-.1-1.4-.2-2.22-1.69Z"/>
    <path class="cls-23" d="M413.14,29.65s-.32.85-.39,2.07"/>
    <path class="cls-11" d="M412.95,30.29c-.06.27-.13,1.46.62,2.66.76,1.2,1.18,1.58,1.58,2.1.39.52.57.84.76,1.63,0,0,.99,4.08,1.12,4.59.13.51.28,1.09,1.4.91,1.12-.19.94-1,.93-1.58-.02-.84-.17-4.11-.65-5.17-.55-1.23-2.19-2.89-3.5-3.95-1.31-1.05-2.25-1.2-2.25-1.2"/>
    <path class="cls-23" d="M412.95,30.29c-.06.27-.13,1.46.62,2.66.76,1.2,1.18,1.58,1.58,2.1.39.52.57.84.76,1.63,0,0,.99,4.08,1.12,4.59.13.51.28,1.09,1.4.91,1.12-.19.94-1,.93-1.58-.02-.84-.17-4.11-.65-5.17-.55-1.23-2.19-2.89-3.5-3.95-1.31-1.05-2.25-1.2-2.25-1.2Z"/>
    <path class="cls-23" d="M412.76,31.51c0,.49.87,2.47,2.31,4.41"/>
    <path class="cls-23" d="M399.72,29.55s9.9.67,11.05.74c1.15.07,2.09.45,2.09.45"/>
    <rect class="cls-23" x="313.67" y="76.25" width="2.8" height="1.03"/>
    <rect class="cls-23" x="160.25" y="76.25" width="2.8" height="1.03"/>
    <path class="cls-23" d="M16.31,78.17c-1.02-.12-1.87-3.22-2.12-3.93-.25-.72-.48-1.12-.48-1.71v-3.51c0-.39.08-1.05.23-1.52.35-1.14.73-2.16,1.5-3.86.44-.96.53-1.59.53-2.35v-6.24"/>
    <path class="cls-24" d="M407.4,61.81c.05,1.14.88,1.81,1.42,2.24.78.63,2.28,1.48,2.84,3.3.17.55.78.96.78.96"/>
  </g>
</svg>