<?xml version="1.0" encoding="UTF-8"?>
<svg id="Layer_1" data-name="Layer 1" xmlns="http://www.w3.org/2000/svg" version="1.1" xmlns:xlink="http://www.w3.org/1999/xlink" viewBox="0 0 333.66 112.2">
  <defs>
    <style>
      .cls-1, .cls-2, .cls-3, .cls-4, .cls-5, .cls-6, .cls-7, .cls-8, .cls-9, .cls-10, .cls-11, .cls-12 {
        fill: none;
      }

      .cls-1, .cls-2, .cls-3, .cls-4, .cls-6, .cls-7, .cls-8, .cls-9, .cls-10, .cls-11, .cls-12 {
        stroke: #231f20;
      }

      .cls-1, .cls-9 {
        stroke-width: .24px;
      }

      .cls-1, .cls-10, .cls-12 {
        stroke-linejoin: round;
      }

      .cls-13, .cls-14, .cls-15, .cls-16, .cls-5, .cls-17, .cls-18, .cls-19, .cls-20, .cls-21, .cls-22, .cls-23 {
        stroke-width: 0px;
      }

      .cls-13, .cls-15, .cls-22 {
        fill-rule: evenodd;
      }

      .cls-13, .cls-21 {
        fill: #fff;
      }

      .cls-2 {
        stroke-width: .13px;
      }

      .cls-2, .cls-3, .cls-4, .cls-6, .cls-7, .cls-8, .cls-9, .cls-11 {
        stroke-miterlimit: 3.86;
      }

      .cls-24 {
        clip-path: url(#clippath-11);
      }

      .cls-25 {
        clip-path: url(#clippath-16);
      }

      .cls-14 {
        fill: url(#linear-gradient);
      }

      .cls-15, .cls-23 {
        fill: #d1d3d4;
      }

      .cls-16, .cls-22 {
        fill: #231f20;
      }

      .cls-3 {
        stroke-width: .19px;
      }

      .cls-4 {
        stroke-width: .13px;
      }

      .cls-26 {
        clip-path: url(#clippath-2);
      }

      .cls-27 {
        clip-path: url(#clippath-13);
      }

      .cls-28 {
        clip-path: url(#clippath-15);
      }

      .cls-29 {
        clip-path: url(#clippath-6);
      }

      .cls-30 {
        clip-path: url(#clippath-7);
      }

      .cls-31 {
        clip-path: url(#clippath-1);
      }

      .cls-32 {
        clip-path: url(#clippath-4);
      }

      .cls-6 {
        stroke-width: .24px;
      }

      .cls-33 {
        clip-path: url(#clippath-12);
      }

      .cls-7 {
        stroke-width: 0px;
      }

      .cls-17 {
        fill: url(#linear-gradient-2);
      }

      .cls-34 {
        clip-path: url(#clippath-9);
      }

      .cls-18 {
        fill: #6d6e71;
      }

      .cls-35 {
        clip-path: url(#clippath);
      }

      .cls-8 {
        stroke-width: .07px;
      }

      .cls-19 {
        fill: #939598;
      }

      .cls-36 {
        clip-path: url(#clippath-3);
      }

      .cls-37 {
        clip-path: url(#clippath-8);
      }

      .cls-20 {
        fill: #4d4d4f;
      }

      .cls-38 {
        clip-path: url(#clippath-14);
      }

      .cls-39 {
        clip-path: url(#clippath-17);
      }

      .cls-40 {
        clip-path: url(#clippath-5);
      }

      .cls-10 {
        stroke-width: .5px;
      }

      .cls-11 {
        stroke-width: .25px;
      }

      .cls-41 {
        clip-path: url(#clippath-10);
      }

      .cls-12 {
        stroke-width: .32px;
      }
    </style>
    <clipPath id="clippath">
      <rect class="cls-5" x="15.01" y="14.82" width="310.33" height="85.78"/>
    </clipPath>
    <clipPath id="clippath-1">
      <path class="cls-5" d="M310.78,29.32c.32,1.68.64,4.37,1.11,8.12h1.32c-.47-3.74-.93-6.44-1.24-8.12h-1.18Z"/>
    </clipPath>
    <linearGradient id="linear-gradient" x1="16.93" y1="852.32" x2="17.93" y2="852.32" gradientTransform="translate(354.29 2101.19) rotate(-180) scale(2.43)" gradientUnits="userSpaceOnUse">
      <stop offset="0" stop-color="#a7a9ac"/>
      <stop offset="1" stop-color="#6d6e71"/>
    </linearGradient>
    <clipPath id="clippath-2">
      <rect class="cls-5" x="15.01" y="14.82" width="310.33" height="85.78"/>
    </clipPath>
    <clipPath id="clippath-3">
      <path class="cls-5" d="M310.1,38.94c-.42,0-.71.01-.68.83.36,8.76.81,19.77,1.04,25.55h0c0,.2.13.45.52.45h4.15c-.25-11.65-.98-20.54-1.71-26.83h-3.32Z"/>
    </clipPath>
    <linearGradient id="linear-gradient-2" x1="12.95" y1="832" x2="13.95" y2="832" gradientTransform="translate(389.07 4804.54) rotate(-180) scale(5.71)" xlink:href="#linear-gradient"/>
    <clipPath id="clippath-4">
      <rect class="cls-5" x="15.01" y="14.82" width="310.33" height="85.78"/>
    </clipPath>
    <clipPath id="clippath-5">
      <path class="cls-5" d="M144.21,41.25c-.26,0-.48.22-.48.48v20.24c0,.28.09.57.55.57,1.78,0,3.77-.1,4.74.81.51.48.55,1.14.55,1.96v-.06.1c0,.81-.04,1.48-.55,1.96-.96.9-2.96.81-4.74.81-.46,0-.55.29-.55.57v16.39c0,.26.21.48.48.48h11.39c.26,0,.48-.21.48-.48v-43.33c0-.26-.21-.48-.48-.48h-11.39Z"/>
    </clipPath>
    <clipPath id="clippath-6">
      <rect class="cls-5" x="15.01" y="14.82" width="310.33" height="85.78"/>
    </clipPath>
    <clipPath id="clippath-7">
      <path class="cls-5" d="M162.18,41.25c-.26,0-.48.22-.48.48v43.33c0,.26.21.48.48.48h11.39c.26,0,.48-.21.48-.48v-16.39c0-.28-.09-.57-.55-.57-1.78,0-3.77.09-4.74-.81-.51-.48-.55-1.15-.55-1.97,0-.82.04-1.49.55-1.97.96-.9,2.96-.81,4.74-.81.46,0,.55-.29.55-.57v-20.24c0-.26-.21-.48-.48-.48h-11.39Z"/>
    </clipPath>
    <clipPath id="clippath-8">
      <rect class="cls-5" x="15.01" y="14.82" width="310.33" height="85.78"/>
    </clipPath>
    <clipPath id="clippath-9">
      <path class="cls-5" d="M273.33,41.25c-.26,0-.48.22-.48.48v20.24c0,.28.09.57.55.57,1.78,0,3.77-.1,4.74.81.51.48.55,1.15.55,1.97,0,.82-.04,1.49-.55,1.97-.96.9-2.96.81-4.74.81-.46,0-.55.29-.55.57v16.39c0,.26.21.48.48.48h11.39c.26,0,.48-.21.48-.48v-43.33c0-.26-.21-.48-.48-.48h-11.39Z"/>
    </clipPath>
    <clipPath id="clippath-10">
      <rect class="cls-5" x="15.01" y="14.82" width="310.33" height="85.78"/>
    </clipPath>
    <clipPath id="clippath-11">
      <path class="cls-5" d="M291.3,41.25c-.26,0-.48.22-.48.48v43.33c0,.26.21.48.48.48h11.39c.26,0,.48-.21.48-.48v-16.39c0-.28-.09-.57-.55-.57-1.78,0-3.77.09-4.74-.81-.51-.48-.55-1.15-.55-1.97,0-.82.04-1.49.55-1.97.96-.9,2.96-.81,4.74-.81.46,0,.55-.29.55-.57v-20.24c0-.26-.21-.48-.48-.48h-11.39Z"/>
    </clipPath>
    <clipPath id="clippath-12">
      <rect class="cls-5" x="15.01" y="14.82" width="310.33" height="85.78"/>
    </clipPath>
    <clipPath id="clippath-13">
      <path class="cls-5" d="M46.37,41.25c-.26,0-.48.22-.48.48v20.24c0,.28.09.57.55.57,1.78,0,3.77-.1,4.74.81.51.48.55,1.15.55,1.97,0,.82-.04,1.49-.55,1.97-.96.9-2.96.81-4.74.81-.46,0-.55.29-.55.57v16.39c0,.26.21.48.48.48h11.39c.26,0,.48-.21.48-.48v-43.33c0-.26-.21-.48-.48-.48h-11.39Z"/>
    </clipPath>
    <clipPath id="clippath-14">
      <rect class="cls-5" x="15.01" y="14.82" width="310.33" height="85.78"/>
    </clipPath>
    <clipPath id="clippath-15">
      <path class="cls-5" d="M64.35,41.25c-.26,0-.48.22-.48.48v43.33c0,.26.21.48.48.48h11.39c.26,0,.48-.21.48-.48v-16.39c0-.28-.09-.57-.55-.57-1.78,0-3.77.09-4.74-.81-.51-.48-.55-1.15-.55-1.97,0-.82.04-1.49.55-1.97.96-.9,2.96-.81,4.74-.81.46,0,.55-.29.55-.57v-20.24c0-.26-.21-.48-.48-.48h-11.39Z"/>
    </clipPath>
    <clipPath id="clippath-16">
      <rect class="cls-5" x="15.01" y="14.82" width="310.33" height="85.78"/>
    </clipPath>
    <clipPath id="clippath-17">
      <rect class="cls-5" x="15.01" y="14.82" width="310.33" height="85.78"/>
    </clipPath>
  </defs>
  <g class="cls-35">
    <path class="cls-21" d="M22.15,26.94l-1.09.13v-1.47c-.18-.16-.11-.24-.11-.51s.13-.41.13-.41c5.07-4.24,6.44-4.24,9.07-4.24h21.99c4.57,0,9.58,5.62,9.58,5.62v.09H27.32c-1.95,0-3.54.28-4.83.75l-.34.04Z"/>
    <path class="cls-10" d="M22.15,26.94l-1.09.13v-1.47c-.18-.16-.11-.24-.11-.51s.13-.41.13-.41c5.07-4.24,6.44-4.24,9.07-4.24h21.99c4.57,0,9.58,5.62,9.58,5.62v.09H27.32c-1.95,0-3.54.28-4.83.75l-.34.04Z"/>
    <path class="cls-21" d="M126.73,26.15s-.17-4.32-5.83-4.32h-52.51c-5.66,0-5.83,4.32-5.83,4.32h64.18Z"/>
    <path class="cls-10" d="M126.73,26.15s-.17-4.32-5.83-4.32h-52.51c-5.66,0-5.83,4.32-5.83,4.32h64.18Z"/>
    <path class="cls-21" d="M282.58,26.1s-10.28-4.92-16.38-7.2c-6.1-2.28-11.2-3.16-18.56-3.16h-70.52c-2.17,0-3.1.04-4.53.49-.56.17-1.21.38-1.93.63-1.05.37-1.98.8-2.25,2.29-.37,2.05-.94,7-.94,7l115.11-.05Z"/>
    <path class="cls-10" d="M282.58,26.1s-10.28-4.92-16.38-7.2c-6.1-2.28-11.2-3.16-18.56-3.16h-70.52c-2.17,0-3.1.04-4.53.49-.56.17-1.21.38-1.93.63-1.05.37-1.98.8-2.25,2.29-.37,2.05-.94,7-.94,7l115.11-.05Z"/>
    <path class="cls-21" d="M22.09,27.05c1.34-.55,3.05-.89,5.19-.89h259.35c1.44,0,2.98.06,4.53.2l.27.02s3.01-.27,7.12-.25c0,0,.4-.66,1.36-.66h5.43s5.62-.11,6.21,1.72c0,0,3.67,14.84,3.67,47.15l-.21.19s.74.35.85.62c.11.28.5.77.5,3.19,0,.14-.41.36-.41.36,0,0,.39.14.41.32.33,3.15.25,4.69.17,5.38-.08.69-.36.69-.36.69,0,0,.41.14.36.55-.05.41-.16,1.54-.16,2.07s-.33,1.32-1.21,1.46c-.88.14-7.88.97-7.88.97,0,0-9.14,1.49-12.06,1.49h-34.19s.61-1.54.61-5.03c0-6.11-4.08-13.64-13.12-13.64s-13.12,7.53-13.12,13.64c0,3.5.62,5.03.62,5.03h-123.99s.62-1.54.62-5.03c0-6.11-4.08-13.64-13.12-13.64s-13.12,7.53-13.12,13.64c0,3.5.62,5.03.62,5.03h-29.8c-2.81,0-4.58-.16-5.37-.26-1.71-.21-31.15-3.76-32.29-3.9l-.21-.06h-.02s-.5-.12-1.02-.23c-.52-.11-.82-.52-1-.77-.18-.25,0-.88,0-.88,0,0-.68-1.87-.79-2.37-.11-.49,0-.91,0-.91,0,0-.58-.36-.58-.99v-3.99c0-.69.39-1.1.39-1.1,0,0-.25-.11-.25-.5s-.14-19.06.87-43.46c.06-1.33-.24-1.76-.46-2.04-.22-.28-.04-.83.41-1.24.51-.45,2.06-1.52,5.08-1.87l.11-.03Z"/>
    <path class="cls-10" d="M22.09,27.05c1.34-.55,3.05-.89,5.19-.89h259.35c1.44,0,2.98.06,4.53.2l.27.02s3.01-.27,7.12-.25c0,0,.4-.66,1.36-.66h5.43s5.62-.11,6.21,1.72c0,0,3.67,14.84,3.67,47.15l-.21.19s.74.35.85.62c.11.28.5.77.5,3.19,0,.14-.41.36-.41.36,0,0,.39.14.41.32.33,3.15.25,4.69.17,5.38-.08.69-.36.69-.36.69,0,0,.41.14.36.55-.05.41-.16,1.54-.16,2.07s-.33,1.32-1.21,1.46c-.88.14-7.88.97-7.88.97,0,0-9.14,1.49-12.06,1.49h-34.19s.61-1.54.61-5.03c0-6.11-4.08-13.64-13.12-13.64s-13.12,7.53-13.12,13.64c0,3.5.62,5.03.62,5.03h-123.99s.62-1.54.62-5.03c0-6.11-4.08-13.64-13.12-13.64s-13.12,7.53-13.12,13.64c0,3.5.62,5.03.62,5.03h-29.8c-2.81,0-4.58-.16-5.37-.26-1.71-.21-31.15-3.76-32.29-3.9l-.21-.06h-.02s-.5-.12-1.02-.23c-.52-.11-.82-.52-1-.77-.18-.25,0-.88,0-.88,0,0-.68-1.87-.79-2.37-.11-.49,0-.91,0-.91,0,0-.58-.36-.58-.99v-3.99c0-.69.39-1.1.39-1.1,0,0-.25-.11-.25-.5s-.14-19.06.87-43.46c.06-1.33-.24-1.76-.46-2.04-.22-.28-.04-.83.41-1.24.51-.45,2.06-1.52,5.08-1.87l.11-.03Z"/>
    <rect class="cls-16" x="85.57" y="72.44" width="27.73" height="17.64"/>
    <rect class="cls-1" x="85.57" y="72.44" width="27.73" height="17.64"/>
    <rect class="cls-16" x="234.54" y="72.44" width="27.73" height="17.64"/>
    <rect class="cls-1" x="234.54" y="72.44" width="27.73" height="17.64"/>
    <path class="cls-21" d="M22.09,27.05c1.34-.55,3.05-.89,5.19-.89h259.35c1.44,0,2.98.06,4.53.2l.27.02s3.01-.27,7.12-.25c0,0,.4-.66,1.36-.66h5.43s5.62-.11,6.21,1.72c0,0,3.67,14.84,3.67,47.15l-.21.19s.74.35.85.62c.11.28.5.77.5,3.19,0,.14-.41.36-.41.36,0,0,.39.14.41.32.33,3.15.25,4.69.17,5.38-.08.69-.36.69-.36.69,0,0,.41.14.36.55-.05.41-.16,1.54-.16,2.07s-.33,1.32-1.21,1.46c-.88.14-7.88.97-7.88.97,0,0-9.14,1.49-12.06,1.49h-34.19s.61-1.54.61-5.03c0-6.11-4.08-13.64-13.12-13.64s-13.12,7.53-13.12,13.64c0,3.5.62,5.03.62,5.03h-123.99s.62-1.54.62-5.03c0-6.11-4.08-13.64-13.12-13.64s-13.12,7.53-13.12,13.64c0,3.5.62,5.03.62,5.03h-29.8c-2.81,0-4.58-.16-5.37-.26-1.71-.21-31.15-3.76-32.29-3.9l-.21-.06h-.02s-.5-.12-1.02-.23c-.52-.11-.82-.52-1-.77-.18-.25,0-.88,0-.88,0,0-.68-1.87-.79-2.37-.11-.49,0-.91,0-.91,0,0-.58-.36-.58-.99v-3.99c0-.69.39-1.1.39-1.1,0,0-.25-.11-.25-.5s-.14-19.06.87-43.46c.06-1.33-.24-1.76-.46-2.04-.22-.28-.04-.83.41-1.24.51-.45,2.06-1.52,5.08-1.87l.11-.03Z"/>
    <path class="cls-1" d="M22.09,27.05c1.34-.55,3.05-.89,5.19-.89h259.35c1.44,0,2.98.06,4.53.2l.27.02s3.01-.27,7.12-.25c0,0,.4-.66,1.36-.66h5.43s5.62-.11,6.21,1.72c0,0,3.67,14.84,3.67,47.15l-.21.19s.74.35.85.62c.11.28.5.77.5,3.19,0,.14-.41.36-.41.36,0,0,.39.14.41.32.33,3.15.25,4.69.17,5.38-.08.69-.36.69-.36.69,0,0,.41.14.36.55-.05.41-.16,1.54-.16,2.07s-.33,1.32-1.21,1.46c-.88.14-7.88.97-7.88.97,0,0-9.14,1.49-12.06,1.49h-34.19s.61-1.54.61-5.03c0-6.11-4.08-13.64-13.12-13.64s-13.12,7.53-13.12,13.64c0,3.5.62,5.03.62,5.03h-123.99s.62-1.54.62-5.03c0-6.11-4.08-13.64-13.12-13.64s-13.12,7.53-13.12,13.64c0,3.5.62,5.03.62,5.03h-29.8c-2.81,0-4.58-.16-5.37-.26-1.71-.21-31.15-3.76-32.29-3.9l-.21-.06h-.02s-.5-.12-1.02-.23c-.52-.11-.82-.52-1-.77-.18-.25,0-.88,0-.88,0,0-.68-1.87-.79-2.37-.11-.49,0-.91,0-.91,0,0-.58-.36-.58-.99v-3.99c0-.69.39-1.1.39-1.1,0,0-.25-.11-.25-.5s-.14-19.06.87-43.46c.06-1.33-.24-1.76-.46-2.04-.22-.28-.04-.83.41-1.24.51-.45,2.06-1.52,5.08-1.87l.11-.03Z"/>
    <path class="cls-18" d="M307.14,90.16c.03-2.61.06-5.09.07-7.63,0,0,2.71.08,3.9.5,1.2.41.88.48,1.63.6.74.12,1.13.19,1.39.23.26.04.41-.26.67-.12.26.14.62.22,1.05,1.23,0,0,.03-3.21-.21-4.78-.65-4.21-8.41-5.14-8.41-5.14v-1.73c-.04-21.43-.63-37.92-.63-37.92,0-1.1-1.18-2.72-4.08-3.48-2.46-.65-7.5-1.27-8.79-1.41-1.29-.15-4.82-.44-6.99-.44H27.09c-1.51,0-2.09,1.47-2.09,2.97v38.74s4.62,5.71,5.03,6.21c.41.5,1.23,1.05,2.35,1.05h11.35v11.37l2.99.36h31.67v-11.73h.11c.74,0,1.48-.22,2.14-1.01.66-.79,4.16-5.73,8.85-9.62,1.26-1.04,3.08-1.58,4.92-1.58h10.27c1.84,0,3.67.54,4.92,1.58,4.69,3.89,8.19,8.83,8.85,9.62s.99,1.01,1.74,1.01h21.38v11.73h34.66v-11.73h51.65c.74,0,1.07-.22,1.74-1.01.66-.79,4.16-5.73,8.85-9.62,1.26-1.04,3.08-1.58,4.92-1.58h10.27c1.84,0,3.67.54,4.92,1.58,4.68,3.89,8.19,8.83,8.85,9.62.66.79,1.53,1.01,2.27,1.01h1v10.37h34.66v1.05l1.8-.28Z"/>
    <path class="cls-1" d="M307.14,90.16c.03-2.61.06-5.09.07-7.63,0,0,2.71.08,3.9.5,1.2.41.88.48,1.63.6.74.12,1.13.19,1.39.23.26.04.41-.26.67-.12.26.14.62.22,1.05,1.23,0,0,.03-3.21-.21-4.78-.65-4.21-8.41-5.14-8.41-5.14v-1.73c-.04-21.43-.63-37.92-.63-37.92,0-1.1-1.18-2.72-4.08-3.48-2.46-.65-7.5-1.27-8.79-1.41-1.29-.15-4.82-.44-6.99-.44H27.09c-1.51,0-2.09,1.47-2.09,2.97v38.74s4.62,5.71,5.03,6.21c.41.5,1.23,1.05,2.35,1.05h11.35v11.37l2.99.36h31.67v-11.73h.11c.74,0,1.48-.22,2.14-1.01.66-.79,4.16-5.73,8.85-9.62,1.26-1.04,3.08-1.58,4.92-1.58h10.27c1.84,0,3.67.54,4.92,1.58,4.69,3.89,8.19,8.83,8.85,9.62s.99,1.01,1.74,1.01h21.38v11.73h34.66v-11.73h51.65c.74,0,1.07-.22,1.74-1.01.66-.79,4.16-5.73,8.85-9.62,1.26-1.04,3.08-1.58,4.92-1.58h10.27c1.84,0,3.67.54,4.92,1.58,4.68,3.89,8.19,8.83,8.85,9.62.66.79,1.53,1.01,2.27,1.01h1v10.37h34.66v1.05l1.8-.28Z"/>
    <polygon class="cls-13" points="39.26 35.86 26.5 35.86 26.5 61.2 40.45 61.2 40.45 36.98 39.26 35.86"/>
    <polygon class="cls-9" points="39.26 35.86 26.5 35.86 26.5 61.2 40.45 61.2 40.45 36.98 39.26 35.86"/>
    <polygon class="cls-13" points="137.16 35.86 121.87 35.86 121.87 61.2 138.35 61.2 138.35 36.98 137.16 35.86"/>
    <polygon class="cls-9" points="137.16 35.86 121.87 35.86 121.87 61.2 138.35 61.2 138.35 36.98 137.16 35.86"/>
    <polygon class="cls-13" points="82.78 35.86 118.37 35.86 118.37 61.2 81.59 61.2 81.59 36.98 82.78 35.86"/>
    <polygon class="cls-9" points="82.78 35.86 118.37 35.86 118.37 61.2 81.59 61.2 81.59 36.98 82.78 35.86"/>
    <path class="cls-9" d="M291.17,26.36c6.16.56,12.55,1.99,14.2,2.4,2.06.51,3.64,1.28,3.76,4.09.5,11.35,1.44,35.1,1.49,36.37.05,1.27.98,2.02,1.58,2.51.87.7,2.54,1.65,3.17,3.68.19.62.87,1.08.87,1.08"/>
    <path class="cls-1" d="M291.43,26.38s3.01-.27,7.12-.25c0,0,.4-.66,1.36-.66h5.43s5.62-.11,6.21,1.73c0,0,3.67,14.83,3.67,47.15l-.21.19s.74.35.85.62c.11.27.5.77.5,3.2,0,.14-.41.36-.41.36,0,0,.39.14.41.32.33,3.15.25,4.69.17,5.38-.08.69-.36.69-.36.69,0,0,.41.14.36.55-.05.41-.16,1.54-.16,2.07s-.33,1.32-1.21,1.46c-.88.14-7.88.96-7.88.96,0,0-9.14,1.5-12.06,1.5h-34.19s.62-1.54.62-5.03c0-6.11-4.08-13.64-13.12-13.64s-13.12,7.52-13.12,13.64c0,3.5.62,5.03.62,5.03h-123.99s.62-1.54.62-5.03c0-6.11-4.08-13.64-13.12-13.64s-13.12,7.52-13.12,13.64c0,3.5.62,5.03.62,5.03h-29.8c-2.81,0-4.58-.16-5.37-.26-1.71-.21-31.15-3.76-32.29-3.9-1.14-.14-2.09-3.59-2.37-4.39-.28-.8-.54-1.25-.54-1.91v-3.91c0-.44.09-1.17.26-1.7.39-1.27.81-2.41,1.67-4.31.49-1.07.59-1.78.59-2.63v-6.97c0-.36-.12-.63-.45-.94-.33-.3-1.02-.92-1.21-1.1-.19-.18-.36-.29-.39-1.13-.04-.84.48-19.61.81-26.14.14-2.76,2.58-6.18,9.37-6.18h259.35c1.44,0,2.98.06,4.53.2l.27.02Z"/>
    <path class="cls-1" d="M19.55,87.48c-1.14-.14-2.09-3.59-2.37-4.39-.28-.8-.54-1.25-.54-1.91v-3.91c0-.44.09-1.17.25-1.7.39-1.27.81-2.41,1.67-4.31.49-1.07.59-1.78.59-2.63v-6.97c0-.36-.12-.63-.45-.93-.33-.3-1.02-.92-1.21-1.1-.19-.18-.36-.29-.39-1.13-.04-.84.48-19.61.81-26.14.1-1.89,1.27-4.09,4.18-5.29"/>
    <path class="cls-1" d="M307.4,90.13c-.09.01-.14.02-.14.02,0,0-9.14,1.5-12.06,1.5h-34.19s.16-.41.32-1.28"/>
    <path class="cls-1" d="M316.16,85.1s.41.14.36.55c-.06.41-.16,1.54-.16,2.07s-.33,1.32-1.21,1.46c-.88.14-7.88.97-7.88.97"/>
    <path class="cls-1" d="M315.01,74.54s.74.35.85.62c.11.28.5.77.5,3.19,0,.14-.41.36-.41.36,0,0,.39.14.41.32.33,3.15.25,4.69.17,5.38-.08.69-.36.69-.36.69"/>
    <path class="cls-1" d="M291.43,26.38s3.01-.27,7.12-.25c0,0,.4-.66,1.36-.66h5.43s5.62-.11,6.21,1.73c0,0,3.67,14.83,3.67,47.15l-.21.19h0c-.77-1.44-2.07-2.21-2.81-2.81-.6-.48-1.53-1.24-1.58-2.51-.06-1.27-.99-25.02-1.49-36.37-.12-2.82-1.71-3.58-3.76-4.1-1.64-.41-8.03-1.84-14.2-2.4"/>
    <path class="cls-18" d="M291.43,26.38s3.01-.27,7.12-.25c0,0,.4-.66,1.36-.66h5.43s5.62-.11,6.21,1.73c0,0,3.67,14.83,3.67,47.15l-.21.19h0c-.77-1.44-2.07-2.21-2.81-2.81-.6-.48-1.53-1.24-1.58-2.51-.06-1.27-.99-25.02-1.49-36.37-.12-2.82-1.71-3.58-3.76-4.1-1.64-.41-8.03-1.84-14.2-2.4"/>
    <path class="cls-1" d="M291.43,26.38s3.01-.27,7.12-.25c0,0,.4-.66,1.36-.66h5.43s5.62-.11,6.21,1.73c0,0,3.67,14.83,3.67,47.15l-.21.19h0c-.77-1.44-2.07-2.21-2.81-2.81-.6-.48-1.53-1.24-1.58-2.51-.06-1.27-.99-25.02-1.49-36.37-.12-2.82-1.71-3.58-3.76-4.1-1.64-.41-8.03-1.84-14.2-2.4"/>
  </g>
  <g class="cls-31">
    <rect class="cls-14" x="310.78" y="29.32" width="2.43" height="8.12"/>
  </g>
  <g class="cls-26">
    <path class="cls-1" d="M313.21,37.44c-.47-3.74-.93-6.44-1.24-8.12h-1.18c.32,1.68.64,4.37,1.11,8.12h1.32Z"/>
    <path class="cls-1" d="M309.42,39.77c-.11-2.56-.21-4.93-.3-6.92-.12-2.82-1.71-3.58-3.76-4.1-1.64-.41-8.03-1.84-14.2-2.4"/>
  </g>
  <g class="cls-36">
    <rect class="cls-17" x="309.39" y="38.94" width="5.74" height="26.83"/>
  </g>
  <g class="cls-32">
    <path class="cls-21" d="M310.46,65.32c-.23-5.78-.68-16.79-1.04-25.55-.03-.82.26-.83.68-.83h3.32c.74,6.29,1.46,15.17,1.71,26.82h-4.15c-.39,0-.53-.25-.52-.45"/>
    <path class="cls-1" d="M310.46,65.32c-.23-5.78-.68-16.79-1.04-25.55-.03-.82.26-.83.68-.83h3.32c.74,6.29,1.46,15.17,1.71,26.82h-4.15c-.39,0-.53-.25-.52-.45"/>
    <path class="cls-13" d="M261.06,86.2c0-6.93-5.62-12.54-12.54-12.54s-12.54,5.62-12.54,12.54,5.62,12.54,12.54,12.54,12.54-5.62,12.54-12.54"/>
    <path class="cls-12" d="M261.06,86.2c0-6.93-5.62-12.54-12.54-12.54s-12.54,5.62-12.54,12.54,5.62,12.54,12.54,12.54,12.54-5.62,12.54-12.54Z"/>
    <line class="cls-2" x1="260.36" y1="86.2" x2="261.06" y2="86.2"/>
    <line class="cls-2" x1="259.99" y1="85.3" x2="261.01" y2="85.22"/>
    <line class="cls-4" x1="260.21" y1="84.35" x2="260.9" y2="84.24"/>
    <line class="cls-4" x1="259.78" y1="82.54" x2="260.44" y2="82.32"/>
    <line class="cls-4" x1="259.07" y1="80.82" x2="259.69" y2="80.51"/>
    <line class="cls-4" x1="258.1" y1="79.23" x2="258.66" y2="78.83"/>
    <line class="cls-4" x1="256.89" y1="77.82" x2="257.38" y2="77.33"/>
    <line class="cls-4" x1="255.48" y1="76.61" x2="255.88" y2="76.05"/>
    <line class="cls-4" x1="253.89" y1="75.64" x2="254.21" y2="75.02"/>
    <line class="cls-4" x1="252.17" y1="74.93" x2="252.39" y2="74.27"/>
    <line class="cls-4" x1="250.37" y1="74.5" x2="250.48" y2="73.81"/>
    <line class="cls-4" x1="248.51" y1="74.35" x2="248.51" y2="73.66"/>
    <line class="cls-4" x1="246.66" y1="74.5" x2="246.55" y2="73.81"/>
    <line class="cls-4" x1="244.85" y1="74.93" x2="244.64" y2="74.27"/>
    <line class="cls-4" x1="243.13" y1="75.64" x2="242.82" y2="75.02"/>
    <line class="cls-4" x1="241.55" y1="76.61" x2="241.14" y2="76.05"/>
    <line class="cls-4" x1="240.13" y1="77.82" x2="239.64" y2="77.33"/>
    <line class="cls-4" x1="238.93" y1="79.23" x2="238.36" y2="78.83"/>
    <line class="cls-4" x1="237.96" y1="80.82" x2="237.34" y2="80.51"/>
    <line class="cls-4" x1="237.24" y1="82.54" x2="236.58" y2="82.32"/>
    <line class="cls-4" x1="236.81" y1="84.35" x2="236.12" y2="84.24"/>
    <line class="cls-4" x1="236.66" y1="86.2" x2="235.97" y2="86.2"/>
    <line class="cls-4" x1="236.81" y1="88.05" x2="236.12" y2="88.16"/>
    <line class="cls-4" x1="237.24" y1="89.86" x2="236.58" y2="90.07"/>
    <line class="cls-4" x1="237.96" y1="91.58" x2="237.34" y2="91.89"/>
    <line class="cls-4" x1="238.93" y1="93.16" x2="238.36" y2="93.57"/>
    <line class="cls-4" x1="240.13" y1="94.58" x2="239.64" y2="95.07"/>
    <line class="cls-4" x1="241.55" y1="95.79" x2="241.14" y2="96.35"/>
    <line class="cls-4" x1="243.13" y1="96.76" x2="242.82" y2="97.38"/>
    <line class="cls-4" x1="244.85" y1="97.47" x2="244.64" y2="98.13"/>
    <line class="cls-4" x1="246.66" y1="97.9" x2="246.55" y2="98.59"/>
    <line class="cls-4" x1="248.51" y1="98.05" x2="248.51" y2="98.74"/>
    <line class="cls-4" x1="250.37" y1="97.9" x2="250.47" y2="98.59"/>
    <line class="cls-4" x1="252.17" y1="97.47" x2="252.39" y2="98.13"/>
    <line class="cls-4" x1="253.89" y1="96.76" x2="254.21" y2="97.38"/>
    <line class="cls-4" x1="255.48" y1="95.79" x2="255.88" y2="96.35"/>
    <line class="cls-4" x1="256.89" y1="94.58" x2="257.38" y2="95.07"/>
    <line class="cls-4" x1="258.1" y1="93.16" x2="258.66" y2="93.57"/>
    <line class="cls-4" x1="259.07" y1="91.58" x2="259.69" y2="91.89"/>
    <line class="cls-4" x1="259.78" y1="89.86" x2="260.44" y2="90.07"/>
    <line class="cls-4" x1="260.21" y1="88.05" x2="260.9" y2="88.16"/>
    <line class="cls-4" x1="259.71" y1="83.51" x2="260.71" y2="83.27"/>
    <line class="cls-4" x1="259.15" y1="81.79" x2="260.1" y2="81.4"/>
    <line class="cls-4" x1="258.33" y1="80.18" x2="259.21" y2="79.65"/>
    <line class="cls-4" x1="257.27" y1="78.72" x2="258.05" y2="78.05"/>
    <line class="cls-4" x1="255.99" y1="77.44" x2="256.66" y2="76.66"/>
    <line class="cls-4" x1="254.53" y1="76.38" x2="255.07" y2="75.51"/>
    <line class="cls-4" x1="252.92" y1="75.56" x2="253.31" y2="74.61"/>
    <line class="cls-4" x1="251.2" y1="75" x2="251.44" y2="74"/>
    <line class="cls-4" x1="249.42" y1="74.72" x2="249.5" y2="73.7"/>
    <line class="cls-4" x1="247.61" y1="74.72" x2="247.53" y2="73.7"/>
    <line class="cls-4" x1="245.82" y1="75" x2="245.59" y2="74"/>
    <line class="cls-4" x1="244.11" y1="75.56" x2="243.71" y2="74.61"/>
    <line class="cls-4" x1="242.5" y1="76.38" x2="241.96" y2="75.51"/>
    <line class="cls-4" x1="241.04" y1="77.44" x2="240.37" y2="76.66"/>
    <line class="cls-4" x1="239.76" y1="78.72" x2="238.98" y2="78.05"/>
    <line class="cls-4" x1="238.69" y1="80.18" x2="237.82" y2="79.65"/>
    <line class="cls-4" x1="237.88" y1="81.79" x2="236.93" y2="81.4"/>
    <line class="cls-4" x1="237.32" y1="83.51" x2="236.32" y2="83.27"/>
    <line class="cls-4" x1="237.03" y1="85.3" x2="236.01" y2="85.22"/>
    <line class="cls-4" x1="237.03" y1="87.1" x2="236.01" y2="87.18"/>
    <line class="cls-4" x1="237.32" y1="88.89" x2="236.32" y2="89.13"/>
    <line class="cls-4" x1="237.88" y1="90.6" x2="236.93" y2="91"/>
    <line class="cls-4" x1="238.69" y1="92.21" x2="237.82" y2="92.75"/>
    <line class="cls-4" x1="239.76" y1="93.68" x2="238.98" y2="94.34"/>
    <line class="cls-4" x1="241.04" y1="94.95" x2="240.37" y2="95.73"/>
    <line class="cls-4" x1="242.5" y1="96.01" x2="241.96" y2="96.89"/>
    <line class="cls-4" x1="244.11" y1="96.84" x2="243.71" y2="97.79"/>
    <line class="cls-4" x1="245.82" y1="97.39" x2="245.59" y2="98.39"/>
    <line class="cls-4" x1="247.61" y1="97.68" x2="247.53" y2="98.7"/>
    <line class="cls-4" x1="249.42" y1="97.68" x2="249.5" y2="98.7"/>
    <line class="cls-4" x1="251.2" y1="97.39" x2="251.44" y2="98.39"/>
    <line class="cls-4" x1="252.92" y1="96.84" x2="253.31" y2="97.79"/>
    <line class="cls-4" x1="254.53" y1="96.01" x2="255.07" y2="96.89"/>
    <line class="cls-4" x1="255.99" y1="94.95" x2="256.66" y2="95.73"/>
    <line class="cls-4" x1="257.27" y1="93.68" x2="258.05" y2="94.34"/>
    <line class="cls-4" x1="258.33" y1="92.22" x2="259.21" y2="92.75"/>
    <line class="cls-4" x1="259.15" y1="90.6" x2="260.1" y2="91"/>
    <line class="cls-4" x1="259.71" y1="88.89" x2="260.71" y2="89.13"/>
    <line class="cls-4" x1="259.99" y1="87.1" x2="261.01" y2="87.18"/>
    <path class="cls-22" d="M240.06,86.36c-.19,0-.65-.25-.78-.74-.41,5.5,4.11,9.88,9.26,9.88,2.02,0,3.92-.68,5.45-1.77-1.61,1.2-3.5,1.79-5.58,1.79-5.31,0-9.51-4.01-9.51-9.32s4.3-9.61,9.61-9.61c.56,0,1.13.03,1.64.14,1.51.21,4.01,1.56,4.96,3.03.93,1.36-.65,2.5-.65,2.5-1.14-1.76-3.39-3.32-6.05-3.32-4.25,0-7.26,3.05-7.26,7.29.02-.95-.67-.07-1.08.12"/>
    <path class="cls-8" d="M240.06,86.36c-.19,0-.65-.25-.78-.74-.41,5.5,4.11,9.88,9.26,9.88,2.02,0,3.92-.68,5.45-1.77-1.61,1.2-3.5,1.79-5.58,1.79-5.31,0-9.51-4.01-9.51-9.32s4.3-9.61,9.61-9.61c.56,0,1.13.03,1.64.14,1.51.21,4.01,1.56,4.96,3.03.93,1.36-.65,2.5-.65,2.5-1.14-1.76-3.39-3.32-6.05-3.32-4.25,0-7.26,3.05-7.26,7.29.02-.95-.67-.07-1.08.12Z"/>
    <path class="cls-22" d="M243.18,77.92c1.52-.98,3.34-1.56,5.28-1.56,5.38,0,9.74,4.36,9.74,9.74,0,1.89-.54,3.65-1.46,5.14.93-1.49,1.73-3.47,1.73-5.36,0-5.38-4.36-9.74-9.74-9.74-1.94,0-4.03.79-5.55,1.78"/>
    <path class="cls-8" d="M243.18,77.92c1.52-.98,3.34-1.56,5.28-1.56,5.38,0,9.74,4.36,9.74,9.74,0,1.89-.54,3.65-1.46,5.14.93-1.49,1.73-3.47,1.73-5.36,0-5.38-4.36-9.74-9.74-9.74-1.94,0-4.03.79-5.55,1.78Z"/>
    <path class="cls-22" d="M256.32,91.86c-1.77,2.42-4.63,3.98-7.86,3.98-5.38,0-9.74-4.36-9.74-9.74,0-1.99.6-3.85,1.62-5.39-1.03,1.54-1.77,3.65-1.77,5.64,0,5.38,4.36,9.74,9.74,9.74,3.23,0,6.23-1.82,8-4.24"/>
    <path class="cls-8" d="M256.32,91.86c-1.77,2.42-4.63,3.98-7.86,3.98-5.38,0-9.74-4.36-9.74-9.74,0-1.99.6-3.85,1.62-5.39-1.03,1.54-1.77,3.65-1.77,5.64,0,5.38,4.36,9.74,9.74,9.74,3.23,0,6.23-1.82,8-4.24Z"/>
    <path class="cls-22" d="M255.88,80.19c1.29,1.62,2.07,3.68,2.07,5.92,0,1.24-.23,2.42-.67,3.5.43-1.08.62-3.79.37-4.86-.13-.88-.57-2.8-1.77-4.56"/>
    <path class="cls-8" d="M255.88,80.19c1.29,1.62,2.07,3.68,2.07,5.92,0,1.24-.23,2.42-.67,3.5.43-1.08.62-3.79.37-4.86-.13-.88-.57-2.8-1.77-4.56Z"/>
    <path class="cls-22" d="M247.08,75.75c.46-.1.91-.15,1.38-.15,5.81,0,10.51,4.71,10.51,10.51s-4.7,10.51-10.51,10.51-10.51-4.71-10.51-10.51c0-1.76.43-3.42,1.2-4.88-1.67,2.52-1.6,4.18-1.6,5.94,0,.46-.49-1.66-.49-1.21,0,7.25,5.83,11.66,11,11.72-2.8.35-4.96-.54-4.26-.22,10.18,4.63,18-5.86,16.42-10.15-.34-.93.03,1.42-.85,1.98,0,0,.17-.93.21-1.42.19-1.16.03-2.53-.29-3.81-.23-.93-.06,1.48-.12.85-.54-6.08-6.45-9.66-10.73-9.31-.44,0-.91.06-1.38.15"/>
    <path class="cls-8" d="M247.08,75.75c.46-.1.91-.15,1.38-.15,5.81,0,10.51,4.71,10.51,10.51s-4.7,10.51-10.51,10.51-10.51-4.71-10.51-10.51c0-1.76.43-3.42,1.2-4.88-1.67,2.52-1.6,4.18-1.6,5.94,0,.46-.49-1.66-.49-1.21,0,7.25,5.83,11.66,11,11.72-2.8.35-4.96-.54-4.26-.22,10.18,4.63,18-5.86,16.42-10.15-.34-.93.03,1.42-.85,1.98,0,0,.17-.93.21-1.42.19-1.16.03-2.53-.29-3.81-.23-.93-.06,1.48-.12.85-.54-6.08-6.45-9.66-10.73-9.31-.44,0-.91.06-1.38.15Z"/>
    <path class="cls-11" d="M254.59,86.11c0-3.36-2.74-6.08-6.13-6.08s-6.13,2.72-6.13,6.08,2.74,6.08,6.13,6.08,6.13-2.72,6.13-6.08Z"/>
    <path class="cls-13" d="M241.22,86.13c0-3.97,3.22-7.18,7.18-7.18s7.18,3.22,7.18,7.18-3.21,7.19-7.18,7.19-7.18-3.22-7.18-7.19"/>
    <path class="cls-6" d="M241.22,86.13c0-3.97,3.22-7.18,7.18-7.18s7.18,3.22,7.18,7.18-3.21,7.19-7.18,7.19-7.18-3.22-7.18-7.19Z"/>
    <path class="cls-22" d="M253.98,86.11c0-3.05-2.47-5.52-5.52-5.52s-5.52,2.47-5.52,5.52,2.47,5.52,5.52,5.52,5.52-2.47,5.52-5.52"/>
    <path class="cls-6" d="M253.98,86.11c0-3.05-2.47-5.52-5.52-5.52s-5.52,2.47-5.52,5.52,2.47,5.52,5.52,5.52,5.52-2.47,5.52-5.52Z"/>
    <path class="cls-21" d="M245.8,81.53c.76-.43,1.18-.8,1.18-1.06v-.43c.47-.11.97-.17,1.47-.17s1,.06,1.47.17v.43c0,.25.42.62,1.18,1.06.75.44,1.29.63,1.51.5.22-.13.37-.21.37-.21.33.35.63.75.89,1.18.25.44.45.89.58,1.36,0,0-.15.09-.37.21-.22.13-.33.68-.32,1.55,0,.87.1,1.43.32,1.55.22.13.37.22.37.22-.14.46-.33.92-.58,1.36-.25.44-.55.83-.89,1.18,0,0-.15-.09-.37-.21-.22-.13-.75.06-1.51.5-.76.43-1.19.8-1.19,1.06v.43c-.47.11-.96.17-1.47.17s-1-.06-1.47-.17v-.43c0-.25-.43-.62-1.18-1.06-.75-.44-1.29-.63-1.51-.5-.22.13-.37.21-.37.21-.34-.35-.63-.75-.89-1.19-.25-.44-.45-.89-.59-1.36,0,0,.15-.09.37-.21.22-.13.33-.68.32-1.56,0-.87-.1-1.43-.32-1.55-.22-.13-.37-.21-.37-.21.14-.46.33-.92.58-1.36.25-.44.55-.83.89-1.18,0,0,.15.09.37.21.22.13.75-.06,1.51-.5"/>
    <path class="cls-3" d="M245.8,81.53c.76-.43,1.18-.8,1.18-1.06v-.43c.47-.11.97-.17,1.47-.17s1,.06,1.47.17v.43c0,.25.42.62,1.18,1.06.75.44,1.29.63,1.51.5.22-.13.37-.21.37-.21.33.35.63.75.89,1.18.25.44.45.89.58,1.36,0,0-.15.09-.37.21-.22.13-.33.68-.32,1.55,0,.87.1,1.43.32,1.55.22.13.37.22.37.22-.14.46-.33.92-.58,1.36-.25.44-.55.83-.89,1.18,0,0-.15-.09-.37-.21-.22-.13-.75.06-1.51.5-.76.43-1.19.8-1.19,1.06v.43c-.47.11-.96.17-1.47.17s-1-.06-1.47-.17v-.43c0-.25-.43-.62-1.18-1.06-.75-.44-1.29-.63-1.51-.5-.22.13-.37.21-.37.21-.34-.35-.63-.75-.89-1.19-.25-.44-.45-.89-.59-1.36,0,0,.15-.09.37-.21.22-.13.33-.68.32-1.56,0-.87-.1-1.43-.32-1.55-.22-.13-.37-.21-.37-.21.14-.46.33-.92.58-1.36.25-.44.55-.83.89-1.18,0,0,.15.09.37.21.22.13.75-.06,1.51-.5Z"/>
    <path class="cls-3" d="M251.35,86.13c0-1.6-1.3-2.89-2.89-2.89s-2.89,1.29-2.89,2.89,1.29,2.89,2.89,2.89,2.89-1.29,2.89-2.89Z"/>
    <polygon class="cls-22" points="247.25 86.02 247.48 85.79 247.82 85.79 247.82 86.49 247.46 86.49 247.46 86.21 247.25 86.42 247.03 86.21 247.03 86.49 246.67 86.49 246.67 85.79 247.01 85.79 247.25 86.02"/>
    <polygon class="cls-7" points="247.25 86.02 247.48 85.79 247.82 85.79 247.82 86.49 247.46 86.49 247.46 86.21 247.25 86.42 247.03 86.21 247.03 86.49 246.67 86.49 246.67 85.79 247.01 85.79 247.25 86.02"/>
    <polygon class="cls-22" points="248.53 85.79 248.72 85.79 249.18 86.49 248.81 86.49 248.76 86.41 248.31 86.41 248.26 86.49 247.89 86.49 248.34 85.79 248.53 85.79"/>
    <polygon class="cls-7" points="248.53 85.79 248.72 85.79 249.18 86.49 248.81 86.49 248.76 86.41 248.31 86.41 248.26 86.49 247.89 86.49 248.34 85.79 248.53 85.79"/>
    <polygon class="cls-13" points="248.53 86.24 248.65 86.24 248.53 86.06 248.42 86.24 248.53 86.24"/>
    <polygon class="cls-7" points="248.53 86.24 248.65 86.24 248.53 86.06 248.42 86.24 248.53 86.24"/>
    <polygon class="cls-22" points="250.03 85.79 250.39 85.79 250.39 86.49 250.03 86.49 249.6 86.17 249.6 86.49 249.24 86.49 249.24 85.79 249.6 85.79 250.03 86.11 250.03 85.79"/>
    <polygon class="cls-7" points="250.03 85.79 250.39 85.79 250.39 86.49 250.03 86.49 249.6 86.17 249.6 86.49 249.24 86.49 249.24 85.79 249.6 85.79 250.03 86.11 250.03 85.79"/>
    <path class="cls-13" d="M112.06,86.2c0-6.93-5.62-12.54-12.54-12.54s-12.54,5.62-12.54,12.54,5.62,12.54,12.54,12.54,12.54-5.62,12.54-12.54"/>
    <path class="cls-12" d="M112.06,86.2c0-6.93-5.62-12.54-12.54-12.54s-12.54,5.62-12.54,12.54,5.62,12.54,12.54,12.54,12.54-5.62,12.54-12.54Z"/>
    <line class="cls-2" x1="111.36" y1="86.2" x2="112.06" y2="86.2"/>
    <line class="cls-2" x1="110.99" y1="85.3" x2="112.02" y2="85.22"/>
    <line class="cls-4" x1="111.22" y1="84.35" x2="111.91" y2="84.24"/>
    <line class="cls-4" x1="110.79" y1="82.54" x2="111.45" y2="82.32"/>
    <line class="cls-4" x1="110.07" y1="80.82" x2="110.69" y2="80.51"/>
    <line class="cls-4" x1="109.1" y1="79.23" x2="109.66" y2="78.83"/>
    <line class="cls-4" x1="107.9" y1="77.82" x2="108.39" y2="77.33"/>
    <line class="cls-4" x1="106.48" y1="76.61" x2="106.89" y2="76.05"/>
    <line class="cls-4" x1="104.9" y1="75.64" x2="105.21" y2="75.02"/>
    <line class="cls-4" x1="103.18" y1="74.93" x2="103.39" y2="74.27"/>
    <line class="cls-4" x1="101.37" y1="74.5" x2="101.48" y2="73.81"/>
    <line class="cls-4" x1="99.52" y1="74.35" x2="99.52" y2="73.66"/>
    <line class="cls-4" x1="97.66" y1="74.5" x2="97.56" y2="73.81"/>
    <line class="cls-4" x1="95.86" y1="74.93" x2="95.64" y2="74.27"/>
    <line class="cls-4" x1="94.14" y1="75.64" x2="93.82" y2="75.02"/>
    <line class="cls-4" x1="92.55" y1="76.61" x2="92.14" y2="76.05"/>
    <line class="cls-4" x1="91.14" y1="77.82" x2="90.65" y2="77.33"/>
    <line class="cls-4" x1="89.93" y1="79.23" x2="89.37" y2="78.83"/>
    <line class="cls-4" x1="88.96" y1="80.82" x2="88.34" y2="80.51"/>
    <line class="cls-4" x1="88.25" y1="82.54" x2="87.59" y2="82.32"/>
    <line class="cls-4" x1="87.81" y1="84.35" x2="87.13" y2="84.24"/>
    <line class="cls-4" x1="87.67" y1="86.2" x2="86.97" y2="86.2"/>
    <line class="cls-4" x1="87.81" y1="88.05" x2="87.13" y2="88.16"/>
    <line class="cls-4" x1="88.25" y1="89.86" x2="87.59" y2="90.07"/>
    <line class="cls-4" x1="88.96" y1="91.58" x2="88.34" y2="91.89"/>
    <line class="cls-4" x1="89.93" y1="93.16" x2="89.37" y2="93.57"/>
    <line class="cls-4" x1="91.14" y1="94.58" x2="90.65" y2="95.07"/>
    <line class="cls-4" x1="92.55" y1="95.79" x2="92.14" y2="96.35"/>
    <line class="cls-4" x1="94.14" y1="96.76" x2="93.82" y2="97.38"/>
    <line class="cls-4" x1="95.86" y1="97.47" x2="95.64" y2="98.13"/>
    <line class="cls-4" x1="97.66" y1="97.9" x2="97.56" y2="98.59"/>
    <line class="cls-4" x1="99.52" y1="98.05" x2="99.52" y2="98.74"/>
    <line class="cls-4" x1="101.37" y1="97.9" x2="101.48" y2="98.59"/>
    <line class="cls-4" x1="103.18" y1="97.47" x2="103.39" y2="98.13"/>
    <line class="cls-4" x1="104.89" y1="96.76" x2="105.21" y2="97.38"/>
    <line class="cls-4" x1="106.48" y1="95.79" x2="106.89" y2="96.35"/>
    <line class="cls-4" x1="107.89" y1="94.58" x2="108.38" y2="95.07"/>
    <line class="cls-4" x1="109.1" y1="93.16" x2="109.66" y2="93.57"/>
    <line class="cls-4" x1="110.07" y1="91.58" x2="110.69" y2="91.89"/>
    <line class="cls-4" x1="110.78" y1="89.86" x2="111.44" y2="90.07"/>
    <line class="cls-4" x1="111.22" y1="88.05" x2="111.9" y2="88.16"/>
    <line class="cls-4" x1="110.71" y1="83.51" x2="111.71" y2="83.27"/>
    <line class="cls-4" x1="110.15" y1="81.79" x2="111.1" y2="81.4"/>
    <line class="cls-4" x1="109.33" y1="80.18" x2="110.21" y2="79.65"/>
    <line class="cls-4" x1="108.27" y1="78.72" x2="109.05" y2="78.05"/>
    <line class="cls-4" x1="106.99" y1="77.44" x2="107.66" y2="76.66"/>
    <line class="cls-4" x1="105.53" y1="76.38" x2="106.07" y2="75.51"/>
    <line class="cls-4" x1="103.92" y1="75.56" x2="104.32" y2="74.61"/>
    <line class="cls-4" x1="102.2" y1="75" x2="102.45" y2="74"/>
    <line class="cls-4" x1="100.42" y1="74.72" x2="100.5" y2="73.7"/>
    <line class="cls-4" x1="98.61" y1="74.72" x2="98.53" y2="73.7"/>
    <line class="cls-4" x1="96.83" y1="75" x2="96.59" y2="74"/>
    <line class="cls-4" x1="95.11" y1="75.56" x2="94.72" y2="74.61"/>
    <line class="cls-4" x1="93.5" y1="76.38" x2="92.96" y2="75.51"/>
    <line class="cls-4" x1="92.04" y1="77.44" x2="91.37" y2="76.66"/>
    <line class="cls-4" x1="90.76" y1="78.72" x2="89.98" y2="78.05"/>
    <line class="cls-4" x1="89.7" y1="80.18" x2="88.82" y2="79.65"/>
    <line class="cls-4" x1="88.88" y1="81.79" x2="87.93" y2="81.4"/>
    <line class="cls-4" x1="88.32" y1="83.51" x2="87.32" y2="83.27"/>
    <line class="cls-4" x1="88.04" y1="85.3" x2="87.01" y2="85.22"/>
    <line class="cls-4" x1="88.04" y1="87.1" x2="87.01" y2="87.18"/>
    <line class="cls-4" x1="88.32" y1="88.89" x2="87.32" y2="89.13"/>
    <line class="cls-4" x1="88.88" y1="90.6" x2="87.93" y2="91"/>
    <line class="cls-4" x1="89.7" y1="92.21" x2="88.82" y2="92.75"/>
    <line class="cls-4" x1="90.76" y1="93.68" x2="89.98" y2="94.34"/>
    <line class="cls-4" x1="92.04" y1="94.95" x2="91.37" y2="95.73"/>
    <line class="cls-4" x1="93.5" y1="96.01" x2="92.96" y2="96.89"/>
    <line class="cls-4" x1="95.11" y1="96.84" x2="94.72" y2="97.79"/>
    <line class="cls-4" x1="96.83" y1="97.39" x2="96.59" y2="98.39"/>
    <line class="cls-4" x1="98.61" y1="97.68" x2="98.53" y2="98.7"/>
    <line class="cls-4" x1="100.42" y1="97.68" x2="100.5" y2="98.7"/>
    <line class="cls-4" x1="102.2" y1="97.39" x2="102.45" y2="98.39"/>
    <line class="cls-4" x1="103.92" y1="96.84" x2="104.32" y2="97.79"/>
    <line class="cls-4" x1="105.53" y1="96.01" x2="106.07" y2="96.89"/>
    <line class="cls-4" x1="106.99" y1="94.95" x2="107.66" y2="95.73"/>
    <line class="cls-4" x1="108.27" y1="93.68" x2="109.05" y2="94.34"/>
    <line class="cls-4" x1="109.33" y1="92.22" x2="110.21" y2="92.75"/>
    <line class="cls-4" x1="110.15" y1="90.6" x2="111.1" y2="91"/>
    <line class="cls-4" x1="110.71" y1="88.89" x2="111.71" y2="89.13"/>
    <line class="cls-4" x1="110.99" y1="87.1" x2="112.02" y2="87.18"/>
    <path class="cls-22" d="M91.06,86.36c-.19,0-.65-.25-.78-.74-.41,5.5,4.11,9.88,9.26,9.88,2.02,0,3.93-.68,5.45-1.77-1.61,1.2-3.5,1.79-5.58,1.79-5.31,0-9.51-4.01-9.51-9.32s4.3-9.61,9.61-9.61c.56,0,1.13.03,1.63.14,1.51.21,4.01,1.56,4.95,3.03.93,1.36-.65,2.5-.65,2.5-1.14-1.76-3.39-3.32-6.06-3.32-4.25,0-7.26,3.05-7.26,7.29.02-.95-.67-.07-1.08.12"/>
    <path class="cls-8" d="M91.06,86.36c-.19,0-.65-.25-.78-.74-.41,5.5,4.11,9.88,9.26,9.88,2.02,0,3.93-.68,5.45-1.77-1.61,1.2-3.5,1.79-5.58,1.79-5.31,0-9.51-4.01-9.51-9.32s4.3-9.61,9.61-9.61c.56,0,1.13.03,1.63.14,1.51.21,4.01,1.56,4.95,3.03.93,1.36-.65,2.5-.65,2.5-1.14-1.76-3.39-3.32-6.06-3.32-4.25,0-7.26,3.05-7.26,7.29.02-.95-.67-.07-1.08.12Z"/>
    <path class="cls-22" d="M94.19,77.92c1.52-.98,3.34-1.56,5.28-1.56,5.38,0,9.74,4.36,9.74,9.74,0,1.89-.54,3.65-1.46,5.14.93-1.49,1.73-3.47,1.73-5.36,0-5.38-4.36-9.74-9.74-9.74-1.94,0-4.03.79-5.55,1.78"/>
    <path class="cls-8" d="M94.19,77.92c1.52-.98,3.34-1.56,5.28-1.56,5.38,0,9.74,4.36,9.74,9.74,0,1.89-.54,3.65-1.46,5.14.93-1.49,1.73-3.47,1.73-5.36,0-5.38-4.36-9.74-9.74-9.74-1.94,0-4.03.79-5.55,1.78Z"/>
    <path class="cls-22" d="M107.33,91.86c-1.77,2.42-4.63,3.98-7.86,3.98-5.38,0-9.74-4.36-9.74-9.74,0-1.99.6-3.85,1.62-5.39-1.03,1.54-1.77,3.65-1.77,5.64,0,5.38,4.36,9.74,9.74,9.74,3.22,0,6.22-1.82,8-4.24"/>
    <path class="cls-8" d="M107.33,91.86c-1.77,2.42-4.63,3.98-7.86,3.98-5.38,0-9.74-4.36-9.74-9.74,0-1.99.6-3.85,1.62-5.39-1.03,1.54-1.77,3.65-1.77,5.64,0,5.38,4.36,9.74,9.74,9.74,3.22,0,6.22-1.82,8-4.24Z"/>
    <path class="cls-22" d="M106.88,80.19c1.29,1.62,2.07,3.68,2.07,5.92,0,1.24-.24,2.42-.67,3.5.43-1.08.62-3.79.37-4.86-.13-.88-.57-2.8-1.77-4.56"/>
    <path class="cls-8" d="M106.88,80.19c1.29,1.62,2.07,3.68,2.07,5.92,0,1.24-.24,2.42-.67,3.5.43-1.08.62-3.79.37-4.86-.13-.88-.57-2.8-1.77-4.56Z"/>
    <path class="cls-22" d="M98.09,75.75c.45-.1.91-.15,1.38-.15,5.81,0,10.51,4.71,10.51,10.51s-4.71,10.51-10.51,10.51-10.51-4.71-10.51-10.51c0-1.76.44-3.42,1.2-4.88-1.68,2.52-1.6,4.18-1.6,5.94,0,.46-.49-1.66-.49-1.21,0,7.25,5.83,11.66,11,11.72-2.81.35-4.96-.54-4.26-.22,10.18,4.63,18-5.86,16.42-10.15-.34-.93.03,1.42-.85,1.98,0,0,.17-.93.21-1.42.19-1.16.03-2.53-.29-3.81-.24-.93-.06,1.48-.12.85-.54-6.08-6.45-9.66-10.73-9.31-.44,0-.91.06-1.38.15"/>
    <path class="cls-8" d="M98.09,75.75c.45-.1.91-.15,1.38-.15,5.81,0,10.51,4.71,10.51,10.51s-4.71,10.51-10.51,10.51-10.51-4.71-10.51-10.51c0-1.76.44-3.42,1.2-4.88-1.68,2.52-1.6,4.18-1.6,5.94,0,.46-.49-1.66-.49-1.21,0,7.25,5.83,11.66,11,11.72-2.81.35-4.96-.54-4.26-.22,10.18,4.63,18-5.86,16.42-10.15-.34-.93.03,1.42-.85,1.98,0,0,.17-.93.21-1.42.19-1.16.03-2.53-.29-3.81-.24-.93-.06,1.48-.12.85-.54-6.08-6.45-9.66-10.73-9.31-.44,0-.91.06-1.38.15Z"/>
    <path class="cls-11" d="M105.6,86.11c0-3.36-2.74-6.08-6.13-6.08s-6.13,2.72-6.13,6.08,2.74,6.08,6.13,6.08,6.13-2.72,6.13-6.08Z"/>
    <path class="cls-13" d="M92.22,86.13c0-3.97,3.22-7.18,7.19-7.18s7.18,3.22,7.18,7.18-3.22,7.19-7.18,7.19-7.19-3.22-7.19-7.19"/>
    <path class="cls-6" d="M92.22,86.13c0-3.97,3.22-7.18,7.19-7.18s7.18,3.22,7.18,7.18-3.22,7.19-7.18,7.19-7.19-3.22-7.19-7.19Z"/>
    <path class="cls-22" d="M104.99,86.11c0-3.05-2.47-5.52-5.52-5.52s-5.52,2.47-5.52,5.52,2.47,5.52,5.52,5.52,5.52-2.47,5.52-5.52"/>
    <path class="cls-6" d="M104.99,86.11c0-3.05-2.47-5.52-5.52-5.52s-5.52,2.47-5.52,5.52,2.47,5.52,5.52,5.52,5.52-2.47,5.52-5.52Z"/>
    <path class="cls-21" d="M96.81,81.53c.76-.43,1.18-.8,1.18-1.06v-.43c.47-.11.97-.17,1.47-.17s1,.06,1.47.17v.43c0,.25.43.62,1.18,1.06.75.44,1.29.63,1.51.5.22-.13.37-.21.37-.21.33.35.63.75.89,1.18.25.44.45.89.58,1.36,0,0-.15.09-.37.21-.22.13-.33.68-.32,1.55,0,.87.1,1.43.32,1.55.22.13.37.22.37.22-.14.46-.33.92-.58,1.36-.25.44-.55.83-.88,1.18,0,0-.15-.09-.37-.21-.22-.13-.75.06-1.51.5-.76.43-1.19.8-1.19,1.06v.43c-.47.11-.96.17-1.47.17s-1-.06-1.47-.17v-.43c0-.25-.43-.62-1.18-1.06-.75-.44-1.29-.63-1.51-.5-.22.13-.37.21-.37.21-.33-.35-.63-.75-.89-1.19-.25-.44-.45-.89-.58-1.36,0,0,.15-.09.37-.21.22-.13.33-.68.32-1.56,0-.87-.1-1.43-.32-1.55-.22-.13-.37-.21-.37-.21.14-.46.33-.92.59-1.36.25-.44.55-.83.88-1.18,0,0,.15.09.37.21.22.13.75-.06,1.51-.5"/>
    <path class="cls-3" d="M96.81,81.53c.76-.43,1.18-.8,1.18-1.06v-.43c.47-.11.97-.17,1.47-.17s1,.06,1.47.17v.43c0,.25.43.62,1.18,1.06.75.44,1.29.63,1.51.5.22-.13.37-.21.37-.21.33.35.63.75.89,1.18.25.44.45.89.58,1.36,0,0-.15.09-.37.21-.22.13-.33.68-.32,1.55,0,.87.1,1.43.32,1.55.22.13.37.22.37.22-.14.46-.33.92-.58,1.36-.25.44-.55.83-.88,1.18,0,0-.15-.09-.37-.21-.22-.13-.75.06-1.51.5-.76.43-1.19.8-1.19,1.06v.43c-.47.11-.96.17-1.47.17s-1-.06-1.47-.17v-.43c0-.25-.43-.62-1.18-1.06-.75-.44-1.29-.63-1.51-.5-.22.13-.37.21-.37.21-.33-.35-.63-.75-.89-1.19-.25-.44-.45-.89-.58-1.36,0,0,.15-.09.37-.21.22-.13.33-.68.32-1.56,0-.87-.1-1.43-.32-1.55-.22-.13-.37-.21-.37-.21.14-.46.33-.92.59-1.36.25-.44.55-.83.88-1.18,0,0,.15.09.37.21.22.13.75-.06,1.51-.5Z"/>
    <path class="cls-3" d="M102.35,86.13c0-1.6-1.3-2.89-2.89-2.89s-2.89,1.29-2.89,2.89,1.29,2.89,2.89,2.89,2.89-1.29,2.89-2.89Z"/>
    <polygon class="cls-22" points="98.25 86.02 98.49 85.79 98.82 85.79 98.82 86.49 98.47 86.49 98.47 86.21 98.25 86.42 98.03 86.21 98.03 86.49 97.67 86.49 97.67 85.79 98.01 85.79 98.25 86.02"/>
    <polygon class="cls-7" points="98.25 86.02 98.49 85.79 98.82 85.79 98.82 86.49 98.47 86.49 98.47 86.21 98.25 86.42 98.03 86.21 98.03 86.49 97.67 86.49 97.67 85.79 98.01 85.79 98.25 86.02"/>
    <polygon class="cls-22" points="99.54 85.79 99.73 85.79 100.18 86.49 99.81 86.49 99.76 86.41 99.31 86.41 99.26 86.49 98.89 86.49 99.35 85.79 99.54 85.79"/>
    <polygon class="cls-7" points="99.54 85.79 99.73 85.79 100.18 86.49 99.81 86.49 99.76 86.41 99.31 86.41 99.26 86.49 98.89 86.49 99.35 85.79 99.54 85.79"/>
    <polygon class="cls-13" points="99.54 86.24 99.65 86.24 99.54 86.06 99.42 86.24 99.54 86.24"/>
    <polygon class="cls-7" points="99.54 86.24 99.65 86.24 99.54 86.06 99.42 86.24 99.54 86.24"/>
    <polygon class="cls-22" points="101.03 85.79 101.39 85.79 101.39 86.49 101.03 86.49 100.61 86.17 100.61 86.49 100.25 86.49 100.25 85.79 100.6 85.79 101.03 86.11 101.03 85.79"/>
    <polygon class="cls-7" points="101.03 85.79 101.39 85.79 101.39 86.49 101.03 86.49 100.61 86.17 100.61 86.49 100.25 86.49 100.25 85.79 100.6 85.79 101.03 86.11 101.03 85.79"/>
    <path class="cls-18" d="M16.94,75.37v-13.6c0-1.38.35-2.38.35-2.38h0c.06.09.13.15.21.22.19.18.88.8,1.21,1.1.33.3.45.58.45.94v6.97c0,.85-.11,1.56-.59,2.63-.86,1.9-1.28,3.04-1.67,4.31l.04-.19Z"/>
    <path class="cls-1" d="M16.94,75.37v-13.6c0-1.38.35-2.38.35-2.38h0c.06.09.13.15.21.22.19.18.88.8,1.21,1.1.33.3.45.58.45.94v6.97c0,.85-.11,1.56-.59,2.63-.86,1.9-1.28,3.04-1.67,4.31l.04-.19Z"/>
    <path class="cls-1" d="M19.32,87.41s-.5-.11-1.02-.22c-.52-.11-.82-.52-1-.77-.18-.25,0-.88,0-.88,0,0-.68-1.87-.79-2.37-.11-.5,0-.91,0-.91,0,0-.58-.36-.58-.99v-3.99c0-.69.39-1.1.39-1.1,0,0-.25-.11-.25-.49s-.14-19.06.87-43.46c.06-1.33-.24-1.76-.46-2.04-.22-.28-.04-.83.41-1.24.51-.46,2.06-1.52,5.09-1.87"/>
    <path class="cls-18" d="M21.98,27.08c-3.02.35-4.58,1.42-5.09,1.87-.46.41-.63.96-.41,1.24.22.28.51.71.46,2.04-1.01,24.4-.87,43.07-.87,43.46s.25.5.25.5h.38l.24-.81v-13.6c0-1.38.35-2.38.35-2.38h0c-.1-.15-.17-.39-.19-.91-.04-.84.48-19.61.81-26.14.1-1.89,1.27-4.11,4.2-5.32l-.13.06Z"/>
    <path class="cls-1" d="M21.98,27.08c-3.02.35-4.58,1.42-5.09,1.87-.46.41-.63.96-.41,1.24.22.28.51.71.46,2.04-1.01,24.4-.87,43.07-.87,43.46s.25.5.25.5h.38l.24-.81v-13.6c0-1.38.35-2.38.35-2.38h0c-.1-.15-.17-.39-.19-.91-.04-.84.48-19.61.81-26.14.1-1.89,1.27-4.11,4.2-5.32l-.13.06Z"/>
    <path class="cls-18" d="M16.51,82.26s-.11.41,0,.91c.11.5.79,2.37.79,2.37,0,0-.18.63,0,.88.18.25.48.66,1,.77.52.11,1.02.21,1.02.21h.02c-1.05-.48-1.9-3.57-2.16-4.32-.12-.35-.24-.63-.33-.89l-.34.06Z"/>
    <path class="cls-1" d="M16.51,82.26s-.11.41,0,.91c.11.5.79,2.37.79,2.37,0,0-.18.63,0,.88.18.25.48.66,1,.77.52.11,1.02.21,1.02.21h.02c-1.05-.48-1.9-3.57-2.16-4.32-.12-.35-.24-.63-.33-.89l-.34.06Z"/>
    <path class="cls-18" d="M18.35,86.2c-.27-.51-.5-1.12-.69-1.66"/>
    <path class="cls-1" d="M18.35,86.2c-.27-.51-.5-1.12-.69-1.66"/>
    <path class="cls-1" d="M25.46,31.02h261.01c7.78,0,11.76.74,17.12,1.75"/>
    <polyline class="cls-1" points="141.56 31.02 141.56 90.76 176.22 90.76 176.22 31.02"/>
    <line class="cls-1" x1="158.89" y1="31.02" x2="158.89" y2="90.76"/>
    <path class="cls-13" d="M186.69,66.23h29.29v-30.37h-35.37l-1.19,1.12v24.53s-.05.22.31.29c.36.07,3.55.5,4.49.75.97.26,1.58.69,2.18,3.42.05.24.28.26.28.26"/>
    <path class="cls-9" d="M186.69,66.23h29.29v-30.37h-35.37l-1.19,1.12v24.53s-.05.22.31.29c.36.07,3.55.5,4.49.75.97.26,1.58.69,2.18,3.42.05.24.28.26.28.26Z"/>
    <path class="cls-13" d="M267.47,61.51s.05.23-.31.29c-.36.07-3.55.5-4.49.75-.97.26-1.58.69-2.18,3.42-.05.24-.28.26-.28.26h-1.22c-1.22-.59-2.89-.99-5.34-.99h-10.27c-2.44,0-4.11.4-5.33.99h-18.57v-21.09h48v16.37ZM264.66,36.69h-31.58v5.34h31.58v-5.34ZM231.72,36.69h-11.59v5.34h11.59v-5.34Z"/>
    <rect class="cls-9" x="220.13" y="36.69" width="11.59" height="5.34"/>
    <rect class="cls-9" x="233.08" y="36.69" width="31.58" height="5.34"/>
    <path class="cls-9" d="M267.47,61.51s.05.23-.31.29c-.36.07-3.55.5-4.49.75-.97.26-1.58.69-2.18,3.42-.05.24-.28.26-.28.26h-1.22c-1.22-.59-2.89-.99-5.33-.99h-10.27c-2.44,0-4.11.4-5.33.99h-18.57v-21.09h48v16.37Z"/>
    <path class="cls-1" d="M176.61,63.51h5.71c1.71,0,2.53,1.32,2.53,2.48v1.87"/>
    <path class="cls-1" d="M183.71,65.93c0,.66-.54,1.2-1.2,1.2s-1.2-.54-1.2-1.2.54-1.2,1.2-1.2,1.2.54,1.2,1.2Z"/>
    <path class="cls-1" d="M78.28,63.51h5.71c1.71,0,2.53,1.32,2.53,2.48v1.87"/>
    <path class="cls-1" d="M84.5,65.93c0,.66-.54,1.2-1.2,1.2s-1.2-.54-1.2-1.2.54-1.2,1.2-1.2,1.2.54,1.2,1.2Z"/>
    <path class="cls-1" d="M270.68,63.51h-5.71c-1.71,0-2.53,1.32-2.53,2.48v1.87"/>
    <path class="cls-1" d="M263.58,65.93c0,.66.54,1.2,1.2,1.2s1.2-.54,1.2-1.2-.54-1.2-1.2-1.2-1.2.54-1.2,1.2Z"/>
  </g>
  <g class="cls-40">
    <rect class="cls-21" x="143.73" y="41.25" width="12.35" height="44.29"/>
  </g>
  <g class="cls-29">
    <path class="cls-1" d="M143.73,61.97c0,.28.09.57.55.57,1.78,0,3.77-.1,4.74.81.53.5.55,1.2.55,2.06v-.16c0,.86-.02,1.56-.55,2.05-.96.9-2.96.81-4.74.81-.46,0-.55.29-.55.57v16.39c0,.26.21.48.48.48h11.39c.26,0,.48-.21.48-.48v-43.33c0-.26-.21-.48-.48-.48h-11.39c-.26,0-.48.21-.48.48v20.24Z"/>
    <path class="cls-1" d="M148.35,66.19c0,.4-.33.73-.73.73s-.73-.33-.73-.73v-1.74c0-.4.33-.73.73-.73s.73.33.73.73v1.74Z"/>
    <path class="cls-1" d="M145.72,65.81c0,.61-.36,1.1-.8,1.1s-.8-.49-.8-1.1.36-1.1.8-1.1.8.49.8,1.1Z"/>
  </g>
  <line class="cls-1" x1="141.56" y1="37" x2="176.22" y2="37"/>
  <line class="cls-1" x1="141.56" y1="38.23" x2="176.22" y2="38.23"/>
  <line class="cls-1" x1="142.66" y1="38.23" x2="142.66" y2="89.4"/>
  <line class="cls-1" x1="156.93" y1="39.94" x2="156.93" y2="89.4"/>
  <line class="cls-1" x1="142.66" y1="39.94" x2="158.89" y2="39.94"/>
  <line class="cls-1" x1="141.67" y1="89.4" x2="158.89" y2="89.4"/>
  <line class="cls-1" x1="142.66" y1="87.47" x2="156.93" y2="87.47"/>
  <g class="cls-30">
    <rect class="cls-21" x="161.71" y="41.25" width="12.35" height="44.29"/>
  </g>
  <g class="cls-37">
    <path class="cls-1" d="M174.05,61.97c0,.28-.09.57-.55.57-1.78,0-3.77-.1-4.74.81-.53.5-.55,1.2-.55,2.06v-.16c0,.86.02,1.56.55,2.05.96.9,2.96.81,4.74.81.46,0,.55.29.55.57v16.39c0,.26-.21.48-.48.48h-11.39c-.26,0-.48-.21-.48-.48v-43.33c0-.26.21-.48.48-.48h11.39c.26,0,.48.21.48.48v20.24Z"/>
    <path class="cls-1" d="M169.43,66.19c0,.4.33.73.73.73s.73-.33.73-.73v-1.74c0-.4-.33-.73-.73-.73s-.73.33-.73.73v1.74Z"/>
    <path class="cls-1" d="M172.06,65.81c0,.61.36,1.1.8,1.1s.8-.49.8-1.1-.36-1.1-.8-1.1-.8.49-.8,1.1Z"/>
  </g>
  <line class="cls-1" x1="175.12" y1="38.23" x2="175.12" y2="89.4"/>
  <line class="cls-1" x1="160.85" y1="39.94" x2="160.85" y2="89.4"/>
  <line class="cls-1" x1="175.12" y1="39.94" x2="158.89" y2="39.94"/>
  <line class="cls-1" x1="176.11" y1="89.4" x2="158.89" y2="89.4"/>
  <line class="cls-1" x1="175.12" y1="87.47" x2="160.85" y2="87.47"/>
  <line class="cls-1" x1="288.01" y1="37" x2="288.01" y2="91.64"/>
  <g class="cls-34">
    <rect class="cls-21" x="272.85" y="41.25" width="12.35" height="44.29"/>
  </g>
  <g class="cls-41">
    <path class="cls-1" d="M272.85,61.97c0,.28.09.57.55.57,1.78,0,3.77-.1,4.74.81.53.5.55,1.2.55,2.06v-.16c0,.86-.02,1.56-.55,2.05-.96.9-2.96.81-4.74.81-.46,0-.55.29-.55.57v16.39c0,.26.21.48.48.48h11.39c.26,0,.48-.21.48-.48v-43.33c0-.26-.21-.48-.48-.48h-11.39c-.26,0-.48.21-.48.48v20.24Z"/>
    <path class="cls-1" d="M277.47,66.19c0,.4-.33.73-.73.73s-.73-.33-.73-.73v-1.74c0-.4.33-.73.73-.73s.73.33.73.73v1.74Z"/>
    <path class="cls-1" d="M274.84,65.81c0,.61-.36,1.1-.8,1.1s-.8-.49-.8-1.1.36-1.1.8-1.1.8.49.8,1.1Z"/>
  </g>
  <line class="cls-1" x1="270.68" y1="37" x2="305.34" y2="37"/>
  <line class="cls-1" x1="270.68" y1="38.23" x2="305.34" y2="38.23"/>
  <line class="cls-1" x1="271.78" y1="38.23" x2="271.78" y2="89.4"/>
  <line class="cls-1" x1="286.05" y1="39.94" x2="286.05" y2="89.4"/>
  <line class="cls-1" x1="271.78" y1="39.94" x2="288.01" y2="39.94"/>
  <line class="cls-1" x1="271.78" y1="87.47" x2="286.05" y2="87.47"/>
  <g class="cls-24">
    <rect class="cls-21" x="290.83" y="41.25" width="12.35" height="44.29"/>
  </g>
  <g class="cls-33">
    <path class="cls-1" d="M303.17,61.97c0,.28-.09.57-.55.57-1.78,0-3.77-.1-4.74.81-.53.5-.55,1.2-.55,2.06v-.16c0,.86.02,1.56.55,2.05.96.9,2.96.81,4.74.81.46,0,.55.29.55.57v16.39c0,.26-.21.48-.48.48h-11.39c-.26,0-.48-.21-.48-.48v-43.33c0-.26.21-.48.48-.48h11.39c.26,0,.48.21.48.48v20.24Z"/>
    <path class="cls-1" d="M298.55,66.19c0,.4.32.73.73.73s.73-.33.73-.73v-1.74c0-.4-.33-.73-.73-.73s-.73.33-.73.73v1.74Z"/>
    <path class="cls-1" d="M301.18,65.81c0,.61.36,1.1.8,1.1s.8-.49.8-1.1-.36-1.1-.8-1.1-.8.49-.8,1.1Z"/>
  </g>
  <line class="cls-1" x1="304.24" y1="38.23" x2="304.24" y2="89.4"/>
  <line class="cls-1" x1="289.97" y1="39.94" x2="289.97" y2="89.4"/>
  <line class="cls-1" x1="304.24" y1="39.94" x2="288.01" y2="39.94"/>
  <line class="cls-1" x1="304.24" y1="87.47" x2="289.97" y2="87.47"/>
  <polyline class="cls-1" points="78.39 31.02 78.39 90.76 47.07 90.76"/>
  <line class="cls-1" x1="270.68" y1="79.03" x2="270.68" y2="31.02"/>
  <line class="cls-1" x1="305.34" y1="89.45" x2="305.34" y2="33.31"/>
  <line class="cls-1" x1="61.06" y1="31.02" x2="61.06" y2="90.76"/>
  <g class="cls-27">
    <rect class="cls-21" x="45.9" y="41.25" width="12.35" height="44.29"/>
  </g>
  <g class="cls-38">
    <path class="cls-1" d="M45.9,61.97c0,.28.09.57.55.57,1.78,0,3.77-.1,4.74.81.53.5.55,1.2.55,2.06v-.16c0,.86-.02,1.56-.55,2.05-.97.9-2.96.81-4.74.81-.46,0-.55.29-.55.57v16.39c0,.26.21.48.48.48h11.39c.26,0,.48-.21.48-.48v-43.33c0-.26-.21-.48-.48-.48h-11.39c-.26,0-.48.21-.48.48v20.24Z"/>
    <path class="cls-1" d="M50.52,66.19c0,.4-.33.73-.73.73s-.73-.33-.73-.73v-1.74c0-.4.33-.73.73-.73s.73.33.73.73v1.74Z"/>
    <path class="cls-1" d="M47.89,65.81c0,.61-.36,1.1-.8,1.1s-.8-.49-.8-1.1.36-1.1.8-1.1.8.49.8,1.1Z"/>
  </g>
  <line class="cls-1" x1="43.73" y1="37" x2="78.39" y2="37"/>
  <line class="cls-1" x1="43.73" y1="38.23" x2="78.39" y2="38.23"/>
  <line class="cls-1" x1="44.83" y1="38.23" x2="44.83" y2="89.4"/>
  <line class="cls-1" x1="59.1" y1="39.94" x2="59.1" y2="89.4"/>
  <line class="cls-1" x1="44.83" y1="39.94" x2="61.06" y2="39.94"/>
  <line class="cls-1" x1="43.84" y1="89.4" x2="61.06" y2="89.4"/>
  <line class="cls-1" x1="44.83" y1="87.47" x2="59.1" y2="87.47"/>
  <g class="cls-28">
    <rect class="cls-21" x="63.88" y="41.25" width="12.35" height="44.29"/>
  </g>
  <g class="cls-25">
    <path class="cls-1" d="M76.22,61.97c0,.28-.09.57-.55.57-1.78,0-3.77-.1-4.74.81-.53.5-.55,1.2-.55,2.06v-.16c0,.86.02,1.56.55,2.05.96.9,2.96.81,4.74.81.46,0,.55.29.55.57v16.39c0,.26-.21.48-.48.48h-11.39c-.26,0-.48-.21-.48-.48v-43.33c0-.26.21-.48.48-.48h11.39c.26,0,.48.21.48.48v20.24Z"/>
    <path class="cls-1" d="M71.6,66.19c0,.4.33.73.73.73s.73-.33.73-.73v-1.74c0-.4-.33-.73-.73-.73s-.73.33-.73.73v1.74Z"/>
    <path class="cls-1" d="M74.23,65.81c0,.61.36,1.1.8,1.1s.8-.49.8-1.1-.36-1.1-.8-1.1-.8.49-.8,1.1Z"/>
  </g>
  <line class="cls-1" x1="77.29" y1="38.23" x2="77.29" y2="89.4"/>
  <line class="cls-1" x1="63.02" y1="39.94" x2="63.02" y2="89.4"/>
  <line class="cls-1" x1="77.29" y1="39.94" x2="61.06" y2="39.94"/>
  <line class="cls-1" x1="78.28" y1="89.4" x2="61.06" y2="89.4"/>
  <line class="cls-1" x1="77.29" y1="87.47" x2="63.02" y2="87.47"/>
  <line class="cls-1" x1="176.22" y1="67.86" x2="239.24" y2="67.86"/>
  <line class="cls-1" x1="257.78" y1="67.86" x2="270.68" y2="67.86"/>
  <line class="cls-9" x1="120.12" y1="31.02" x2="120.12" y2="67.86"/>
  <line class="cls-9" x1="217.73" y1="31.02" x2="217.73" y2="79.03"/>
  <line class="cls-1" x1="90.14" y1="67.86" x2="78.39" y2="67.86"/>
  <line class="cls-1" x1="43.73" y1="67.86" x2="25" y2="67.86"/>
  <line class="cls-1" x1="141.56" y1="67.86" x2="108.81" y2="67.86"/>
  <g class="cls-39">
    <path class="cls-19" d="M18.19,61.03s-1.07.52-1.07,3.14v10.16l.18-.65v-9.25c0-1.65,1.2-2.59,1.42-2.7,0,0,.08-.47-.52-.69"/>
    <path class="cls-19" d="M18.86,63.07s-1.35.63-1.35,3.24v6.97l.18-.48v-6.24c0-1.65.94-2.4,1.16-2.51v-.98Z"/>
    <path class="cls-1" d="M16.32,76.18s-.39.41-.39,1.1v3.99c0,.63.58.99.58.99h.37"/>
    <line class="cls-1" x1="16.95" y1="32.04" x2="17.89" y2="32.77"/>
    <rect class="cls-1" x="123.74" y="70.63" width="7.05" height="7.05" rx=".88" ry=".88"/>
    <path class="cls-1" d="M138.94,84.18c0,.35-.25.64-.55.64h-3.32c-.3,0-.55-.29-.55-.64v-3.83c0-.35.25-.64.55-.64h3.32c.31,0,.55.28.55.64v3.83Z"/>
    <line class="cls-1" x1="25" y1="71.77" x2="25" y2="88.17"/>
    <path class="cls-1" d="M316.16,85.1c.04-2.97.03-6.07-.83-7.71-2.12-4.06-8.19-4.28-8.19-4.28"/>
    <path class="cls-18" d="M315.79,78.68c.4,1.72.4,4.1.37,6.42,0,0,.29,0,.36-.69.08-.69.16-2.23-.17-5.38-.02-.18-.41-.32-.41-.32l-.15-.03Z"/>
    <path class="cls-1" d="M315.79,78.68c.4,1.72.4,4.1.37,6.42,0,0,.29,0,.36-.69.08-.69.16-2.23-.17-5.38-.02-.18-.41-.32-.41-.32l-.15-.03Z"/>
    <path class="cls-1" d="M316.34,85.21c-.18-.1-.36.1-.56-.41"/>
    <path class="cls-23" d="M312.41,83.56c-1.18-.21-1.5-2.71-1.58-3.16-.08-.45-.17-.84.1-1.02.11-.08.61-.27,2.44.03,1.83.3,2.29.78,2.35,1.27l.02.15c.16,1.67.13,4.15.13,4.15-.43-1.01-.79-1.09-1.05-1.23-.26-.14-.41.16-.67.12-.26-.04-.65-.11-1.39-.23l-.34-.07Z"/>
    <path class="cls-1" d="M312.41,83.56c-1.18-.21-1.5-2.71-1.58-3.16-.08-.45-.17-.84.1-1.02.11-.08.61-.27,2.44.03,1.83.3,2.29.78,2.35,1.27l.02.15c.16,1.67.13,4.15.13,4.15-.43-1.01-.79-1.09-1.05-1.23-.26-.14-.41.16-.67.12-.26-.04-.65-.11-1.39-.23l-.34-.07Z"/>
    <path class="cls-1" d="M315.29,75.18c.32.95.49,1.97.64,3.54"/>
    <path class="cls-1" d="M315.86,86.86c-.5-.58-2.27-1.02-3.02-.66-.74.36-2.38,2.46-2.3,2.57,0,0,.17.07,1.4,0,1.24-.07,1.38-.15,1.61-.34.23-.19.63-.65.91-.66.27-.01,1.04,0,1.39,0s.48.13.48.13"/>
    <path class="cls-23" d="M311.9,88.81c.18-1.3-.07-1.74-.07-1.74-.68.73-1.35,1.64-1.29,1.71,0,0,.16.07,1.4,0"/>
    <path class="cls-1" d="M311.9,88.81c.18-1.3-.07-1.74-.07-1.74-.68.73-1.35,1.64-1.29,1.71,0,0,.16.07,1.4,0"/>
    <line class="cls-1" x1="305.34" y1="67.7" x2="315.17" y2="67.7"/>
    <path class="cls-1" d="M307.18,75.68s6.72.91,8.47,4.5"/>
    <path class="cls-1" d="M311.58,27.3s-.99.82-1.56,1.45c-.57.63-1.02,1.47-.92,3.7"/>
    <path class="cls-20" d="M302.08,33.27c-.15-.27.32-1.12.77-1.12s8.24.37,11.11.62c2.86.25,3.95.76,5.16,1.7,1.21.94,2.61,2.3,3.34,3.08.73.79,1.69,1.82,1.89,5.05.2,3.23.13,4.39-.4,4.77-.53.39-2.28.94-2.77-.39-.5-1.32-1.62-5.64-1.76-6.19-.15-.55-.55-.86-.55-.86,0,0-.85-.09-1.63-1.71-.79-1.61-.63-2.61-.63-2.61,0,0-1.02.39-3.17.24-2.15-.15-7.91-.59-8.87-.7-.95-.11-1.57-.23-2.48-1.89"/>
    <path class="cls-1" d="M302.08,33.27c-.15-.27.32-1.12.77-1.12s8.24.37,11.11.62c2.86.25,3.95.76,5.16,1.7,1.21.94,2.61,2.3,3.34,3.08.73.79,1.69,1.82,1.89,5.05.2,3.23.13,4.39-.4,4.77-.53.39-2.28.94-2.77-.39-.5-1.32-1.62-5.64-1.76-6.19-.15-.55-.55-.86-.55-.86,0,0-.85-.09-1.63-1.71-.79-1.61-.63-2.61-.63-2.61,0,0-1.02.39-3.17.24-2.15-.15-7.91-.59-8.87-.7-.95-.11-1.57-.23-2.48-1.89Z"/>
    <path class="cls-1" d="M317.03,33.32s-.35.95-.44,2.31"/>
    <path class="cls-21" d="M316.82,34.03c-.07.3-.15,1.63.69,2.97.84,1.34,1.32,1.76,1.76,2.35.44.59.64.93.85,1.82,0,0,1.1,4.55,1.25,5.12.15.57.31,1.22,1.56,1.01,1.25-.21,1.05-1.12,1.03-1.76-.02-.94-.19-4.58-.72-5.77-.62-1.38-2.44-3.23-3.91-4.41-1.47-1.17-2.51-1.33-2.51-1.33"/>
    <path class="cls-1" d="M316.82,34.03c-.07.3-.15,1.63.69,2.97.84,1.34,1.32,1.76,1.76,2.35.44.59.64.93.85,1.82,0,0,1.1,4.55,1.25,5.12.15.57.31,1.22,1.56,1.01,1.25-.21,1.05-1.12,1.03-1.76-.02-.94-.19-4.58-.72-5.77-.62-1.38-2.44-3.23-3.91-4.41-1.47-1.17-2.51-1.33-2.51-1.33Z"/>
    <path class="cls-1" d="M316.61,35.39c-.01.55.97,2.76,2.58,4.92"/>
    <path class="cls-1" d="M302.05,33.2s11.05.75,12.34.83c1.29.08,2.33.5,2.33.5"/>
    <path class="cls-23" d="M310.67,30.85c.02.27-.12.5-.31.52-.19.01-.35-.2-.37-.47-.02-.27.12-.5.31-.52.19-.01.35.2.37.47"/>
    <path class="cls-1" d="M310.67,30.85c.02.27-.12.5-.31.52-.19.01-.35-.2-.37-.47-.02-.27.12-.5.31-.52.19-.01.35.2.37.47Z"/>
    <line class="cls-1" x1="286.84" y1="26.15" x2="286.84" y2="30.06"/>
    <line class="cls-1" x1="27.05" y1="26.15" x2="27.05" y2="30.06"/>
    <path class="cls-1" d="M23.26,78.05c0,.88-.22,1.59-.5,1.59s-.5-.71-.5-1.59.22-1.59.5-1.59.5.71.5,1.59Z"/>
    <line class="cls-1" x1="217.73" y1="79.03" x2="217.73" y2="91.64"/>
    <line class="cls-1" x1="227.19" y1="78.95" x2="227.19" y2="91.64"/>
    <rect class="cls-1" x="178.19" y="85.34" width="3.13" height="1.15"/>
    <rect class="cls-1" x="116.13" y="85.34" width="3.13" height="1.15"/>
    <rect class="cls-1" x="79.97" y="85.34" width="3.13" height="1.15"/>
    <rect class="cls-1" x="21.05" y="82.94" width="3.13" height="1.15"/>
    <rect class="cls-1" x="228.39" y="85.34" width="3.13" height="1.15"/>
    <rect class="cls-1" x="265" y="85.34" width="3.13" height="1.15"/>
    <line class="cls-1" x1="120.12" y1="79.03" x2="120.12" y2="91.64"/>
    <path class="cls-16" d="M263.38,86.15c0-8.42-6.66-14.86-14.87-14.86s-14.87,6.44-14.87,14.86c0-8.42,6.66-15.25,14.87-15.25s14.87,6.83,14.87,15.25"/>
    <path class="cls-8" d="M263.38,86.15c0-8.42-6.66-14.86-14.87-14.86s-14.87,6.44-14.87,14.86c0-8.42,6.66-15.25,14.87-15.25s14.87,6.83,14.87,15.25Z"/>
    <path class="cls-16" d="M114.41,86.15c0-8.42-6.66-14.86-14.87-14.86s-14.87,6.44-14.87,14.86c0-8.42,6.66-15.25,14.87-15.25s14.87,6.83,14.87,15.25"/>
    <path class="cls-8" d="M114.41,86.15c0-8.42-6.66-14.86-14.87-14.86s-14.87,6.44-14.87,14.86c0-8.42,6.66-15.25,14.87-15.25s14.87,6.83,14.87,15.25Z"/>
    <polyline class="cls-1" points="43.73 79.03 43.73 90.4 43.73 31.02"/>
    <path class="cls-1" d="M306.61,35.39s.91,25.78.53,54.77"/>
    <path class="cls-1" d="M307.23,73.31c0,2.95,0,6-.02,9.12"/>
    <line class="cls-1" x1="16.2" y1="57.69" x2="25" y2="57.69"/>
    <path class="cls-1" d="M267.47,80.02c0,.5-.41.91-.91.91s-.91-.41-.91-.91.41-.91.91-.91.91.41.91.91Z"/>
    <path class="cls-21" d="M167.47,26.15s.57-4.95.94-7c.27-1.49,1.21-1.92,2.25-2.29.72-.25,1.37-.46,1.93-.63,1.43-.44,2.37-.49,4.53-.49h70.52c7.36,0,12.47.88,18.56,3.16,6.09,2.28,16.38,7.2,16.38,7.2l-115.11.05Z"/>
    <path class="cls-1" d="M167.47,26.15s.57-4.95.94-7c.27-1.49,1.21-1.92,2.25-2.29.72-.25,1.37-.46,1.93-.63,1.43-.44,2.37-.49,4.53-.49h70.52c7.36,0,12.47.88,18.56,3.16,6.09,2.28,16.38,7.2,16.38,7.2l-115.11.05Z"/>
    <path class="cls-18" d="M276.08,26.15s-5.1-2.18-10.75-4.49c-5.65-2.31-10.8-3.12-18.14-3.12h-70.98c-1.36,0-1.79.07-2.67.29-.88.22-1.21.32-1.8.48-.44.12-.88.26-1.03,1.03-.15.77-.74,5.73-.74,5.73l106.11.09Z"/>
    <path class="cls-1" d="M276.08,26.15s-5.1-2.18-10.75-4.49c-5.65-2.31-10.8-3.12-18.14-3.12h-70.98c-1.36,0-1.79.07-2.67.29-.88.22-1.21.32-1.8.48-.44.12-.88.26-1.03,1.03-.15.77-.74,5.73-.74,5.73l106.11.09Z"/>
    <line class="cls-1" x1="227.67" y1="15.74" x2="227.67" y2="26.11"/>
    <line class="cls-1" x1="217.76" y1="15.74" x2="217.76" y2="26.1"/>
    <path class="cls-21" d="M126.73,26.15s-.17-4.32-5.83-4.32h-52.51c-5.66,0-5.83,4.32-5.83,4.32h64.18Z"/>
    <path class="cls-1" d="M126.73,26.15s-.17-4.32-5.83-4.32h-52.51c-5.66,0-5.83,4.32-5.83,4.32h64.18Z"/>
    <path class="cls-21" d="M22.15,26.94l-1.09.13v-1.47c-.18-.16-.11-.24-.11-.51s.13-.41.13-.41c5.07-4.24,6.44-4.24,9.07-4.24h21.99c4.57,0,9.58,5.62,9.58,5.62v.09H27.32c-1.95,0-3.54.28-4.83.75l-.34.04Z"/>
    <path class="cls-1" d="M22.15,26.94l-1.09.13v-1.47c-.18-.16-.11-.24-.11-.51s.13-.41.13-.41c5.07-4.24,6.44-4.24,9.07-4.24h21.99c4.57,0,9.58,5.62,9.58,5.62v.09H27.32c-1.95,0-3.54.28-4.83.75l-.34.04Z"/>
    <path class="cls-18" d="M20.94,25.09c0-.28.13-.4.13-.4,0,0,.11.36.66.36s1.76-.58,3.3-1.05c1.54-.48,2.1-.57,5.07-.57h22.03c2.53,0,5.34,2.64,5.34,2.64v.09h-30.16c-1.95,0-3.54.28-4.82.75l-.34.04-1.09.13v-1.47c-.18-.16-.11-.24-.11-.51"/>
    <path class="cls-1" d="M20.94,25.09c0-.28.13-.4.13-.4,0,0,.11.36.66.36s1.76-.58,3.3-1.05c1.54-.48,2.1-.57,5.07-.57h22.03c2.53,0,5.34,2.64,5.34,2.64v.09h-30.16c-1.95,0-3.54.28-4.82.75l-.34.04-1.09.13v-1.47c-.18-.16-.11-.24-.11-.51Z"/>
    <path class="cls-15" d="M280.21,34.09h-.69v1.36h.7v-.61l.83.61h.7v-1.36h-.7v.62l-.83-.62ZM278.51,34.09h-.75l-.89,1.36h.73l.1-.15h.87l.1.15h.72l-.88-1.36ZM278.34,34.94h-.41l.2-.31.2.31ZM275.16,34.09h-.66v1.36h.7v-.54l.42.42.42-.42v.54h.7v-1.36h-.66l-.46.46-.46-.46Z"/>
    <path class="cls-23" d="M286.78,34.95s-.01,0-.01-.02l.02-.07s.01-.02.02-.02h.16s.01,0,.01.02l-.02.07s-.01.02-.02.02h-.16Z"/>
    <path class="cls-23" d="M286.66,34.85h0c-.21,0-.34,0-.34,0-.04,0-.1.03-.13.12-.01.04-.03.09-.04.13-.02.07-.04.14-.04.17-.01.05-.03.16.06.16h0s.14.01.34,0c0,0,.02,0,.02-.02l.02-.06s0-.02-.01-.02h-.2s-.05-.02-.04-.06c0-.01.02-.09.04-.16.01-.05.03-.1.03-.12,0-.03.03-.06.08-.06.05,0,.18,0,.18,0,0,0,.02,0,.02-.02v-.06s.01-.02,0-.02"/>
    <path class="cls-23" d="M282.88,34.85s-.02,0-.02.02l-.15.55s0,.02.01.02h.42s.02,0,.02-.02l.02-.06s0-.02-.01-.02h-.22s-.01,0-.01-.02l.13-.46s0-.02-.01-.02h-.17Z"/>
    <path class="cls-23" d="M283.38,35s-.02,0-.02.02l-.11.4s0,.02.01.02h.16s.02,0,.02-.02l.11-.4s0-.02-.01-.02h-.16Z"/>
    <path class="cls-23" d="M283.39,34.95s-.02,0-.01-.02l.02-.07s.01-.02.02-.02h.16s.02,0,.01.02l-.02.07s-.01.02-.02.02h-.16Z"/>
    <path class="cls-23" d="M284.91,34.86s-.07.23-.07.23c0,0,0,.01,0,.01h.05s.02,0,.02-.01c0-.01,0-.02.01-.03.02-.03.05-.07.09-.09.01,0,.02-.01.04-.02.01,0,.01,0,.01-.02,0,0,.02-.08.02-.08,0,0,0-.01-.01-.01h-.15s-.02,0-.02.01"/>
    <path class="cls-23" d="M284.09,35c-.2,0-.36,0-.36,0-.09,0-.11.06-.12.11-.01.05-.02.09-.05.19-.02.09,0,.12.05.13h0s0,0,.01,0h0s.19,0,.33,0c0,0,0,0,.01,0h0c.09,0,.1-.06.11-.11.02-.05.04-.12.06-.21.02-.08-.01-.11-.05-.11M283.95,35.13s-.05.16-.06.18c0,.02-.02.04-.04.04h-.09s-.02-.02-.01-.06c.01-.04.04-.15.05-.17,0-.02.01-.04.04-.04h.09s.03,0,.02.05"/>
    <path class="cls-23" d="M285.58,35h-.01c-.17,0-.3,0-.34,0h0c-.09,0-.11.09-.13.19-.02.09.04.09.08.09h.17s.03.04.02.05c0,.02-.02.03-.04.03h-.27s-.02,0-.02.01v.04s0,.02,0,.02h0c.2,0,.36,0,.36,0h0c.06,0,.09-.02.12-.05.02-.02.03-.07.04-.15.01-.08-.03-.08-.05-.08h-.19c-.05,0-.03-.04-.03-.05,0-.01,0-.03.04-.03h.24s.02,0,.02-.02v-.05s0-.02,0-.02"/>
    <path class="cls-23" d="M284.69,35c-.25,0-.4,0-.4,0h0s-.02,0-.02.02l-.11.4s0,.02.01.02h.16s.02,0,.02-.02c0,0,.06-.23.08-.28.01-.05.04-.06.05-.06h.07s.04.02.03.06c-.01.04-.08.28-.08.28,0,0,0,.02.01.02h.16s.02,0,.02-.02c0,0,.05-.17.08-.28.03-.1-.04-.13-.09-.14"/>
    <path class="cls-23" d="M286.77,35s-.02,0-.02.02l-.11.4s0,.02.01.02h.16s.02,0,.02-.02l.11-.4s0-.02-.01-.02h-.16Z"/>
    <path class="cls-23" d="M287.16,34.87s.01-.02.02-.02h.16s.01,0,.01.02l-.03.11s0,.02.01.02h.13s.02,0,.01.02v.05s-.02.02-.03.02h-.13s-.02,0-.02.02c0,0-.05.18-.06.21,0,.03-.01.04.02.04h.12s.01,0,.01.02v.05s-.02.02-.03.02h-.23s-.12,0-.08-.14c.04-.14.05-.2.05-.2,0,0,0-.02-.01-.02h-.05s-.01,0-.01-.02v-.05s.03-.02.03-.02h.05s.02,0,.02-.02l.03-.11Z"/>
    <path class="cls-23" d="M287.57,35.02s.01-.02.02-.02h.16s.01,0,.01.02c0,0-.06.22-.07.26-.01.04-.02.07.02.07h.07s.03,0,.05-.05c.02-.05.08-.27.08-.27,0,0,.01-.02.02-.02h.15s.01,0,.01.02c0,0-.1.35-.12.43-.02.08-.06.14-.14.14h-.38s-.01,0-.01-.02l.02-.05s.01-.02.02-.02h.24s.06-.07.06-.07c0,0,0-.02,0-.02h-.2s-.12-.02-.08-.15c.04-.13.07-.26.07-.26"/>
  </g>
</svg>