<?xml version="1.0" encoding="UTF-8"?>
<svg id="Layer_1" data-name="Layer 1" xmlns="http://www.w3.org/2000/svg" version="1.1" xmlns:xlink="http://www.w3.org/1999/xlink" viewBox="0 0 489.7 110.42">
  <defs>
    <style>
      .cls-1, .cls-2, .cls-3, .cls-4, .cls-5, .cls-6, .cls-7, .cls-8, .cls-9, .cls-10, .cls-11 {
        stroke-width: 0px;
      }

      .cls-1, .cls-3, .cls-10 {
        fill-rule: evenodd;
      }

      .cls-1, .cls-9 {
        fill: #fff;
      }

      .cls-12 {
        clip-path: url(#clippath-20);
      }

      .cls-13 {
        clip-path: url(#clippath-11);
      }

      .cls-14 {
        clip-path: url(#clippath-16);
      }

      .cls-2 {
        fill: url(#linear-gradient);
      }

      .cls-3, .cls-11 {
        fill: #d1d3d4;
      }

      .cls-4, .cls-10 {
        fill: #231f20;
      }

      .cls-15, .cls-16, .cls-17, .cls-5, .cls-18, .cls-19, .cls-20, .cls-21, .cls-22, .cls-23, .cls-24, .cls-25, .cls-26 {
        fill: none;
      }

      .cls-15, .cls-16, .cls-17, .cls-18, .cls-19, .cls-20, .cls-21, .cls-22, .cls-23, .cls-24, .cls-25, .cls-26 {
        stroke: #231f20;
      }

      .cls-15, .cls-19, .cls-22 {
        stroke-linejoin: round;
      }

      .cls-15, .cls-26 {
        stroke-width: .19px;
      }

      .cls-16 {
        stroke-width: .1px;
      }

      .cls-16, .cls-17, .cls-18, .cls-20, .cls-21, .cls-23, .cls-24, .cls-25, .cls-26 {
        stroke-miterlimit: 3.86;
      }

      .cls-27 {
        clip-path: url(#clippath-2);
      }

      .cls-28 {
        clip-path: url(#clippath-13);
      }

      .cls-29 {
        clip-path: url(#clippath-15);
      }

      .cls-30 {
        clip-path: url(#clippath-6);
      }

      .cls-17 {
        stroke-width: 0px;
      }

      .cls-31 {
        clip-path: url(#clippath-7);
      }

      .cls-32 {
        clip-path: url(#clippath-21);
      }

      .cls-33 {
        clip-path: url(#clippath-1);
      }

      .cls-34 {
        clip-path: url(#clippath-4);
      }

      .cls-18 {
        stroke-width: .05px;
      }

      .cls-19 {
        stroke-width: .4px;
      }

      .cls-35 {
        clip-path: url(#clippath-12);
      }

      .cls-36 {
        clip-path: url(#clippath-22);
      }

      .cls-37 {
        clip-path: url(#clippath-9);
      }

      .cls-6 {
        fill: #6d6e71;
      }

      .cls-38 {
        clip-path: url(#clippath);
      }

      .cls-20 {
        stroke-width: .15px;
      }

      .cls-39 {
        clip-path: url(#clippath-19);
      }

      .cls-7 {
        fill: #939598;
      }

      .cls-40 {
        clip-path: url(#clippath-3);
      }

      .cls-41 {
        clip-path: url(#clippath-8);
      }

      .cls-8 {
        fill: #4d4d4f;
      }

      .cls-21 {
        stroke-width: .19px;
      }

      .cls-42 {
        clip-path: url(#clippath-18);
      }

      .cls-43 {
        clip-path: url(#clippath-14);
      }

      .cls-44 {
        clip-path: url(#clippath-17);
      }

      .cls-45 {
        clip-path: url(#clippath-5);
      }

      .cls-22 {
        stroke-width: .25px;
      }

      .cls-23 {
        stroke-width: .1px;
      }

      .cls-24 {
        stroke-width: .2px;
      }

      .cls-25 {
        stroke-width: 0px;
      }

      .cls-46 {
        clip-path: url(#clippath-10);
      }
    </style>
    <clipPath id="clippath">
      <rect class="cls-5" x="13.99" y="11.98" width="462.05" height="87.9"/>
    </clipPath>
    <clipPath id="clippath-1">
      <path class="cls-5" d="M461.31,26.62c.32,1.7.65,4.43,1.12,8.23h1.34c-.48-3.8-.94-6.52-1.26-8.23h-1.2Z"/>
    </clipPath>
    <linearGradient id="linear-gradient" x1="17.25" y1="852.71" x2="18.25" y2="852.71" gradientTransform="translate(506.2 2127.89) rotate(-180) scale(2.46)" gradientUnits="userSpaceOnUse">
      <stop offset="0" stop-color="#a7a9ac"/>
      <stop offset="1" stop-color="#6d6e71"/>
    </linearGradient>
    <clipPath id="clippath-2">
      <rect class="cls-5" x="13.99" y="11.98" width="462.05" height="87.9"/>
    </clipPath>
    <clipPath id="clippath-3">
      <path class="cls-5" d="M460.62,36.38c-.43,0-.72.01-.69.84.36,8.88.82,20.04,1.05,25.9h0c0,.2.13.46.52.46h4.21c-.25-11.81-.99-20.82-1.74-27.2h-3.36Z"/>
    </clipPath>
    <clipPath id="clippath-4">
      <rect class="cls-5" x="13.99" y="11.98" width="462.05" height="87.9"/>
    </clipPath>
    <clipPath id="clippath-5">
      <path class="cls-5" d="M312.43,38.72c-.27,0-.48.22-.48.48v20.52c0,.28.09.58.56.58,1.8,0,3.82-.1,4.8.82.52.49.56,1.17.56,2,0,.83-.04,1.51-.56,2-.98.92-3,.82-4.8.82-.47,0-.56.3-.56.58v16.61c0,.27.22.48.48.48h11.55c.27,0,.48-.22.48-.48v-43.93c0-.27-.22-.48-.48-.48h-11.55Z"/>
    </clipPath>
    <clipPath id="clippath-6">
      <rect class="cls-5" x="13.99" y="11.98" width="462.05" height="87.9"/>
    </clipPath>
    <clipPath id="clippath-7">
      <path class="cls-5" d="M330.65,38.72c-.27,0-.48.22-.48.48v43.93c0,.27.22.48.48.48h11.55c.26,0,.48-.22.48-.48v-16.61c0-.28-.09-.58-.56-.58-1.8,0-3.82.1-4.8-.82-.52-.49-.56-1.17-.56-2,0-.83.04-1.51.56-2,.98-.92,3-.82,4.8-.82.47,0,.56-.3.56-.58v-20.52c0-.27-.22-.48-.48-.48h-11.55Z"/>
    </clipPath>
    <clipPath id="clippath-8">
      <rect class="cls-5" x="13.99" y="11.98" width="462.05" height="87.9"/>
    </clipPath>
    <clipPath id="clippath-9">
      <path class="cls-5" d="M423.34,38.72c-.27,0-.48.22-.48.48v20.52c0,.28.09.58.56.58,1.8,0,3.82-.1,4.8.82.52.49.56,1.17.56,2,0,.83-.04,1.51-.56,2-.98.92-3,.82-4.8.82-.46,0-.56.3-.56.58v16.61c0,.27.22.48.48.48h11.55c.27,0,.48-.22.48-.48v-43.93c0-.27-.22-.48-.48-.48h-11.55Z"/>
    </clipPath>
    <clipPath id="clippath-10">
      <rect class="cls-5" x="13.99" y="11.98" width="462.05" height="87.9"/>
    </clipPath>
    <clipPath id="clippath-11">
      <path class="cls-5" d="M441.56,38.72c-.26,0-.48.22-.48.48v43.93c0,.27.22.48.48.48h11.55c.27,0,.48-.22.48-.48v-16.61c0-.28-.09-.58-.56-.58-1.8,0-3.83.1-4.8-.82-.52-.49-.56-1.17-.56-2,0-.83.04-1.51.56-2,.98-.92,3-.82,4.8-.82.46,0,.56-.3.56-.58v-20.52c0-.27-.22-.48-.48-.48h-11.55Z"/>
    </clipPath>
    <clipPath id="clippath-12">
      <rect class="cls-5" x="13.99" y="11.98" width="462.05" height="87.9"/>
    </clipPath>
    <clipPath id="clippath-13">
      <rect class="cls-5" x="13.99" y="11.98" width="462.05" height="87.9"/>
    </clipPath>
    <clipPath id="clippath-14">
      <path class="cls-5" d="M144.92,38.72c-.27,0-.48.22-.48.48v20.52c0,.28.09.58.56.58,1.8,0,3.83-.1,4.8.82.52.49.56,1.17.56,2,0,.83-.04,1.51-.56,2-.98.92-3,.82-4.8.82-.46,0-.56.3-.56.58v16.61c0,.27.22.48.48.48h11.55c.27,0,.49-.22.49-.48v-43.93c0-.27-.22-.48-.49-.48h-11.55Z"/>
    </clipPath>
    <clipPath id="clippath-15">
      <rect class="cls-5" x="13.99" y="11.98" width="462.05" height="87.9"/>
    </clipPath>
    <clipPath id="clippath-16">
      <path class="cls-5" d="M163.14,38.72c-.27,0-.48.22-.48.48v43.93c0,.27.22.48.48.48h11.55c.27,0,.48-.22.48-.48v-16.61c0-.28-.09-.58-.56-.58-1.8,0-3.82.1-4.8-.82-.52-.49-.56-1.17-.56-2,0-.83.04-1.51.56-2,.98-.92,3-.82,4.8-.82.47,0,.56-.3.56-.58v-20.52c0-.27-.22-.48-.48-.48h-11.55Z"/>
    </clipPath>
    <clipPath id="clippath-17">
      <rect class="cls-5" x="13.99" y="11.98" width="462.05" height="87.9"/>
    </clipPath>
    <clipPath id="clippath-18">
      <path class="cls-5" d="M45.74,38.72c-.27,0-.49.22-.49.48v20.52c0,.28.09.58.56.58,1.81,0,3.83-.1,4.8.82.52.49.56,1.17.56,2,0,.83-.04,1.51-.56,2-.98.92-3,.82-4.8.82-.47,0-.56.3-.56.58v16.61c0,.27.22.48.49.48h11.55c.27,0,.48-.22.48-.48v-43.93c0-.27-.22-.48-.48-.48h-11.55Z"/>
    </clipPath>
    <clipPath id="clippath-19">
      <rect class="cls-5" x="13.99" y="11.98" width="462.05" height="87.9"/>
    </clipPath>
    <clipPath id="clippath-20">
      <path class="cls-5" d="M63.96,38.72c-.27,0-.48.22-.48.48v43.93c0,.27.22.48.48.48h11.55c.27,0,.48-.22.48-.48v-16.61c0-.28-.09-.58-.56-.58-1.81,0-3.83.1-4.8-.82-.52-.49-.56-1.17-.56-2,0-.83.04-1.51.56-2,.98-.92,3-.82,4.8-.82.46,0,.56-.3.56-.58v-20.52c0-.27-.22-.48-.48-.48h-11.55Z"/>
    </clipPath>
    <clipPath id="clippath-21">
      <rect class="cls-5" x="13.99" y="11.98" width="462.05" height="87.9"/>
    </clipPath>
    <clipPath id="clippath-22">
      <rect class="cls-5" x="13.99" y="11.98" width="462.05" height="87.9"/>
    </clipPath>
  </defs>
  <g class="cls-38">
    <path class="cls-9" d="M410.92,23.4s-.18-4.38-5.92-4.38h-53.24c-5.74,0-5.91,4.38-5.91,4.38h65.07Z"/>
    <path class="cls-19" d="M410.92,23.4s-.18-4.38-5.92-4.38h-53.24c-5.74,0-5.91,4.38-5.91,4.38h65.07Z"/>
    <path class="cls-9" d="M359.01,23.36s-10.42-4.99-16.6-7.3c-6.18-2.31-11.36-3.2-18.82-3.2h-71.49c-2.2,0-3.15.05-4.6.49-.57.17-1.22.39-1.95.64-1.06.37-2.01.81-2.29,2.32-.38,2.08-.95,7.09-.95,7.09l116.7-.05Z"/>
    <path class="cls-19" d="M359.01,23.36s-10.42-4.99-16.6-7.3c-6.18-2.31-11.36-3.2-18.82-3.2h-71.49c-2.2,0-3.15.05-4.6.49-.57.17-1.22.39-1.95.64-1.06.37-2.01.81-2.29,2.32-.38,2.08-.95,7.09-.95,7.09l116.7-.05Z"/>
    <path class="cls-9" d="M21.41,24.23l-1.11.13v-1.49c-.19-.17-.11-.24-.11-.52s.13-.41.13-.41c5.14-4.3,6.53-4.3,9.2-4.3h22.29c4.63,0,9.72,5.7,9.72,5.7v.09H26.65c-1.98,0-3.59.29-4.89.76l-.35.04Z"/>
    <path class="cls-19" d="M21.41,24.23l-1.11.13v-1.49c-.19-.17-.11-.24-.11-.52s.13-.41.13-.41c5.14-4.3,6.53-4.3,9.2-4.3h22.29c4.63,0,9.72,5.7,9.72,5.7v.09H26.65c-1.98,0-3.59.29-4.89.76l-.35.04Z"/>
    <path class="cls-9" d="M146.81,23.41s-.18-4.38-5.91-4.38h-53.24c-5.74,0-5.91,4.38-5.91,4.38h65.07Z"/>
    <path class="cls-19" d="M146.81,23.41s-.18-4.38-5.91-4.38h-53.24c-5.74,0-5.91,4.38-5.91,4.38h65.07Z"/>
    <path class="cls-9" d="M146.81,23.41s-.18-4.38-5.91-4.38h-53.24c-5.74,0-5.91,4.38-5.91,4.38h65.07Z"/>
    <path class="cls-15" d="M146.81,23.41s-.18-4.38-5.91-4.38h-53.24c-5.74,0-5.91,4.38-5.91,4.38h65.07Z"/>
    <path class="cls-9" d="M191.87,89.8h-79.59s.62-1.56.62-5.1c0-6.2-4.14-13.83-13.3-13.83s-13.3,7.63-13.3,13.83c0,3.54.62,5.1.62,5.1h-30.21c-2.85,0-4.65-.16-5.44-.26-1.74-.21-31.58-3.81-32.74-3.95l-.22-.06h-.02s-.51-.12-1.04-.23c-.53-.11-.83-.53-1.02-.78-.18-.25,0-.89,0-.89,0,0-.68-1.9-.8-2.4-.11-.5,0-.92,0-.92,0,0-.59-.36-.59-1.01v-4.05c0-.7.39-1.12.39-1.12,0,0-.25-.11-.25-.5s-.14-19.32.88-44.05c.06-1.35-.24-1.79-.46-2.07-.22-.28-.04-.84.42-1.26.52-.46,2.09-1.54,5.15-1.9l.11-.03c1.36-.56,3.05-.9,5.23-.9h176.36v1.69l.95,1.95.95-1.95.95,1.95.95-1.95.95,1.95.95-1.95.95,1.95.95-1.95.95,1.95.95-1.95.95,1.95.95-1.95.95,1.95.95-1.95.95,1.95.95-1.95.95,1.95.95-1.95.95,1.95.71-1.95h1.93l.72,1.95.95-1.95.95,1.95.95-1.95.95,1.95.95-1.95.95,1.95.95-1.95.95,1.95.95-1.95.95,1.95.95-1.95.95,1.95.95-1.95.95,1.95.95-1.95.95,1.95.95-1.95.95,1.95.95-1.95h.34v-1.69h194.35c1.46,0,3.02.06,4.6.21l.27.02s3.06-.28,7.21-.26c0,0,.41-.67,1.38-.67h5.51s5.7-.11,6.29,1.75c0,0,3.72,15.04,3.72,47.8l-.21.2s.74.35.86.63c.11.28.5.78.5,3.24,0,.14-.42.36-.42.36,0,0,.4.14.42.32.34,3.2.25,4.76.17,5.46-.08.7-.37.7-.37.7,0,0,.42.14.36.56-.06.42-.17,1.56-.17,2.1s-.33,1.34-1.23,1.48c-.89.14-7.98.98-7.98.98,0,0-9.27,1.52-12.23,1.52h-34.66s.62-1.56.62-5.1c0-6.2-4.14-13.83-13.3-13.83s-13.3,7.63-13.3,13.83c0,3.54.62,5.1.62,5.1h-105.71s.62-1.56.62-5.1c0-6.2-4.14-13.83-13.3-13.83s-13.3,7.63-13.3,13.83c0,3.54.62,5.1.62,5.1h-11.14s-1.17,0-1.17,0v.96l-.95-1.96-.95,1.96-.95-1.96-.95,1.96-.95-1.96-.95,1.96-.95-1.96-.95,1.96-.95-1.96-.95,1.96-.95-1.96-.95,1.96-.95-1.96-.95,1.96-.95-1.96-.95,1.96-.95-1.96-.95,1.96-.95-1.96-.72,1.47v.84l-.27.13h-.7,0-.7l-.27-.13v-.84l-.71-1.47-.95,1.96-.95-1.96-.95,1.96-.95-1.96-.95,1.96-.95-1.96-.95,1.96-.95-1.96-.95,1.96-.95-1.96-.95,1.96-.95-1.96-.95,1.96-.95-1.96-.95,1.96-.95-1.96-.95,1.96-.95-1.96-.95,1.96v-.96h-10.83Z"/>
    <path class="cls-19" d="M191.87,89.8h-79.59s.62-1.56.62-5.1c0-6.2-4.14-13.83-13.3-13.83s-13.3,7.63-13.3,13.83c0,3.54.62,5.1.62,5.1h-30.21c-2.85,0-4.65-.16-5.44-.26-1.74-.21-31.58-3.81-32.74-3.95l-.22-.06h-.02s-.51-.12-1.04-.23c-.53-.11-.83-.53-1.02-.78-.18-.25,0-.89,0-.89,0,0-.68-1.9-.8-2.4-.11-.5,0-.92,0-.92,0,0-.59-.36-.59-1.01v-4.05c0-.7.39-1.12.39-1.12,0,0-.25-.11-.25-.5s-.14-19.32.88-44.05c.06-1.35-.24-1.79-.46-2.07-.22-.28-.04-.84.42-1.26.52-.46,2.09-1.54,5.15-1.9l.11-.03c1.36-.56,3.05-.9,5.23-.9h176.36v1.69l.95,1.95.95-1.95.95,1.95.95-1.95.95,1.95.95-1.95.95,1.95.95-1.95.95,1.95.95-1.95.95,1.95.95-1.95.95,1.95.95-1.95.95,1.95.95-1.95.95,1.95.95-1.95.95,1.95.71-1.95h1.93l.72,1.95.95-1.95.95,1.95.95-1.95.95,1.95.95-1.95.95,1.95.95-1.95.95,1.95.95-1.95.95,1.95.95-1.95.95,1.95.95-1.95.95,1.95.95-1.95.95,1.95.95-1.95.95,1.95.95-1.95h.34v-1.69h194.35c1.46,0,3.02.06,4.6.21l.27.02s3.06-.28,7.21-.26c0,0,.41-.67,1.38-.67h5.51s5.7-.11,6.29,1.75c0,0,3.72,15.04,3.72,47.8l-.21.2s.74.35.86.63c.11.28.5.78.5,3.24,0,.14-.42.36-.42.36,0,0,.4.14.42.32.34,3.2.25,4.76.17,5.46-.08.7-.37.7-.37.7,0,0,.42.14.36.56-.06.42-.17,1.56-.17,2.1s-.33,1.34-1.23,1.48c-.89.14-7.98.98-7.98.98,0,0-9.27,1.52-12.23,1.52h-34.66s.62-1.56.62-5.1c0-6.2-4.14-13.83-13.3-13.83s-13.3,7.63-13.3,13.83c0,3.54.62,5.1.62,5.1h-105.71s.62-1.56.62-5.1c0-6.2-4.14-13.83-13.3-13.83s-13.3,7.63-13.3,13.83c0,3.54.62,5.1.62,5.1h-11.14s-1.17,0-1.17,0v.96l-.95-1.96-.95,1.96-.95-1.96-.95,1.96-.95-1.96-.95,1.96-.95-1.96-.95,1.96-.95-1.96-.95,1.96-.95-1.96-.95,1.96-.95-1.96-.95,1.96-.95-1.96-.95,1.96-.95-1.96-.95,1.96-.95-1.96-.72,1.47v.84l-.27.13h-.7,0-.7l-.27-.13v-.84l-.71-1.47-.95,1.96-.95-1.96-.95,1.96-.95-1.96-.95,1.96-.95-1.96-.95,1.96-.95-1.96-.95,1.96-.95-1.96-.95,1.96-.95-1.96-.95,1.96-.95-1.96-.95,1.96-.95-1.96-.95,1.96-.95-1.96-.95,1.96v-.96h-10.83Z"/>
    <rect class="cls-4" x="384.01" y="70.33" width="28.11" height="17.88"/>
    <rect class="cls-15" x="384.01" y="70.33" width="28.11" height="17.88"/>
    <rect class="cls-4" x="252.98" y="70.33" width="28.11" height="17.88"/>
    <rect class="cls-15" x="252.98" y="70.33" width="28.11" height="17.88"/>
    <rect class="cls-4" x="85.47" y="70.33" width="28.11" height="17.88"/>
    <rect class="cls-15" x="85.47" y="70.33" width="28.11" height="17.88"/>
    <path class="cls-9" d="M191.87,89.8h-79.59s.62-1.56.62-5.1c0-6.2-4.14-13.83-13.3-13.83s-13.3,7.63-13.3,13.83c0,3.54.62,5.1.62,5.1h-30.21c-2.85,0-4.65-.16-5.44-.26-1.74-.21-31.58-3.81-32.74-3.95l-.22-.06h-.02s-.51-.12-1.04-.23c-.53-.11-.83-.53-1.02-.78-.18-.25,0-.89,0-.89,0,0-.68-1.9-.8-2.4-.11-.5,0-.92,0-.92,0,0-.59-.36-.59-1.01v-4.05c0-.7.39-1.12.39-1.12,0,0-.25-.11-.25-.5s-.14-19.32.88-44.05c.06-1.35-.24-1.79-.46-2.07-.22-.28-.04-.84.42-1.26.52-.46,2.09-1.54,5.15-1.9l.11-.03c1.36-.56,3.05-.9,5.23-.9h176.36v1.69l.95,1.95.95-1.95.95,1.95.95-1.95.95,1.95.95-1.95.95,1.95.95-1.95.95,1.95.95-1.95.95,1.95.95-1.95.95,1.95.95-1.95.95,1.95.95-1.95.95,1.95.95-1.95.95,1.95.71-1.95h1.93l.72,1.95.95-1.95.95,1.95.95-1.95.95,1.95.95-1.95.95,1.95.95-1.95.95,1.95.95-1.95.95,1.95.95-1.95.95,1.95.95-1.95.95,1.95.95-1.95.95,1.95.95-1.95.95,1.95.95-1.95h.34v-1.69h194.35c1.46,0,3.02.06,4.6.21l.27.02s3.06-.28,7.21-.26c0,0,.41-.67,1.38-.67h5.51s5.7-.11,6.29,1.75c0,0,3.72,15.04,3.72,47.8l-.21.2s.74.35.86.63c.11.28.5.78.5,3.24,0,.14-.42.36-.42.36,0,0,.4.14.42.32.34,3.2.25,4.76.17,5.46-.08.7-.37.7-.37.7,0,0,.42.14.36.56-.06.42-.17,1.56-.17,2.1s-.33,1.34-1.23,1.48c-.89.14-7.98.98-7.98.98,0,0-9.27,1.52-12.23,1.52h-34.66s.62-1.56.62-5.1c0-6.2-4.14-13.83-13.3-13.83s-13.3,7.63-13.3,13.83c0,3.54.62,5.1.62,5.1h-105.71s.62-1.56.62-5.1c0-6.2-4.14-13.83-13.3-13.83s-13.3,7.63-13.3,13.83c0,3.54.62,5.1.62,5.1h-11.14s-1.17,0-1.17,0v.96l-.95-1.96-.95,1.96-.95-1.96-.95,1.96-.95-1.96-.95,1.96-.95-1.96-.95,1.96-.95-1.96-.95,1.96-.95-1.96-.95,1.96-.95-1.96-.95,1.96-.95-1.96-.95,1.96-.95-1.96-.95,1.96-.95-1.96-.72,1.47v.84l-.27.13h-.7,0-.7l-.27-.13v-.84l-.71-1.47-.95,1.96-.95-1.96-.95,1.96-.95-1.96-.95,1.96-.95-1.96-.95,1.96-.95-1.96-.95,1.96-.95-1.96-.95,1.96-.95-1.96-.95,1.96-.95-1.96-.95,1.96-.95-1.96-.95,1.96-.95-1.96-.95,1.96v-.96h-10.83Z"/>
    <path class="cls-15" d="M191.87,89.8h-79.59s.62-1.56.62-5.1c0-6.2-4.14-13.83-13.3-13.83s-13.3,7.63-13.3,13.83c0,3.54.62,5.1.62,5.1h-30.21c-2.85,0-4.65-.16-5.44-.26-1.74-.21-31.58-3.81-32.74-3.95l-.22-.06h-.02s-.51-.12-1.04-.23c-.53-.11-.83-.53-1.02-.78-.18-.25,0-.89,0-.89,0,0-.68-1.9-.8-2.4-.11-.5,0-.92,0-.92,0,0-.59-.36-.59-1.01v-4.05c0-.7.39-1.12.39-1.12,0,0-.25-.11-.25-.5s-.14-19.32.88-44.05c.06-1.35-.24-1.79-.46-2.07-.22-.28-.04-.84.42-1.26.52-.46,2.09-1.54,5.15-1.9l.11-.03c1.36-.56,3.05-.9,5.23-.9h176.36v1.69l.95,1.95.95-1.95.95,1.95.95-1.95.95,1.95.95-1.95.95,1.95.95-1.95.95,1.95.95-1.95.95,1.95.95-1.95.95,1.95.95-1.95.95,1.95.95-1.95.95,1.95.95-1.95.95,1.95.71-1.95h1.93l.72,1.95.95-1.95.95,1.95.95-1.95.95,1.95.95-1.95.95,1.95.95-1.95.95,1.95.95-1.95.95,1.95.95-1.95.95,1.95.95-1.95.95,1.95.95-1.95.95,1.95.95-1.95.95,1.95.95-1.95h.34v-1.69h194.35c1.46,0,3.02.06,4.6.21l.27.02s3.06-.28,7.21-.26c0,0,.41-.67,1.38-.67h5.51s5.7-.11,6.29,1.75c0,0,3.72,15.04,3.72,47.8l-.21.2s.74.35.86.63c.11.28.5.78.5,3.24,0,.14-.42.36-.42.36,0,0,.4.14.42.32.34,3.2.25,4.76.17,5.46-.08.7-.37.7-.37.7,0,0,.42.14.36.56-.06.42-.17,1.56-.17,2.1s-.33,1.34-1.23,1.48c-.89.14-7.98.98-7.98.98,0,0-9.27,1.52-12.23,1.52h-34.66s.62-1.56.62-5.1c0-6.2-4.14-13.83-13.3-13.83s-13.3,7.63-13.3,13.83c0,3.54.62,5.1.62,5.1h-105.71s.62-1.56.62-5.1c0-6.2-4.14-13.83-13.3-13.83s-13.3,7.63-13.3,13.83c0,3.54.62,5.1.62,5.1h-11.14s-1.17,0-1.17,0v.96l-.95-1.96-.95,1.96-.95-1.96-.95,1.96-.95-1.96-.95,1.96-.95-1.96-.95,1.96-.95-1.96-.95,1.96-.95-1.96-.95,1.96-.95-1.96-.95,1.96-.95-1.96-.95,1.96-.95-1.96-.95,1.96-.95-1.96-.72,1.47v.84l-.27.13h-.7,0-.7l-.27-.13v-.84l-.71-1.47-.95,1.96-.95-1.96-.95,1.96-.95-1.96-.95,1.96-.95-1.96-.95,1.96-.95-1.96-.95,1.96-.95-1.96-.95,1.96-.95-1.96-.95,1.96-.95-1.96-.95,1.96-.95-1.96-.95,1.96-.95-1.96-.95,1.96v-.96h-10.83Z"/>
    <path class="cls-15" d="M201.1,89.8h-88.82s.62-1.56.62-5.1c0-6.2-4.14-13.83-13.3-13.83s-13.3,7.63-13.3,13.83c0,3.54.62,5.1.62,5.1h-30.21c-2.85,0-4.65-.16-5.44-.26-1.74-.21-31.58-3.81-32.73-3.95-1.16-.14-2.12-3.64-2.4-4.45-.28-.81-.54-1.27-.54-1.94v-3.97c0-.45.09-1.19.26-1.73.4-1.29.82-2.44,1.7-4.37.49-1.09.6-1.8.6-2.67v-7.06c0-.36-.13-.64-.46-.95-.34-.31-1.03-.94-1.23-1.12-.2-.18-.36-.29-.4-1.15-.04-.86.49-19.88.82-26.5.14-2.79,2.58-6.27,9.46-6.27h172.95"/>
    <path class="cls-6" d="M177.77,77.02h-.4v11.89h-35.13v-11.89h-21.68c-.75,0-1.09-.22-1.76-1.02-.67-.8-4.22-5.81-8.97-9.75-1.28-1.06-3.13-1.6-4.99-1.6h-10.42c-1.86,0-3.71.55-4.99,1.6-4.75,3.94-8.3,8.95-8.97,9.75-.67.8-1.41,1.02-2.17,1.02h-.11v11.89h-31.75l-3.38-.37v-11.53h-11.51c-1.14,0-1.96-.56-2.38-1.07-.42-.5-5.1-6.29-5.1-6.29V30.39c0-1.53.6-3.02,2.12-3.02h410.76c2.2,0,5.78.3,7.08.45,1.3.15,6.41.78,8.9,1.43,2.94.77,4.14,2.41,4.14,3.53,0,0,.59,16.72.63,38.44v1.76s7.87.93,8.53,5.21c.24,1.59.21,4.84.21,4.84-.43-1.02-.8-1.1-1.06-1.24-.27-.14-.42.17-.68.13-.26-.04-.66-.11-1.41-.24-.75-.12-.43-.2-1.65-.61-1.21-.42-3.96-.5-3.96-.5-.01,2.58-.04,5.1-.07,7.74l-1.83.29v-1.06h-35.13v-10.51h-1.01c-.76,0-1.63-.22-2.3-1.02-.67-.8-4.22-5.81-8.97-9.75-1.28-1.06-3.13-1.6-4.99-1.6h-10.42c-1.86,0-3.72.55-4.99,1.6-4.75,3.94-8.3,8.95-8.97,9.75-.67.8-1.01,1.02-1.76,1.02h-32.37v11.89h-35.14v-11.89h-21.68c-.75,0-1.09-.22-1.76-1.02-.67-.8-4.22-5.81-8.97-9.75-1.28-1.06-3.13-1.6-4.99-1.6h-10.42c-1.86,0-3.71.55-4.99,1.6-4.75,3.94-8.3,8.95-8.97,9.75s-1.41,1.02-2.17,1.02h-68.04Z"/>
    <path class="cls-15" d="M177.77,77.02h-.4v11.89h-35.13v-11.89h-21.68c-.75,0-1.09-.22-1.76-1.02-.67-.8-4.22-5.81-8.97-9.75-1.28-1.06-3.13-1.6-4.99-1.6h-10.42c-1.86,0-3.71.55-4.99,1.6-4.75,3.94-8.3,8.95-8.97,9.75-.67.8-1.41,1.02-2.17,1.02h-.11v11.89h-31.75l-3.38-.37v-11.53h-11.51c-1.14,0-1.96-.56-2.38-1.07-.42-.5-5.1-6.29-5.1-6.29V30.39c0-1.53.6-3.02,2.12-3.02h410.76c2.2,0,5.78.3,7.08.45,1.3.15,6.41.78,8.9,1.43,2.94.77,4.14,2.41,4.14,3.53,0,0,.59,16.72.63,38.44v1.76s7.87.93,8.53,5.21c.24,1.59.21,4.84.21,4.84-.43-1.02-.8-1.1-1.06-1.24-.27-.14-.42.17-.68.13-.26-.04-.66-.11-1.41-.24-.75-.12-.43-.2-1.65-.61-1.21-.42-3.96-.5-3.96-.5-.01,2.58-.04,5.1-.07,7.74l-1.83.29v-1.06h-35.13v-10.51h-1.01c-.76,0-1.63-.22-2.3-1.02-.67-.8-4.22-5.81-8.97-9.75-1.28-1.06-3.13-1.6-4.99-1.6h-10.42c-1.86,0-3.72.55-4.99,1.6-4.75,3.94-8.3,8.95-8.97,9.75-.67.8-1.01,1.02-1.76,1.02h-32.37v11.89h-35.14v-11.89h-21.68c-.75,0-1.09-.22-1.76-1.02-.67-.8-4.22-5.81-8.97-9.75-1.28-1.06-3.13-1.6-4.99-1.6h-10.42c-1.86,0-3.71.55-4.99,1.6-4.75,3.94-8.3,8.95-8.97,9.75s-1.41,1.02-2.17,1.02h-68.04Z"/>
    <polygon class="cls-11" points="222.03 25.1 221.46 25.1 220.74 27.06 219.79 25.1 218.84 27.06 217.89 25.1 216.94 27.06 215.99 25.1 215.04 27.06 214.1 25.1 213.15 27.06 212.2 25.1 211.25 27.06 210.3 25.1 209.35 27.06 208.4 25.1 207.45 27.06 206.5 25.1 205.55 27.06 204.6 25.1 203.65 27.06 202.71 25.1 202.37 25.1 202.37 89.8 202.71 89.8 202.71 90.76 203.65 88.81 204.6 90.76 205.55 88.81 206.5 90.76 207.45 88.81 208.4 90.76 209.35 88.81 210.3 90.76 211.25 88.81 212.2 90.76 213.15 88.81 214.1 90.76 215.04 88.81 215.99 90.76 216.94 88.81 217.89 90.76 218.84 88.81 219.79 90.76 220.74 88.81 221.46 90.28 221.46 91.12 221.73 91.25 222.42 91.25 222.42 91.25 223.12 91.25 223.38 91.12 223.38 90.28 224.1 88.81 225.05 90.76 226 88.81 226.95 90.76 227.9 88.81 228.85 90.76 229.8 88.81 230.75 90.76 231.69 88.81 232.64 90.76 233.59 88.81 234.54 90.76 235.49 88.81 236.44 90.76 237.39 88.81 238.34 90.76 239.29 88.81 240.24 90.76 241.19 88.81 242.14 90.76 242.14 89.8 242.48 89.8 242.48 25.1 242.14 25.1 241.19 27.06 240.24 25.1 239.29 27.06 238.34 25.1 237.39 27.06 236.44 25.1 235.49 27.06 234.54 25.1 233.59 27.06 232.64 25.1 231.69 27.06 230.75 25.1 229.8 27.06 228.85 25.1 227.9 27.06 226.95 25.1 226 27.06 225.05 25.1 224.1 27.06 223.38 25.1 222.03 25.1"/>
    <polygon class="cls-15" points="222.03 25.1 221.46 25.1 220.74 27.06 219.79 25.1 218.84 27.06 217.89 25.1 216.94 27.06 215.99 25.1 215.04 27.06 214.1 25.1 213.15 27.06 212.2 25.1 211.25 27.06 210.3 25.1 209.35 27.06 208.4 25.1 207.45 27.06 206.5 25.1 205.55 27.06 204.6 25.1 203.65 27.06 202.71 25.1 202.37 25.1 202.37 89.8 202.71 89.8 202.71 90.76 203.65 88.81 204.6 90.76 205.55 88.81 206.5 90.76 207.45 88.81 208.4 90.76 209.35 88.81 210.3 90.76 211.25 88.81 212.2 90.76 213.15 88.81 214.1 90.76 215.04 88.81 215.99 90.76 216.94 88.81 217.89 90.76 218.84 88.81 219.79 90.76 220.74 88.81 221.46 90.28 221.46 91.12 221.73 91.25 222.42 91.25 222.42 91.25 223.12 91.25 223.38 91.12 223.38 90.28 224.1 88.81 225.05 90.76 226 88.81 226.95 90.76 227.9 88.81 228.85 90.76 229.8 88.81 230.75 90.76 231.69 88.81 232.64 90.76 233.59 88.81 234.54 90.76 235.49 88.81 236.44 90.76 237.39 88.81 238.34 90.76 239.29 88.81 240.24 90.76 241.19 88.81 242.14 90.76 242.14 89.8 242.48 89.8 242.48 25.1 242.14 25.1 241.19 27.06 240.24 25.1 239.29 27.06 238.34 25.1 237.39 27.06 236.44 25.1 235.49 27.06 234.54 25.1 233.59 27.06 232.64 25.1 231.69 27.06 230.75 25.1 229.8 27.06 228.85 25.1 227.9 27.06 226.95 25.1 226 27.06 225.05 25.1 224.1 27.06 223.38 25.1 222.03 25.1"/>
    <polygon class="cls-1" points="305.28 33.25 289.79 33.25 289.79 64.04 306.49 64.04 306.49 34.38 305.28 33.25"/>
    <polygon class="cls-26" points="305.28 33.25 289.79 33.25 289.79 64.04 306.49 64.04 306.49 34.38 305.28 33.25"/>
    <path class="cls-26" d="M441.42,23.62c6.25.57,12.73,2.02,14.39,2.43,2.08.52,3.69,1.3,3.81,4.15.51,11.51,1.46,35.59,1.51,36.87s.99,2.05,1.6,2.54c.88.71,2.58,1.68,3.21,3.73.2.63.88,1.09.88,1.09"/>
    <path class="cls-15" d="M457.88,88.26c-.09.01-.14.02-.14.02,0,0-9.27,1.52-12.23,1.52h-34.66s.17-.41.33-1.3"/>
    <path class="cls-15" d="M466.76,83.17s.42.14.36.56c-.06.42-.17,1.56-.17,2.09s-.33,1.34-1.23,1.48c-.89.14-7.98.98-7.98.98"/>
    <path class="cls-15" d="M465.59,72.46s.75.35.86.63c.11.28.5.78.5,3.24,0,.14-.42.36-.42.36,0,0,.4.14.42.32.34,3.2.25,4.76.17,5.46-.08.7-.37.7-.37.7"/>
    <path class="cls-15" d="M441.69,23.64s3.06-.28,7.22-.25c0,0,.41-.67,1.38-.67h5.51s5.7-.11,6.29,1.75c0,0,3.72,15.04,3.72,47.8l-.22.2h0c-.78-1.46-2.1-2.24-2.85-2.85-.61-.49-1.55-1.26-1.6-2.54-.06-1.28-1.01-25.37-1.51-36.87-.12-2.85-1.73-3.63-3.82-4.15-1.67-.41-8.14-1.86-14.39-2.43"/>
    <path class="cls-6" d="M441.69,23.64s3.06-.28,7.22-.25c0,0,.41-.67,1.38-.67h5.51s5.7-.11,6.29,1.75c0,0,3.72,15.04,3.72,47.8l-.22.2h0c-.78-1.46-2.1-2.24-2.85-2.85-.61-.49-1.55-1.26-1.6-2.54-.06-1.28-1.01-25.37-1.51-36.87-.13-2.86-1.73-3.63-3.82-4.15-1.67-.42-8.14-1.87-14.39-2.43"/>
    <path class="cls-15" d="M441.69,23.64s3.06-.28,7.22-.25c0,0,.41-.67,1.38-.67h5.51s5.7-.11,6.29,1.75c0,0,3.72,15.04,3.72,47.8l-.22.2h0c-.78-1.46-2.1-2.24-2.85-2.85-.61-.49-1.55-1.26-1.6-2.54-.06-1.28-1.01-25.37-1.51-36.87-.13-2.86-1.73-3.63-3.82-4.15-1.67-.42-8.14-1.87-14.39-2.43"/>
  </g>
  <g class="cls-33">
    <rect class="cls-2" x="461.31" y="26.62" width="2.46" height="8.23"/>
  </g>
  <g class="cls-27">
    <path class="cls-15" d="M463.76,34.85c-.48-3.8-.94-6.52-1.26-8.23h-1.2c.32,1.7.65,4.43,1.12,8.23h1.34Z"/>
    <path class="cls-15" d="M459.93,37.22c-.11-2.6-.21-5-.3-7.02-.13-2.85-1.73-3.63-3.82-4.15-1.67-.42-8.14-1.87-14.39-2.43"/>
  </g>
  <g class="cls-40">
    <rect class="cls-9" x="459.9" y="36.38" width="5.82" height="27.2"/>
  </g>
  <g class="cls-34">
    <path class="cls-15" d="M460.98,63.12c-.24-5.86-.69-17.02-1.05-25.9-.03-.83.26-.84.69-.84h3.36c.75,6.38,1.48,15.38,1.74,27.2h-4.21c-.39,0-.53-.25-.52-.46"/>
    <path class="cls-1" d="M410.89,84.29c0-7.02-5.69-12.71-12.71-12.71s-12.72,5.69-12.72,12.71,5.69,12.72,12.72,12.72,12.71-5.69,12.71-12.72"/>
    <path class="cls-22" d="M410.89,84.29c0-7.02-5.69-12.71-12.71-12.71s-12.72,5.69-12.72,12.71,5.69,12.72,12.72,12.72,12.71-5.69,12.71-12.72Z"/>
    <line class="cls-23" x1="410.19" y1="84.29" x2="410.89" y2="84.29"/>
    <line class="cls-23" x1="409.81" y1="83.37" x2="410.85" y2="83.29"/>
    <line class="cls-16" x1="410.04" y1="82.41" x2="410.74" y2="82.3"/>
    <line class="cls-16" x1="409.6" y1="80.57" x2="410.27" y2="80.36"/>
    <line class="cls-16" x1="408.88" y1="78.83" x2="409.51" y2="78.51"/>
    <line class="cls-16" x1="407.9" y1="77.22" x2="408.47" y2="76.81"/>
    <line class="cls-16" x1="406.67" y1="75.79" x2="407.17" y2="75.29"/>
    <line class="cls-16" x1="405.24" y1="74.56" x2="405.65" y2="74"/>
    <line class="cls-16" x1="403.63" y1="73.58" x2="403.95" y2="72.95"/>
    <line class="cls-16" x1="401.89" y1="72.86" x2="402.11" y2="72.19"/>
    <line class="cls-16" x1="400.06" y1="72.42" x2="400.17" y2="71.72"/>
    <line class="cls-16" x1="398.18" y1="72.27" x2="398.18" y2="71.57"/>
    <line class="cls-16" x1="396.3" y1="72.42" x2="396.19" y2="71.72"/>
    <line class="cls-16" x1="394.47" y1="72.86" x2="394.25" y2="72.19"/>
    <line class="cls-16" x1="392.72" y1="73.58" x2="392.41" y2="72.95"/>
    <line class="cls-16" x1="391.12" y1="74.56" x2="390.7" y2="74"/>
    <line class="cls-16" x1="389.69" y1="75.79" x2="389.19" y2="75.29"/>
    <line class="cls-16" x1="388.46" y1="77.22" x2="387.89" y2="76.81"/>
    <line class="cls-16" x1="387.48" y1="78.83" x2="386.85" y2="78.51"/>
    <line class="cls-16" x1="386.75" y1="80.57" x2="386.09" y2="80.36"/>
    <line class="cls-16" x1="386.31" y1="82.41" x2="385.62" y2="82.3"/>
    <line class="cls-16" x1="386.16" y1="84.29" x2="385.46" y2="84.29"/>
    <line class="cls-16" x1="386.31" y1="86.17" x2="385.62" y2="86.28"/>
    <line class="cls-16" x1="386.75" y1="88" x2="386.08" y2="88.21"/>
    <line class="cls-16" x1="387.47" y1="89.74" x2="386.85" y2="90.06"/>
    <line class="cls-16" x1="388.46" y1="91.35" x2="387.89" y2="91.76"/>
    <line class="cls-16" x1="389.68" y1="92.78" x2="389.19" y2="93.28"/>
    <line class="cls-16" x1="391.12" y1="94.01" x2="390.7" y2="94.57"/>
    <line class="cls-16" x1="392.72" y1="94.99" x2="392.4" y2="95.62"/>
    <line class="cls-16" x1="394.46" y1="95.71" x2="394.25" y2="96.38"/>
    <line class="cls-16" x1="396.3" y1="96.15" x2="396.19" y2="96.85"/>
    <line class="cls-16" x1="398.18" y1="96.3" x2="398.18" y2="97"/>
    <line class="cls-16" x1="400.06" y1="96.15" x2="400.16" y2="96.85"/>
    <line class="cls-16" x1="401.89" y1="95.71" x2="402.1" y2="96.38"/>
    <line class="cls-16" x1="403.63" y1="94.99" x2="403.95" y2="95.62"/>
    <line class="cls-16" x1="405.24" y1="94.01" x2="405.65" y2="94.57"/>
    <line class="cls-16" x1="406.67" y1="92.78" x2="407.17" y2="93.28"/>
    <line class="cls-16" x1="407.89" y1="91.35" x2="408.46" y2="91.76"/>
    <line class="cls-16" x1="408.88" y1="89.74" x2="409.5" y2="90.06"/>
    <line class="cls-16" x1="409.6" y1="88" x2="410.27" y2="88.21"/>
    <line class="cls-16" x1="410.04" y1="86.17" x2="410.74" y2="86.28"/>
    <line class="cls-16" x1="409.53" y1="81.56" x2="410.54" y2="81.32"/>
    <line class="cls-16" x1="408.96" y1="79.82" x2="409.92" y2="79.42"/>
    <line class="cls-16" x1="408.13" y1="78.19" x2="409.02" y2="77.64"/>
    <line class="cls-16" x1="407.05" y1="76.71" x2="407.85" y2="76.03"/>
    <line class="cls-16" x1="405.76" y1="75.41" x2="406.43" y2="74.62"/>
    <line class="cls-16" x1="404.27" y1="74.34" x2="404.82" y2="73.45"/>
    <line class="cls-16" x1="402.64" y1="73.5" x2="403.04" y2="72.54"/>
    <line class="cls-16" x1="400.9" y1="72.94" x2="401.14" y2="71.92"/>
    <line class="cls-16" x1="399.09" y1="72.65" x2="399.17" y2="71.61"/>
    <line class="cls-16" x1="397.26" y1="72.65" x2="397.18" y2="71.61"/>
    <line class="cls-16" x1="395.45" y1="72.94" x2="395.21" y2="71.92"/>
    <line class="cls-16" x1="393.71" y1="73.5" x2="393.31" y2="72.54"/>
    <line class="cls-16" x1="392.08" y1="74.34" x2="391.53" y2="73.45"/>
    <line class="cls-16" x1="390.6" y1="75.41" x2="389.92" y2="74.62"/>
    <line class="cls-16" x1="389.3" y1="76.71" x2="388.51" y2="76.03"/>
    <line class="cls-16" x1="388.22" y1="78.19" x2="387.34" y2="77.65"/>
    <line class="cls-16" x1="387.39" y1="79.82" x2="386.43" y2="79.42"/>
    <line class="cls-16" x1="386.83" y1="81.56" x2="385.81" y2="81.32"/>
    <line class="cls-16" x1="386.54" y1="83.37" x2="385.5" y2="83.29"/>
    <line class="cls-16" x1="386.54" y1="85.2" x2="385.5" y2="85.29"/>
    <line class="cls-16" x1="386.83" y1="87.01" x2="385.81" y2="87.26"/>
    <line class="cls-16" x1="387.39" y1="88.76" x2="386.43" y2="89.15"/>
    <line class="cls-16" x1="388.22" y1="90.39" x2="387.34" y2="90.93"/>
    <line class="cls-16" x1="389.3" y1="91.87" x2="388.51" y2="92.55"/>
    <line class="cls-16" x1="390.6" y1="93.16" x2="389.92" y2="93.96"/>
    <line class="cls-16" x1="392.08" y1="94.24" x2="391.53" y2="95.13"/>
    <line class="cls-16" x1="393.71" y1="95.07" x2="393.31" y2="96.04"/>
    <line class="cls-16" x1="395.45" y1="95.64" x2="395.21" y2="96.65"/>
    <line class="cls-16" x1="397.26" y1="95.93" x2="397.18" y2="96.97"/>
    <line class="cls-16" x1="399.09" y1="95.93" x2="399.17" y2="96.97"/>
    <line class="cls-16" x1="400.9" y1="95.64" x2="401.14" y2="96.65"/>
    <line class="cls-16" x1="402.64" y1="95.07" x2="403.04" y2="96.04"/>
    <line class="cls-16" x1="404.27" y1="94.24" x2="404.82" y2="95.13"/>
    <line class="cls-16" x1="405.76" y1="93.16" x2="406.43" y2="93.96"/>
    <line class="cls-16" x1="407.05" y1="91.87" x2="407.84" y2="92.55"/>
    <line class="cls-16" x1="408.13" y1="90.39" x2="409.02" y2="90.93"/>
    <line class="cls-16" x1="408.96" y1="88.76" x2="409.92" y2="89.16"/>
    <line class="cls-16" x1="409.53" y1="87.02" x2="410.54" y2="87.26"/>
    <line class="cls-16" x1="409.81" y1="85.21" x2="410.85" y2="85.29"/>
    <path class="cls-10" d="M389.61,84.45c-.19,0-.66-.26-.79-.75-.41,5.57,4.16,10.02,9.39,10.02,2.05,0,3.98-.69,5.53-1.79-1.63,1.21-3.55,1.81-5.66,1.81-5.38,0-9.64-4.07-9.64-9.45s4.36-9.74,9.74-9.74c.57,0,1.15.03,1.66.14,1.53.21,4.06,1.58,5.02,3.08.94,1.38-.66,2.54-.66,2.54-1.16-1.78-3.43-3.36-6.14-3.36-4.31,0-7.36,3.09-7.36,7.39.02-.96-.68-.07-1.1.12"/>
    <path class="cls-18" d="M389.61,84.45c-.19,0-.66-.26-.79-.75-.41,5.57,4.16,10.02,9.39,10.02,2.05,0,3.98-.69,5.53-1.79-1.63,1.21-3.55,1.81-5.66,1.81-5.38,0-9.64-4.07-9.64-9.45s4.36-9.74,9.74-9.74c.57,0,1.15.03,1.66.14,1.53.21,4.06,1.58,5.02,3.08.94,1.38-.66,2.54-.66,2.54-1.16-1.78-3.43-3.36-6.14-3.36-4.31,0-7.36,3.09-7.36,7.39.02-.96-.68-.07-1.1.12Z"/>
    <path class="cls-10" d="M392.78,75.89c1.54-1,3.38-1.58,5.35-1.58,5.45,0,9.88,4.42,9.88,9.87,0,1.91-.55,3.7-1.49,5.21.94-1.51,1.76-3.52,1.76-5.43,0-5.45-4.42-9.87-9.87-9.87-1.97,0-4.08.8-5.63,1.8"/>
    <path class="cls-18" d="M392.78,75.89c1.54-1,3.38-1.58,5.35-1.58,5.45,0,9.88,4.42,9.88,9.87,0,1.91-.55,3.7-1.49,5.21.94-1.51,1.76-3.52,1.76-5.43,0-5.45-4.42-9.87-9.87-9.87-1.97,0-4.08.8-5.63,1.8Z"/>
    <path class="cls-10" d="M406.1,90.02c-1.8,2.45-4.7,4.04-7.97,4.04-5.45,0-9.87-4.42-9.87-9.87,0-2.02.61-3.9,1.65-5.46-1.04,1.56-1.79,3.7-1.79,5.72,0,5.45,4.42,9.87,9.87,9.87,3.27,0,6.31-1.84,8.11-4.29"/>
    <path class="cls-18" d="M406.1,90.02c-1.8,2.45-4.7,4.04-7.97,4.04-5.45,0-9.87-4.42-9.87-9.87,0-2.02.61-3.9,1.65-5.46-1.04,1.56-1.79,3.7-1.79,5.72,0,5.45,4.42,9.87,9.87,9.87,3.27,0,6.31-1.84,8.11-4.29Z"/>
    <path class="cls-10" d="M405.65,78.19c1.31,1.64,2.1,3.73,2.1,6,0,1.26-.24,2.45-.67,3.55.43-1.1.63-3.84.37-4.93-.13-.89-.58-2.84-1.8-4.62"/>
    <path class="cls-18" d="M405.65,78.19c1.31,1.64,2.1,3.73,2.1,6,0,1.26-.24,2.45-.67,3.55.43-1.1.63-3.84.37-4.93-.13-.89-.58-2.84-1.8-4.62Z"/>
    <path class="cls-10" d="M396.73,73.69c.46-.1.93-.15,1.4-.15,5.89,0,10.66,4.77,10.66,10.66s-4.77,10.65-10.66,10.65-10.65-4.77-10.65-10.65c0-1.79.44-3.47,1.21-4.95-1.7,2.55-1.62,4.23-1.62,6.02,0,.47-.49-1.69-.49-1.23,0,7.35,5.91,11.82,11.15,11.89-2.84.35-5.03-.55-4.31-.22,10.32,4.7,18.24-5.94,16.64-10.29-.35-.94.03,1.44-.86,2.01,0,0,.17-.94.22-1.44.19-1.17.03-2.56-.3-3.86-.24-.95-.06,1.5-.12.86-.55-6.16-6.54-9.79-10.88-9.44-.45,0-.92.06-1.4.15"/>
    <path class="cls-18" d="M396.73,73.69c.46-.1.93-.15,1.4-.15,5.89,0,10.66,4.77,10.66,10.66s-4.77,10.65-10.66,10.65-10.65-4.77-10.65-10.65c0-1.79.44-3.47,1.21-4.95-1.7,2.55-1.62,4.23-1.62,6.02,0,.47-.49-1.69-.49-1.23,0,7.35,5.91,11.82,11.15,11.89-2.84.35-5.03-.55-4.31-.22,10.32,4.7,18.24-5.94,16.64-10.29-.35-.94.03,1.44-.86,2.01,0,0,.17-.94.22-1.44.19-1.17.03-2.56-.3-3.86-.24-.95-.06,1.5-.12.86-.55-6.16-6.54-9.79-10.88-9.44-.45,0-.92.06-1.4.15Z"/>
    <path class="cls-24" d="M404.34,84.19c0-3.4-2.78-6.17-6.21-6.17s-6.21,2.76-6.21,6.17,2.78,6.17,6.21,6.17,6.21-2.76,6.21-6.17Z"/>
    <path class="cls-1" d="M390.78,84.22c0-4.02,3.26-7.28,7.28-7.28s7.28,3.26,7.28,7.28-3.26,7.29-7.28,7.29-7.28-3.26-7.28-7.29"/>
    <path class="cls-21" d="M390.78,84.22c0-4.02,3.26-7.28,7.28-7.28s7.28,3.26,7.28,7.28-3.26,7.29-7.28,7.29-7.28-3.26-7.28-7.29Z"/>
    <path class="cls-10" d="M403.72,84.19c0-3.09-2.5-5.59-5.59-5.59s-5.59,2.5-5.59,5.59,2.51,5.59,5.59,5.59,5.59-2.5,5.59-5.59"/>
    <path class="cls-21" d="M403.72,84.19c0-3.09-2.5-5.59-5.59-5.59s-5.59,2.5-5.59,5.59,2.51,5.59,5.59,5.59,5.59-2.5,5.59-5.59Z"/>
    <path class="cls-9" d="M395.43,79.55c.77-.44,1.2-.81,1.2-1.07v-.43c.48-.12.98-.18,1.49-.18s1.01.06,1.49.18v.43c0,.26.43.63,1.2,1.07.77.45,1.31.64,1.53.51.22-.13.38-.22.38-.22.34.36.64.76.9,1.2.26.45.45.9.59,1.38,0,0-.15.09-.38.22-.22.13-.33.69-.33,1.58,0,.88.1,1.45.33,1.58.22.13.38.22.38.22-.14.47-.33.93-.59,1.38-.26.44-.56.84-.9,1.2,0,0-.15-.09-.38-.22-.22-.13-.76.06-1.53.5-.77.44-1.2.82-1.2,1.07v.43c-.48.11-.98.18-1.49.18s-1.01-.06-1.49-.18v-.43c0-.26-.43-.63-1.2-1.07-.76-.45-1.3-.63-1.53-.5-.22.13-.38.22-.38.22-.34-.36-.64-.76-.9-1.2-.26-.44-.45-.9-.59-1.38,0,0,.15-.09.38-.22.22-.13.34-.69.33-1.58,0-.89-.1-1.45-.33-1.57-.22-.13-.38-.22-.38-.22.14-.47.34-.93.59-1.38.25-.44.56-.85.9-1.2,0,0,.15.09.38.22.22.13.76-.06,1.53-.5"/>
    <path class="cls-20" d="M395.43,79.55c.77-.44,1.2-.81,1.2-1.07v-.43c.48-.12.98-.18,1.49-.18s1.01.06,1.49.18v.43c0,.26.43.63,1.2,1.07.77.45,1.31.64,1.53.51.22-.13.38-.22.38-.22.34.36.64.76.9,1.2.26.45.45.9.59,1.38,0,0-.15.09-.38.22-.22.13-.33.69-.33,1.58,0,.88.1,1.45.33,1.58.22.13.38.22.38.22-.14.47-.33.93-.59,1.38-.26.44-.56.84-.9,1.2,0,0-.15-.09-.38-.22-.22-.13-.76.06-1.53.5-.77.44-1.2.82-1.2,1.07v.43c-.48.11-.98.18-1.49.18s-1.01-.06-1.49-.18v-.43c0-.26-.43-.63-1.2-1.07-.76-.45-1.3-.63-1.53-.5-.22.13-.38.22-.38.22-.34-.36-.64-.76-.9-1.2-.26-.44-.45-.9-.59-1.38,0,0,.15-.09.38-.22.22-.13.34-.69.33-1.58,0-.89-.1-1.45-.33-1.57-.22-.13-.38-.22-.38-.22.14-.47.34-.93.59-1.38.25-.44.56-.85.9-1.2,0,0,.15.09.38.22.22.13.76-.06,1.53-.5Z"/>
    <path class="cls-20" d="M401.05,84.21c0-1.62-1.32-2.93-2.93-2.93s-2.93,1.31-2.93,2.93,1.31,2.93,2.93,2.93,2.93-1.31,2.93-2.93Z"/>
    <polygon class="cls-10" points="396.9 84.11 397.14 83.87 397.48 83.87 397.48 84.58 397.11 84.58 397.11 84.3 396.9 84.51 396.68 84.3 396.68 84.58 396.31 84.58 396.31 83.87 396.65 83.87 396.9 84.11"/>
    <polygon class="cls-25" points="396.9 84.11 397.14 83.87 397.48 83.87 397.48 84.58 397.11 84.58 397.11 84.3 396.9 84.51 396.68 84.3 396.68 84.58 396.31 84.58 396.31 83.87 396.65 83.87 396.9 84.11"/>
    <polygon class="cls-10" points="398.2 83.87 398.4 83.87 398.85 84.58 398.48 84.58 398.43 84.5 397.97 84.5 397.92 84.58 397.55 84.58 398.01 83.87 398.2 83.87"/>
    <polygon class="cls-25" points="398.2 83.87 398.4 83.87 398.85 84.58 398.48 84.58 398.43 84.5 397.97 84.5 397.92 84.58 397.55 84.58 398.01 83.87 398.2 83.87"/>
    <polygon class="cls-1" points="398.2 84.33 398.32 84.33 398.2 84.15 398.08 84.33 398.2 84.33"/>
    <polygon class="cls-17" points="398.2 84.33 398.32 84.33 398.2 84.15 398.08 84.33 398.2 84.33"/>
    <polygon class="cls-10" points="399.72 83.87 400.08 83.87 400.08 84.58 399.72 84.58 399.28 84.25 399.28 84.58 398.92 84.58 398.92 83.87 399.28 83.87 399.72 84.19 399.72 83.87"/>
    <polygon class="cls-25" points="399.72 83.87 400.08 83.87 400.08 84.58 399.72 84.58 399.28 84.25 399.28 84.58 398.92 84.58 398.92 83.87 399.28 83.87 399.72 84.19 399.72 83.87"/>
    <path class="cls-1" d="M279.84,84.29c0-7.02-5.69-12.71-12.71-12.71s-12.72,5.69-12.72,12.71,5.69,12.72,12.72,12.72,12.71-5.69,12.71-12.72"/>
    <path class="cls-22" d="M279.84,84.29c0-7.02-5.69-12.71-12.71-12.71s-12.72,5.69-12.72,12.71,5.69,12.72,12.72,12.72,12.71-5.69,12.71-12.72Z"/>
    <line class="cls-23" x1="279.13" y1="84.29" x2="279.83" y2="84.29"/>
    <line class="cls-23" x1="278.76" y1="83.37" x2="279.8" y2="83.29"/>
    <line class="cls-16" x1="278.98" y1="82.41" x2="279.68" y2="82.3"/>
    <line class="cls-16" x1="278.54" y1="80.57" x2="279.21" y2="80.36"/>
    <line class="cls-16" x1="277.82" y1="78.83" x2="278.45" y2="78.51"/>
    <line class="cls-16" x1="276.84" y1="77.22" x2="277.41" y2="76.81"/>
    <line class="cls-16" x1="275.61" y1="75.79" x2="276.11" y2="75.29"/>
    <line class="cls-16" x1="274.18" y1="74.56" x2="274.59" y2="74"/>
    <line class="cls-16" x1="272.57" y1="73.58" x2="272.89" y2="72.95"/>
    <line class="cls-16" x1="270.83" y1="72.86" x2="271.05" y2="72.19"/>
    <line class="cls-16" x1="269" y1="72.42" x2="269.11" y2="71.72"/>
    <line class="cls-16" x1="267.12" y1="72.27" x2="267.12" y2="71.57"/>
    <line class="cls-16" x1="265.24" y1="72.42" x2="265.13" y2="71.72"/>
    <line class="cls-16" x1="263.41" y1="72.86" x2="263.19" y2="72.19"/>
    <line class="cls-16" x1="261.67" y1="73.58" x2="261.35" y2="72.95"/>
    <line class="cls-16" x1="260.06" y1="74.56" x2="259.65" y2="74"/>
    <line class="cls-16" x1="258.63" y1="75.79" x2="258.13" y2="75.29"/>
    <line class="cls-16" x1="257.4" y1="77.22" x2="256.83" y2="76.81"/>
    <line class="cls-16" x1="256.42" y1="78.83" x2="255.8" y2="78.51"/>
    <line class="cls-16" x1="255.7" y1="80.57" x2="255.03" y2="80.36"/>
    <line class="cls-16" x1="255.26" y1="82.41" x2="254.56" y2="82.3"/>
    <line class="cls-16" x1="255.11" y1="84.29" x2="254.41" y2="84.29"/>
    <line class="cls-16" x1="255.26" y1="86.17" x2="254.56" y2="86.28"/>
    <line class="cls-16" x1="255.7" y1="88" x2="255.03" y2="88.21"/>
    <line class="cls-16" x1="256.42" y1="89.74" x2="255.8" y2="90.06"/>
    <line class="cls-16" x1="257.4" y1="91.35" x2="256.83" y2="91.76"/>
    <line class="cls-16" x1="258.63" y1="92.78" x2="258.13" y2="93.28"/>
    <line class="cls-16" x1="260.06" y1="94.01" x2="259.65" y2="94.57"/>
    <line class="cls-16" x1="261.67" y1="94.99" x2="261.35" y2="95.62"/>
    <line class="cls-16" x1="263.41" y1="95.71" x2="263.19" y2="96.38"/>
    <line class="cls-16" x1="265.24" y1="96.15" x2="265.13" y2="96.85"/>
    <line class="cls-16" x1="267.12" y1="96.3" x2="267.12" y2="97"/>
    <line class="cls-16" x1="269" y1="96.15" x2="269.11" y2="96.85"/>
    <line class="cls-16" x1="270.83" y1="95.71" x2="271.05" y2="96.38"/>
    <line class="cls-16" x1="272.57" y1="94.99" x2="272.89" y2="95.62"/>
    <line class="cls-16" x1="274.18" y1="94.01" x2="274.59" y2="94.57"/>
    <line class="cls-16" x1="275.61" y1="92.78" x2="276.11" y2="93.28"/>
    <line class="cls-16" x1="276.84" y1="91.35" x2="277.41" y2="91.76"/>
    <line class="cls-16" x1="277.82" y1="89.74" x2="278.45" y2="90.06"/>
    <line class="cls-16" x1="278.54" y1="88" x2="279.21" y2="88.21"/>
    <line class="cls-16" x1="278.99" y1="86.17" x2="279.68" y2="86.28"/>
    <line class="cls-16" x1="278.47" y1="81.56" x2="279.49" y2="81.32"/>
    <line class="cls-16" x1="277.91" y1="79.82" x2="278.87" y2="79.42"/>
    <line class="cls-16" x1="277.07" y1="78.19" x2="277.96" y2="77.64"/>
    <line class="cls-16" x1="276" y1="76.71" x2="276.79" y2="76.03"/>
    <line class="cls-16" x1="274.7" y1="75.41" x2="275.38" y2="74.62"/>
    <line class="cls-16" x1="273.22" y1="74.34" x2="273.76" y2="73.45"/>
    <line class="cls-16" x1="271.59" y1="73.5" x2="271.99" y2="72.54"/>
    <line class="cls-16" x1="269.85" y1="72.94" x2="270.09" y2="71.92"/>
    <line class="cls-16" x1="268.04" y1="72.65" x2="268.12" y2="71.61"/>
    <line class="cls-16" x1="266.2" y1="72.65" x2="266.12" y2="71.61"/>
    <line class="cls-16" x1="264.4" y1="72.94" x2="264.15" y2="71.92"/>
    <line class="cls-16" x1="262.66" y1="73.5" x2="262.25" y2="72.54"/>
    <line class="cls-16" x1="261.02" y1="74.34" x2="260.48" y2="73.45"/>
    <line class="cls-16" x1="259.54" y1="75.41" x2="258.86" y2="74.62"/>
    <line class="cls-16" x1="258.25" y1="76.71" x2="257.45" y2="76.03"/>
    <line class="cls-16" x1="257.17" y1="78.19" x2="256.28" y2="77.65"/>
    <line class="cls-16" x1="256.34" y1="79.82" x2="255.37" y2="79.42"/>
    <line class="cls-16" x1="255.77" y1="81.56" x2="254.76" y2="81.32"/>
    <line class="cls-16" x1="255.48" y1="83.37" x2="254.45" y2="83.29"/>
    <line class="cls-16" x1="255.48" y1="85.2" x2="254.45" y2="85.29"/>
    <line class="cls-16" x1="255.77" y1="87.01" x2="254.76" y2="87.26"/>
    <line class="cls-16" x1="256.34" y1="88.76" x2="255.37" y2="89.15"/>
    <line class="cls-16" x1="257.17" y1="90.39" x2="256.28" y2="90.93"/>
    <line class="cls-16" x1="258.25" y1="91.87" x2="257.45" y2="92.55"/>
    <line class="cls-16" x1="259.54" y1="93.16" x2="258.86" y2="93.96"/>
    <line class="cls-16" x1="261.02" y1="94.24" x2="260.48" y2="95.13"/>
    <line class="cls-16" x1="262.66" y1="95.07" x2="262.25" y2="96.04"/>
    <line class="cls-16" x1="264.4" y1="95.64" x2="264.15" y2="96.65"/>
    <line class="cls-16" x1="266.2" y1="95.93" x2="266.12" y2="96.97"/>
    <line class="cls-16" x1="268.04" y1="95.93" x2="268.12" y2="96.97"/>
    <line class="cls-16" x1="269.85" y1="95.64" x2="270.09" y2="96.65"/>
    <line class="cls-16" x1="271.59" y1="95.07" x2="271.99" y2="96.04"/>
    <line class="cls-16" x1="273.22" y1="94.24" x2="273.76" y2="95.13"/>
    <line class="cls-16" x1="274.7" y1="93.16" x2="275.38" y2="93.96"/>
    <line class="cls-16" x1="276" y1="91.87" x2="276.79" y2="92.55"/>
    <line class="cls-16" x1="277.07" y1="90.39" x2="277.96" y2="90.93"/>
    <line class="cls-16" x1="277.91" y1="88.76" x2="278.87" y2="89.16"/>
    <line class="cls-16" x1="278.47" y1="87.02" x2="279.48" y2="87.26"/>
    <line class="cls-16" x1="278.76" y1="85.21" x2="279.79" y2="85.29"/>
    <path class="cls-10" d="M258.55,84.45c-.19,0-.66-.26-.79-.75-.41,5.57,4.16,10.02,9.39,10.02,2.05,0,3.98-.69,5.53-1.79-1.63,1.21-3.55,1.81-5.66,1.81-5.38,0-9.64-4.07-9.64-9.45s4.36-9.74,9.74-9.74c.57,0,1.15.03,1.66.14,1.53.21,4.06,1.58,5.02,3.08.94,1.38-.66,2.54-.66,2.54-1.16-1.78-3.43-3.36-6.14-3.36-4.31,0-7.36,3.09-7.36,7.39.02-.96-.68-.07-1.09.12"/>
    <path class="cls-18" d="M258.55,84.45c-.19,0-.66-.26-.79-.75-.41,5.57,4.16,10.02,9.39,10.02,2.05,0,3.98-.69,5.53-1.79-1.63,1.21-3.55,1.81-5.66,1.81-5.38,0-9.64-4.07-9.64-9.45s4.36-9.74,9.74-9.74c.57,0,1.15.03,1.66.14,1.53.21,4.06,1.58,5.02,3.08.94,1.38-.66,2.54-.66,2.54-1.16-1.78-3.43-3.36-6.14-3.36-4.31,0-7.36,3.09-7.36,7.39.02-.96-.68-.07-1.09.12Z"/>
    <path class="cls-10" d="M261.72,75.89c1.54-1,3.38-1.58,5.35-1.58,5.45,0,9.88,4.42,9.88,9.87,0,1.91-.55,3.7-1.49,5.21.94-1.51,1.75-3.52,1.75-5.43,0-5.45-4.42-9.87-9.87-9.87-1.97,0-4.08.8-5.63,1.8"/>
    <path class="cls-18" d="M261.72,75.89c1.54-1,3.38-1.58,5.35-1.58,5.45,0,9.88,4.42,9.88,9.87,0,1.91-.55,3.7-1.49,5.21.94-1.51,1.75-3.52,1.75-5.43,0-5.45-4.42-9.87-9.87-9.87-1.97,0-4.08.8-5.63,1.8Z"/>
    <path class="cls-10" d="M275.04,90.02c-1.8,2.45-4.7,4.04-7.97,4.04-5.45,0-9.87-4.42-9.87-9.87,0-2.02.61-3.9,1.65-5.46-1.04,1.56-1.79,3.7-1.79,5.72,0,5.45,4.42,9.87,9.87,9.87,3.27,0,6.31-1.84,8.11-4.29"/>
    <path class="cls-18" d="M275.04,90.02c-1.8,2.45-4.7,4.04-7.97,4.04-5.45,0-9.87-4.42-9.87-9.87,0-2.02.61-3.9,1.65-5.46-1.04,1.56-1.79,3.7-1.79,5.72,0,5.45,4.42,9.87,9.87,9.87,3.27,0,6.31-1.84,8.11-4.29Z"/>
    <path class="cls-10" d="M274.59,78.19c1.31,1.64,2.1,3.73,2.1,6,0,1.26-.24,2.45-.67,3.55.43-1.1.63-3.84.37-4.93-.13-.89-.58-2.84-1.8-4.62"/>
    <path class="cls-18" d="M274.59,78.19c1.31,1.64,2.1,3.73,2.1,6,0,1.26-.24,2.45-.67,3.55.43-1.1.63-3.84.37-4.93-.13-.89-.58-2.84-1.8-4.62Z"/>
    <path class="cls-10" d="M265.67,73.69c.46-.1.93-.15,1.4-.15,5.88,0,10.66,4.77,10.66,10.66s-4.77,10.65-10.66,10.65-10.65-4.77-10.65-10.65c0-1.79.44-3.47,1.22-4.95-1.7,2.55-1.62,4.23-1.62,6.02,0,.47-.49-1.69-.49-1.23,0,7.35,5.91,11.82,11.15,11.89-2.84.35-5.03-.55-4.31-.22,10.32,4.7,18.24-5.94,16.64-10.29-.35-.94.03,1.44-.86,2.01,0,0,.17-.94.22-1.44.19-1.17.03-2.56-.3-3.86-.24-.95-.06,1.5-.12.86-.54-6.16-6.54-9.79-10.88-9.44-.45,0-.93.06-1.4.15"/>
    <path class="cls-18" d="M265.67,73.69c.46-.1.93-.15,1.4-.15,5.88,0,10.66,4.77,10.66,10.66s-4.77,10.65-10.66,10.65-10.65-4.77-10.65-10.65c0-1.79.44-3.47,1.22-4.95-1.7,2.55-1.62,4.23-1.62,6.02,0,.47-.49-1.69-.49-1.23,0,7.35,5.91,11.82,11.15,11.89-2.84.35-5.03-.55-4.31-.22,10.32,4.7,18.24-5.94,16.64-10.29-.35-.94.03,1.44-.86,2.01,0,0,.17-.94.22-1.44.19-1.17.03-2.56-.3-3.86-.24-.95-.06,1.5-.12.86-.54-6.16-6.54-9.79-10.88-9.44-.45,0-.93.06-1.4.15Z"/>
    <path class="cls-24" d="M273.29,84.19c0-3.4-2.78-6.17-6.21-6.17s-6.21,2.76-6.21,6.17,2.78,6.17,6.21,6.17,6.21-2.76,6.21-6.17Z"/>
    <path class="cls-1" d="M259.72,84.22c0-4.02,3.26-7.28,7.28-7.28s7.28,3.26,7.28,7.28-3.26,7.29-7.28,7.29-7.28-3.26-7.28-7.29"/>
    <path class="cls-21" d="M259.72,84.22c0-4.02,3.26-7.28,7.28-7.28s7.28,3.26,7.28,7.28-3.26,7.29-7.28,7.29-7.28-3.26-7.28-7.29Z"/>
    <path class="cls-10" d="M272.67,84.19c0-3.09-2.5-5.59-5.59-5.59s-5.59,2.5-5.59,5.59,2.51,5.59,5.59,5.59,5.59-2.5,5.59-5.59"/>
    <path class="cls-21" d="M272.67,84.19c0-3.09-2.5-5.59-5.59-5.59s-5.59,2.5-5.59,5.59,2.51,5.59,5.59,5.59,5.59-2.5,5.59-5.59Z"/>
    <path class="cls-9" d="M264.37,79.55c.77-.44,1.2-.81,1.2-1.07v-.43c.48-.12.98-.18,1.49-.18s1.01.06,1.49.18v.43c0,.26.43.63,1.2,1.07.76.45,1.31.64,1.53.51.22-.13.38-.22.38-.22.34.36.64.76.9,1.2.26.45.45.9.59,1.38,0,0-.15.09-.38.22-.22.13-.33.69-.33,1.58,0,.88.1,1.45.33,1.58.22.13.38.22.38.22-.14.47-.34.93-.59,1.38-.25.44-.56.84-.9,1.2,0,0-.15-.09-.38-.22-.22-.13-.76.06-1.53.5-.77.44-1.2.82-1.2,1.07v.43c-.48.11-.98.18-1.49.18s-1.01-.06-1.49-.18v-.43c0-.26-.43-.63-1.2-1.07-.76-.45-1.3-.63-1.53-.5-.22.13-.38.22-.38.22-.34-.36-.64-.76-.9-1.2-.26-.44-.45-.9-.59-1.38,0,0,.15-.09.38-.22.22-.13.33-.69.33-1.58,0-.89-.11-1.45-.33-1.57-.22-.13-.38-.22-.38-.22.14-.47.34-.93.59-1.38.26-.44.56-.85.9-1.2,0,0,.15.09.38.22.22.13.77-.06,1.53-.5"/>
    <path class="cls-20" d="M264.37,79.55c.77-.44,1.2-.81,1.2-1.07v-.43c.48-.12.98-.18,1.49-.18s1.01.06,1.49.18v.43c0,.26.43.63,1.2,1.07.76.45,1.31.64,1.53.51.22-.13.38-.22.38-.22.34.36.64.76.9,1.2.26.45.45.9.59,1.38,0,0-.15.09-.38.22-.22.13-.33.69-.33,1.58,0,.88.1,1.45.33,1.58.22.13.38.22.38.22-.14.47-.34.93-.59,1.38-.25.44-.56.84-.9,1.2,0,0-.15-.09-.38-.22-.22-.13-.76.06-1.53.5-.77.44-1.2.82-1.2,1.07v.43c-.48.11-.98.18-1.49.18s-1.01-.06-1.49-.18v-.43c0-.26-.43-.63-1.2-1.07-.76-.45-1.3-.63-1.53-.5-.22.13-.38.22-.38.22-.34-.36-.64-.76-.9-1.2-.26-.44-.45-.9-.59-1.38,0,0,.15-.09.38-.22.22-.13.33-.69.33-1.58,0-.89-.11-1.45-.33-1.57-.22-.13-.38-.22-.38-.22.14-.47.34-.93.59-1.38.26-.44.56-.85.9-1.2,0,0,.15.09.38.22.22.13.77-.06,1.53-.5Z"/>
    <path class="cls-20" d="M269.99,84.21c0-1.62-1.31-2.93-2.93-2.93s-2.93,1.31-2.93,2.93,1.31,2.93,2.93,2.93,2.93-1.31,2.93-2.93Z"/>
    <polygon class="cls-10" points="265.84 84.11 266.08 83.87 266.42 83.87 266.42 84.58 266.05 84.58 266.05 84.3 265.84 84.51 265.62 84.3 265.62 84.58 265.25 84.58 265.25 83.87 265.59 83.87 265.84 84.11"/>
    <polygon class="cls-25" points="265.84 84.11 266.08 83.87 266.42 83.87 266.42 84.58 266.05 84.58 266.05 84.3 265.84 84.51 265.62 84.3 265.62 84.58 265.25 84.58 265.25 83.87 265.59 83.87 265.84 84.11"/>
    <polygon class="cls-10" points="267.14 83.87 267.34 83.87 267.8 84.58 267.42 84.58 267.37 84.5 266.92 84.5 266.86 84.58 266.49 84.58 266.95 83.87 267.14 83.87"/>
    <polygon class="cls-25" points="267.14 83.87 267.34 83.87 267.8 84.58 267.42 84.58 267.37 84.5 266.92 84.5 266.86 84.58 266.49 84.58 266.95 83.87 267.14 83.87"/>
    <polygon class="cls-1" points="267.14 84.33 267.26 84.33 267.14 84.15 267.02 84.33 267.14 84.33"/>
    <polygon class="cls-17" points="267.14 84.33 267.26 84.33 267.14 84.15 267.02 84.33 267.14 84.33"/>
    <polygon class="cls-10" points="268.66 83.87 269.02 83.87 269.02 84.58 268.66 84.58 268.23 84.25 268.23 84.58 267.86 84.58 267.86 83.87 268.22 83.87 268.66 84.19 268.66 83.87"/>
    <polygon class="cls-25" points="268.66 83.87 269.02 83.87 269.02 84.58 268.66 84.58 268.23 84.25 268.23 84.58 267.86 84.58 267.86 83.87 268.22 83.87 268.66 84.19 268.66 83.87"/>
    <path class="cls-15" d="M242.48,28.34h194.18c7.89,0,11.93.75,17.36,1.78"/>
    <line class="cls-15" x1="24.54" y1="28.34" x2="202.37" y2="28.34"/>
    <polyline class="cls-15" points="309.75 28.34 309.75 88.91 344.88 88.91 344.88 28.34"/>
    <line class="cls-15" x1="327.31" y1="28.34" x2="327.31" y2="88.91"/>
    <path class="cls-1" d="M355.49,64.04h9.7v-30.79h-15.86l-1.21,1.13v24.87s-.05.23.32.3c.36.07,3.59.5,4.56.76.98.26,1.6.7,2.21,3.47.05.24.28.26.28.26"/>
    <path class="cls-26" d="M355.49,64.04h9.7v-30.79h-15.86l-1.21,1.13v24.87s-.05.23.32.3c.36.07,3.59.5,4.56.76.98.26,1.6.7,2.21,3.47.05.24.28.26.28.26Z"/>
    <path class="cls-1" d="M417.4,59.26s.05.23-.31.3c-.36.07-3.6.5-4.56.76-.98.26-1.6.7-2.21,3.47-.05.24-.29.26-.29.26h-1.23c-1.24-.6-2.93-1.01-5.41-1.01h-10.41c-2.47,0-4.17.4-5.41,1.01h-18.82v-21.38h48.66v16.59ZM414.55,34.09h-32.02v5.42h32.02v-5.42ZM381.16,34.09h-11.75v5.42h11.75v-5.42Z"/>
    <rect class="cls-26" x="369.41" y="34.09" width="11.75" height="5.42"/>
    <rect class="cls-26" x="382.53" y="34.09" width="32.02" height="5.42"/>
    <path class="cls-26" d="M417.4,59.26s.05.23-.31.3c-.36.07-3.6.5-4.56.76-.98.26-1.6.7-2.21,3.47-.05.24-.29.26-.29.26h-1.23c-1.24-.6-2.93-1.01-5.41-1.01h-10.41c-2.47,0-4.17.4-5.41,1.01h-18.82v-21.38h48.66v16.59Z"/>
    <path class="cls-1" d="M286.24,64.04h-8.69c-1.24-.6-2.93-1.01-5.41-1.01h-10.42c-2.47,0-4.17.4-5.41,1.01h-7.75v-30.79h37.67v30.79Z"/>
    <path class="cls-26" d="M286.24,64.04h-8.69c-1.24-.6-2.93-1.01-5.41-1.01h-10.42c-2.47,0-4.17.4-5.41,1.01h-7.75v-30.79h37.67v30.79Z"/>
    <path class="cls-15" d="M345.28,61.28h5.79c1.73,0,2.57,1.34,2.57,2.51v1.9"/>
    <path class="cls-15" d="M352.48,63.74c0,.67-.54,1.21-1.21,1.21s-1.21-.54-1.21-1.21.54-1.21,1.21-1.21,1.21.54,1.21,1.21Z"/>
    <path class="cls-15" d="M420.66,61.28h-5.79c-1.73,0-2.57,1.34-2.57,2.51v1.9"/>
    <path class="cls-15" d="M413.46,63.74c0,.67.55,1.21,1.21,1.21s1.21-.54,1.21-1.21-.54-1.21-1.21-1.21-1.21.54-1.21,1.21Z"/>
  </g>
  <g class="cls-45">
    <rect class="cls-9" x="311.94" y="38.72" width="12.52" height="44.9"/>
  </g>
  <g class="cls-30">
    <path class="cls-15" d="M311.94,59.72c0,.28.09.58.56.58,1.8,0,3.83-.1,4.8.82.54.5.56,1.21.56,2.08v-.17c0,.87-.02,1.58-.56,2.08-.98.92-3,.82-4.8.82-.46,0-.56.3-.56.58v16.61c0,.27.22.48.48.48h11.55c.27,0,.48-.22.48-.48v-43.93c0-.27-.22-.48-.48-.48h-11.55c-.27,0-.48.22-.48.48v20.52Z"/>
    <path class="cls-15" d="M316.63,64c0,.41-.33.74-.74.74s-.74-.33-.74-.74v-1.76c0-.41.33-.74.74-.74s.74.33.74.74v1.76Z"/>
    <path class="cls-15" d="M313.96,63.62c0,.62-.36,1.12-.81,1.12s-.81-.5-.81-1.12.36-1.12.81-1.12.81.5.81,1.12Z"/>
  </g>
  <line class="cls-15" x1="309.75" y1="34.41" x2="344.88" y2="34.41"/>
  <line class="cls-15" x1="309.75" y1="35.65" x2="344.88" y2="35.65"/>
  <line class="cls-15" x1="310.86" y1="35.65" x2="310.86" y2="87.53"/>
  <line class="cls-15" x1="325.32" y1="37.39" x2="325.32" y2="87.53"/>
  <line class="cls-15" x1="310.86" y1="37.39" x2="327.31" y2="37.39"/>
  <line class="cls-15" x1="309.86" y1="87.53" x2="327.32" y2="87.53"/>
  <line class="cls-15" x1="310.86" y1="85.57" x2="325.32" y2="85.57"/>
  <g class="cls-31">
    <rect class="cls-9" x="330.17" y="38.72" width="12.52" height="44.9"/>
  </g>
  <g class="cls-41">
    <path class="cls-15" d="M342.69,59.72c0,.28-.09.58-.56.58-1.8,0-3.83-.1-4.8.82-.54.5-.56,1.21-.56,2.08v-.17c0,.87.02,1.58.56,2.08.98.92,3,.82,4.8.82.46,0,.56.3.56.58v16.61c0,.27-.22.48-.48.48h-11.55c-.27,0-.48-.22-.48-.48v-43.93c0-.27.22-.48.48-.48h11.55c.27,0,.48.22.48.48v20.52Z"/>
    <path class="cls-15" d="M338,64c0,.41.33.74.74.74s.74-.33.74-.74v-1.76c0-.41-.33-.74-.74-.74s-.74.33-.74.74v1.76Z"/>
    <path class="cls-15" d="M340.67,63.62c0,.62.36,1.12.81,1.12s.81-.5.81-1.12-.36-1.12-.81-1.12-.81.5-.81,1.12Z"/>
  </g>
  <line class="cls-15" x1="343.77" y1="35.65" x2="343.77" y2="87.53"/>
  <line class="cls-15" x1="329.3" y1="37.39" x2="329.3" y2="87.53"/>
  <line class="cls-15" x1="343.77" y1="37.39" x2="327.32" y2="37.39"/>
  <line class="cls-15" x1="344.77" y1="87.53" x2="327.31" y2="87.53"/>
  <line class="cls-15" x1="343.77" y1="85.57" x2="329.3" y2="85.57"/>
  <line class="cls-15" x1="438.22" y1="34.41" x2="438.22" y2="89.8"/>
  <g class="cls-37">
    <rect class="cls-9" x="422.85" y="38.72" width="12.52" height="44.9"/>
  </g>
  <g class="cls-46">
    <path class="cls-15" d="M422.85,59.72c0,.28.09.58.56.58,1.8,0,3.83-.1,4.8.82.54.5.56,1.21.56,2.08v-.17c0,.87-.02,1.58-.56,2.08-.98.92-3,.82-4.8.82-.46,0-.56.3-.56.58v16.61c0,.27.22.48.48.48h11.55c.27,0,.48-.22.48-.48v-43.93c0-.27-.22-.48-.48-.48h-11.55c-.27,0-.48.22-.48.48v20.52Z"/>
    <path class="cls-15" d="M427.54,64c0,.41-.33.74-.74.74s-.74-.33-.74-.74v-1.76c0-.41.33-.74.74-.74s.74.33.74.74v1.76Z"/>
    <path class="cls-15" d="M424.87,63.62c0,.62-.36,1.12-.81,1.12s-.81-.5-.81-1.12.36-1.12.81-1.12.81.5.81,1.12Z"/>
  </g>
  <line class="cls-15" x1="420.65" y1="34.41" x2="455.79" y2="34.41"/>
  <line class="cls-15" x1="420.65" y1="35.65" x2="455.79" y2="35.65"/>
  <line class="cls-15" x1="421.77" y1="35.65" x2="421.77" y2="87.53"/>
  <line class="cls-15" x1="436.23" y1="37.39" x2="436.23" y2="87.53"/>
  <line class="cls-15" x1="421.77" y1="37.39" x2="438.22" y2="37.39"/>
  <line class="cls-15" x1="421.77" y1="85.57" x2="436.23" y2="85.57"/>
  <g class="cls-13">
    <rect class="cls-9" x="441.08" y="38.72" width="12.52" height="44.9"/>
  </g>
  <g class="cls-35">
    <path class="cls-15" d="M453.59,59.72c0,.28-.09.58-.56.58-1.8,0-3.83-.1-4.8.82-.54.5-.56,1.21-.56,2.08v-.17c0,.87.02,1.58.56,2.08.98.92,3,.82,4.8.82.47,0,.56.3.56.58v16.61c0,.27-.22.48-.48.48h-11.55c-.27,0-.48-.22-.48-.48v-43.93c0-.27.22-.48.48-.48h11.55c.27,0,.48.22.48.48v20.52Z"/>
    <path class="cls-15" d="M448.91,64c0,.41.33.74.74.74s.74-.33.74-.74v-1.76c0-.41-.33-.74-.74-.74s-.74.33-.74.74v1.76Z"/>
    <path class="cls-15" d="M451.57,63.62c0,.62.36,1.12.81,1.12s.81-.5.81-1.12-.36-1.12-.81-1.12-.81.5-.81,1.12Z"/>
  </g>
  <line class="cls-15" x1="454.67" y1="35.65" x2="454.67" y2="87.53"/>
  <line class="cls-15" x1="440.21" y1="37.39" x2="440.21" y2="87.53"/>
  <line class="cls-15" x1="454.67" y1="37.39" x2="438.22" y2="37.39"/>
  <line class="cls-15" x1="454.67" y1="85.57" x2="440.21" y2="85.57"/>
  <line class="cls-15" x1="420.65" y1="77.02" x2="420.65" y2="28.34"/>
  <line class="cls-15" x1="455.79" y1="87.58" x2="455.79" y2="30.66"/>
  <line class="cls-15" x1="344.88" y1="65.7" x2="388.77" y2="65.7"/>
  <line class="cls-15" x1="407.58" y1="65.7" x2="420.66" y2="65.7"/>
  <line class="cls-26" x1="288.01" y1="28.34" x2="288.01" y2="89.8"/>
  <line class="cls-26" x1="366.97" y1="28.34" x2="366.97" y2="77.02"/>
  <line class="cls-15" x1="257.61" y1="65.7" x2="242.46" y2="65.7"/>
  <line class="cls-15" x1="202.37" y1="65.7" x2="191.58" y2="65.7"/>
  <line class="cls-15" x1="309.75" y1="65.7" x2="276.54" y2="65.7"/>
  <g class="cls-28">
    <path class="cls-15" d="M292.57,68.5h5.36c.49,0,.89.4.89.89v5.36c0,.49-.4.89-.89.89h-5.36c-.49,0-.89-.4-.89-.89v-5.36c0-.49.4-.89.89-.89Z"/>
    <path class="cls-15" d="M466.76,83.17c.04-3.01.03-6.15-.84-7.82-2.15-4.12-8.3-4.34-8.3-4.34"/>
    <path class="cls-6" d="M466.38,76.67c.41,1.74.41,4.16.38,6.51,0,0,.29,0,.37-.7.08-.7.16-2.26-.17-5.46-.02-.18-.42-.32-.42-.32l-.15-.03Z"/>
    <path class="cls-15" d="M466.38,76.67c.41,1.74.41,4.16.38,6.51,0,0,.29,0,.37-.7.08-.7.16-2.26-.17-5.46-.02-.18-.42-.32-.42-.32l-.15-.03Z"/>
    <path class="cls-15" d="M466.94,83.28c-.18-.11-.37.1-.56-.41"/>
    <path class="cls-11" d="M462.95,81.61c-1.2-.22-1.52-2.75-1.6-3.21-.08-.46-.17-.85.1-1.04.11-.08.62-.27,2.47.03,1.86.31,2.32.8,2.38,1.29l.02.15c.16,1.69.13,4.2.13,4.2-.43-1.02-.8-1.1-1.06-1.24-.27-.14-.42.17-.68.12-.27-.04-.66-.11-1.41-.24l-.34-.07Z"/>
    <path class="cls-15" d="M462.95,81.61c-1.2-.22-1.52-2.75-1.6-3.21-.08-.46-.17-.85.1-1.04.11-.08.62-.27,2.47.03,1.86.31,2.32.8,2.38,1.29l.02.15c.16,1.69.13,4.2.13,4.2-.43-1.02-.8-1.1-1.06-1.24-.27-.14-.42.17-.68.12-.27-.04-.66-.11-1.41-.24l-.34-.07Z"/>
    <path class="cls-15" d="M465.88,73.11c.32.96.49,1.99.65,3.59"/>
    <path class="cls-15" d="M466.45,84.96c-.51-.58-2.31-1.03-3.06-.67-.75.36-2.41,2.5-2.33,2.61,0,0,.17.07,1.42,0,1.26-.07,1.4-.15,1.63-.35.24-.19.64-.65.92-.67.28-.01,1.05,0,1.41,0s.49.13.49.13"/>
    <path class="cls-11" d="M462.44,86.93c.18-1.32-.07-1.76-.07-1.76-.69.74-1.37,1.66-1.31,1.73,0,0,.17.07,1.42,0"/>
    <path class="cls-15" d="M462.44,86.93c.18-1.32-.07-1.76-.07-1.76-.69.74-1.37,1.66-1.31,1.73,0,0,.17.07,1.42,0"/>
    <line class="cls-15" x1="455.79" y1="65.53" x2="465.75" y2="65.53"/>
    <path class="cls-15" d="M457.66,73.62s6.82.92,8.58,4.56"/>
    <path class="cls-15" d="M462.11,24.58s-1.01.83-1.58,1.47c-.57.64-1.04,1.49-.93,3.75"/>
    <path class="cls-8" d="M452.48,30.63c-.15-.27.33-1.14.78-1.14s8.36.38,11.26.63c2.9.25,4,.77,5.23,1.72,1.23.95,2.64,2.33,3.39,3.13.75.8,1.71,1.84,1.92,5.12.2,3.27.13,4.45-.41,4.84-.54.39-2.31.95-2.81-.39-.5-1.34-1.64-5.71-1.79-6.27-.15-.56-.56-.87-.56-.87,0,0-.86-.09-1.66-1.73-.8-1.64-.64-2.64-.64-2.64,0,0-1.03.39-3.21.24-2.18-.15-8.02-.6-8.99-.71-.97-.11-1.59-.23-2.51-1.92"/>
    <path class="cls-15" d="M452.48,30.63c-.15-.27.33-1.14.78-1.14s8.36.38,11.26.63c2.9.25,4,.77,5.23,1.72,1.23.95,2.64,2.33,3.39,3.13.75.8,1.71,1.84,1.92,5.12.2,3.27.13,4.45-.41,4.84-.54.39-2.31.95-2.81-.39-.5-1.34-1.64-5.71-1.79-6.27-.15-.56-.56-.87-.56-.87,0,0-.86-.09-1.66-1.73-.8-1.64-.64-2.64-.64-2.64,0,0-1.03.39-3.21.24-2.18-.15-8.02-.6-8.99-.71-.97-.11-1.59-.23-2.51-1.92Z"/>
    <path class="cls-15" d="M467.64,30.67s-.36.96-.44,2.34"/>
    <path class="cls-9" d="M467.43,31.4c-.07.31-.15,1.65.7,3.01.86,1.36,1.34,1.79,1.79,2.38.45.6.65.95.86,1.84,0,0,1.12,4.62,1.27,5.19.15.58.32,1.24,1.58,1.02,1.27-.21,1.06-1.14,1.05-1.79-.02-.95-.19-4.65-.73-5.84-.63-1.4-2.48-3.28-3.96-4.47-1.49-1.19-2.55-1.35-2.55-1.35"/>
    <path class="cls-15" d="M467.43,31.4c-.07.31-.15,1.65.7,3.01.86,1.36,1.34,1.79,1.79,2.38.45.6.65.95.86,1.84,0,0,1.12,4.62,1.27,5.19.15.58.32,1.24,1.58,1.02,1.27-.21,1.06-1.14,1.05-1.79-.02-.95-.19-4.65-.73-5.84-.63-1.4-2.48-3.28-3.96-4.47-1.49-1.19-2.55-1.35-2.55-1.35Z"/>
    <path class="cls-15" d="M467.21,32.77c-.01.56.98,2.8,2.61,4.99"/>
    <path class="cls-15" d="M452.45,30.56s11.21.76,12.51.84c1.31.08,2.36.51,2.36.51"/>
    <path class="cls-11" d="M461.19,28.17c.02.28-.12.51-.31.52-.19.01-.36-.2-.38-.48-.02-.28.12-.51.31-.52.19-.01.36.2.38.48"/>
    <path class="cls-15" d="M461.19,28.17c.02.28-.12.51-.31.52-.19.01-.36-.2-.38-.48-.02-.28.12-.51.31-.52.19-.01.36.2.38.48Z"/>
    <line class="cls-15" x1="437.04" y1="23.41" x2="437.04" y2="27.37"/>
    <line class="cls-15" x1="113.45" y1="23.41" x2="113.45" y2="27.37"/>
    <line class="cls-15" x1="366.97" y1="77.02" x2="366.97" y2="89.8"/>
    <line class="cls-15" x1="376.56" y1="76.93" x2="376.56" y2="89.8"/>
    <rect class="cls-15" x="355.08" y="83.41" width="3.17" height="1.17"/>
    <rect class="cls-15" x="283.97" y="83.41" width="3.17" height="1.17"/>
    <rect class="cls-15" x="247.31" y="83.41" width="3.17" height="1.17"/>
    <rect class="cls-15" x="377.78" y="83.41" width="3.17" height="1.17"/>
    <rect class="cls-15" x="414.89" y="83.41" width="3.17" height="1.17"/>
    <path class="cls-4" d="M413.25,84.24c0-8.54-6.75-15.07-15.07-15.07s-15.07,6.53-15.07,15.07c0-8.54,6.75-15.46,15.07-15.46s15.07,6.92,15.07,15.46"/>
    <path class="cls-18" d="M413.25,84.24c0-8.54-6.75-15.07-15.07-15.07s-15.07,6.53-15.07,15.07c0-8.54,6.75-15.46,15.07-15.46s15.07,6.92,15.07,15.46Z"/>
    <path class="cls-4" d="M282.21,84.24c0-8.54-6.75-15.07-15.07-15.07s-15.07,6.53-15.07,15.07c0-8.54,6.75-15.46,15.07-15.46s15.07,6.92,15.07,15.46"/>
    <path class="cls-18" d="M282.21,84.24c0-8.54-6.75-15.07-15.07-15.07s-15.07,6.53-15.07,15.07c0-8.54,6.75-15.46,15.07-15.46s15.07,6.92,15.07,15.46Z"/>
    <path class="cls-15" d="M457.08,32.78s.93,26.14.54,55.52"/>
    <path class="cls-15" d="M457.71,71.22c0,3,0,6.09-.02,9.24"/>
    <line class="cls-15" x1="182.66" y1="55.39" x2="191.58" y2="55.39"/>
    <polygon class="cls-1" points="38.52 33.25 25.58 33.25 25.58 58.94 39.72 58.94 39.72 34.38 38.52 33.25"/>
    <polygon class="cls-26" points="38.52 33.25 25.58 33.25 25.58 58.94 39.72 58.94 39.72 34.38 38.52 33.25"/>
    <polygon class="cls-1" points="137.77 33.25 122.27 33.25 122.27 58.94 138.98 58.94 138.98 34.38 137.77 33.25"/>
    <polygon class="cls-26" points="137.77 33.25 122.27 33.25 122.27 58.94 138.98 58.94 138.98 34.38 137.77 33.25"/>
    <polygon class="cls-1" points="82.64 33.25 118.73 33.25 118.73 58.94 81.43 58.94 81.43 34.38 82.64 33.25"/>
    <polygon class="cls-26" points="82.64 33.25 118.73 33.25 118.73 58.94 81.43 58.94 81.43 34.38 82.64 33.25"/>
    <path class="cls-15" d="M18.54,85.59c-1.16-.14-2.12-3.64-2.4-4.45-.28-.81-.54-1.27-.54-1.94v-3.97c0-.45.09-1.19.26-1.73.4-1.29.82-2.44,1.69-4.37.49-1.09.6-1.8.6-2.67v-7.06c0-.36-.13-.64-.46-.95-.33-.31-1.03-.94-1.23-1.12-.19-.18-.36-.29-.4-1.15-.04-.86.49-19.88.82-26.5.1-1.91,1.28-4.15,4.24-5.36"/>
    <path class="cls-1" d="M112.33,84.29c0-7.02-5.7-12.71-12.72-12.71s-12.72,5.69-12.72,12.71,5.69,12.72,12.72,12.72,12.72-5.69,12.72-12.72"/>
    <path class="cls-22" d="M112.33,84.29c0-7.02-5.7-12.71-12.72-12.71s-12.72,5.69-12.72,12.71,5.69,12.72,12.72,12.72,12.72-5.69,12.72-12.72Z"/>
    <line class="cls-23" x1="111.62" y1="84.29" x2="112.33" y2="84.29"/>
    <line class="cls-23" x1="111.24" y1="83.37" x2="112.28" y2="83.29"/>
    <line class="cls-16" x1="111.47" y1="82.41" x2="112.17" y2="82.3"/>
    <line class="cls-16" x1="111.03" y1="80.57" x2="111.7" y2="80.36"/>
    <line class="cls-16" x1="110.31" y1="78.83" x2="110.94" y2="78.51"/>
    <line class="cls-16" x1="109.33" y1="77.22" x2="109.89" y2="76.81"/>
    <line class="cls-16" x1="108.1" y1="75.79" x2="108.6" y2="75.29"/>
    <line class="cls-16" x1="106.67" y1="74.56" x2="107.08" y2="74"/>
    <line class="cls-16" x1="105.06" y1="73.58" x2="105.38" y2="72.95"/>
    <line class="cls-16" x1="103.32" y1="72.86" x2="103.54" y2="72.19"/>
    <line class="cls-16" x1="101.49" y1="72.42" x2="101.6" y2="71.72"/>
    <line class="cls-16" x1="99.61" y1="72.27" x2="99.61" y2="71.57"/>
    <line class="cls-16" x1="97.73" y1="72.42" x2="97.62" y2="71.72"/>
    <line class="cls-16" x1="95.9" y1="72.86" x2="95.68" y2="72.19"/>
    <line class="cls-16" x1="94.16" y1="73.58" x2="93.84" y2="72.95"/>
    <line class="cls-16" x1="92.55" y1="74.56" x2="92.14" y2="74"/>
    <line class="cls-16" x1="91.12" y1="75.79" x2="90.62" y2="75.29"/>
    <line class="cls-16" x1="89.89" y1="77.22" x2="89.32" y2="76.81"/>
    <line class="cls-16" x1="88.91" y1="78.83" x2="88.28" y2="78.51"/>
    <line class="cls-16" x1="88.18" y1="80.57" x2="87.52" y2="80.36"/>
    <line class="cls-16" x1="87.74" y1="82.41" x2="87.05" y2="82.3"/>
    <line class="cls-16" x1="87.6" y1="84.29" x2="86.89" y2="84.29"/>
    <line class="cls-16" x1="87.74" y1="86.17" x2="87.05" y2="86.28"/>
    <line class="cls-16" x1="88.18" y1="88" x2="87.52" y2="88.21"/>
    <line class="cls-16" x1="88.91" y1="89.74" x2="88.28" y2="90.06"/>
    <line class="cls-16" x1="89.89" y1="91.35" x2="89.32" y2="91.76"/>
    <line class="cls-16" x1="91.12" y1="92.78" x2="90.62" y2="93.28"/>
    <line class="cls-16" x1="92.55" y1="94.01" x2="92.14" y2="94.57"/>
    <line class="cls-16" x1="94.16" y1="94.99" x2="93.84" y2="95.62"/>
    <line class="cls-16" x1="95.9" y1="95.71" x2="95.68" y2="96.38"/>
    <line class="cls-16" x1="97.73" y1="96.15" x2="97.62" y2="96.85"/>
    <line class="cls-16" x1="99.61" y1="96.3" x2="99.61" y2="97"/>
    <line class="cls-16" x1="101.49" y1="96.15" x2="101.6" y2="96.85"/>
    <line class="cls-16" x1="103.32" y1="95.71" x2="103.54" y2="96.38"/>
    <line class="cls-16" x1="105.06" y1="94.99" x2="105.38" y2="95.62"/>
    <line class="cls-16" x1="106.67" y1="94.01" x2="107.08" y2="94.57"/>
    <line class="cls-16" x1="108.1" y1="92.78" x2="108.6" y2="93.28"/>
    <line class="cls-16" x1="109.33" y1="91.35" x2="109.89" y2="91.76"/>
    <line class="cls-16" x1="110.31" y1="89.74" x2="110.94" y2="90.06"/>
    <line class="cls-16" x1="111.03" y1="88" x2="111.7" y2="88.21"/>
    <line class="cls-16" x1="111.47" y1="86.17" x2="112.17" y2="86.28"/>
    <line class="cls-16" x1="110.96" y1="81.56" x2="111.97" y2="81.32"/>
    <line class="cls-16" x1="110.39" y1="79.82" x2="111.35" y2="79.42"/>
    <line class="cls-16" x1="109.56" y1="78.19" x2="110.45" y2="77.64"/>
    <line class="cls-16" x1="108.49" y1="76.71" x2="109.28" y2="76.03"/>
    <line class="cls-16" x1="107.19" y1="75.41" x2="107.86" y2="74.62"/>
    <line class="cls-16" x1="105.71" y1="74.34" x2="106.25" y2="73.45"/>
    <line class="cls-16" x1="104.08" y1="73.5" x2="104.47" y2="72.54"/>
    <line class="cls-16" x1="102.33" y1="72.94" x2="102.58" y2="71.92"/>
    <line class="cls-16" x1="100.52" y1="72.65" x2="100.61" y2="71.61"/>
    <line class="cls-16" x1="98.69" y1="72.65" x2="98.61" y2="71.61"/>
    <line class="cls-16" x1="96.88" y1="72.94" x2="96.64" y2="71.92"/>
    <line class="cls-16" x1="95.14" y1="73.5" x2="94.74" y2="72.54"/>
    <line class="cls-16" x1="93.51" y1="74.34" x2="92.96" y2="73.45"/>
    <line class="cls-16" x1="92.03" y1="75.41" x2="91.35" y2="74.62"/>
    <line class="cls-16" x1="90.73" y1="76.71" x2="89.94" y2="76.03"/>
    <line class="cls-16" x1="89.65" y1="78.19" x2="88.77" y2="77.65"/>
    <line class="cls-16" x1="88.82" y1="79.82" x2="87.86" y2="79.42"/>
    <line class="cls-16" x1="88.26" y1="81.56" x2="87.25" y2="81.32"/>
    <line class="cls-16" x1="87.97" y1="83.37" x2="86.93" y2="83.29"/>
    <line class="cls-16" x1="87.97" y1="85.2" x2="86.93" y2="85.29"/>
    <line class="cls-16" x1="88.26" y1="87.01" x2="87.25" y2="87.26"/>
    <line class="cls-16" x1="88.82" y1="88.76" x2="87.86" y2="89.15"/>
    <line class="cls-16" x1="89.65" y1="90.39" x2="88.77" y2="90.93"/>
    <line class="cls-16" x1="90.73" y1="91.87" x2="89.94" y2="92.55"/>
    <line class="cls-16" x1="92.03" y1="93.16" x2="91.35" y2="93.96"/>
    <line class="cls-16" x1="93.51" y1="94.24" x2="92.96" y2="95.13"/>
    <line class="cls-16" x1="95.14" y1="95.07" x2="94.74" y2="96.04"/>
    <line class="cls-16" x1="96.88" y1="95.64" x2="96.64" y2="96.65"/>
    <line class="cls-16" x1="98.69" y1="95.93" x2="98.61" y2="96.97"/>
    <line class="cls-16" x1="100.52" y1="95.93" x2="100.61" y2="96.97"/>
    <line class="cls-16" x1="102.33" y1="95.64" x2="102.58" y2="96.65"/>
    <line class="cls-16" x1="104.08" y1="95.07" x2="104.47" y2="96.04"/>
    <line class="cls-16" x1="105.71" y1="94.24" x2="106.25" y2="95.13"/>
    <line class="cls-16" x1="107.19" y1="93.16" x2="107.86" y2="93.96"/>
    <line class="cls-16" x1="108.48" y1="91.87" x2="109.27" y2="92.55"/>
    <line class="cls-16" x1="109.56" y1="90.39" x2="110.45" y2="90.93"/>
    <line class="cls-16" x1="110.39" y1="88.76" x2="111.35" y2="89.16"/>
    <line class="cls-16" x1="110.96" y1="87.02" x2="111.97" y2="87.26"/>
    <line class="cls-16" x1="111.24" y1="85.21" x2="112.28" y2="85.29"/>
    <path class="cls-10" d="M91.04,84.45c-.19,0-.66-.26-.79-.75-.41,5.57,4.16,10.02,9.39,10.02,2.05,0,3.98-.69,5.53-1.79-1.63,1.21-3.55,1.81-5.66,1.81-5.38,0-9.64-4.07-9.64-9.45s4.36-9.74,9.75-9.74c.56,0,1.15.03,1.66.14,1.53.21,4.06,1.58,5.02,3.08.94,1.38-.66,2.54-.66,2.54-1.16-1.78-3.43-3.36-6.14-3.36-4.31,0-7.36,3.09-7.36,7.39.02-.96-.68-.07-1.09.12"/>
    <path class="cls-18" d="M91.04,84.45c-.19,0-.66-.26-.79-.75-.41,5.57,4.16,10.02,9.39,10.02,2.05,0,3.98-.69,5.53-1.79-1.63,1.21-3.55,1.81-5.66,1.81-5.38,0-9.64-4.07-9.64-9.45s4.36-9.74,9.75-9.74c.56,0,1.15.03,1.66.14,1.53.21,4.06,1.58,5.02,3.08.94,1.38-.66,2.54-.66,2.54-1.16-1.78-3.43-3.36-6.14-3.36-4.31,0-7.36,3.09-7.36,7.39.02-.96-.68-.07-1.09.12Z"/>
    <path class="cls-10" d="M94.21,75.89c1.54-1,3.38-1.58,5.35-1.58,5.46,0,9.87,4.42,9.87,9.87,0,1.91-.54,3.7-1.48,5.21.94-1.51,1.75-3.52,1.75-5.43,0-5.45-4.42-9.87-9.87-9.87-1.97,0-4.08.8-5.62,1.8"/>
    <path class="cls-18" d="M94.21,75.89c1.54-1,3.38-1.58,5.35-1.58,5.46,0,9.87,4.42,9.87,9.87,0,1.91-.54,3.7-1.48,5.21.94-1.51,1.75-3.52,1.75-5.43,0-5.45-4.42-9.87-9.87-9.87-1.97,0-4.08.8-5.62,1.8Z"/>
    <path class="cls-10" d="M107.53,90.02c-1.8,2.45-4.7,4.04-7.97,4.04-5.45,0-9.87-4.42-9.87-9.87,0-2.02.61-3.9,1.65-5.46-1.04,1.56-1.79,3.7-1.79,5.72,0,5.45,4.42,9.87,9.87,9.87,3.27,0,6.31-1.84,8.11-4.29"/>
    <path class="cls-18" d="M107.53,90.02c-1.8,2.45-4.7,4.04-7.97,4.04-5.45,0-9.87-4.42-9.87-9.87,0-2.02.61-3.9,1.65-5.46-1.04,1.56-1.79,3.7-1.79,5.72,0,5.45,4.42,9.87,9.87,9.87,3.27,0,6.31-1.84,8.11-4.29Z"/>
    <path class="cls-10" d="M107.08,78.19c1.31,1.64,2.1,3.73,2.1,6,0,1.26-.24,2.45-.68,3.55.43-1.1.63-3.84.37-4.93-.13-.89-.58-2.84-1.8-4.62"/>
    <path class="cls-18" d="M107.08,78.19c1.31,1.64,2.1,3.73,2.1,6,0,1.26-.24,2.45-.68,3.55.43-1.1.63-3.84.37-4.93-.13-.89-.58-2.84-1.8-4.62Z"/>
    <path class="cls-10" d="M98.16,73.69c.46-.1.93-.15,1.4-.15,5.89,0,10.66,4.77,10.66,10.66s-4.77,10.65-10.66,10.65-10.65-4.77-10.65-10.65c0-1.79.44-3.47,1.22-4.95-1.7,2.55-1.62,4.23-1.62,6.02,0,.47-.49-1.69-.49-1.23,0,7.35,5.91,11.82,11.15,11.89-2.84.35-5.02-.55-4.31-.22,10.32,4.7,18.24-5.94,16.65-10.29-.35-.94.03,1.44-.86,2.01,0,0,.17-.94.22-1.44.19-1.17.03-2.56-.3-3.86-.24-.95-.06,1.5-.12.86-.54-6.16-6.54-9.79-10.88-9.44-.45,0-.92.06-1.4.15"/>
    <path class="cls-18" d="M98.16,73.69c.46-.1.93-.15,1.4-.15,5.89,0,10.66,4.77,10.66,10.66s-4.77,10.65-10.66,10.65-10.65-4.77-10.65-10.65c0-1.79.44-3.47,1.22-4.95-1.7,2.55-1.62,4.23-1.62,6.02,0,.47-.49-1.69-.49-1.23,0,7.35,5.91,11.82,11.15,11.89-2.84.35-5.02-.55-4.31-.22,10.32,4.7,18.24-5.94,16.65-10.29-.35-.94.03,1.44-.86,2.01,0,0,.17-.94.22-1.44.19-1.17.03-2.56-.3-3.86-.24-.95-.06,1.5-.12.86-.54-6.16-6.54-9.79-10.88-9.44-.45,0-.92.06-1.4.15Z"/>
    <path class="cls-24" d="M105.77,84.19c0-3.4-2.78-6.17-6.21-6.17s-6.21,2.76-6.21,6.17,2.78,6.17,6.21,6.17,6.21-2.76,6.21-6.17Z"/>
    <path class="cls-1" d="M92.21,84.22c0-4.02,3.26-7.28,7.28-7.28s7.28,3.26,7.28,7.28-3.26,7.29-7.28,7.29-7.28-3.26-7.28-7.29"/>
    <path class="cls-21" d="M92.21,84.22c0-4.02,3.26-7.28,7.28-7.28s7.28,3.26,7.28,7.28-3.26,7.29-7.28,7.29-7.28-3.26-7.28-7.29Z"/>
    <path class="cls-10" d="M105.15,84.19c0-3.09-2.5-5.59-5.59-5.59s-5.59,2.5-5.59,5.59,2.51,5.59,5.59,5.59,5.59-2.5,5.59-5.59"/>
    <path class="cls-21" d="M105.15,84.19c0-3.09-2.5-5.59-5.59-5.59s-5.59,2.5-5.59,5.59,2.51,5.59,5.59,5.59,5.59-2.5,5.59-5.59Z"/>
    <path class="cls-9" d="M96.86,79.55c.77-.44,1.2-.81,1.2-1.07v-.43c.48-.12.98-.18,1.49-.18s1.01.06,1.49.18v.43c0,.26.43.63,1.2,1.07.76.45,1.31.64,1.53.51.22-.13.38-.22.38-.22.34.36.64.76.9,1.2.26.45.45.9.59,1.38,0,0-.15.09-.38.22-.22.13-.33.69-.33,1.58,0,.88.1,1.45.33,1.58.22.13.38.22.38.22-.14.47-.33.93-.59,1.38-.25.44-.56.84-.9,1.2,0,0-.15-.09-.38-.22-.22-.13-.76.06-1.53.5-.77.44-1.2.82-1.2,1.07v.43c-.48.11-.98.18-1.49.18s-1.01-.06-1.49-.18v-.43c0-.26-.43-.63-1.2-1.07-.76-.45-1.31-.63-1.53-.5-.22.13-.38.22-.38.22-.34-.36-.64-.76-.9-1.2-.26-.44-.45-.9-.59-1.38,0,0,.15-.09.38-.22.22-.13.33-.69.33-1.58,0-.89-.1-1.45-.33-1.57-.22-.13-.38-.22-.38-.22.14-.47.34-.93.59-1.38.26-.44.56-.85.9-1.2,0,0,.15.09.38.22.22.13.76-.06,1.53-.5"/>
    <path class="cls-20" d="M96.86,79.55c.77-.44,1.2-.81,1.2-1.07v-.43c.48-.12.98-.18,1.49-.18s1.01.06,1.49.18v.43c0,.26.43.63,1.2,1.07.76.45,1.31.64,1.53.51.22-.13.38-.22.38-.22.34.36.64.76.9,1.2.26.45.45.9.59,1.38,0,0-.15.09-.38.22-.22.13-.33.69-.33,1.58,0,.88.1,1.45.33,1.58.22.13.38.22.38.22-.14.47-.33.93-.59,1.38-.25.44-.56.84-.9,1.2,0,0-.15-.09-.38-.22-.22-.13-.76.06-1.53.5-.77.44-1.2.82-1.2,1.07v.43c-.48.11-.98.18-1.49.18s-1.01-.06-1.49-.18v-.43c0-.26-.43-.63-1.2-1.07-.76-.45-1.31-.63-1.53-.5-.22.13-.38.22-.38.22-.34-.36-.64-.76-.9-1.2-.26-.44-.45-.9-.59-1.38,0,0,.15-.09.38-.22.22-.13.33-.69.33-1.58,0-.89-.1-1.45-.33-1.57-.22-.13-.38-.22-.38-.22.14-.47.34-.93.59-1.38.26-.44.56-.85.9-1.2,0,0,.15.09.38.22.22.13.76-.06,1.53-.5Z"/>
    <path class="cls-20" d="M102.48,84.21c0-1.62-1.31-2.93-2.93-2.93s-2.94,1.31-2.94,2.93,1.31,2.93,2.94,2.93,2.93-1.31,2.93-2.93Z"/>
    <polygon class="cls-10" points="98.33 84.11 98.57 83.87 98.91 83.87 98.91 84.58 98.54 84.58 98.54 84.3 98.33 84.51 98.11 84.3 98.11 84.58 97.74 84.58 97.74 83.87 98.08 83.87 98.33 84.11"/>
    <polygon class="cls-25" points="98.33 84.11 98.57 83.87 98.91 83.87 98.91 84.58 98.54 84.58 98.54 84.3 98.33 84.51 98.11 84.3 98.11 84.58 97.74 84.58 97.74 83.87 98.08 83.87 98.33 84.11"/>
    <polygon class="cls-10" points="99.63 83.87 99.82 83.87 100.28 84.58 99.91 84.58 99.86 84.5 99.4 84.5 99.35 84.58 98.98 84.58 99.44 83.87 99.63 83.87"/>
    <polygon class="cls-25" points="99.63 83.87 99.82 83.87 100.28 84.58 99.91 84.58 99.86 84.5 99.4 84.5 99.35 84.58 98.98 84.58 99.44 83.87 99.63 83.87"/>
    <polygon class="cls-1" points="99.63 84.33 99.75 84.33 99.63 84.15 99.51 84.33 99.63 84.33"/>
    <polygon class="cls-17" points="99.63 84.33 99.75 84.33 99.63 84.15 99.51 84.33 99.63 84.33"/>
    <polygon class="cls-10" points="101.15 83.87 101.51 83.87 101.51 84.58 101.15 84.58 100.71 84.25 100.71 84.58 100.35 84.58 100.35 83.87 100.71 83.87 101.15 84.19 101.15 83.87"/>
    <polygon class="cls-25" points="101.15 83.87 101.51 83.87 101.51 84.58 101.15 84.58 100.71 84.25 100.71 84.58 100.35 84.58 100.35 83.87 100.71 83.87 101.15 84.19 101.15 83.87"/>
    <path class="cls-6" d="M15.9,73.31v-13.79c0-1.39.36-2.41.36-2.41h0c.06.09.13.15.21.22.19.18.89.81,1.23,1.12.33.31.46.59.46.95v7.06c0,.86-.11,1.58-.6,2.67-.88,1.92-1.3,3.08-1.7,4.37l.04-.19Z"/>
    <path class="cls-15" d="M15.9,73.31v-13.79c0-1.39.36-2.41.36-2.41h0c.06.09.13.15.21.22.19.18.89.81,1.23,1.12.33.31.46.59.46.95v7.06c0,.86-.11,1.58-.6,2.67-.88,1.92-1.3,3.08-1.7,4.37l.04-.19Z"/>
    <path class="cls-15" d="M18.31,85.51s-.51-.11-1.04-.22c-.53-.11-.84-.53-1.02-.78-.18-.25,0-.89,0-.89,0,0-.68-1.9-.8-2.4-.11-.5,0-.92,0-.92,0,0-.59-.36-.59-1.01v-4.05c0-.7.39-1.11.39-1.11,0,0-.25-.11-.25-.5s-.14-19.32.88-44.05c.06-1.35-.24-1.79-.47-2.07-.22-.28-.04-.84.42-1.26.52-.46,2.09-1.54,5.15-1.9"/>
    <path class="cls-6" d="M21,24.35c-3.07.36-4.64,1.44-5.16,1.9-.46.41-.64.98-.42,1.26.22.28.52.72.46,2.07-1.02,24.74-.88,43.67-.88,44.06s.25.5.25.5h.39l.24-.82v-13.79c0-1.4.36-2.41.36-2.41h0c-.1-.16-.17-.4-.19-.92-.04-.86.49-19.88.82-26.5.1-1.92,1.29-4.17,4.26-5.39l-.14.06Z"/>
    <path class="cls-15" d="M21,24.35c-3.07.36-4.64,1.44-5.16,1.9-.46.41-.64.98-.42,1.26.22.28.52.72.46,2.07-1.02,24.74-.88,43.67-.88,44.06s.25.5.25.5h.39l.24-.82v-13.79c0-1.4.36-2.41.36-2.41h0c-.1-.16-.17-.4-.19-.92-.04-.86.49-19.88.82-26.5.1-1.92,1.29-4.17,4.26-5.39l-.14.06Z"/>
    <path class="cls-6" d="M15.46,80.3s-.11.42,0,.92c.11.5.8,2.4.8,2.4,0,0-.18.64,0,.89.18.25.49.67,1.02.78.53.11,1.04.22,1.04.22h.02c-1.06-.49-1.92-3.62-2.19-4.38-.12-.35-.24-.64-.34-.9l-.35.06Z"/>
    <path class="cls-15" d="M15.46,80.3s-.11.42,0,.92c.11.5.8,2.4.8,2.4,0,0-.18.64,0,.89.18.25.49.67,1.02.78.53.11,1.04.22,1.04.22h.02c-1.06-.49-1.92-3.62-2.19-4.38-.12-.35-.24-.64-.34-.9l-.35.06Z"/>
    <path class="cls-6" d="M17.33,84.29c-.27-.52-.51-1.13-.7-1.68"/>
    <path class="cls-15" d="M17.33,84.29c-.27-.52-.51-1.13-.7-1.68"/>
    <polyline class="cls-15" points="142.24 28.34 142.24 88.91 177.37 88.91 177.37 28.34"/>
    <line class="cls-15" x1="159.8" y1="28.34" x2="159.8" y2="88.91"/>
    <path class="cls-1" d="M187.98,64.04h8.29v-30.79h-14.45l-1.21,1.13v24.87s-.05.23.32.3c.36.07,3.59.5,4.55.76.98.26,1.6.7,2.21,3.47.05.24.28.26.28.26"/>
    <path class="cls-26" d="M187.98,64.04h8.29v-30.79h-14.45l-1.21,1.13v24.87s-.05.23.32.3c.36.07,3.59.5,4.55.76.98.26,1.6.7,2.21,3.47.05.24.28.26.28.26Z"/>
    <path class="cls-15" d="M177.77,61.28h5.79c1.73,0,2.57,1.34,2.57,2.51v1.9"/>
    <path class="cls-15" d="M184.97,63.74c0,.67-.54,1.21-1.21,1.21s-1.21-.54-1.21-1.21.54-1.21,1.21-1.21,1.21.54,1.21,1.21Z"/>
    <path class="cls-15" d="M78.08,61.28h5.79c1.73,0,2.57,1.34,2.57,2.51v1.9"/>
    <path class="cls-15" d="M84.39,63.74c0,.67-.54,1.21-1.21,1.21s-1.21-.54-1.21-1.21.54-1.21,1.21-1.21,1.21.54,1.21,1.21Z"/>
  </g>
  <g class="cls-43">
    <rect class="cls-9" x="144.43" y="38.72" width="12.52" height="44.9"/>
  </g>
  <g class="cls-29">
    <path class="cls-15" d="M144.43,59.72c0,.28.09.58.56.58,1.8,0,3.83-.1,4.8.82.54.5.56,1.21.56,2.08v-.17c0,.87-.02,1.58-.56,2.08-.98.92-3,.82-4.8.82-.47,0-.56.3-.56.58v16.61c0,.27.22.48.48.48h11.55c.27,0,.49-.22.49-.48v-43.93c0-.27-.22-.48-.49-.48h-11.55c-.27,0-.48.22-.48.48v20.52Z"/>
    <path class="cls-15" d="M149.12,64c0,.41-.33.74-.74.74s-.74-.33-.74-.74v-1.76c0-.41.33-.74.74-.74s.74.33.74.74v1.76Z"/>
    <path class="cls-15" d="M146.45,63.62c0,.62-.36,1.12-.81,1.12s-.81-.5-.81-1.12.36-1.12.81-1.12.81.5.81,1.12Z"/>
  </g>
  <line class="cls-15" x1="142.24" y1="34.41" x2="177.37" y2="34.41"/>
  <line class="cls-15" x1="142.24" y1="35.65" x2="177.37" y2="35.65"/>
  <line class="cls-15" x1="143.35" y1="35.65" x2="143.35" y2="87.53"/>
  <line class="cls-15" x1="157.81" y1="37.39" x2="157.81" y2="87.53"/>
  <line class="cls-15" x1="143.35" y1="37.39" x2="159.8" y2="37.39"/>
  <line class="cls-15" x1="142.35" y1="87.53" x2="159.8" y2="87.53"/>
  <line class="cls-15" x1="143.35" y1="85.57" x2="157.81" y2="85.57"/>
  <g class="cls-14">
    <rect class="cls-9" x="162.66" y="38.72" width="12.52" height="44.9"/>
  </g>
  <g class="cls-44">
    <path class="cls-15" d="M175.17,59.72c0,.28-.09.58-.56.58-1.8,0-3.83-.1-4.8.82-.54.5-.56,1.21-.56,2.08v-.17c0,.87.02,1.58.56,2.08.98.92,3,.82,4.8.82.47,0,.56.3.56.58v16.61c0,.27-.22.48-.48.48h-11.55c-.27,0-.49-.22-.49-.48v-43.93c0-.27.22-.48.49-.48h11.55c.27,0,.48.22.48.48v20.52Z"/>
    <path class="cls-15" d="M170.49,64c0,.41.33.74.74.74s.74-.33.74-.74v-1.76c0-.41-.33-.74-.74-.74s-.74.33-.74.74v1.76Z"/>
    <path class="cls-15" d="M173.15,63.62c0,.62.36,1.12.81,1.12s.81-.5.81-1.12-.36-1.12-.81-1.12-.81.5-.81,1.12Z"/>
  </g>
  <line class="cls-15" x1="176.25" y1="35.65" x2="176.25" y2="87.53"/>
  <line class="cls-15" x1="161.79" y1="37.39" x2="161.79" y2="87.53"/>
  <line class="cls-15" x1="176.25" y1="37.39" x2="159.8" y2="37.39"/>
  <line class="cls-15" x1="177.26" y1="87.53" x2="159.8" y2="87.53"/>
  <line class="cls-15" x1="176.25" y1="85.57" x2="161.79" y2="85.57"/>
  <polyline class="cls-15" points="78.19 28.34 78.19 88.91 46.44 88.91"/>
  <line class="cls-15" x1="60.62" y1="28.34" x2="60.62" y2="88.91"/>
  <g class="cls-42">
    <rect class="cls-9" x="45.25" y="38.72" width="12.52" height="44.9"/>
  </g>
  <g class="cls-39">
    <path class="cls-15" d="M45.25,59.72c0,.28.09.58.56.58,1.81,0,3.83-.1,4.8.82.53.5.56,1.21.56,2.08v-.17c0,.87-.02,1.58-.56,2.08-.98.92-3,.82-4.8.82-.47,0-.56.3-.56.58v16.61c0,.27.22.48.48.48h11.55c.27,0,.48-.22.48-.48v-43.93c0-.27-.22-.48-.48-.48h-11.55c-.27,0-.48.22-.48.48v20.52Z"/>
    <path class="cls-15" d="M49.94,64c0,.41-.33.74-.74.74s-.74-.33-.74-.74v-1.76c0-.41.33-.74.74-.74s.74.33.74.74v1.76Z"/>
    <path class="cls-15" d="M47.27,63.62c0,.62-.36,1.12-.81,1.12s-.81-.5-.81-1.12.36-1.12.81-1.12.81.5.81,1.12Z"/>
  </g>
  <line class="cls-15" x1="43.06" y1="34.41" x2="78.19" y2="34.41"/>
  <line class="cls-15" x1="43.06" y1="35.65" x2="78.19" y2="35.65"/>
  <line class="cls-15" x1="44.17" y1="35.65" x2="44.17" y2="87.53"/>
  <line class="cls-15" x1="58.63" y1="37.39" x2="58.63" y2="87.53"/>
  <line class="cls-15" x1="44.17" y1="37.39" x2="60.62" y2="37.39"/>
  <line class="cls-15" x1="43.17" y1="87.53" x2="60.62" y2="87.53"/>
  <line class="cls-15" x1="44.17" y1="85.57" x2="58.63" y2="85.57"/>
  <g class="cls-12">
    <rect class="cls-9" x="63.48" y="38.72" width="12.52" height="44.9"/>
  </g>
  <g class="cls-32">
    <path class="cls-15" d="M75.99,59.72c0,.28-.09.58-.56.58-1.81,0-3.83-.1-4.8.82-.54.5-.56,1.21-.56,2.08v-.17c0,.87.02,1.58.56,2.08.98.92,3,.82,4.8.82.47,0,.56.3.56.58v16.61c0,.27-.22.48-.48.48h-11.55c-.27,0-.48-.22-.48-.48v-43.93c0-.27.22-.48.48-.48h11.55c.27,0,.48.22.48.48v20.52Z"/>
    <path class="cls-15" d="M71.31,64c0,.41.33.74.74.74s.74-.33.74-.74v-1.76c0-.41-.33-.74-.74-.74s-.74.33-.74.74v1.76Z"/>
    <path class="cls-15" d="M73.97,63.62c0,.62.36,1.12.81,1.12s.81-.5.81-1.12-.36-1.12-.81-1.12-.81.5-.81,1.12Z"/>
  </g>
  <line class="cls-15" x1="77.07" y1="35.65" x2="77.07" y2="87.53"/>
  <line class="cls-15" x1="62.61" y1="37.39" x2="62.61" y2="87.53"/>
  <line class="cls-15" x1="77.07" y1="37.39" x2="60.62" y2="37.39"/>
  <line class="cls-15" x1="78.08" y1="87.53" x2="60.62" y2="87.53"/>
  <line class="cls-15" x1="77.07" y1="85.57" x2="62.61" y2="85.57"/>
  <line class="cls-15" x1="177.37" y1="65.7" x2="202.37" y2="65.7"/>
  <line class="cls-26" x1="120.5" y1="28.34" x2="120.5" y2="77.02"/>
  <line class="cls-15" x1="90.1" y1="65.7" x2="78.19" y2="65.7"/>
  <line class="cls-15" x1="43.06" y1="65.7" x2="24.07" y2="65.7"/>
  <line class="cls-15" x1="142.24" y1="65.7" x2="109.03" y2="65.7"/>
  <g class="cls-36">
    <path class="cls-7" d="M17.16,58.77s-1.09.53-1.09,3.18v10.3l.18-.66v-9.38c0-1.67,1.21-2.62,1.44-2.74,0,0,.08-.47-.53-.7"/>
    <path class="cls-7" d="M17.84,60.84s-1.37.64-1.37,3.29v7.07l.18-.49v-6.33c0-1.67.95-2.43,1.18-2.55v-.99Z"/>
    <path class="cls-15" d="M15.26,74.13s-.39.42-.39,1.12v4.05c0,.64.59,1.01.59,1.01h.37"/>
    <line class="cls-15" x1="15.9" y1="29.37" x2="16.86" y2="30.12"/>
    <path class="cls-15" d="M139.57,82.24c0,.36-.25.65-.56.65h-3.37c-.31,0-.56-.29-.56-.65v-3.88c0-.36.25-.65.56-.65h3.37c.31,0,.56.29.56.65v3.88Z"/>
    <line class="cls-15" x1="24.07" y1="69.66" x2="24.07" y2="86.28"/>
    <line class="cls-15" x1="26.15" y1="23.41" x2="26.15" y2="27.37"/>
    <path class="cls-15" d="M22.3,76.03c0,.89-.23,1.62-.5,1.62s-.5-.72-.5-1.62.23-1.62.5-1.62.5.72.5,1.62Z"/>
    <rect class="cls-15" x="181.45" y="83.41" width="3.17" height="1.16"/>
    <rect class="cls-15" x="116.45" y="83.41" width="3.17" height="1.16"/>
    <rect class="cls-15" x="79.79" y="83.41" width="3.17" height="1.16"/>
    <rect class="cls-15" x="20.06" y="80.98" width="3.17" height="1.17"/>
    <rect class="cls-15" x="247.38" y="83.41" width="3.17" height="1.16"/>
    <line class="cls-15" x1="120.5" y1="77.02" x2="120.5" y2="89.8"/>
    <path class="cls-4" d="M114.7,84.24c0-8.54-6.75-15.07-15.07-15.07s-15.07,6.53-15.07,15.07c0-8.54,6.75-15.46,15.07-15.46s15.07,6.92,15.07,15.46"/>
    <path class="cls-18" d="M114.7,84.24c0-8.54-6.75-15.07-15.07-15.07s-15.07,6.53-15.07,15.07c0-8.54,6.75-15.46,15.07-15.46s15.07,6.92,15.07,15.46Z"/>
    <polyline class="cls-15" points="43.06 28.34 43.06 88.54 43.06 77.02"/>
    <line class="cls-15" x1="15.15" y1="55.39" x2="24.07" y2="55.39"/>
    <path class="cls-15" d="M21.8,77.64c-.28,0-.5-.72-.5-1.61"/>
    <rect class="cls-11" x="222.03" y="23.15" width=".79" height="66.75"/>
    <rect class="cls-15" x="222.03" y="23.15" width=".79" height="66.75"/>
    <line class="cls-15" x1="225.05" y1="23.41" x2="225.05" y2="91.12"/>
    <line class="cls-15" x1="226.95" y1="23.41" x2="226.95" y2="91.12"/>
    <line class="cls-15" x1="228.85" y1="23.41" x2="228.85" y2="91.12"/>
    <line class="cls-15" x1="230.75" y1="23.41" x2="230.75" y2="91.12"/>
    <line class="cls-15" x1="232.64" y1="23.41" x2="232.64" y2="91.12"/>
    <line class="cls-15" x1="234.54" y1="23.41" x2="234.54" y2="91.12"/>
    <line class="cls-15" x1="236.44" y1="23.41" x2="236.44" y2="91.12"/>
    <line class="cls-15" x1="238.34" y1="23.41" x2="238.34" y2="91.12"/>
    <line class="cls-15" x1="240.23" y1="23.41" x2="240.23" y2="91.12"/>
    <line class="cls-15" x1="242.13" y1="23.41" x2="242.13" y2="91.12"/>
    <line class="cls-15" x1="223.38" y1="23.41" x2="223.38" y2="91.12"/>
    <line class="cls-15" x1="226" y1="27.06" x2="226" y2="88.81"/>
    <line class="cls-15" x1="224.1" y1="27.06" x2="224.1" y2="88.81"/>
    <line class="cls-15" x1="227.9" y1="27.06" x2="227.9" y2="88.81"/>
    <line class="cls-15" x1="229.79" y1="27.06" x2="229.79" y2="88.81"/>
    <line class="cls-15" x1="231.69" y1="27.06" x2="231.69" y2="88.81"/>
    <line class="cls-15" x1="233.59" y1="27.06" x2="233.59" y2="88.81"/>
    <line class="cls-15" x1="235.49" y1="27.06" x2="235.49" y2="88.81"/>
    <line class="cls-15" x1="237.38" y1="27.06" x2="237.38" y2="88.81"/>
    <line class="cls-15" x1="239.28" y1="27.06" x2="239.28" y2="88.81"/>
    <line class="cls-15" x1="241.18" y1="27.06" x2="241.18" y2="88.81"/>
    <line class="cls-15" x1="205.55" y1="27.06" x2="205.55" y2="88.81"/>
    <line class="cls-15" x1="203.65" y1="27.06" x2="203.65" y2="88.81"/>
    <line class="cls-15" x1="207.45" y1="27.06" x2="207.45" y2="88.81"/>
    <line class="cls-15" x1="209.34" y1="27.06" x2="209.34" y2="88.81"/>
    <line class="cls-15" x1="211.24" y1="27.06" x2="211.24" y2="88.81"/>
    <line class="cls-15" x1="213.14" y1="27.06" x2="213.14" y2="88.81"/>
    <line class="cls-15" x1="215.04" y1="27.06" x2="215.04" y2="88.81"/>
    <line class="cls-15" x1="216.93" y1="27.06" x2="216.93" y2="88.81"/>
    <line class="cls-15" x1="218.83" y1="27.06" x2="218.83" y2="88.81"/>
    <line class="cls-15" x1="220.73" y1="27.06" x2="220.73" y2="88.81"/>
    <line class="cls-15" x1="219.78" y1="23.41" x2="219.78" y2="91.12"/>
    <line class="cls-15" x1="217.88" y1="23.41" x2="217.88" y2="91.12"/>
    <line class="cls-15" x1="215.99" y1="23.41" x2="215.99" y2="91.12"/>
    <line class="cls-15" x1="214.09" y1="23.41" x2="214.09" y2="91.12"/>
    <line class="cls-15" x1="212.19" y1="23.41" x2="212.19" y2="91.12"/>
    <line class="cls-15" x1="210.29" y1="23.41" x2="210.29" y2="91.12"/>
    <line class="cls-15" x1="208.39" y1="23.41" x2="208.39" y2="91.12"/>
    <line class="cls-15" x1="206.5" y1="23.41" x2="206.5" y2="91.12"/>
    <line class="cls-15" x1="204.6" y1="23.41" x2="204.6" y2="91.12"/>
    <line class="cls-15" x1="202.7" y1="23.41" x2="202.7" y2="91.12"/>
    <line class="cls-15" x1="221.45" y1="23.41" x2="221.45" y2="91.12"/>
    <path class="cls-15" d="M417.4,78.02c0,.51-.41.92-.92.92s-.92-.41-.92-.92.41-.92.92-.92.92.41.92.92Z"/>
    <path class="cls-9" d="M21.41,24.23l-1.11.13v-1.49c-.19-.17-.11-.24-.11-.52s.13-.41.13-.41c5.14-4.3,6.53-4.3,9.2-4.3h22.29c4.63,0,9.72,5.7,9.72,5.7v.09H26.65c-1.98,0-3.59.29-4.89.76l-.35.04Z"/>
    <path class="cls-15" d="M21.41,24.23l-1.11.13v-1.49c-.19-.17-.11-.24-.11-.52s.13-.41.13-.41c5.14-4.3,6.53-4.3,9.2-4.3h22.29c4.63,0,9.72,5.7,9.72,5.7v.09H26.65c-1.98,0-3.59.29-4.89.76l-.35.04Z"/>
    <path class="cls-6" d="M20.19,22.35c0-.28.13-.41.13-.41,0,0,.11.36.67.36s1.79-.59,3.35-1.07c1.56-.48,2.13-.58,5.14-.58h22.33c2.57,0,5.42,2.68,5.42,2.68v.09h-30.58c-1.98,0-3.59.29-4.89.76l-.35.04-1.11.13v-1.49c-.18-.17-.11-.24-.11-.52"/>
    <path class="cls-15" d="M20.19,22.35c0-.28.13-.41.13-.41,0,0,.11.36.67.36s1.79-.59,3.35-1.07c1.56-.48,2.13-.58,5.14-.58h22.33c2.57,0,5.42,2.68,5.42,2.68v.09h-30.58c-1.98,0-3.59.29-4.89.76l-.35.04-1.11.13v-1.49c-.18-.17-.11-.24-.11-.52Z"/>
    <path class="cls-9" d="M242.32,23.41s.57-5.02.95-7.09c.28-1.51,1.22-1.95,2.29-2.32.73-.26,1.39-.47,1.95-.64,1.45-.45,2.4-.49,4.6-.49h71.49c7.46,0,12.64.89,18.82,3.2,6.18,2.31,16.6,7.3,16.6,7.3l-116.7.05Z"/>
    <path class="cls-15" d="M242.32,23.41s.57-5.02.95-7.09c.28-1.51,1.22-1.95,2.29-2.32.73-.26,1.39-.47,1.95-.64,1.45-.45,2.4-.49,4.6-.49h71.49c7.46,0,12.64.89,18.82,3.2,6.18,2.31,16.6,7.3,16.6,7.3l-116.7.05Z"/>
    <path class="cls-6" d="M352.42,23.41s-5.17-2.21-10.9-4.56c-5.73-2.34-10.95-3.16-18.39-3.16h-71.96c-1.38,0-1.81.07-2.71.3-.89.22-1.22.32-1.82.49-.44.12-.89.26-1.04,1.04-.15.78-.74,5.81-.74,5.81l107.57.09Z"/>
    <path class="cls-15" d="M352.42,23.41s-5.17-2.21-10.9-4.56c-5.73-2.34-10.95-3.16-18.39-3.16h-71.96c-1.38,0-1.81.07-2.71.3-.89.22-1.22.32-1.82.49-.44.12-.89.26-1.04,1.04-.15.78-.74,5.81-.74,5.81l107.57.09Z"/>
    <line class="cls-15" x1="303.34" y1="12.86" x2="303.34" y2="23.37"/>
    <line class="cls-15" x1="293.3" y1="12.86" x2="293.3" y2="23.36"/>
    <path class="cls-9" d="M350.11,19.16l9.12,4.24h51.68s-.18-4.38-5.92-4.38h-53.24c-.61,0-1.16.05-1.65.14"/>
    <path class="cls-15" d="M350.11,19.16l9.12,4.24h51.68s-.18-4.38-5.92-4.38h-53.24c-.61,0-1.16.05-1.65.14"/>
    <path class="cls-3" d="M430.31,31.46h-.7v1.38h.71v-.62l.84.62h.71v-1.38h-.71v.63l-.85-.63ZM428.59,31.46h-.76l-.9,1.38h.74l.1-.15h.88l.1.15h.73l-.9-1.38ZM428.42,32.32h-.41l.21-.32.21.32ZM425.2,31.46h-.67v1.38h.71v-.54l.43.42.42-.42v.54h.71v-1.38h-.67l-.47.47-.47-.47Z"/>
    <path class="cls-11" d="M436.98,32.33s-.01,0-.01-.02l.02-.07s.01-.02.02-.02h.16s.01,0,.01.02l-.02.07s-.01.02-.02.02h-.16Z"/>
    <path class="cls-11" d="M436.85,32.23h0c-.21,0-.35,0-.35,0-.04,0-.1.03-.13.13-.01.04-.03.09-.04.13-.02.07-.04.14-.04.17-.01.05-.03.16.06.17,0,0,.14.01.35,0,0,0,.02,0,.02-.02l.02-.07s0-.02-.01-.02h-.2s-.05-.02-.04-.06c0-.02.02-.09.04-.16.02-.05.03-.11.04-.12,0-.03.03-.06.08-.06h.18s.02,0,.02-.02v-.06s.01-.02,0-.02"/>
    <path class="cls-11" d="M433.03,32.23s-.02,0-.02.02l-.15.56s0,.02.01.02h.43s.02,0,.02-.02l.02-.06s0-.02-.01-.02h-.22s-.01,0-.01-.02l.13-.47s0-.02-.01-.02h-.17Z"/>
    <path class="cls-11" d="M433.52,32.38s-.02,0-.02.02l-.11.41s0,.02.01.02h.16s.02,0,.02-.02l.11-.41s0-.02-.01-.02h-.16Z"/>
    <path class="cls-11" d="M433.54,32.33s-.02,0-.01-.02l.02-.07s.01-.02.02-.02h.17s.01,0,.01.02l-.02.07s-.01.02-.02.02h-.16Z"/>
    <path class="cls-11" d="M435.08,32.24s-.07.23-.07.24c0,0,0,.01,0,.01h.05s.02,0,.02-.01c0-.01,0-.02.01-.03.02-.03.05-.07.09-.09,0,0,.02-.01.04-.02,0,0,0,0,.01-.02,0-.01.02-.08.02-.08,0,0,0-.01-.01-.01h-.16s-.02,0-.02.01"/>
    <path class="cls-11" d="M434.25,32.38c-.21,0-.37,0-.37,0-.09,0-.11.06-.12.12-.01.05-.03.09-.05.19-.02.09,0,.13.05.13h.02s.19,0,.33,0h.01s0,0,0,0c.09,0,.1-.06.11-.11.02-.05.04-.13.06-.22.02-.08,0-.11-.05-.11M434.11,32.52s-.05.16-.06.19c0,.02-.02.04-.05.04h-.09s-.02-.02-.01-.06c.01-.04.05-.15.05-.17,0-.02.01-.04.04-.04h.09s.03,0,.02.05"/>
    <path class="cls-11" d="M435.75,32.38h-.01c-.17,0-.3,0-.35,0h0c-.09,0-.11.09-.13.19-.02.1.04.09.08.09h.18s.03.04.02.05c0,.02-.02.03-.04.03h-.27s-.02,0-.02.01v.04s0,.02,0,.02h0c.2,0,.37,0,.37,0h0c.06,0,.09-.02.12-.05.02-.02.03-.08.04-.15.01-.08-.03-.08-.06-.08h-.19c-.05,0-.03-.04-.03-.05,0-.01,0-.03.04-.03h.24s.02,0,.02-.02v-.05s0-.02,0-.02"/>
    <path class="cls-11" d="M434.85,32.38c-.26,0-.4,0-.4,0h0s-.02,0-.02.02l-.11.41s0,.02.01.02h.16s.02,0,.02-.02c0,0,.07-.23.08-.29.01-.05.04-.06.05-.06h.07s.04.02.03.06c-.01.04-.08.28-.08.28,0,0,0,.02.01.02h.16s.02,0,.02-.02c0,0,.05-.17.08-.28.03-.11-.04-.14-.09-.14"/>
    <path class="cls-11" d="M436.96,32.38s-.02,0-.02.02l-.11.41s0,.02.01.02h.16s.02,0,.02-.02l.11-.41s0-.02-.01-.02h-.16Z"/>
    <path class="cls-11" d="M437.36,32.24s.01-.02.02-.02h.16s.01,0,.01.02l-.03.12s0,.02.01.02h.13s.02,0,.01.02v.05s-.02.02-.03.02h-.13s-.02,0-.02.02c0,0-.05.18-.06.21,0,.03-.01.04.02.04h.12s.01,0,.01.02v.05s-.03.02-.03.02h-.23s-.12,0-.08-.14c.04-.14.06-.2.06-.2,0,0,0-.02-.01-.02h-.05s-.01,0-.01-.02l.02-.05s.01-.02.02-.02h.05s.02,0,.02-.02l.03-.12Z"/>
    <path class="cls-11" d="M437.77,32.4s.01-.02.02-.02h.16s.02,0,.01.02c0,0-.06.22-.07.27-.01.04-.02.07.01.07h.07s.04,0,.05-.05c.02-.05.08-.28.08-.28,0,0,.01-.02.02-.02h.15s.02,0,.01.02c0,0-.1.36-.12.44-.02.08-.06.14-.14.14h-.39s-.01,0-.01-.02l.02-.05s.01-.01.02-.01h.25s.06-.07.06-.07c0,0,0-.02,0-.02h-.2s-.12-.02-.08-.15c.04-.13.07-.26.07-.26"/>
  </g>
</svg>